<svg viewBox="0 0 1200 900" fill="none" xmlns="http://www.w3.org/2000/svg"><path fill="#fff" d="M0 0h1200v900H0z"></path><path fill-rule="evenodd" clip-rule="evenodd" d="M780 744.599v42.402a3.956 3.956 0 01-.304 1.53 4.095 4.095 0 01-.867 1.297 4.028 4.028 0 01-.943.699 3.836 3.836 0 01-.724.3 4.082 4.082 0 01-.769.153c-.131.013-.261.02-.392.02H422.999a3.942 3.942 0 01-.78-.077 4.082 4.082 0 01-1.442-.597 4.013 4.013 0 01-1.758-2.933 3.956 3.956 0 01-.019-.392v-42.402a3.942 3.942 0 01.172-1.161 3.965 3.965 0 01.999-1.667 4.028 4.028 0 01.943-.699 3.836 3.836 0 01.724-.3 4.082 4.082 0 01.769-.153c.13-.013.261-.019.392-.019h353.002a3.956 3.956 0 011.53.304 3.836 3.836 0 01.692.37 3.765 3.765 0 01.606.497 4.013 4.013 0 01.999 1.667 3.836 3.836 0 01.153.769c.013.13.019.261.019.392z" fill="#7C7C7C"></path><path fill-rule="evenodd" clip-rule="evenodd" d="M470.212 751.52H708.64v6.72H470.212v-6.72z" fill="#D8D8D8"></path><path fill-rule="evenodd" clip-rule="evenodd" d="M429.914 751.52h15.112v6.72h-15.112v-6.72z" fill="#D7D7D7"></path><path fill-rule="evenodd" clip-rule="evenodd" d="M742.221 751.52h6.716v6.72h-6.716v-6.72z" fill="#D7D400"></path><path fill-rule="evenodd" clip-rule="evenodd" d="M732.147 751.52h6.716v6.72h-6.716v-6.72z" fill="#FF3C00"></path><path fill-rule="evenodd" clip-rule="evenodd" d="M753.975 751.52h15.111v6.72h-15.111v-6.72z" fill="#00CD00"></path><path fill-rule="evenodd" clip-rule="evenodd" d="M470.212 762.439H708.64v6.72H470.212v-6.72z" fill="#D8D8D8"></path><path fill-rule="evenodd" clip-rule="evenodd" d="M429.914 762.439h15.112v6.72h-15.112v-6.72z" fill="#D7D7D7"></path><path fill-rule="evenodd" clip-rule="evenodd" d="M742.221 762.439h6.716v6.72h-6.716v-6.72z" fill="#D7D400"></path><path fill-rule="evenodd" clip-rule="evenodd" d="M732.147 762.439h6.716v6.72h-6.716v-6.72z" fill="#FF3C00"></path><path fill-rule="evenodd" clip-rule="evenodd" d="M753.975 762.439h15.111v6.72h-15.111v-6.72z" fill="#00CD00"></path><path fill-rule="evenodd" clip-rule="evenodd" d="M470.212 773.359H708.64v6.72H470.212v-6.72z" fill="#D8D8D8"></path><path fill-rule="evenodd" clip-rule="evenodd" d="M429.914 773.359h15.112v6.72h-15.112v-6.72z" fill="#D7D7D7"></path><path fill-rule="evenodd" clip-rule="evenodd" d="M742.221 773.359h6.716v6.72h-6.716v-6.72z" fill="#D7D400"></path><path fill-rule="evenodd" clip-rule="evenodd" d="M732.147 773.359h6.716v6.72h-6.716v-6.72z" fill="#FF3C00"></path><path fill-rule="evenodd" clip-rule="evenodd" d="M753.975 773.359h15.111v6.72h-15.111v-6.72z" fill="#00CD00"></path><path fill-rule="evenodd" clip-rule="evenodd" d="M780 115.584v612.832a7.688 7.688 0 01-.172 1.621 7.053 7.053 0 01-.3 1.011 6.344 6.344 0 01-.436.911 4.888 4.888 0 01-.869 1.1 3.62 3.62 0 01-1.061.701 2.962 2.962 0 01-.381.132 2.876 2.876 0 01-.78.108H422.999a2.858 2.858 0 01-.78-.108 2.962 2.962 0 01-.381-.132 3.62 3.62 0 01-1.061-.701 4.888 4.888 0 01-.869-1.1 6.344 6.344 0 01-.436-.911 6.872 6.872 0 01-.3-1.011 7.42 7.42 0 01-.172-1.621V115.584a7.668 7.668 0 01.304-2.137 6.21 6.21 0 01.604-1.405 5.337 5.337 0 01.554-.774 4.253 4.253 0 01.652-.609 3.62 3.62 0 01.724-.419 3.129 3.129 0 01.769-.213c.13-.018.261-.027.392-.027h353.002a2.87 2.87 0 01.78.107 3.129 3.129 0 01.75.318 3.62 3.62 0 01.692.516 4.907 4.907 0 01.869 1.101 5.918 5.918 0 01.436.91 7.214 7.214 0 01.395 1.543 8.087 8.087 0 01.077 1.089z" fill="#7C7C7C"></path><path fill-rule="evenodd" clip-rule="evenodd" d="M431.998 140h335.004a1.435 1.435 0 01.58.125 1.705 1.705 0 01.53.362 2.327 2.327 0 01.434.571 3.096 3.096 0 01.302.728 3.718 3.718 0 01.114.542c.013.093.022.187.028.281.007.094.01.189.01.284v558.214c0 .095-.003.189-.01.284a3.764 3.764 0 01-.142.823 3.334 3.334 0 01-.433.938 2.183 2.183 0 01-.146.191 1.96 1.96 0 01-.325.315 1.996 1.996 0 01-.177.122 1.734 1.734 0 01-.375.165 1.31 1.31 0 01-.194.04c-.065.01-.131.015-.196.015H431.998c-.065 0-.131-.005-.196-.015a1.31 1.31 0 01-.384-.109 1.806 1.806 0 01-.53-.364 2.14 2.14 0 01-.303-.359 2.853 2.853 0 01-.349-.683 3.334 3.334 0 01-.15-.523 4.272 4.272 0 01-.076-.556 3.85 3.85 0 01-.01-.284V142.893a4.38 4.38 0 01.038-.565 4.154 4.154 0 01.114-.542 3.51 3.51 0 01.185-.5c.036-.079.075-.155.117-.228a2.59 2.59 0 01.434-.571 1.895 1.895 0 01.53-.362 1.4 1.4 0 01.384-.111c.065-.009.131-.014.196-.014z" fill="#fff"></path><path fill-rule="evenodd" clip-rule="evenodd" d="M429.914 124.08h339.172v6.72H429.914v-6.72zm0 589.64h339.172v6.72H429.914v-6.72z" fill="#D7D7D7"></path><path d="M459.063 169v-12.233h4.898c.9 0 1.651.134 2.252.4.601.267 1.053.638 1.356 1.111.302.47.454 1.012.454 1.625 0 .478-.096.898-.287 1.26a2.472 2.472 0 01-.788.884 3.226 3.226 0 01-1.135.484v.12a2.792 2.792 0 012.305 1.415c.255.434.383.952.383 1.553 0 .649-.162 1.229-.484 1.738-.319.506-.791.906-1.416 1.201-.625.295-1.396.442-2.311.442h-5.227zm2.587-2.114h2.108c.721 0 1.246-.138 1.577-.413.33-.278.496-.649.496-1.111 0-.338-.082-.637-.245-.896a1.676 1.676 0 00-.699-.609c-.299-.147-.655-.221-1.069-.221h-2.168v3.25zm0-5h1.917c.354 0 .669-.062.944-.185.278-.127.497-.307.657-.538.163-.231.245-.507.245-.83 0-.442-.158-.798-.472-1.069-.311-.271-.753-.406-1.326-.406h-1.965v3.028zm7.86 7.114v-12.233h4.826c.924 0 1.713.166 2.366.496.657.327 1.156.79 1.499 1.392.346.597.519 1.3.519 2.108 0 .813-.175 1.511-.525 2.097-.351.581-.858 1.027-1.523 1.338-.661.31-1.462.466-2.401.466h-3.232v-2.079h2.813c.494 0 .904-.068 1.231-.203a1.47 1.47 0 00.729-.609c.163-.271.244-.608.244-1.01 0-.406-.081-.748-.244-1.027a1.504 1.504 0 00-.735-.633c-.327-.148-.739-.221-1.237-.221h-1.744V169h-2.586zm6.606-5.567l3.04 5.567h-2.855l-2.974-5.567h2.789zm15-.549c0 1.334-.253 2.468-.759 3.404-.501.936-1.186 1.651-2.054 2.145-.864.489-1.836.734-2.915.734-1.087 0-2.063-.247-2.927-.74-.864-.494-1.547-1.209-2.049-2.145-.501-.935-.752-2.068-.752-3.398 0-1.334.251-2.469.752-3.405.502-.936 1.185-1.649 2.049-2.138.864-.494 1.84-.741 2.927-.741 1.079 0 2.051.247 2.915.741.868.489 1.553 1.202 2.054 2.138.506.936.759 2.071.759 3.405zm-2.622 0c0-.864-.13-1.593-.388-2.186-.255-.594-.616-1.044-1.082-1.35-.465-.307-1.011-.46-1.636-.46s-1.171.153-1.637.46c-.466.306-.828.756-1.087 1.35-.255.593-.382 1.322-.382 2.186 0 .864.127 1.592.382 2.186.259.593.621 1.043 1.087 1.35.466.306 1.012.46 1.637.46s1.171-.154 1.636-.46c.466-.307.827-.757 1.082-1.35.258-.594.388-1.322.388-2.186zm3.864 6.116v-12.233h2.587v5.394h.161l4.402-5.394h3.1l-4.539 5.478 4.593 6.755h-3.094l-3.351-5.029-1.272 1.553V169h-2.587zm10.924 0v-12.233h8.242v2.133h-5.656v2.914h5.232v2.133h-5.232v2.921h5.68V169h-8.266zm9.625 0v-12.233h4.826c.924 0 1.713.166 2.366.496.657.327 1.157.79 1.499 1.392.346.597.52 1.3.52 2.108 0 .813-.176 1.511-.526 2.097-.35.581-.858 1.027-1.523 1.338-.661.31-1.461.466-2.401.466h-3.232v-2.079h2.814c.493 0 .904-.068 1.23-.203.327-.135.57-.339.729-.609.163-.271.245-.608.245-1.01 0-.406-.082-.748-.245-1.027a1.496 1.496 0 00-.735-.633c-.326-.148-.739-.221-1.236-.221h-1.744V169h-2.587zm6.606-5.567l3.041 5.567h-2.855l-2.975-5.567h2.789zm12.229-6.666V169h-2.587v-9.778h-.071l-2.802 1.756v-2.293l3.029-1.918h2.431z" fill="#919191"></path><path d="M739.109 178H459.891c-6.567 0-11.891 5.324-11.891 11.891v482.218c0 6.567 5.324 11.891 11.891 11.891h279.218c6.567 0 11.891-5.324 11.891-11.892V189.891c0-6.567-5.324-11.891-11.891-11.891z" fill="#EEF8F9" stroke="#D9EFF2" stroke-width="2"></path><path fill-rule="evenodd" clip-rule="evenodd" d="M459 327.606a8.184 8.184 0 018.184-8.183h265.748a8.183 8.183 0 018.183 8.183v224.21a8.184 8.184 0 01-8.183 8.184H467.184a8.184 8.184 0 01-8.184-8.184v-224.21z" fill="#FCF3CF"></path><path d="M548.933 416.596h-65.769l22.716-22.5 10.168 9.952 10.169-9.952 22.716 22.5z" fill="#FFD25B"></path><path d="M549.366 416.163v-45.865L526 393.231l23.366 22.932zm-66.635 0v-45.865l23.365 22.933-23.365 22.932z" fill="#F2C357"></path><path d="M548.933 371.163h-65.769l32.452 32.452 33.317-32.452z" fill="#F0BB42"></path><path d="M549.188 369h-66.737c-.87 0-1.451.725-1.451 1.45v46.426c0 .87.581 1.451 1.451 1.451h66.738c.87 0 1.451-.581 1.451-1.451l-.001-46.426c0-.725-.58-1.45-1.451-1.45zm-65.287 4.932l19.732 19.732-19.732 19.731v-39.463zm31.918 27.856l-29.886-29.886h59.774l-29.888 29.886zm-10.155-6.093l9.14 9.14c.29.29.725.435 1.015.435.436 0 .726-.145 1.016-.435l9.14-9.14 19.73 19.731h-59.772l19.731-19.731zm22.342-2.031l19.732-19.732v39.462l-19.732-19.73z" fill="#000"></path><path d="M632.01 416.596h-65.769l22.716-22.5 10.168 9.952 10.169-9.952 22.716 22.5z" fill="#FFD25B"></path><path d="M632.443 416.163v-45.865l-23.366 22.933 23.366 22.932zm-66.635 0v-45.865l23.365 22.933-23.365 22.932z" fill="#F2C357"></path><path d="M632.01 371.163h-65.769l32.452 32.452 33.317-32.452z" fill="#F0BB42"></path><path d="M632.265 369h-66.737c-.87 0-1.451.725-1.451 1.45v46.426c0 .87.581 1.451 1.451 1.451h66.738c.87 0 1.451-.581 1.451-1.451l-.001-46.426c0-.725-.58-1.45-1.451-1.45zm-65.287 4.932l19.732 19.732-19.732 19.731v-39.463zm31.918 27.856l-29.886-29.886h59.774l-29.888 29.886zm-10.156-6.093l9.141 9.14c.29.29.725.435 1.015.435.436 0 .726-.145 1.016-.435l9.14-9.14 19.73 19.731H569.01l19.73-19.731zm22.343-2.031l19.732-19.732v39.462l-19.732-19.73z" fill="#000"></path><path d="M471.819 298.098v-2.513h11.839v2.513h-4.413V310h-3.012v-11.902h-4.414zm16.376 12.113c-1.093 0-2.038-.232-2.836-.697a4.762 4.762 0 01-1.837-1.956c-.432-.84-.648-1.814-.648-2.921 0-1.117.216-2.093.648-2.929a4.702 4.702 0 011.837-1.956c.798-.47 1.743-.704 2.836-.704 1.094 0 2.037.234 2.83.704a4.693 4.693 0 011.844 1.956c.432.836.648 1.812.648 2.929 0 1.107-.216 2.081-.648 2.921a4.753 4.753 0 01-1.844 1.956c-.793.465-1.736.697-2.83.697zm.015-2.323c.497 0 .912-.14 1.245-.422.334-.286.585-.676.754-1.168.173-.493.26-1.054.26-1.683 0-.628-.087-1.189-.26-1.682-.169-.493-.42-.882-.754-1.168-.333-.287-.748-.43-1.245-.43-.503 0-.925.143-1.267.43-.338.286-.594.675-.768 1.168-.169.493-.253 1.054-.253 1.682 0 .629.084 1.19.253 1.683.174.492.43.882.768 1.168.342.282.764.422 1.267.422zm6.583 6.166v-14.865h2.956v1.816h.134c.131-.291.321-.587.57-.887.254-.305.582-.559.986-.761.408-.206.915-.309 1.52-.309.788 0 1.516.206 2.182.619.666.408 1.199 1.025 1.598 1.851.399.822.598 1.852.598 3.09 0 1.206-.195 2.225-.584 3.055-.385.826-.911 1.452-1.577 1.879a4.042 4.042 0 01-2.224.634c-.582 0-1.077-.096-1.485-.289a3.062 3.062 0 01-.993-.725 3.656 3.656 0 01-.591-.894h-.091v5.786h-2.999zm2.935-9.46c0 .643.089 1.204.268 1.683.178.478.436.851.774 1.119.338.262.748.394 1.232.394.488 0 .901-.134 1.238-.401.338-.273.594-.648.768-1.127.178-.483.267-1.039.267-1.668 0-.624-.087-1.173-.26-1.647-.174-.474-.43-.844-.767-1.112-.338-.267-.754-.401-1.246-.401-.488 0-.901.129-1.239.387-.333.258-.589.624-.767 1.098-.179.474-.268 1.032-.268 1.675zm8.935 5.406v-10.811h2.998V310h-2.998zm1.506-12.205c-.446 0-.828-.148-1.147-.444a1.434 1.434 0 01-.472-1.076c0-.413.157-.768.472-1.063a1.612 1.612 0 011.147-.451c.446 0 .826.15 1.14.451.319.295.479.65.479 1.063 0 .417-.16.776-.479 1.076a1.602 1.602 0 01-1.14.444zm8.106 12.416c-1.108 0-2.06-.234-2.858-.704a4.759 4.759 0 01-1.83-1.971c-.423-.839-.634-1.806-.634-2.899 0-1.108.214-2.079.641-2.915a4.756 4.756 0 011.837-1.963c.793-.474 1.736-.711 2.829-.711.944 0 1.77.171 2.478.514a4.13 4.13 0 011.682 1.443c.413.619.641 1.346.683 2.182h-2.829c-.08-.54-.291-.974-.634-1.303-.338-.333-.781-.499-1.33-.499-.465 0-.871.126-1.218.38-.343.248-.61.612-.802 1.091-.193.478-.289 1.058-.289 1.738 0 .69.094 1.277.282 1.76.192.483.462.852.809 1.105.347.253.753.38 1.218.38.342 0 .65-.07.922-.211a1.79 1.79 0 00.683-.612c.183-.273.302-.599.359-.979h2.829c-.047.826-.272 1.553-.676 2.182a4.083 4.083 0 01-1.654 1.464c-.704.352-1.537.528-2.498.528zm12.53-.211h-3.266l4.976-14.415h3.928L539.412 310h-3.266l-3.611-11.121h-.113L528.805 310zm-.205-5.666h7.715v2.379H528.6v-2.379z" fill="#1A1A1A"></path><path d="M660.678 194.182a2.216 2.216 0 00-1.594-.668 2.196 2.196 0 00-1.582.668h-.011a2.283 2.283 0 00-.661 1.618 2.279 2.279 0 00.654 1.614l.011.012a2.199 2.199 0 001.582.661c.627 0 1.189-.25 1.594-.661l.004-.012c.406-.407.645-.976.645-1.614a2.292 2.292 0 00-.652-1.617h.003l.007-.001zm-1.594 31.304c.627 0 1.189-.259 1.594-.666l.005-.012c.405-.405.645-.979.645-1.609 0-.645-.248-1.208-.645-1.621h-.005a2.203 2.203 0 00-1.594-.671 2.174 2.174 0 00-1.582.671h-.011a2.31 2.31 0 00-.654 1.621c-.003.602.232 1.18.654 1.609l.011.012a2.214 2.214 0 001.582.666zm12.244-6.928a2.224 2.224 0 001.369-1.062l.041-.08c.266-.51.329-1.102.178-1.656a2.224 2.224 0 00-1.048-1.391l-.031-.021a2.206 2.206 0 00-1.673-.205 2.204 2.204 0 00-1.367 1.066 2.334 2.334 0 00-.227 1.737c.155.583.53 1.082 1.047 1.392h.004a2.182 2.182 0 001.708.215l-.001.005zm-9.945-11.395a3.233 3.233 0 00-2.305-.974 3.21 3.21 0 00-2.3.973 3.32 3.32 0 00-.949 2.34 3.356 3.356 0 00.949 2.35 3.22 3.22 0 002.293.968c.893 0 1.715-.373 2.305-.968a3.363 3.363 0 00.95-2.35 3.32 3.32 0 00-.95-2.34l.007.001zm-1.29-3.897a6.14 6.14 0 013.38 1.777h.007c.144.147.281.302.41.463l2.244-1.321a4.94 4.94 0 01-.073-2.807 4.888 4.888 0 012.258-2.99l.038-.025a4.761 4.761 0 013.639-.475 4.847 4.847 0 012.938 2.293v.004a5.002 5.002 0 01.485 3.738 4.881 4.881 0 01-2.258 2.994l-.307.185h-.031a4.796 4.796 0 01-5.69-1.154l-2.241 1.317a6.456 6.456 0 010 4.471l2.241 1.313a4.813 4.813 0 012.348-1.465 4.709 4.709 0 013.68.496l.074.035v.004a4.911 4.911 0 012.184 2.959 4.993 4.993 0 01-.485 3.735l-.04.082h-.005a4.886 4.886 0 01-2.897 2.23 4.807 4.807 0 01-3.68-.493v-.009a4.907 4.907 0 01-2.259-2.992 4.935 4.935 0 01.073-2.803l-2.243-1.317a6.114 6.114 0 01-.41.456l-.008.007a6.109 6.109 0 01-3.379 1.767v2.637a4.8 4.8 0 012.42 1.338l.003.008a4.945 4.945 0 011.419 3.483 4.938 4.938 0 01-1.419 3.475l-.003.015a4.834 4.834 0 01-3.428 1.436 4.803 4.803 0 01-3.423-1.444h-.003v-.015a4.939 4.939 0 01-1.421-3.476c0-1.36.544-2.596 1.421-3.483v-.007h.003a4.713 4.713 0 012.418-1.338v-2.638a6.04 6.04 0 01-3.368-1.766l-.009-.007a6.36 6.36 0 01-1.829-4.463c0-1.742.701-3.317 1.82-4.46h.009a6.126 6.126 0 013.377-1.776v-2.627a4.877 4.877 0 01-2.418-1.342h-.004v-.007a4.96 4.96 0 01-1.421-3.484 4.965 4.965 0 011.421-3.483l.011-.003a4.752 4.752 0 013.416-1.448c1.336 0 2.546.552 3.429 1.448v.003h.003a4.968 4.968 0 011.419 3.483 4.972 4.972 0 01-1.419 3.483l-.003.008a4.873 4.873 0 01-2.421 1.341v2.627l.007.007zm12.602-1.752l-.018-.029a2.26 2.26 0 00-1.35-1.037 2.205 2.205 0 00-1.711.227h.003a2.265 2.265 0 00-1.05 1.391 2.32 2.32 0 00.226 1.737l.01.015c.311.537.805.899 1.357 1.045a2.17 2.17 0 001.704-.224l.029-.014a2.326 2.326 0 00.8-3.111zm9.956.772h2.504v7.777l3.61-4.064h3.01l-4.359 4.709 4.363 5.958h-2.867l-3.764-5.33v5.33h-2.504v-14.388l.007.008zm12.017 9.089c0 1.324.936 3.249 3.192 3.249 1.395 0 2.313-.739 2.79-1.709.249-.471.364-.974.402-1.505a3.383 3.383 0 00-.288-1.501c-.438-1.009-1.413-1.883-2.922-1.883-2.025 0-3.173 1.67-3.173 3.324v.018l-.001.007zm8.867 5.291h-2.505v-1.536c-.666 1.242-2.062 1.866-3.534 1.866-3.364 0-5.332-2.666-5.332-5.678 0-3.363 2.388-5.657 5.332-5.657 1.91 0 3.076 1.031 3.534 1.887v-1.557h2.505v10.675zm2.836-8.71h-1.29v-1.964h1.29v-.602c0-3.172 2.37-3.363 4.167-3.384v1.961c-.632 0-1.662 0-1.662 1.501v.523h1.662v1.963h-1.662v8.712h-2.505v-8.71zm5.877-5.678h2.502v7.778l3.612-4.064h3.01l-4.359 4.709 4.367 5.965h-2.867l-3.764-5.33v5.33h-2.502v-14.388h.001zm12.024 9.097c0 1.324.936 3.249 3.192 3.249 1.393 0 2.312-.739 2.795-1.709.251-.471.358-.974.403-1.505a3.397 3.397 0 00-.289-1.501c-.43-1.009-1.412-1.883-2.922-1.883-2.025 0-3.173 1.67-3.173 3.324v.018l-.006.007zm8.858 5.291h-2.504v-1.536c-.668 1.242-2.064 1.866-3.534 1.866-3.363 0-5.33-2.666-5.33-5.678 0-3.363 2.387-5.657 5.33-5.657 1.91 0 3.076 1.031 3.534 1.887v-1.557h2.504v10.675z" fill="#1A464C"></path><path fill-rule="evenodd" clip-rule="evenodd" d="M74 379c0-5.523 4.477-10 10-10h250c5.523 0 10 4.477 10 10v92c0 5.523-4.477 10-10 10H84c-5.523 0-10-4.477-10-10v-92z" fill="#53777A"></path><path d="M108.96 442v-34.051h13.434c2.582 0 4.783.493 6.6 1.48 1.818.975 3.204 2.333 4.157 4.073.964 1.729 1.446 3.725 1.446 5.986 0 2.261-.487 4.256-1.463 5.985-.975 1.729-2.388 3.076-4.239 4.041-1.84.964-4.068 1.446-6.684 1.446h-8.563v-5.769h7.399c1.385 0 2.527-.239 3.425-.715.909-.488 1.585-1.159 2.028-2.012.455-.865.682-1.857.682-2.976 0-1.131-.227-2.117-.682-2.96-.443-.853-1.119-1.513-2.028-1.978-.909-.477-2.062-.715-3.458-.715h-4.855V442h-7.199zm29.507 0v-25.538h6.867v4.456h.266c.466-1.585 1.247-2.782 2.344-3.592 1.098-.82 2.361-1.23 3.791-1.23.355 0 .737.022 1.147.067.41.044.771.105 1.081.182v6.285c-.332-.1-.792-.188-1.38-.266a12.49 12.49 0 00-1.613-.116c-1.042 0-1.973.227-2.793.681a5.031 5.031 0 00-1.929 1.863c-.465.798-.698 1.718-.698 2.76V442h-7.083zm28.835.499c-2.583 0-4.817-.549-6.701-1.646-1.873-1.109-3.32-2.649-4.339-4.622-1.02-1.984-1.53-4.284-1.53-6.9 0-2.638.51-4.944 1.53-6.917 1.019-1.984 2.466-3.525 4.339-4.622 1.884-1.108 4.118-1.663 6.701-1.663 2.582 0 4.81.555 6.683 1.663 1.885 1.097 3.337 2.638 4.357 4.622 1.019 1.973 1.529 4.279 1.529 6.917 0 2.616-.51 4.916-1.529 6.9-1.02 1.973-2.472 3.513-4.357 4.622-1.873 1.097-4.101 1.646-6.683 1.646zm.033-5.487c1.175 0 2.156-.332 2.943-.998.787-.676 1.38-1.596 1.779-2.759.41-1.164.615-2.489.615-3.974 0-1.486-.205-2.81-.615-3.974-.399-1.164-.992-2.084-1.779-2.76-.787-.676-1.768-1.014-2.943-1.014-1.186 0-2.184.338-2.993 1.014-.798.676-1.402 1.596-1.812 2.76-.399 1.164-.599 2.488-.599 3.974 0 1.485.2 2.81.599 3.974.41 1.163 1.014 2.083 1.812 2.759.809.666 1.807.998 2.993.998zm25.879 5.404c-1.94 0-3.697-.499-5.271-1.497-1.563-1.008-2.804-2.488-3.724-4.439-.909-1.962-1.363-4.367-1.363-7.216 0-2.926.471-5.359 1.413-7.299.942-1.951 2.195-3.408 3.757-4.373a9.633 9.633 0 015.171-1.463c1.43 0 2.622.244 3.575.732.964.476 1.74 1.075 2.328 1.796.598.709 1.053 1.407 1.363 2.094h.216v-12.802h7.066V442h-6.983v-4.09h-.299c-.333.709-.804 1.413-1.413 2.111-.599.688-1.38 1.259-2.345 1.713-.953.454-2.117.682-3.491.682zm2.244-5.637c1.142 0 2.106-.31 2.893-.931.798-.632 1.408-1.513 1.829-2.643.433-1.131.649-2.456.649-3.974 0-1.519-.211-2.838-.632-3.957-.421-1.12-1.031-1.984-1.829-2.594-.798-.61-1.768-.914-2.91-.914-1.163 0-2.144.316-2.942.947-.799.632-1.403 1.508-1.813 2.627-.41 1.12-.615 2.417-.615 3.891 0 1.485.205 2.799.615 3.94.421 1.131 1.026 2.018 1.813 2.661.798.631 1.779.947 2.942.947zm33.814-5.653v-14.664h7.083V442h-6.8v-4.639h-.266a7.537 7.537 0 01-2.876 3.608c-1.33.909-2.954 1.364-4.872 1.364-1.707 0-3.209-.388-4.506-1.164-1.297-.776-2.311-1.879-3.042-3.309-.721-1.43-1.087-3.142-1.098-5.138v-16.26h7.083v14.997c.011 1.507.416 2.699 1.214 3.575.798.875 1.868 1.313 3.209 1.313.853 0 1.651-.194 2.394-.582.743-.399 1.341-.986 1.796-1.762.465-.776.692-1.735.681-2.877zm23.614 11.373c-2.616 0-4.866-.554-6.75-1.663-1.874-1.119-3.315-2.671-4.323-4.655-.998-1.984-1.497-4.268-1.497-6.85 0-2.616.505-4.911 1.513-6.884 1.02-1.984 2.467-3.53 4.34-4.638 1.873-1.12 4.101-1.68 6.684-1.68 2.228 0 4.179.405 5.852 1.214 1.674.809 2.999 1.945 3.974 3.408.975 1.464 1.513 3.182 1.613 5.155h-6.684c-.189-1.275-.687-2.3-1.496-3.076-.799-.787-1.846-1.181-3.143-1.181-1.097 0-2.056.3-2.876.898-.809.588-1.441 1.447-1.896 2.577-.454 1.131-.681 2.5-.681 4.107 0 1.629.221 3.015.665 4.157.454 1.141 1.092 2.011 1.912 2.61.82.598 1.779.898 2.876.898.809 0 1.535-.167 2.178-.499a4.21 4.21 0 001.613-1.447c.432-.642.715-1.413.848-2.311h6.684c-.111 1.951-.643 3.669-1.596 5.155-.943 1.474-2.245 2.626-3.908 3.458-1.662.831-3.63 1.247-5.902 1.247zm26.906 0c-2.627 0-4.888-.532-6.784-1.596-1.884-1.076-3.336-2.594-4.356-4.556-1.02-1.973-1.53-4.306-1.53-7 0-2.627.51-4.932 1.53-6.916s2.455-3.531 4.306-4.639c1.862-1.108 4.046-1.663 6.551-1.663 1.685 0 3.253.272 4.705.815a10.439 10.439 0 013.824 2.411c1.098 1.075 1.951 2.427 2.561 4.057.61 1.618.914 3.513.914 5.686v1.945h-21.564v-4.389h14.897c0-1.02-.222-1.923-.665-2.71a4.765 4.765 0 00-1.845-1.846c-.776-.454-1.68-.682-2.711-.682-1.075 0-2.028.25-2.859.749a5.24 5.24 0 00-1.929 1.978c-.465.82-.704 1.735-.715 2.744v4.173c0 1.263.233 2.355.698 3.275.477.92 1.148 1.63 2.012 2.128.865.499 1.89.749 3.076.749.787 0 1.508-.111 2.162-.333a4.485 4.485 0 001.679-.998 4.34 4.34 0 001.064-1.629l6.551.432c-.333 1.574-1.015 2.949-2.045 4.124-1.02 1.164-2.339 2.072-3.957 2.726-1.608.643-3.464.965-5.57.965zm15.67-.499v-25.538h6.867v4.456h.266c.465-1.585 1.247-2.782 2.344-3.592 1.097-.82 2.361-1.23 3.791-1.23.355 0 .737.022 1.147.067.41.044.771.105 1.081.182v6.285c-.333-.1-.793-.188-1.38-.266a12.503 12.503 0 00-1.613-.116c-1.042 0-1.973.227-2.793.681a5.031 5.031 0 00-1.929 1.863c-.465.798-.698 1.718-.698 2.76V442h-7.083z" fill="#fff"></path><path fill-rule="evenodd" clip-rule="evenodd" d="M855 379c0-5.523 4.477-10 10-10h276c5.52 0 10 4.477 10 10v92c0 5.523-4.48 10-10 10H865c-5.523 0-10-4.477-10-10v-92z" fill="#53777A"></path><path d="M919.003 419.87h-7.282c-.133-.942-.405-1.779-.815-2.51a6.38 6.38 0 00-1.579-1.896 6.954 6.954 0 00-2.228-1.197 8.525 8.525 0 00-2.71-.416c-1.763 0-3.298.438-4.606 1.314-1.308.865-2.322 2.128-3.042 3.791-.721 1.651-1.081 3.658-1.081 6.019 0 2.427.36 4.467 1.081 6.118.731 1.652 1.751 2.899 3.059 3.741 1.308.842 2.821 1.264 4.539 1.264.964 0 1.857-.128 2.677-.383a7.033 7.033 0 002.211-1.114 6.421 6.421 0 001.596-1.812c.433-.709.732-1.519.898-2.427l7.282.033a13.155 13.155 0 01-1.413 4.522c-.742 1.441-1.746 2.732-3.009 3.874-1.253 1.131-2.749 2.029-4.489 2.694-1.729.654-3.686.981-5.869.981-3.038 0-5.753-.688-8.147-2.062-2.384-1.375-4.268-3.364-5.653-5.969-1.375-2.605-2.062-5.758-2.062-9.46 0-3.714.698-6.873 2.095-9.478 1.397-2.604 3.292-4.588 5.686-5.952 2.394-1.374 5.088-2.061 8.081-2.061 1.973 0 3.801.277 5.486.831 1.696.554 3.198 1.363 4.506 2.427a12.49 12.49 0 013.192 3.874c.832 1.53 1.364 3.281 1.596 5.254zm15.895 22.629c-2.582 0-4.816-.549-6.7-1.646-1.873-1.109-3.32-2.649-4.34-4.622-1.019-1.984-1.529-4.284-1.529-6.9 0-2.638.51-4.944 1.529-6.917 1.02-1.984 2.467-3.525 4.34-4.622 1.884-1.108 4.118-1.663 6.7-1.663 2.583 0 4.811.555 6.684 1.663 1.884 1.097 3.336 2.638 4.356 4.622 1.02 1.973 1.53 4.279 1.53 6.917 0 2.616-.51 4.916-1.53 6.9-1.02 1.973-2.472 3.513-4.356 4.622-1.873 1.097-4.101 1.646-6.684 1.646zm.034-5.487c1.174 0 2.155-.332 2.942-.998.787-.676 1.38-1.596 1.779-2.759.411-1.164.616-2.489.616-3.974 0-1.486-.205-2.81-.616-3.974-.399-1.164-.992-2.084-1.779-2.76-.787-.676-1.768-1.014-2.942-1.014-1.186 0-2.184.338-2.993 1.014-.798.676-1.402 1.596-1.812 2.76-.4 1.164-.599 2.488-.599 3.974 0 1.485.199 2.81.599 3.974.41 1.163 1.014 2.083 1.812 2.759.809.666 1.807.998 2.993.998zm23.551-9.776V442H951.4v-25.538h6.75v4.506h.3a7.118 7.118 0 012.843-3.525c1.33-.876 2.943-1.314 4.838-1.314 1.773 0 3.32.388 4.639 1.164 1.319.776 2.344 1.884 3.076 3.325.731 1.43 1.097 3.137 1.097 5.121V442h-7.083v-14.997c.011-1.563-.388-2.782-1.197-3.658-.809-.887-1.923-1.33-3.342-1.33-.953 0-1.796.205-2.527.615-.721.41-1.286 1.009-1.696 1.796-.399.776-.604 1.712-.615 2.81zm42.617-3.492l-6.484.399a3.35 3.35 0 00-.715-1.496c-.366-.455-.848-.815-1.446-1.081-.588-.277-1.292-.416-2.112-.416-1.097 0-2.023.233-2.776.699-.754.454-1.131 1.064-1.131 1.829 0 .609.244 1.125.732 1.546.487.421 1.324.759 2.51 1.014l4.622.931c2.483.51 4.334 1.33 5.554 2.461 1.216 1.131 1.826 2.616 1.826 4.456 0 1.674-.49 3.142-1.48 4.406-.973 1.263-2.314 2.25-4.021 2.959-1.696.699-3.652 1.048-5.869 1.048-3.381 0-6.074-.704-8.08-2.112-1.996-1.419-3.165-3.347-3.509-5.786l6.967-.366c.21 1.031.72 1.818 1.529 2.361.81.532 1.846.798 3.11.798 1.241 0 2.239-.238 2.992-.714.765-.488 1.153-1.114 1.164-1.879-.011-.643-.282-1.17-.815-1.58-.532-.421-1.352-.742-2.46-.964l-4.423-.881c-2.494-.499-4.35-1.364-5.57-2.594-1.208-1.23-1.812-2.799-1.812-4.705 0-1.641.443-3.054 1.33-4.24.898-1.186 2.156-2.1 3.774-2.743 1.63-.643 3.536-.965 5.72-.965 3.225 0 5.764.682 7.615 2.045 1.862 1.364 2.948 3.22 3.258 5.57zm20.75 7.382v-14.664h7.08V442h-6.8v-4.639h-.27c-.57 1.497-1.53 2.699-2.87 3.608-1.33.909-2.96 1.364-4.88 1.364-1.7 0-3.2-.388-4.5-1.164-1.3-.776-2.31-1.879-3.04-3.309-.72-1.43-1.09-3.142-1.1-5.138v-16.26h7.08v14.997c.01 1.507.42 2.699 1.22 3.575.79.875 1.86 1.313 3.2 1.313.86 0 1.66-.194 2.4-.582.74-.399 1.34-.986 1.79-1.762.47-.776.7-1.735.69-2.877zM1033.92 442v-25.538h6.75v4.506h.3c.53-1.497 1.42-2.677 2.66-3.542 1.24-.864 2.73-1.297 4.46-1.297 1.75 0 3.24.438 4.47 1.314 1.23.864 2.05 2.039 2.46 3.525h.27c.52-1.464 1.46-2.633 2.82-3.509 1.38-.886 3-1.33 4.87-1.33 2.39 0 4.32.76 5.81 2.278 1.49 1.508 2.24 3.647 2.24 6.418V442h-7.07v-15.778c0-1.419-.37-2.483-1.13-3.193-.75-.709-1.69-1.064-2.82-1.064-1.29 0-2.29.41-3.01 1.231-.72.809-1.08 1.878-1.08 3.208V442h-6.87v-15.928c0-1.253-.36-2.25-1.08-2.993-.71-.743-1.65-1.114-2.81-1.114-.79 0-1.5.2-2.13.599-.62.388-1.11.936-1.48 1.646-.36.698-.55 1.518-.55 2.46V442h-7.08zm53.67.499c-2.63 0-4.89-.532-6.78-1.596-1.89-1.076-3.34-2.594-4.36-4.556-1.02-1.973-1.53-4.306-1.53-7 0-2.627.51-4.932 1.53-6.916s2.46-3.531 4.31-4.639c1.86-1.108 4.04-1.663 6.55-1.663 1.68 0 3.25.272 4.7.815 1.47.532 2.74 1.336 3.83 2.411 1.1 1.075 1.95 2.427 2.56 4.057.61 1.618.91 3.513.91 5.686v1.945h-21.56v-4.389h14.9c0-1.02-.23-1.923-.67-2.71a4.738 4.738 0 00-1.85-1.846c-.77-.454-1.67-.682-2.71-.682-1.07 0-2.02.25-2.85.749a5.135 5.135 0 00-1.93 1.978c-.47.82-.71 1.735-.72 2.744v4.173c0 1.263.23 2.355.7 3.275.48.92 1.15 1.63 2.01 2.128.87.499 1.89.749 3.08.749.78 0 1.5-.111 2.16-.333a4.553 4.553 0 001.68-.998c.46-.443.82-.986 1.06-1.629l6.55.432c-.33 1.574-1.01 2.949-2.04 4.124-1.02 1.164-2.34 2.072-3.96 2.726-1.61.643-3.46.965-5.57.965zm15.67-.499v-25.538h6.87v4.456h.26c.47-1.585 1.25-2.782 2.35-3.592 1.1-.82 2.36-1.23 3.79-1.23.35 0 .74.022 1.15.067.41.044.77.105 1.08.182v6.285c-.34-.1-.8-.188-1.38-.266-.59-.077-1.13-.116-1.62-.116-1.04 0-1.97.227-2.79.681a5.048 5.048 0 00-1.93 1.863c-.46.798-.7 1.718-.7 2.76V442h-7.08z" fill="#fff"></path><path d="M459 425l-50-28.868v57.736L459 425zm-115 5h70v-10h-70v10zm521-5l-50-28.868v57.736L865 425zm-115 5h70v-10h-70v10z" fill="#00CD00"></path><path d="M897.933 393.596h-65.77l22.717-22.5 10.168 9.952 10.168-9.952 22.717 22.5z" fill="#FFD25B"></path><path d="M898.365 393.163v-45.865L875 370.231l23.365 22.932zm-66.634 0v-45.865l23.365 22.933-23.365 22.932z" fill="#F2C357"></path><path d="M897.933 348.163h-65.77l32.452 32.452 33.318-32.452z" fill="#F0BB42"></path><path d="M898.187 346h-66.736c-.871 0-1.451.725-1.451 1.45v46.426c0 .87.58 1.451 1.451 1.451h66.738c.87 0 1.451-.581 1.451-1.451l-.001-46.426c0-.725-.58-1.45-1.451-1.45h-.001zm-65.286 4.932l19.731 19.732-19.731 19.731v-39.463zm31.918 27.856l-29.886-29.886h59.774l-29.888 29.886zm-10.156-6.093l9.14 9.14c.29.29.726.435 1.016.435.435 0 .725-.145 1.016-.435l9.14-9.14 19.73 19.731h-59.772l19.73-19.731zm22.343-2.031l19.732-19.732v39.462l-19.732-19.73z" fill="#000"></path></svg>