<svg viewBox="0 0 1200 900" fill="none" xmlns="http://www.w3.org/2000/svg"><path fill="#fff" d="M0 0h1200v900H0z"></path><path fill-rule="evenodd" clip-rule="evenodd" d="M586.645 370.038v20.983a2.115 2.115 0 01-.085.574 1.996 1.996 0 01-1.137 1.254 2.072 2.072 0 01-.563.141c-.065.006-.13.01-.194.01H409.979a2.082 2.082 0 01-.575-.086 2.176 2.176 0 01-.524-.248 1.97 1.97 0 01-.646-.713 1.996 1.996 0 01-.224-.738 1.814 1.814 0 01-.01-.194v-20.983c0-.065.003-.13.01-.194a1.794 1.794 0 01.075-.381 1.996 1.996 0 011.137-1.254 1.97 1.97 0 01.757-.15h174.687a2.115 2.115 0 01.386.038 1.781 1.781 0 01.371.112 2.156 2.156 0 01.342.183 1.97 1.97 0 01.646.713 2.156 2.156 0 01.149.358 2.086 2.086 0 01.085.575z" fill="#7C7C7C"></path><path fill-rule="evenodd" clip-rule="evenodd" d="M433.343 373.462h117.988v3.325H433.343v-3.325z" fill="#D8D8D8"></path><path fill-rule="evenodd" clip-rule="evenodd" d="M413.401 373.462h7.478v3.325h-7.478v-3.325z" fill="#D7D7D7"></path><path fill-rule="evenodd" clip-rule="evenodd" d="M567.949 373.462h3.324v3.325h-3.324v-3.325z" fill="#D7D400"></path><path fill-rule="evenodd" clip-rule="evenodd" d="M562.964 373.462h3.323v3.325h-3.323v-3.325z" fill="#FF3C00"></path><path fill-rule="evenodd" clip-rule="evenodd" d="M573.766 373.462h7.478v3.325h-7.478v-3.325z" fill="#00CD00"></path><path fill-rule="evenodd" clip-rule="evenodd" d="M433.343 378.866h117.988v3.326H433.343v-3.326z" fill="#D8D8D8"></path><path fill-rule="evenodd" clip-rule="evenodd" d="M413.401 378.866h7.478v3.326h-7.478v-3.326z" fill="#D7D7D7"></path><path fill-rule="evenodd" clip-rule="evenodd" d="M567.949 378.866h3.324v3.326h-3.324v-3.326z" fill="#D7D400"></path><path fill-rule="evenodd" clip-rule="evenodd" d="M562.964 378.866h3.324v3.326h-3.324v-3.326z" fill="#FF3C00"></path><path fill-rule="evenodd" clip-rule="evenodd" d="M573.766 378.866h7.478v3.326h-7.478v-3.326z" fill="#00CD00"></path><path fill-rule="evenodd" clip-rule="evenodd" d="M433.343 384.27h117.988v3.325H433.343v-3.325z" fill="#D8D8D8"></path><path fill-rule="evenodd" clip-rule="evenodd" d="M413.401 384.27h7.478v3.325h-7.478v-3.325z" fill="#D7D7D7"></path><path fill-rule="evenodd" clip-rule="evenodd" d="M567.949 384.27h3.324v3.325h-3.324v-3.325z" fill="#D7D400"></path><path fill-rule="evenodd" clip-rule="evenodd" d="M562.964 384.27h3.323v3.325h-3.323v-3.325z" fill="#FF3C00"></path><path fill-rule="evenodd" clip-rule="evenodd" d="M573.766 384.27h7.478v3.325h-7.478v-3.325z" fill="#00CD00"></path><path fill-rule="evenodd" clip-rule="evenodd" d="M586.645 58.763V362.03a3.987 3.987 0 01-.085.802 3.666 3.666 0 01-.149.5c-.031.08-.064.157-.1.233a2.66 2.66 0 01-.546.762 1.997 1.997 0 01-.342.256 1.73 1.73 0 01-.371.157 1.415 1.415 0 01-.386.053H409.979a1.395 1.395 0 01-.386-.053 1.696 1.696 0 01-.371-.157 1.977 1.977 0 01-.642-.599 2.572 2.572 0 01-.246-.419 3.023 3.023 0 01-.183-.478 3.666 3.666 0 01-.151-1.057V58.763c0-.09.003-.18.01-.27a3.422 3.422 0 01.075-.532 3.524 3.524 0 01.249-.733 2.914 2.914 0 01.246-.419 2.153 2.153 0 01.466-.483 1.78 1.78 0 01.358-.207 1.582 1.582 0 01.381-.106 1.41 1.41 0 01.194-.013h174.687a1.432 1.432 0 01.574.119 1.677 1.677 0 01.358.207 2.153 2.153 0 01.467.483 2.592 2.592 0 01.246.419 3.334 3.334 0 01.296.996 3.98 3.98 0 01.038.54z" fill="#7C7C7C"></path><path fill-rule="evenodd" clip-rule="evenodd" d="M414.432 70.846h165.781a.699.699 0 01.378.109.938.938 0 01.249.216 1.287 1.287 0 01.195.31 2.05 2.05 0 01.091.248c.012.044.023.088.033.133a2.133 2.133 0 01.042.416v276.238a2.11 2.11 0 01-.042.415 2.545 2.545 0 01-.074.259 1.909 1.909 0 01-.108.234 1.502 1.502 0 01-.137.198 1.047 1.047 0 01-.249.216.726.726 0 01-.186.082.617.617 0 01-.192.027H414.432a.642.642 0 01-.193-.027.895.895 0 01-.273-.142 1.095 1.095 0 01-.233-.25 1.526 1.526 0 01-.214-.465 1.818 1.818 0 01-.071-.407 2.202 2.202 0 01-.004-.14V72.277a2.19 2.19 0 01.019-.28 2.028 2.028 0 01.056-.268 1.712 1.712 0 01.149-.36 1.48 1.48 0 01.137-.198 1.114 1.114 0 01.161-.156.938.938 0 01.179-.108.806.806 0 01.19-.054.699.699 0 01.097-.007z" fill="#fff"></path><path fill-rule="evenodd" clip-rule="evenodd" d="M413.401 62.968h167.843v3.325H413.401v-3.325zm0 291.789h167.843v3.325H413.401v-3.325z" fill="#D7D7D7"></path><path d="M427.826 85.28v-6.054h2.423c.446 0 .817.066 1.115.198.297.132.521.315.671.55.15.232.224.5.224.804 0 .236-.047.444-.141.623a1.227 1.227 0 01-.391.438 1.59 1.59 0 01-.561.24v.058a1.38 1.38 0 011.141.7 1.5 1.5 0 01.189.77c0 .32-.08.607-.24.86a1.61 1.61 0 01-.7.594c-.309.145-.691.218-1.144.218h-2.586zm1.28-1.047h1.043c.357 0 .617-.068.78-.204a.682.682 0 00.246-.55.812.812 0 00-.122-.443.822.822 0 00-.345-.302 1.188 1.188 0 00-.529-.109h-1.073v1.608zm0-2.474h.948c.176 0 .331-.03.467-.092a.78.78 0 00.326-.266.699.699 0 00.121-.41.664.664 0 00-.234-.53c-.153-.134-.372-.2-.656-.2h-.972v1.498zm3.889 3.52v-6.053h2.389c.457 0 .847.082 1.17.245.325.162.573.391.742.689.172.295.257.643.257 1.043 0 .402-.086.748-.26 1.038a1.68 1.68 0 01-.754.662c-.327.153-.723.23-1.188.23h-1.599v-1.028h1.392c.245 0 .448-.034.609-.1a.724.724 0 00.361-.302.95.95 0 00.121-.5c0-.2-.04-.37-.121-.508a.743.743 0 00-.364-.313 1.488 1.488 0 00-.612-.11h-.863v5.007h-1.28zm3.27-2.754l1.504 2.754h-1.413l-1.472-2.754h1.381zm7.422-.272c0 .66-.125 1.221-.375 1.684A2.6 2.6 0 01442.295 85a2.87 2.87 0 01-1.442.363 2.87 2.87 0 01-1.449-.366 2.609 2.609 0 01-1.013-1.062c-.249-.463-.373-1.023-.373-1.681 0-.66.124-1.222.373-1.685a2.59 2.59 0 011.013-1.058 2.87 2.87 0 011.449-.367c.534 0 1.015.122 1.442.367.43.242.769.595 1.017 1.058.25.463.375 1.024.375 1.685zm-1.297 0c0-.428-.064-.789-.192-1.082a1.467 1.467 0 00-.535-.668 1.442 1.442 0 00-.81-.228c-.31 0-.58.076-.81.228-.231.151-.41.374-.538.668-.126.293-.189.654-.189 1.082 0 .427.063.788.189 1.081.128.294.307.517.538.668.23.152.5.228.81.228.309 0 .579-.076.81-.228.23-.151.409-.374.535-.668.128-.293.192-.654.192-1.081zm1.912 3.026v-6.053h1.28v2.669h.08l2.178-2.67h1.534l-2.246 2.711 2.273 3.343h-1.531l-1.658-2.489-.63.769v1.72h-1.28zm5.406 0v-6.053h4.079v1.055h-2.799v1.442h2.589v1.056h-2.589v1.445h2.811v1.055h-4.091zm4.763 0v-6.053h2.388c.457 0 .848.082 1.171.245.325.162.572.391.742.689.171.295.257.643.257 1.043 0 .402-.087.748-.26 1.038a1.691 1.691 0 01-.754.662c-.327.153-.723.23-1.188.23h-1.599v-1.028h1.392c.244 0 .447-.034.609-.1a.721.721 0 00.36-.302.95.95 0 00.122-.5.989.989 0 00-.122-.508.741.741 0 00-.363-.313 1.495 1.495 0 00-.612-.11h-.863v5.007h-1.28zm3.269-2.754l1.505 2.754h-1.413l-1.472-2.754h1.38zm6.051-3.3v6.054h-1.279v-4.838h-.036l-1.386.869v-1.135l1.498-.95h1.203z" fill="#919191"></path><path d="M566.409 89.65H428.236a5.885 5.885 0 00-5.885 5.885v238.63a5.885 5.885 0 005.885 5.885h138.173a5.885 5.885 0 005.885-5.885V95.535a5.885 5.885 0 00-5.885-5.884z" fill="#EEF8F9" stroke="#D9EFF2" stroke-width=".99"></path><path fill-rule="evenodd" clip-rule="evenodd" d="M427.794 163.684a4.05 4.05 0 014.05-4.049h131.508a4.05 4.05 0 014.05 4.049v110.953a4.05 4.05 0 01-4.05 4.05H431.844a4.05 4.05 0 01-4.05-4.05V163.684z" fill="#FCF3CF"></path><path d="M472.299 207.721h-32.547l11.242-11.134 5.032 4.925 5.032-4.925 11.241 11.134z" fill="#FFD25B"></path><path d="M472.513 207.508v-22.697l-11.563 11.348 11.563 11.349zm-32.975 0v-22.697l11.563 11.348-11.563 11.349z" fill="#F2C357"></path><path d="M472.299 185.238h-32.547l16.06 16.059 16.487-16.059z" fill="#F0BB42"></path><path d="M472.425 184.168H439.4a.72.72 0 00-.718.718v22.974c0 .431.287.718.718.718h33.025c.431 0 .719-.287.719-.718l-.001-22.974a.72.72 0 00-.718-.718zm-32.308 2.441l9.765 9.764-9.765 9.764v-19.528zm15.795 13.784l-14.789-14.789h29.579l-14.79 14.789zm-5.025-3.015l4.523 4.523a.773.773 0 00.502.216.652.652 0 00.503-.216l4.523-4.523 9.764 9.764h-29.579l9.764-9.764zm11.056-1.005l9.764-9.764v19.528l-9.764-9.764z" fill="#000"></path><path d="M513.41 207.721h-32.546l11.241-11.134 5.032 4.925 5.032-4.925 11.241 11.134z" fill="#FFD25B"></path><path d="M513.624 207.508v-22.697l-11.562 11.348 11.562 11.349zm-32.974 0v-22.697l11.562 11.348-11.562 11.349z" fill="#F2C357"></path><path d="M513.41 185.238h-32.546l16.059 16.059 16.487-16.059z" fill="#F0BB42"></path><path d="M513.536 184.168h-33.025a.72.72 0 00-.718.718v22.974c0 .431.287.718.718.718h33.026c.431 0 .718-.287.718-.718v-22.974a.72.72 0 00-.718-.718h-.001zm-32.307 2.441l9.764 9.764-9.764 9.764v-19.528zm15.795 13.784l-14.79-14.789h29.58l-14.79 14.789zm-5.026-3.015l4.523 4.523a.775.775 0 00.503.216.65.65 0 00.502-.216l4.524-4.523 9.763 9.764h-29.579l9.764-9.764zm11.057-1.005l9.764-9.764v19.528l-9.764-9.764z" fill="#000"></path><path d="M434.138 149.184v-1.243h5.859v1.243h-2.184v5.89h-1.491v-5.89h-2.184zm8.104 5.995c-.541 0-1.009-.115-1.403-.345a2.36 2.36 0 01-.91-.968c-.213-.416-.32-.898-.32-1.446 0-.553.107-1.036.32-1.449a2.33 2.33 0 01.91-.968c.394-.232.862-.349 1.403-.349s1.008.117 1.4.349c.395.23.699.552.913.968.214.413.321.896.321 1.449 0 .548-.107 1.03-.321 1.446a2.355 2.355 0 01-.913.968c-.392.23-.859.345-1.4.345zm.007-1.15a.92.92 0 00.617-.209c.165-.141.289-.334.372-.578.086-.244.129-.521.129-.832 0-.312-.043-.589-.129-.833a1.29 1.29 0 00-.372-.578.913.913 0 00-.617-.213.945.945 0 00-.627.213 1.3 1.3 0 00-.379.578 2.55 2.55 0 00-.126.833c0 .311.042.588.126.832.085.244.212.437.379.578.17.14.379.209.627.209zm3.258 3.052v-7.357h1.463v.899h.066a1.95 1.95 0 01.282-.439c.126-.151.288-.276.488-.376.202-.103.453-.154.752-.154.391 0 .75.103 1.08.307.33.202.593.507.791.916.197.406.296.916.296 1.529 0 .597-.096 1.101-.289 1.512-.191.408-.451.718-.78.93a2.005 2.005 0 01-1.101.313c-.288 0-.533-.047-.735-.143a1.514 1.514 0 01-.491-.358 1.844 1.844 0 01-.293-.443h-.045v2.864h-1.484zm1.453-4.682c0 .318.044.596.132.833.088.236.216.421.383.553.167.13.37.196.61.196a.96.96 0 00.613-.199c.167-.135.293-.32.379-.557.089-.24.133-.515.133-.826 0-.309-.043-.58-.129-.815a1.217 1.217 0 00-.38-.55.959.959 0 00-.616-.199.977.977 0 00-.613.192 1.197 1.197 0 00-.38.543 2.36 2.36 0 00-.132.829zm4.421 2.675v-5.35h1.484v5.35h-1.484zm.745-6.04a.805.805 0 01-.567-.219.71.71 0 01-.234-.533c0-.204.078-.38.234-.526a.795.795 0 01.567-.223c.221 0 .409.074.565.223a.71.71 0 010 1.059.797.797 0 01-.565.219zm4.011 6.145c-.548 0-1.019-.116-1.414-.349a2.348 2.348 0 01-.905-.975c-.209-.416-.314-.894-.314-1.435 0-.548.106-1.029.317-1.442.214-.416.517-.74.909-.972.393-.234.859-.352 1.401-.352.466 0 .875.085 1.226.255.35.169.628.407.832.714a2.1 2.1 0 01.338 1.08h-1.4a1.082 1.082 0 00-.314-.645c-.167-.165-.386-.247-.658-.247a.999.999 0 00-.603.188 1.198 1.198 0 00-.397.54 2.31 2.31 0 00-.143.86c0 .341.047.632.14.871.095.239.228.421.4.547a.999.999 0 00.603.188.976.976 0 00.456-.105.87.87 0 00.338-.303c.091-.134.15-.296.178-.484h1.4a2.197 2.197 0 01-.334 1.08c-.198.309-.471.55-.819.724-.348.175-.76.262-1.237.262zm6.201-.105h-1.616l2.462-7.133h1.944l2.459 7.133h-1.616l-1.787-5.503h-.056l-1.79 5.503zm-.101-2.804h3.818v1.178h-3.818v-1.178z" fill="#1A1A1A"></path><path d="M527.597 97.659a1.097 1.097 0 00-1.572 0h-.005a1.136 1.136 0 00-.004 1.599l.006.006a1.082 1.082 0 00.783.327c.31 0 .588-.124.789-.327l.002-.006c.2-.201.319-.483.319-.799a1.134 1.134 0 00-.323-.8h.005zm-.789 15.491c.31 0 .588-.129.789-.33l.002-.006c.201-.201.319-.484.319-.796 0-.319-.122-.598-.319-.802h-.002a1.09 1.09 0 00-.789-.332 1.068 1.068 0 00-.783.332h-.005a1.142 1.142 0 00-.324.802c-.001.298.115.584.324.796l.005.006a1.105 1.105 0 00.783.329v.001zm6.059-3.429a1.1 1.1 0 00.678-.525l.02-.04c.132-.252.163-.545.088-.82a1.104 1.104 0 00-.518-.688l-.016-.01a1.093 1.093 0 00-.828-.102 1.09 1.09 0 00-.676.528 1.141 1.141 0 00.406 1.548h.001c.266.156.567.184.846.107l-.001.002zm-4.921-5.639a1.585 1.585 0 00-2.279 0 1.667 1.667 0 000 2.321c.291.294.693.479 1.135.479a1.61 1.61 0 001.14-.479c.303-.312.472-.729.47-1.163a1.643 1.643 0 00-.47-1.158h.004zm-.639-1.928a3.042 3.042 0 011.673.879h.003c.072.073.14.15.204.229l1.11-.653a2.442 2.442 0 01-.036-1.389 2.42 2.42 0 011.117-1.48l.019-.012a2.355 2.355 0 012.641.186c.25.195.459.437.614.713v.002a2.48 2.48 0 01.24 1.85 2.422 2.422 0 01-1.118 1.482l-.152.091h-.015a2.37 2.37 0 01-2.816-.571l-1.109.652a3.188 3.188 0 010 2.212l1.109.65a2.38 2.38 0 011.162-.725 2.33 2.33 0 011.821.245l.037.018v.002c.536.33.924.854 1.081 1.464a2.472 2.472 0 01-.24 1.848l-.02.041h-.003a2.42 2.42 0 01-1.433 1.104 2.382 2.382 0 01-1.821-.244v-.005a2.426 2.426 0 01-1.118-1.481 2.435 2.435 0 01.036-1.387l-1.11-.652a3.114 3.114 0 01-.203.226l-.004.004a3.02 3.02 0 01-1.672.874v1.305a2.38 2.38 0 011.197.662l.002.004c.434.439.702 1.051.702 1.724a2.445 2.445 0 01-.702 1.72l-.002.007a2.391 2.391 0 01-1.696.71 2.38 2.38 0 01-1.694-.714h-.001v-.007a2.447 2.447 0 01-.704-1.721c0-.673.27-1.284.704-1.723v-.004h.001a2.336 2.336 0 011.197-.662v-1.305a2.99 2.99 0 01-1.667-.874l-.004-.004a3.152 3.152 0 01-.005-4.415h.005a3.02 3.02 0 011.671-.879v-1.3a2.422 2.422 0 01-1.197-.664h-.002v-.004a2.452 2.452 0 01-.703-1.724 2.458 2.458 0 01.703-1.723l.006-.002a2.352 2.352 0 011.69-.716c.661 0 1.26.273 1.697.716v.002h.002a2.467 2.467 0 010 3.447l-.002.003a2.406 2.406 0 01-1.198.664v1.3l.003.004zm6.237-.867l-.009-.015a1.122 1.122 0 00-.668-.513 1.084 1.084 0 00-.435-.029 1.082 1.082 0 00-.412.142h.002a1.12 1.12 0 00-.52.688c-.077.29-.036.599.112.86l.005.007c.153.266.398.445.671.517.274.079.58.045.844-.111l.014-.007c.259-.157.432-.406.504-.679.073-.282.044-.59-.108-.86zm4.927.382h1.238v3.848l1.787-2.011h1.49l-2.157 2.33 2.159 2.949h-1.419l-1.863-2.638v2.638h-1.239v-7.12l.004.004zm5.946 4.498c0 .655.464 1.608 1.58 1.608.69 0 1.145-.366 1.38-.846.124-.233.181-.483.2-.745a1.696 1.696 0 00-.143-.743 1.522 1.522 0 00-1.446-.932c-1.002 0-1.57.827-1.57 1.645v.009l-.001.004zm4.388 2.618h-1.239v-.76c-.33.615-1.021.923-1.749.923-1.665 0-2.639-1.319-2.639-2.809 0-1.665 1.182-2.8 2.639-2.8.945 0 1.522.51 1.749.934v-.771h1.239v5.283zm1.404-4.31h-.639v-.972h.639v-.298c0-1.57 1.172-1.664 2.062-1.675v.971c-.313 0-.823 0-.823.742v.259h.823v.972h-.823v4.311h-1.239v-4.31zm2.908-2.81h1.238v3.849l1.788-2.011h1.489l-2.157 2.33 2.161 2.952h-1.419l-1.862-2.638v2.638h-1.239v-7.12h.001zm5.95 4.502c0 .655.463 1.608 1.58 1.608.689 0 1.144-.366 1.383-.846a1.89 1.89 0 00.199-.745 1.673 1.673 0 00-.143-.743c-.213-.499-.699-.932-1.446-.932-1.002 0-1.57.827-1.57 1.645v.009l-.003.004zm4.384 2.618h-1.239v-.76c-.331.615-1.022.923-1.749.923-1.665 0-2.638-1.319-2.638-2.809 0-1.665 1.181-2.8 2.638-2.8.945 0 1.522.51 1.749.934v-.771h1.239v5.283z" fill="#1A464C"></path><path fill-rule="evenodd" clip-rule="evenodd" d="M591.645 812.038v20.983a2.115 2.115 0 01-.085.574 1.996 1.996 0 01-1.137 1.254 2.072 2.072 0 01-.563.141c-.065.006-.13.01-.194.01H414.979a2.082 2.082 0 01-.575-.086 2.176 2.176 0 01-.524-.248 1.97 1.97 0 01-.646-.713 1.996 1.996 0 01-.224-.738 1.814 1.814 0 01-.01-.194v-20.983c0-.065.003-.13.01-.194a1.794 1.794 0 01.075-.381 1.996 1.996 0 011.137-1.254 1.97 1.97 0 01.757-.15h174.687a2.115 2.115 0 01.386.038 1.781 1.781 0 01.371.112 2.156 2.156 0 01.342.183 1.97 1.97 0 01.646.713 2.156 2.156 0 01.149.358 2.086 2.086 0 01.085.575z" fill="#7C7C7C"></path><path fill-rule="evenodd" clip-rule="evenodd" d="M438.343 815.462h117.988v3.325H438.343v-3.325z" fill="#D8D8D8"></path><path fill-rule="evenodd" clip-rule="evenodd" d="M418.401 815.462h7.478v3.325h-7.478v-3.325z" fill="#D7D7D7"></path><path fill-rule="evenodd" clip-rule="evenodd" d="M572.949 815.462h3.324v3.325h-3.324v-3.325z" fill="#D7D400"></path><path fill-rule="evenodd" clip-rule="evenodd" d="M567.964 815.462h3.323v3.325h-3.323v-3.325z" fill="#FF3C00"></path><path fill-rule="evenodd" clip-rule="evenodd" d="M578.766 815.462h7.478v3.325h-7.478v-3.325z" fill="#00CD00"></path><path fill-rule="evenodd" clip-rule="evenodd" d="M438.343 820.866h117.988v3.326H438.343v-3.326z" fill="#D8D8D8"></path><path fill-rule="evenodd" clip-rule="evenodd" d="M418.401 820.866h7.478v3.326h-7.478v-3.326z" fill="#D7D7D7"></path><path fill-rule="evenodd" clip-rule="evenodd" d="M572.949 820.866h3.324v3.326h-3.324v-3.326z" fill="#D7D400"></path><path fill-rule="evenodd" clip-rule="evenodd" d="M567.964 820.866h3.324v3.326h-3.324v-3.326z" fill="#FF3C00"></path><path fill-rule="evenodd" clip-rule="evenodd" d="M578.766 820.866h7.478v3.326h-7.478v-3.326z" fill="#00CD00"></path><path fill-rule="evenodd" clip-rule="evenodd" d="M438.343 826.27h117.988v3.325H438.343v-3.325z" fill="#D8D8D8"></path><path fill-rule="evenodd" clip-rule="evenodd" d="M418.401 826.27h7.478v3.325h-7.478v-3.325z" fill="#D7D7D7"></path><path fill-rule="evenodd" clip-rule="evenodd" d="M572.949 826.27h3.324v3.325h-3.324v-3.325z" fill="#D7D400"></path><path fill-rule="evenodd" clip-rule="evenodd" d="M567.964 826.27h3.323v3.325h-3.323v-3.325z" fill="#FF3C00"></path><path fill-rule="evenodd" clip-rule="evenodd" d="M578.766 826.27h7.478v3.325h-7.478v-3.325z" fill="#00CD00"></path><path fill-rule="evenodd" clip-rule="evenodd" d="M591.645 500.763V804.03a3.987 3.987 0 01-.085.802 3.666 3.666 0 01-.149.5c-.031.08-.064.157-.1.233a2.66 2.66 0 01-.546.762 1.997 1.997 0 01-.342.256 1.73 1.73 0 01-.371.157 1.415 1.415 0 01-.386.053H414.979a1.395 1.395 0 01-.386-.053 1.696 1.696 0 01-.371-.157 1.977 1.977 0 01-.642-.599 2.572 2.572 0 01-.246-.419 3.023 3.023 0 01-.183-.478 3.666 3.666 0 01-.151-1.057V500.763c0-.09.003-.18.01-.271a3.427 3.427 0 01.075-.531 3.526 3.526 0 01.249-.733 2.572 2.572 0 01.39-.601 2.165 2.165 0 01.322-.301 1.716 1.716 0 01.547-.273 1.393 1.393 0 01.386-.053h174.687a1.415 1.415 0 01.574.119 1.73 1.73 0 01.525.347 2.165 2.165 0 01.3.343 2.563 2.563 0 01.246.419 3.264 3.264 0 01.249.733 3.987 3.987 0 01.085.802z" fill="#7C7C7C"></path><path fill-rule="evenodd" clip-rule="evenodd" d="M419.432 512.846h165.781a.642.642 0 01.192.027.813.813 0 01.357.214 1.047 1.047 0 01.15.178 1.526 1.526 0 01.214.464c.012.044.023.088.033.133a2.11 2.11 0 01.042.415v276.239a2.11 2.11 0 01-.042.415 2.545 2.545 0 01-.074.259 1.909 1.909 0 01-.108.234 1.502 1.502 0 01-.137.198 1.047 1.047 0 01-.249.216.726.726 0 01-.186.082.617.617 0 01-.192.027H419.432a.642.642 0 01-.193-.027.895.895 0 01-.273-.142 1.095 1.095 0 01-.233-.25 1.526 1.526 0 01-.214-.465 1.818 1.818 0 01-.071-.407 2.202 2.202 0 01-.004-.14V514.277a2.181 2.181 0 01.019-.279 1.927 1.927 0 01.097-.396 1.332 1.332 0 01.406-.587.978.978 0 01.179-.108.656.656 0 01.287-.061z" fill="#fff"></path><path fill-rule="evenodd" clip-rule="evenodd" d="M418.401 504.968h167.843v3.325H418.401v-3.325zm0 291.789h167.843v3.325H418.401v-3.325z" fill="#D7D7D7"></path><path d="M432.826 527.279v-6.053h2.423c.446 0 .817.066 1.115.198.297.132.521.315.671.55.15.232.224.5.224.804 0 .236-.047.444-.141.623a1.228 1.228 0 01-.391.438 1.59 1.59 0 01-.561.239v.059a1.387 1.387 0 011.141.701c.126.215.189.471.189.768 0 .322-.08.608-.24.86a1.608 1.608 0 01-.7.595c-.309.145-.691.218-1.144.218h-2.586zm1.28-1.046h1.043c.357 0 .617-.068.78-.204a.682.682 0 00.246-.55.812.812 0 00-.122-.443.823.823 0 00-.345-.302 1.186 1.186 0 00-.529-.109h-1.073v1.608zm0-2.474h.948c.176 0 .331-.031.467-.092a.775.775 0 00.326-.266.698.698 0 00.121-.411.664.664 0 00-.234-.529c-.153-.134-.372-.201-.656-.201h-.972v1.499zm3.889 3.52v-6.053h2.389c.457 0 .847.082 1.17.245.325.162.573.391.742.689.172.295.257.643.257 1.043 0 .402-.086.748-.26 1.038a1.686 1.686 0 01-.754.662c-.327.154-.723.23-1.188.23h-1.599v-1.028h1.392c.245 0 .448-.034.609-.101a.723.723 0 00.361-.301.952.952 0 00.121-.5c0-.201-.04-.37-.121-.508a.737.737 0 00-.364-.313 1.486 1.486 0 00-.612-.11h-.863v5.007h-1.28zm3.27-2.755l1.504 2.755h-1.413l-1.472-2.755h1.381zm7.422-.271c0 .66-.125 1.221-.375 1.684a2.597 2.597 0 01-1.017 1.061 2.864 2.864 0 01-1.442.364 2.873 2.873 0 01-1.449-.366 2.616 2.616 0 01-1.013-1.062c-.249-.463-.373-1.023-.373-1.681 0-.661.124-1.222.373-1.685a2.587 2.587 0 011.013-1.058 2.864 2.864 0 011.449-.367c.534 0 1.015.122 1.442.367.43.242.769.595 1.017 1.058.25.463.375 1.024.375 1.685zm-1.297 0c0-.428-.064-.789-.192-1.082a1.461 1.461 0 00-.535-.668 1.44 1.44 0 00-.81-.228c-.31 0-.58.076-.81.228-.231.151-.41.374-.538.668-.126.293-.189.654-.189 1.082 0 .427.063.788.189 1.081.128.294.307.517.538.668.23.152.5.228.81.228.309 0 .579-.076.81-.228.23-.151.409-.374.535-.668.128-.293.192-.654.192-1.081zm1.912 3.026v-6.053h1.28v2.669h.08l2.178-2.669h1.534l-2.246 2.71 2.273 3.343h-1.531l-1.658-2.488-.63.768v1.72h-1.28zm5.406 0v-6.053h4.079v1.055h-2.799v1.442h2.589v1.056h-2.589v1.445h2.811v1.055h-4.091zm4.763 0v-6.053h2.388c.457 0 .848.082 1.171.245.325.162.572.391.742.689.171.295.257.643.257 1.043 0 .402-.087.748-.26 1.038a1.697 1.697 0 01-.754.662c-.327.154-.723.23-1.188.23h-1.599v-1.028h1.392c.244 0 .447-.034.609-.101a.72.72 0 00.36-.301.952.952 0 00.122-.5.987.987 0 00-.122-.508.735.735 0 00-.363-.313 1.492 1.492 0 00-.612-.11h-.863v5.007h-1.28zm3.269-2.755l1.505 2.755h-1.413l-1.472-2.755h1.38zm6.051-3.298v6.053h-1.279v-4.838h-.036l-1.386.869v-1.135l1.498-.949h1.203z" fill="#919191"></path><path d="M571.409 531.651H433.236a5.884 5.884 0 00-5.885 5.884v238.63a5.885 5.885 0 005.885 5.885h138.173a5.885 5.885 0 005.885-5.885v-238.63a5.884 5.884 0 00-5.885-5.884z" fill="#EEF8F9" stroke="#D9EFF2" stroke-width=".99"></path><path fill-rule="evenodd" clip-rule="evenodd" d="M432.794 605.684a4.05 4.05 0 014.05-4.049h131.508a4.05 4.05 0 014.05 4.049v110.953a4.05 4.05 0 01-4.05 4.05H436.844a4.05 4.05 0 01-4.05-4.05V605.684z" fill="#FCF3CF"></path><path d="M477.299 649.721h-32.547l11.242-11.134 5.032 4.925 5.032-4.925 11.241 11.134z" fill="#FFD25B"></path><path d="M477.513 649.508v-22.697l-11.563 11.348 11.563 11.349zm-32.975 0v-22.697l11.563 11.348-11.563 11.349z" fill="#F2C357"></path><path d="M477.299 627.238h-32.547l16.06 16.059 16.487-16.059z" fill="#F0BB42"></path><path d="M477.425 626.168H444.4a.72.72 0 00-.718.718v22.974c0 .431.287.718.718.718h33.025c.431 0 .719-.287.719-.718l-.001-22.974a.72.72 0 00-.718-.718zm-32.308 2.441l9.765 9.764-9.765 9.764v-19.528zm15.795 13.784l-14.789-14.789h29.579l-14.79 14.789zm-5.025-3.015l4.523 4.523a.773.773 0 00.502.216.652.652 0 00.503-.216l4.523-4.523 9.764 9.764h-29.579l9.764-9.764zm11.056-1.005l9.764-9.764v19.528l-9.764-9.764z" fill="#000"></path><path d="M518.41 649.721h-32.546l11.241-11.134 5.032 4.925 5.032-4.925 11.241 11.134z" fill="#FFD25B"></path><path d="M518.624 649.508v-22.697l-11.562 11.348 11.562 11.349zm-32.974 0v-22.697l11.562 11.348-11.562 11.349z" fill="#F2C357"></path><path d="M518.41 627.238h-32.546l16.059 16.059 16.487-16.059z" fill="#F0BB42"></path><path d="M518.536 626.168h-33.025a.72.72 0 00-.718.718v22.974c0 .431.287.718.718.718h33.026c.431 0 .718-.287.718-.718v-22.974a.72.72 0 00-.718-.718h-.001zm-32.307 2.441l9.764 9.764-9.764 9.764v-19.528zm15.795 13.784l-14.79-14.789h29.58l-14.79 14.789zm-5.026-3.015l4.523 4.523a.775.775 0 00.503.216.65.65 0 00.502-.216l4.524-4.523 9.763 9.764h-29.579l9.764-9.764zm11.057-1.005l9.764-9.764v19.528l-9.764-9.764z" fill="#000"></path><path d="M439.138 591.184v-1.243h5.859v1.243h-2.184v5.89h-1.491v-5.89h-2.184zm8.104 5.995c-.541 0-1.009-.115-1.403-.345a2.36 2.36 0 01-.91-.968c-.213-.416-.32-.898-.32-1.446 0-.553.107-1.036.32-1.449a2.33 2.33 0 01.91-.968c.394-.232.862-.349 1.403-.349s1.008.117 1.4.349c.395.23.699.552.913.968.214.413.321.896.321 1.449 0 .548-.107 1.03-.321 1.446a2.355 2.355 0 01-.913.968c-.392.23-.859.345-1.4.345zm.007-1.15a.92.92 0 00.617-.209c.165-.141.289-.334.372-.578.086-.244.129-.521.129-.832 0-.312-.043-.589-.129-.833a1.29 1.29 0 00-.372-.578.913.913 0 00-.617-.213.945.945 0 00-.627.213 1.3 1.3 0 00-.379.578 2.55 2.55 0 00-.126.833c0 .311.042.588.126.832.085.244.212.437.379.578.17.14.379.209.627.209zm3.258 3.052v-7.357h1.463v.899h.066a1.95 1.95 0 01.282-.439c.126-.151.288-.276.488-.376.202-.103.453-.154.752-.154.391 0 .75.103 1.08.307.33.202.593.507.791.916.197.406.296.916.296 1.529 0 .597-.096 1.101-.289 1.512-.191.408-.451.718-.78.93a2.005 2.005 0 01-1.101.313c-.288 0-.533-.047-.735-.143a1.514 1.514 0 01-.491-.358 1.844 1.844 0 01-.293-.443h-.045v2.864h-1.484zm1.453-4.682c0 .318.044.596.132.833.088.236.216.421.383.553.167.13.37.196.61.196a.96.96 0 00.613-.199c.167-.135.293-.32.379-.557.089-.24.133-.515.133-.826 0-.309-.043-.58-.129-.815a1.217 1.217 0 00-.38-.55.959.959 0 00-.616-.199.977.977 0 00-.613.192 1.197 1.197 0 00-.38.543 2.36 2.36 0 00-.132.829zm4.421 2.675v-5.35h1.484v5.35h-1.484zm.745-6.04a.805.805 0 01-.567-.219.71.71 0 01-.234-.533c0-.204.078-.38.234-.526a.795.795 0 01.567-.223c.221 0 .409.074.565.223a.71.71 0 010 1.059.797.797 0 01-.565.219zm4.011 6.145c-.548 0-1.019-.116-1.414-.349a2.348 2.348 0 01-.905-.975c-.209-.416-.314-.894-.314-1.435 0-.548.106-1.029.317-1.442.214-.416.517-.74.909-.972.393-.234.859-.352 1.401-.352.466 0 .875.085 1.226.255.35.169.628.407.832.714a2.1 2.1 0 01.338 1.08h-1.4a1.082 1.082 0 00-.314-.645c-.167-.165-.386-.247-.658-.247a.999.999 0 00-.603.188 1.198 1.198 0 00-.397.54 2.31 2.31 0 00-.143.86c0 .341.047.632.14.871.095.239.228.421.4.547a.999.999 0 00.603.188.976.976 0 00.456-.105.87.87 0 00.338-.303c.091-.134.15-.296.178-.484h1.4a2.197 2.197 0 01-.334 1.08c-.198.309-.471.55-.819.724-.348.175-.76.262-1.237.262zm6.201-.105h-1.616l2.462-7.133h1.944l2.459 7.133h-1.616l-1.787-5.503h-.056l-1.79 5.503zm-.101-2.804h3.818v1.178h-3.818v-1.178z" fill="#1A1A1A"></path><path d="M532.597 539.659a1.097 1.097 0 00-1.572 0h-.005a1.13 1.13 0 00-.327.8 1.13 1.13 0 00.323.799l.006.006a1.082 1.082 0 00.783.327c.31 0 .588-.124.789-.327l.002-.006c.2-.201.319-.483.319-.799a1.133 1.133 0 00-.323-.8h.005zm-.789 15.491c.31 0 .588-.129.789-.33l.002-.006c.201-.201.319-.484.319-.796 0-.319-.122-.598-.319-.802h-.002a1.09 1.09 0 00-.789-.332 1.068 1.068 0 00-.783.332h-.005a1.142 1.142 0 00-.324.802c-.001.298.115.584.324.796l.005.006a1.105 1.105 0 00.783.329v.001zm6.059-3.429a1.1 1.1 0 00.678-.525l.02-.04c.132-.252.163-.545.088-.82a1.104 1.104 0 00-.518-.688l-.016-.01a1.093 1.093 0 00-.828-.102 1.09 1.09 0 00-.676.528 1.141 1.141 0 00.406 1.548h.001c.266.156.567.184.846.107l-.001.002zm-4.921-5.639a1.585 1.585 0 00-2.279 0 1.667 1.667 0 000 2.321c.291.294.693.479 1.135.479a1.61 1.61 0 001.14-.479c.303-.312.472-.729.47-1.163a1.643 1.643 0 00-.47-1.158h.004zm-.639-1.928a3.042 3.042 0 011.673.879h.003c.072.073.14.15.204.229l1.11-.653a2.442 2.442 0 01-.036-1.389 2.419 2.419 0 011.117-1.48l.019-.012a2.361 2.361 0 011.801-.236 2.393 2.393 0 011.454 1.135v.002a2.48 2.48 0 01.24 1.85 2.422 2.422 0 01-1.118 1.482l-.152.091h-.015a2.37 2.37 0 01-2.816-.571l-1.109.652a3.188 3.188 0 010 2.212l1.109.65a2.38 2.38 0 011.162-.725 2.33 2.33 0 011.821.245l.037.018v.002c.536.33.924.854 1.081 1.464a2.472 2.472 0 01-.24 1.848l-.02.041h-.003a2.42 2.42 0 01-1.433 1.104 2.382 2.382 0 01-1.821-.244v-.005a2.426 2.426 0 01-1.118-1.481 2.435 2.435 0 01.036-1.387l-1.11-.652a3.114 3.114 0 01-.203.226l-.004.004a3.02 3.02 0 01-1.672.874v1.305a2.38 2.38 0 011.197.662l.002.004c.434.439.702 1.051.702 1.724a2.445 2.445 0 01-.702 1.72l-.002.007a2.391 2.391 0 01-1.696.71 2.38 2.38 0 01-1.694-.714h-.001v-.007a2.447 2.447 0 01-.704-1.721c0-.673.27-1.284.704-1.723v-.004h.001a2.336 2.336 0 011.197-.662v-1.305a2.99 2.99 0 01-1.667-.874l-.004-.004a3.152 3.152 0 01-.005-4.415h.005a3.02 3.02 0 011.671-.879v-1.3a2.422 2.422 0 01-1.197-.664h-.002v-.004a2.453 2.453 0 01-.703-1.724 2.457 2.457 0 01.703-1.723l.006-.002a2.357 2.357 0 011.69-.716c.661 0 1.26.273 1.697.716v.002h.002a2.467 2.467 0 010 3.447l-.002.003a2.406 2.406 0 01-1.198.664v1.3l.003.004zm6.237-.867l-.009-.015a1.122 1.122 0 00-.668-.513 1.084 1.084 0 00-.435-.029 1.082 1.082 0 00-.412.142h.002a1.12 1.12 0 00-.52.688c-.077.29-.036.599.112.86l.005.007c.153.266.398.445.671.517.274.079.58.045.844-.111l.014-.007c.259-.157.432-.406.504-.679.073-.282.044-.59-.108-.86zm4.927.382h1.238v3.848l1.787-2.011h1.49l-2.157 2.33 2.159 2.949h-1.419l-1.863-2.638v2.638h-1.239v-7.12l.004.004zm5.946 4.498c0 .655.464 1.608 1.58 1.608.69 0 1.145-.366 1.38-.846.124-.233.181-.483.2-.745a1.696 1.696 0 00-.143-.743 1.522 1.522 0 00-1.446-.932c-1.002 0-1.57.827-1.57 1.645v.009l-.001.004zm4.388 2.618h-1.239v-.76c-.33.615-1.021.923-1.749.923-1.665 0-2.639-1.319-2.639-2.809 0-1.665 1.182-2.8 2.639-2.8.945 0 1.522.51 1.749.934v-.771h1.239v5.283zm1.404-4.31h-.639v-.972h.639v-.298c0-1.57 1.172-1.664 2.062-1.675v.971c-.313 0-.823 0-.823.742v.259h.823v.972h-.823v4.311h-1.239v-4.31zm2.908-2.81h1.238v3.849l1.788-2.011h1.489l-2.157 2.33 2.161 2.952h-1.419l-1.862-2.638v2.638h-1.239v-7.12h.001zm5.95 4.502c0 .655.463 1.608 1.58 1.608.689 0 1.144-.366 1.383-.846a1.89 1.89 0 00.199-.745 1.673 1.673 0 00-.143-.743c-.213-.499-.699-.932-1.446-.932-1.002 0-1.57.827-1.57 1.645v.009l-.003.004zm4.384 2.618h-1.239v-.76c-.331.615-1.022.923-1.749.923-1.665 0-2.638-1.319-2.638-2.809 0-1.665 1.181-2.8 2.638-2.8.945 0 1.522.51 1.749.934v-.771h1.239v5.283z" fill="#1A464C"></path><path fill-rule="evenodd" clip-rule="evenodd" d="M831.645 571.038v20.983a2.115 2.115 0 01-.085.574 1.996 1.996 0 01-1.137 1.254 2.072 2.072 0 01-.563.141c-.065.006-.13.01-.194.01H654.979a2.082 2.082 0 01-.575-.086 2.176 2.176 0 01-.524-.248 1.97 1.97 0 01-.646-.713 1.996 1.996 0 01-.224-.738 1.814 1.814 0 01-.01-.194v-20.983c0-.065.003-.13.01-.194a1.794 1.794 0 01.075-.381 1.996 1.996 0 011.137-1.254 1.97 1.97 0 01.757-.15h174.687a2.115 2.115 0 01.386.038 1.781 1.781 0 01.371.112 2.156 2.156 0 01.342.183 1.97 1.97 0 01.646.713 2.156 2.156 0 01.149.358 2.086 2.086 0 01.085.575z" fill="#7C7C7C"></path><path fill-rule="evenodd" clip-rule="evenodd" d="M678.343 574.462h117.988v3.325H678.343v-3.325z" fill="#D8D8D8"></path><path fill-rule="evenodd" clip-rule="evenodd" d="M658.401 574.462h7.478v3.325h-7.478v-3.325z" fill="#D7D7D7"></path><path fill-rule="evenodd" clip-rule="evenodd" d="M812.949 574.462h3.324v3.325h-3.324v-3.325z" fill="#D7D400"></path><path fill-rule="evenodd" clip-rule="evenodd" d="M807.964 574.462h3.323v3.325h-3.323v-3.325z" fill="#FF3C00"></path><path fill-rule="evenodd" clip-rule="evenodd" d="M818.766 574.462h7.478v3.325h-7.478v-3.325z" fill="#00CD00"></path><path fill-rule="evenodd" clip-rule="evenodd" d="M678.343 579.866h117.988v3.326H678.343v-3.326z" fill="#D8D8D8"></path><path fill-rule="evenodd" clip-rule="evenodd" d="M658.401 579.866h7.478v3.326h-7.478v-3.326z" fill="#D7D7D7"></path><path fill-rule="evenodd" clip-rule="evenodd" d="M812.949 579.866h3.324v3.326h-3.324v-3.326z" fill="#D7D400"></path><path fill-rule="evenodd" clip-rule="evenodd" d="M807.964 579.866h3.324v3.326h-3.324v-3.326z" fill="#FF3C00"></path><path fill-rule="evenodd" clip-rule="evenodd" d="M818.766 579.866h7.478v3.326h-7.478v-3.326z" fill="#00CD00"></path><path fill-rule="evenodd" clip-rule="evenodd" d="M678.343 585.27h117.988v3.325H678.343v-3.325z" fill="#D8D8D8"></path><path fill-rule="evenodd" clip-rule="evenodd" d="M658.401 585.27h7.478v3.325h-7.478v-3.325z" fill="#D7D7D7"></path><path fill-rule="evenodd" clip-rule="evenodd" d="M812.949 585.27h3.324v3.325h-3.324v-3.325z" fill="#D7D400"></path><path fill-rule="evenodd" clip-rule="evenodd" d="M807.964 585.27h3.323v3.325h-3.323v-3.325z" fill="#FF3C00"></path><path fill-rule="evenodd" clip-rule="evenodd" d="M818.766 585.27h7.478v3.325h-7.478v-3.325z" fill="#00CD00"></path><path fill-rule="evenodd" clip-rule="evenodd" d="M831.645 259.763V563.03a3.987 3.987 0 01-.085.802 3.666 3.666 0 01-.149.5c-.031.08-.064.157-.1.233a2.66 2.66 0 01-.546.762 1.997 1.997 0 01-.342.256 1.73 1.73 0 01-.371.157 1.415 1.415 0 01-.386.053H654.979a1.395 1.395 0 01-.386-.053 1.696 1.696 0 01-.371-.157 1.977 1.977 0 01-.642-.599 2.572 2.572 0 01-.246-.419 3.023 3.023 0 01-.183-.478 3.666 3.666 0 01-.151-1.057V259.763c0-.09.003-.18.01-.271a3.427 3.427 0 01.075-.531 3.526 3.526 0 01.249-.733 2.572 2.572 0 01.39-.601 2.165 2.165 0 01.322-.301 1.716 1.716 0 01.547-.273 1.393 1.393 0 01.386-.053h174.687a1.415 1.415 0 01.574.119 1.73 1.73 0 01.525.347 2.165 2.165 0 01.3.343 2.563 2.563 0 01.246.419 3.264 3.264 0 01.249.733 3.987 3.987 0 01.085.802z" fill="#7C7C7C"></path><path fill-rule="evenodd" clip-rule="evenodd" d="M659.432 271.846h165.781a.642.642 0 01.192.027.813.813 0 01.357.214 1.047 1.047 0 01.15.178 1.526 1.526 0 01.214.464c.012.044.023.088.033.133a2.11 2.11 0 01.042.415v276.239a2.11 2.11 0 01-.042.415 2.545 2.545 0 01-.074.259 1.909 1.909 0 01-.108.234 1.502 1.502 0 01-.137.198 1.047 1.047 0 01-.249.216.726.726 0 01-.186.082.617.617 0 01-.192.027H659.432a.642.642 0 01-.193-.027.895.895 0 01-.273-.142 1.095 1.095 0 01-.233-.25 1.526 1.526 0 01-.214-.465 1.818 1.818 0 01-.071-.407 2.202 2.202 0 01-.004-.14V273.277a2.181 2.181 0 01.019-.279 1.927 1.927 0 01.097-.396 1.332 1.332 0 01.406-.587.978.978 0 01.179-.108.656.656 0 01.287-.061z" fill="#fff"></path><path fill-rule="evenodd" clip-rule="evenodd" d="M658.401 263.968h167.843v3.325H658.401v-3.325zm0 291.789h167.843v3.325H658.401v-3.325z" fill="#D7D7D7"></path><path d="M672.826 286.279v-6.053h2.423c.446 0 .817.066 1.115.198.297.132.521.315.671.55.15.232.224.5.224.804 0 .236-.047.444-.141.623a1.228 1.228 0 01-.391.438 1.59 1.59 0 01-.561.239v.059a1.387 1.387 0 011.141.701c.126.215.189.471.189.768 0 .322-.08.608-.24.86a1.608 1.608 0 01-.7.595c-.309.145-.691.218-1.144.218h-2.586zm1.28-1.046h1.043c.357 0 .617-.068.78-.204a.682.682 0 00.246-.55.812.812 0 00-.122-.443.823.823 0 00-.345-.302 1.186 1.186 0 00-.529-.109h-1.073v1.608zm0-2.474h.948c.176 0 .331-.031.467-.092a.775.775 0 00.326-.266.698.698 0 00.121-.411.664.664 0 00-.234-.529c-.153-.134-.372-.201-.656-.201h-.972v1.499zm3.889 3.52v-6.053h2.389c.457 0 .847.082 1.17.245.325.162.573.391.742.689.172.295.257.643.257 1.043 0 .402-.086.748-.26 1.038a1.686 1.686 0 01-.754.662c-.327.154-.723.23-1.188.23h-1.599v-1.028h1.392c.245 0 .448-.034.609-.101a.723.723 0 00.361-.301.952.952 0 00.121-.5c0-.201-.04-.37-.121-.508a.737.737 0 00-.364-.313 1.486 1.486 0 00-.612-.11h-.863v5.007h-1.28zm3.27-2.755l1.504 2.755h-1.413l-1.472-2.755h1.381zm7.422-.271c0 .66-.125 1.221-.375 1.684a2.597 2.597 0 01-1.017 1.061 2.864 2.864 0 01-1.442.364 2.873 2.873 0 01-1.449-.366 2.616 2.616 0 01-1.013-1.062c-.249-.463-.373-1.023-.373-1.681 0-.661.124-1.222.373-1.685a2.587 2.587 0 011.013-1.058 2.864 2.864 0 011.449-.367c.534 0 1.015.122 1.442.367.43.242.769.595 1.017 1.058.25.463.375 1.024.375 1.685zm-1.297 0c0-.428-.064-.789-.192-1.082a1.461 1.461 0 00-.535-.668 1.44 1.44 0 00-.81-.228c-.31 0-.58.076-.81.228-.231.151-.41.374-.538.668-.126.293-.189.654-.189 1.082 0 .427.063.788.189 1.081.128.294.307.517.538.668.23.152.5.228.81.228.309 0 .579-.076.81-.228.23-.151.409-.374.535-.668.128-.293.192-.654.192-1.081zm1.912 3.026v-6.053h1.28v2.669h.08l2.178-2.669h1.534l-2.246 2.71 2.273 3.343h-1.531l-1.658-2.488-.63.768v1.72h-1.28zm5.406 0v-6.053h4.079v1.055h-2.799v1.442h2.589v1.056h-2.589v1.445h2.811v1.055h-4.091zm4.763 0v-6.053h2.388c.457 0 .848.082 1.171.245.325.162.572.391.742.689.171.295.257.643.257 1.043 0 .402-.087.748-.26 1.038a1.697 1.697 0 01-.754.662c-.327.154-.723.23-1.188.23h-1.599v-1.028h1.392c.244 0 .447-.034.609-.101a.72.72 0 00.36-.301.952.952 0 00.122-.5.987.987 0 00-.122-.508.735.735 0 00-.363-.313 1.492 1.492 0 00-.612-.11h-.863v5.007h-1.28zm3.269-2.755l1.505 2.755h-1.413l-1.472-2.755h1.38zm6.051-3.298v6.053h-1.279v-4.838h-.036l-1.386.869v-1.135l1.498-.949h1.203z" fill="#919191"></path><path d="M811.409 290.651H673.236a5.884 5.884 0 00-5.885 5.884v238.63a5.885 5.885 0 005.885 5.885h138.173a5.885 5.885 0 005.885-5.885v-238.63a5.884 5.884 0 00-5.885-5.884z" fill="#EEF8F9" stroke="#D9EFF2" stroke-width=".99"></path><path fill-rule="evenodd" clip-rule="evenodd" d="M672.794 364.684a4.05 4.05 0 014.05-4.049h131.508a4.05 4.05 0 014.05 4.049v110.953a4.05 4.05 0 01-4.05 4.05H676.844a4.05 4.05 0 01-4.05-4.05V364.684z" fill="#FCF3CF"></path><path d="M717.299 408.721h-32.547l11.242-11.134 5.032 4.925 5.032-4.925 11.241 11.134z" fill="#FFD25B"></path><path d="M717.513 408.508v-22.697l-11.563 11.348 11.563 11.349zm-32.975 0v-22.697l11.563 11.348-11.563 11.349z" fill="#F2C357"></path><path d="M717.299 386.238h-32.547l16.06 16.059 16.487-16.059z" fill="#F0BB42"></path><path d="M717.425 385.168H684.4a.72.72 0 00-.718.718v22.974c0 .431.287.718.718.718h33.025c.431 0 .719-.287.719-.718l-.001-22.974a.72.72 0 00-.718-.718zm-32.308 2.441l9.765 9.764-9.765 9.764v-19.528zm15.795 13.784l-14.789-14.789h29.579l-14.79 14.789zm-5.025-3.015l4.523 4.523a.773.773 0 00.502.216.652.652 0 00.503-.216l4.523-4.523 9.764 9.764h-29.579l9.764-9.764zm11.056-1.005l9.764-9.764v19.528l-9.764-9.764z" fill="#000"></path><path d="M758.41 408.721h-32.546l11.241-11.134 5.032 4.925 5.032-4.925 11.241 11.134z" fill="#FFD25B"></path><path d="M758.624 408.508v-22.697l-11.562 11.348 11.562 11.349zm-32.974 0v-22.697l11.562 11.348-11.562 11.349z" fill="#F2C357"></path><path d="M758.41 386.238h-32.546l16.059 16.059 16.487-16.059z" fill="#F0BB42"></path><path d="M758.536 385.168h-33.025a.72.72 0 00-.718.718v22.974c0 .431.287.718.718.718h33.026c.431 0 .718-.287.718-.718v-22.974a.72.72 0 00-.718-.718h-.001zm-32.307 2.441l9.764 9.764-9.764 9.764v-19.528zm15.795 13.784l-14.79-14.789h29.58l-14.79 14.789zm-5.026-3.015l4.523 4.523a.775.775 0 00.503.216.65.65 0 00.502-.216l4.524-4.523 9.763 9.764h-29.579l9.764-9.764zm11.057-1.005l9.764-9.764v19.528l-9.764-9.764z" fill="#000"></path><path d="M679.138 350.184v-1.243h5.859v1.243h-2.184v5.89h-1.491v-5.89h-2.184zm8.104 5.995c-.541 0-1.009-.115-1.403-.345a2.36 2.36 0 01-.91-.968c-.213-.416-.32-.898-.32-1.446 0-.553.107-1.036.32-1.449a2.33 2.33 0 01.91-.968c.394-.232.862-.349 1.403-.349s1.008.117 1.4.349c.395.23.699.552.913.968.214.413.321.896.321 1.449 0 .548-.107 1.03-.321 1.446a2.355 2.355 0 01-.913.968c-.392.23-.859.345-1.4.345zm.007-1.15a.92.92 0 00.617-.209c.165-.141.289-.334.372-.578.086-.244.129-.521.129-.832 0-.312-.043-.589-.129-.833a1.29 1.29 0 00-.372-.578.913.913 0 00-.617-.213.945.945 0 00-.627.213 1.3 1.3 0 00-.379.578 2.55 2.55 0 00-.126.833c0 .311.042.588.126.832.085.244.212.437.379.578.17.14.379.209.627.209zm3.258 3.052v-7.357h1.463v.899h.066a1.95 1.95 0 01.282-.439c.126-.151.288-.276.488-.376.202-.103.453-.154.752-.154.391 0 .75.103 1.08.307.33.202.593.507.791.916.197.406.296.916.296 1.529 0 .597-.096 1.101-.289 1.512-.191.408-.451.718-.78.93a2.005 2.005 0 01-1.101.313c-.288 0-.533-.047-.735-.143a1.514 1.514 0 01-.491-.358 1.844 1.844 0 01-.293-.443h-.045v2.864h-1.484zm1.453-4.682c0 .318.044.596.132.833.088.236.216.421.383.553.167.13.37.196.61.196a.96.96 0 00.613-.199c.167-.135.293-.32.379-.557.089-.24.133-.515.133-.826 0-.309-.043-.58-.129-.815a1.217 1.217 0 00-.38-.55.959.959 0 00-.616-.199.977.977 0 00-.613.192 1.197 1.197 0 00-.38.543 2.36 2.36 0 00-.132.829zm4.421 2.675v-5.35h1.484v5.35h-1.484zm.745-6.04a.805.805 0 01-.567-.219.71.71 0 01-.234-.533c0-.204.078-.38.234-.526a.795.795 0 01.567-.223c.221 0 .409.074.565.223a.71.71 0 010 1.059.797.797 0 01-.565.219zm4.011 6.145c-.548 0-1.019-.116-1.414-.349a2.348 2.348 0 01-.905-.975c-.209-.416-.314-.894-.314-1.435 0-.548.106-1.029.317-1.442.214-.416.517-.74.909-.972.393-.234.859-.352 1.401-.352.466 0 .875.085 1.226.255.35.169.628.407.832.714a2.1 2.1 0 01.338 1.08h-1.4a1.082 1.082 0 00-.314-.645c-.167-.165-.386-.247-.658-.247a.999.999 0 00-.603.188 1.198 1.198 0 00-.397.54 2.31 2.31 0 00-.143.86c0 .341.047.632.14.871.095.239.228.421.4.547a.999.999 0 00.603.188.976.976 0 00.456-.105.87.87 0 00.338-.303c.091-.134.15-.296.178-.484h1.4a2.197 2.197 0 01-.334 1.08c-.198.309-.471.55-.819.724-.348.175-.76.262-1.237.262zm6.201-.105h-1.616l2.462-7.133h1.944l2.459 7.133h-1.616l-1.787-5.503h-.056l-1.79 5.503zm-.101-2.804h3.818v1.178h-3.818v-1.178z" fill="#1A1A1A"></path><path d="M772.597 298.659a1.097 1.097 0 00-1.572 0h-.005a1.13 1.13 0 00-.327.8 1.13 1.13 0 00.323.799l.006.006a1.082 1.082 0 00.783.327c.31 0 .588-.124.789-.327l.002-.006c.2-.201.319-.483.319-.799a1.133 1.133 0 00-.323-.8h.005zm-.789 15.491c.31 0 .588-.129.789-.33l.002-.006c.201-.201.319-.484.319-.796 0-.319-.122-.598-.319-.802h-.002a1.09 1.09 0 00-.789-.332 1.068 1.068 0 00-.783.332h-.005a1.142 1.142 0 00-.324.802c-.001.298.115.584.324.796l.005.006a1.105 1.105 0 00.783.329v.001zm6.059-3.429a1.1 1.1 0 00.678-.525l.02-.04c.132-.252.163-.545.088-.82a1.104 1.104 0 00-.518-.688l-.016-.01a1.093 1.093 0 00-.828-.102 1.09 1.09 0 00-.676.528 1.141 1.141 0 00.406 1.548h.001c.266.156.567.184.846.107l-.001.002zm-4.921-5.639a1.585 1.585 0 00-2.279 0 1.667 1.667 0 000 2.321c.291.294.693.479 1.135.479a1.61 1.61 0 001.14-.479c.303-.312.472-.729.47-1.163a1.643 1.643 0 00-.47-1.158h.004zm-.639-1.928a3.042 3.042 0 011.673.879h.003c.072.073.14.15.204.229l1.11-.653a2.442 2.442 0 01-.036-1.389 2.419 2.419 0 011.117-1.48l.019-.012a2.361 2.361 0 011.801-.236 2.393 2.393 0 011.454 1.135v.002a2.48 2.48 0 01.24 1.85 2.422 2.422 0 01-1.118 1.482l-.152.091h-.015a2.37 2.37 0 01-2.816-.571l-1.109.652a3.188 3.188 0 010 2.212l1.109.65a2.38 2.38 0 011.162-.725 2.33 2.33 0 011.821.245l.037.018v.002c.536.33.924.854 1.081 1.464a2.472 2.472 0 01-.24 1.848l-.02.041h-.003a2.42 2.42 0 01-1.433 1.104 2.382 2.382 0 01-1.821-.244v-.005a2.426 2.426 0 01-1.118-1.481 2.435 2.435 0 01.036-1.387l-1.11-.652a3.114 3.114 0 01-.203.226l-.004.004a3.02 3.02 0 01-1.672.874v1.305a2.38 2.38 0 011.197.662l.002.004c.434.439.702 1.051.702 1.724a2.445 2.445 0 01-.702 1.72l-.002.007a2.391 2.391 0 01-1.696.71 2.38 2.38 0 01-1.694-.714h-.001v-.007a2.447 2.447 0 01-.704-1.721c0-.673.27-1.284.704-1.723v-.004h.001a2.336 2.336 0 011.197-.662v-1.305a2.99 2.99 0 01-1.667-.874l-.004-.004a3.152 3.152 0 01-.005-4.415h.005a3.02 3.02 0 011.671-.879v-1.3a2.422 2.422 0 01-1.197-.664h-.002v-.004a2.453 2.453 0 01-.703-1.724 2.457 2.457 0 01.703-1.723l.006-.002a2.357 2.357 0 011.69-.716c.661 0 1.26.273 1.697.716v.002h.002a2.467 2.467 0 010 3.447l-.002.003a2.406 2.406 0 01-1.198.664v1.3l.003.004zm6.237-.867l-.009-.015a1.122 1.122 0 00-.668-.513 1.084 1.084 0 00-.435-.029 1.082 1.082 0 00-.412.142h.002a1.12 1.12 0 00-.52.688c-.077.29-.036.599.112.86l.005.007c.153.266.398.445.671.517.274.079.58.045.844-.111l.014-.007c.259-.157.432-.406.504-.679.073-.282.044-.59-.108-.86zm4.927.382h1.238v3.848l1.787-2.011h1.49l-2.157 2.33 2.159 2.949h-1.419l-1.863-2.638v2.638h-1.239v-7.12l.004.004zm5.946 4.498c0 .655.464 1.608 1.58 1.608.69 0 1.145-.366 1.38-.846.124-.233.181-.483.2-.745a1.696 1.696 0 00-.143-.743 1.522 1.522 0 00-1.446-.932c-1.002 0-1.57.827-1.57 1.645v.009l-.001.004zm4.388 2.618h-1.239v-.76c-.33.615-1.021.923-1.749.923-1.665 0-2.639-1.319-2.639-2.809 0-1.665 1.182-2.8 2.639-2.8.945 0 1.522.51 1.749.934v-.771h1.239v5.283zm1.404-4.31h-.639v-.972h.639v-.298c0-1.57 1.172-1.664 2.062-1.675v.971c-.313 0-.823 0-.823.742v.259h.823v.972h-.823v4.311h-1.239v-4.31zm2.908-2.81h1.238v3.849l1.788-2.011h1.489l-2.157 2.33 2.161 2.952h-1.419l-1.862-2.638v2.638h-1.239v-7.12h.001zm5.95 4.502c0 .655.463 1.608 1.58 1.608.689 0 1.144-.366 1.383-.846a1.89 1.89 0 00.199-.745 1.673 1.673 0 00-.143-.743c-.213-.499-.699-.932-1.446-.932-1.002 0-1.57.827-1.57 1.645v.009l-.003.004zm4.384 2.618h-1.239v-.76c-.331.615-1.022.923-1.749.923-1.665 0-2.638-1.319-2.638-2.809 0-1.665 1.181-2.8 2.638-2.8.945 0 1.522.51 1.749.934v-.771h1.239v5.283z" fill="#1A464C"></path><path fill-rule="evenodd" clip-rule="evenodd" d="M34 404c0-5.523 4.477-10 10-10h250c5.523 0 10 4.477 10 10v92c0 5.523-4.477 10-10 10H44c-5.523 0-10-4.477-10-10v-92z" fill="#53777A"></path><path d="M68.96 467v-34.051h13.434c2.582 0 4.782.493 6.6 1.48 1.818.975 3.204 2.333 4.157 4.073.964 1.729 1.446 3.725 1.446 5.986 0 2.261-.487 4.256-1.463 5.985-.975 1.729-2.388 3.076-4.24 4.041-1.84.964-4.067 1.446-6.683 1.446h-8.563v-5.769h7.399c1.385 0 2.527-.239 3.425-.715.909-.488 1.585-1.159 2.028-2.012.455-.865.682-1.857.682-2.976 0-1.131-.227-2.117-.682-2.96-.443-.853-1.12-1.513-2.028-1.978-.909-.477-2.062-.715-3.458-.715h-4.855V467h-7.2zm29.507 0v-25.538h6.867v4.456h.266c.466-1.585 1.247-2.782 2.344-3.592 1.098-.82 2.361-1.23 3.791-1.23.355 0 .737.022 1.147.067.41.044.771.105 1.081.182v6.285c-.332-.1-.792-.188-1.38-.266a12.49 12.49 0 00-1.613-.116c-1.042 0-1.973.227-2.793.681a5.031 5.031 0 00-1.929 1.863c-.465.798-.698 1.718-.698 2.76V467h-7.083zm28.835.499c-2.583 0-4.817-.549-6.701-1.646-1.873-1.109-3.32-2.649-4.339-4.622-1.02-1.984-1.53-4.284-1.53-6.9 0-2.638.51-4.944 1.53-6.917 1.019-1.984 2.466-3.525 4.339-4.622 1.884-1.108 4.118-1.663 6.701-1.663 2.582 0 4.81.555 6.683 1.663 1.885 1.097 3.337 2.638 4.357 4.622 1.019 1.973 1.529 4.279 1.529 6.917 0 2.616-.51 4.916-1.529 6.9-1.02 1.973-2.472 3.513-4.357 4.622-1.873 1.097-4.101 1.646-6.683 1.646zm.033-5.487c1.175 0 2.156-.332 2.943-.998.787-.676 1.38-1.596 1.779-2.759.41-1.164.615-2.489.615-3.974 0-1.486-.205-2.81-.615-3.974-.399-1.164-.992-2.084-1.779-2.76-.787-.676-1.768-1.014-2.943-1.014-1.186 0-2.184.338-2.993 1.014-.798.676-1.402 1.596-1.812 2.76-.399 1.164-.599 2.488-.599 3.974 0 1.485.2 2.81.599 3.974.41 1.163 1.014 2.083 1.812 2.759.809.666 1.807.998 2.993.998zm25.879 5.404c-1.94 0-3.697-.499-5.271-1.497-1.563-1.008-2.804-2.488-3.724-4.439-.909-1.962-1.363-4.367-1.363-7.216 0-2.926.471-5.359 1.413-7.299.942-1.951 2.195-3.408 3.757-4.373a9.633 9.633 0 015.171-1.463c1.43 0 2.622.244 3.575.732.964.476 1.74 1.075 2.328 1.796.598.709 1.053 1.407 1.363 2.094h.216v-12.802h7.066V467h-6.983v-4.09h-.299c-.333.709-.804 1.413-1.413 2.111-.599.688-1.38 1.259-2.345 1.713-.953.454-2.117.682-3.491.682zm2.244-5.637c1.142 0 2.106-.31 2.893-.931.798-.632 1.408-1.513 1.829-2.643.433-1.131.649-2.456.649-3.974 0-1.519-.211-2.838-.632-3.957-.421-1.12-1.031-1.984-1.829-2.594-.798-.61-1.768-.914-2.91-.914-1.163 0-2.144.316-2.942.947-.799.632-1.403 1.508-1.813 2.627-.41 1.12-.615 2.417-.615 3.891 0 1.485.205 2.799.615 3.94.421 1.131 1.026 2.018 1.813 2.661.798.631 1.779.947 2.942.947zm33.814-5.653v-14.664h7.083V467h-6.8v-4.639h-.266a7.537 7.537 0 01-2.876 3.608c-1.33.909-2.954 1.364-4.872 1.364-1.707 0-3.209-.388-4.506-1.164-1.297-.776-2.311-1.879-3.042-3.309-.721-1.43-1.087-3.142-1.098-5.138v-16.26h7.083v14.997c.011 1.507.416 2.699 1.214 3.575.798.875 1.868 1.313 3.209 1.313.853 0 1.651-.194 2.394-.582.743-.399 1.341-.986 1.796-1.762.465-.776.692-1.735.681-2.877zm23.614 11.373c-2.616 0-4.866-.554-6.75-1.663-1.874-1.119-3.315-2.671-4.323-4.655-.998-1.984-1.497-4.268-1.497-6.85 0-2.616.505-4.911 1.513-6.884 1.02-1.984 2.467-3.53 4.34-4.638 1.873-1.12 4.101-1.68 6.684-1.68 2.228 0 4.179.405 5.852 1.214 1.674.809 2.999 1.945 3.974 3.408.975 1.464 1.513 3.182 1.613 5.155h-6.684c-.189-1.275-.687-2.3-1.496-3.076-.799-.787-1.846-1.181-3.143-1.181-1.097 0-2.056.3-2.876.898-.809.588-1.441 1.447-1.896 2.577-.454 1.131-.681 2.5-.681 4.107 0 1.629.221 3.015.665 4.157.454 1.141 1.092 2.011 1.912 2.61.82.598 1.779.898 2.876.898.809 0 1.535-.167 2.178-.499a4.21 4.21 0 001.613-1.447c.432-.642.715-1.413.848-2.311h6.684c-.111 1.951-.643 3.669-1.596 5.155-.943 1.474-2.245 2.626-3.908 3.458-1.662.831-3.63 1.247-5.902 1.247zm26.906 0c-2.627 0-4.888-.532-6.784-1.596-1.884-1.076-3.336-2.594-4.356-4.556-1.02-1.973-1.53-4.306-1.53-7 0-2.627.51-4.932 1.53-6.916s2.455-3.531 4.306-4.639c1.862-1.108 4.046-1.663 6.551-1.663 1.685 0 3.253.272 4.705.815a10.439 10.439 0 013.824 2.411c1.098 1.075 1.951 2.427 2.561 4.057.61 1.618.914 3.513.914 5.686v1.945h-21.564v-4.389h14.897c0-1.02-.222-1.923-.665-2.71a4.765 4.765 0 00-1.845-1.846c-.776-.454-1.68-.682-2.711-.682-1.075 0-2.028.25-2.859.749a5.24 5.24 0 00-1.929 1.978c-.465.82-.704 1.735-.715 2.744v4.173c0 1.263.233 2.355.698 3.275.477.92 1.148 1.63 2.012 2.128.865.499 1.89.749 3.076.749.787 0 1.508-.111 2.162-.333a4.485 4.485 0 001.679-.998 4.34 4.34 0 001.064-1.629l6.551.432c-.333 1.574-1.015 2.949-2.045 4.124-1.02 1.164-2.339 2.072-3.957 2.726-1.608.643-3.464.965-5.57.965zm15.67-.499v-25.538h6.867v4.456h.266c.465-1.585 1.247-2.782 2.344-3.592 1.097-.82 2.361-1.23 3.791-1.23.355 0 .737.022 1.147.067.41.044.771.105 1.081.182v6.285c-.333-.1-.793-.188-1.38-.266a12.503 12.503 0 00-1.613-.116c-1.042 0-1.973.227-2.793.681a5.031 5.031 0 00-1.929 1.863c-.465.798-.698 1.718-.698 2.76V467h-7.083z" fill="#fff"></path><path fill-rule="evenodd" clip-rule="evenodd" d="M832 698c0-5.523 4.477-10 10-10h311c5.52 0 10 4.477 10 10v92c0 5.523-4.48 10-10 10H842c-5.523 0-10-4.477-10-10v-92z" fill="#53777A"></path><path d="M901.003 738.87h-7.282c-.133-.942-.405-1.779-.815-2.51a6.38 6.38 0 00-1.579-1.896 6.954 6.954 0 00-2.228-1.197 8.525 8.525 0 00-2.71-.416c-1.763 0-3.298.438-4.606 1.314-1.308.865-2.322 2.128-3.042 3.791-.721 1.651-1.081 3.658-1.081 6.019 0 2.427.36 4.467 1.081 6.118.731 1.652 1.751 2.899 3.059 3.741 1.308.842 2.821 1.264 4.539 1.264.964 0 1.857-.128 2.677-.383a7.033 7.033 0 002.211-1.114 6.421 6.421 0 001.596-1.812c.433-.709.732-1.519.898-2.427l7.282.033a13.155 13.155 0 01-1.413 4.522c-.742 1.441-1.746 2.732-3.009 3.874-1.253 1.131-2.749 2.029-4.489 2.694-1.729.654-3.686.981-5.869.981-3.038 0-5.753-.688-8.147-2.062-2.384-1.375-4.268-3.364-5.653-5.969-1.375-2.605-2.062-5.758-2.062-9.46 0-3.714.698-6.873 2.095-9.478 1.397-2.604 3.292-4.588 5.686-5.952 2.394-1.374 5.088-2.061 8.081-2.061 1.973 0 3.801.277 5.486.831 1.696.554 3.198 1.363 4.506 2.427a12.49 12.49 0 013.192 3.874c.832 1.53 1.364 3.281 1.596 5.254zm15.895 22.629c-2.582 0-4.816-.549-6.7-1.646-1.873-1.109-3.32-2.649-4.34-4.622-1.019-1.984-1.529-4.284-1.529-6.9 0-2.638.51-4.944 1.529-6.917 1.02-1.984 2.467-3.525 4.34-4.622 1.884-1.108 4.118-1.663 6.7-1.663 2.583 0 4.811.555 6.684 1.663 1.884 1.097 3.336 2.638 4.356 4.622 1.02 1.973 1.53 4.279 1.53 6.917 0 2.616-.51 4.916-1.53 6.9-1.02 1.973-2.472 3.513-4.356 4.622-1.873 1.097-4.101 1.646-6.684 1.646zm.034-5.487c1.174 0 2.155-.332 2.942-.998.787-.676 1.38-1.596 1.779-2.759.411-1.164.616-2.489.616-3.974 0-1.486-.205-2.81-.616-3.974-.399-1.164-.992-2.084-1.779-2.76-.787-.676-1.768-1.014-2.942-1.014-1.186 0-2.184.338-2.993 1.014-.798.676-1.402 1.596-1.812 2.76-.4 1.164-.599 2.488-.599 3.974 0 1.485.199 2.81.599 3.974.41 1.163 1.014 2.083 1.812 2.759.809.666 1.807.998 2.993.998zm23.551-9.776V761H933.4v-25.538h6.75v4.506h.3a7.118 7.118 0 012.843-3.525c1.33-.876 2.943-1.314 4.838-1.314 1.773 0 3.32.388 4.639 1.164 1.319.776 2.344 1.884 3.076 3.325.731 1.43 1.097 3.137 1.097 5.121V761h-7.083v-14.997c.011-1.563-.388-2.782-1.197-3.658-.809-.887-1.923-1.33-3.342-1.33-.953 0-1.796.205-2.527.615-.721.41-1.286 1.009-1.696 1.796-.399.776-.604 1.712-.615 2.81zm42.618-3.492l-6.485.399a3.35 3.35 0 00-.715-1.496c-.366-.455-.848-.815-1.446-1.081-.588-.277-1.292-.416-2.112-.416-1.097 0-2.023.233-2.776.699-.754.454-1.131 1.064-1.131 1.829 0 .609.244 1.125.732 1.546.487.421 1.324.759 2.51 1.014l4.622.931c2.483.51 4.334 1.33 5.554 2.461 1.219 1.131 1.828 2.616 1.828 4.456 0 1.674-.493 3.142-1.479 4.406-.976 1.263-2.317 2.25-4.024 2.959-1.696.699-3.652 1.048-5.869 1.048-3.381 0-6.074-.704-8.08-2.112-1.996-1.419-3.165-3.347-3.509-5.786l6.967-.366c.21 1.031.72 1.818 1.529 2.361.81.532 1.846.798 3.11.798 1.241 0 2.239-.238 2.992-.714.765-.488 1.153-1.114 1.164-1.879-.011-.643-.282-1.17-.815-1.58-.532-.421-1.352-.742-2.46-.964l-4.423-.881c-2.494-.499-4.35-1.364-5.57-2.594-1.208-1.23-1.812-2.799-1.812-4.705 0-1.641.443-3.054 1.33-4.24.898-1.186 2.156-2.1 3.774-2.743 1.63-.643 3.536-.965 5.72-.965 3.225 0 5.764.682 7.615 2.045 1.862 1.364 2.948 3.22 3.259 5.57zm20.749 7.382v-14.664h7.08V761h-6.8v-4.639h-.27c-.57 1.497-1.53 2.699-2.87 3.608-1.334.909-2.958 1.364-4.875 1.364-1.707 0-3.209-.388-4.506-1.164-1.297-.776-2.311-1.879-3.043-3.309-.72-1.43-1.086-3.142-1.097-5.138v-16.26h7.083v14.997c.011 1.507.416 2.699 1.214 3.575.798.875 1.867 1.313 3.209 1.313.853 0 1.655-.194 2.395-.582.74-.399 1.34-.986 1.79-1.762.47-.776.7-1.735.69-2.877zM1015.92 761v-25.538h6.75v4.506h.3c.53-1.497 1.42-2.677 2.66-3.542 1.24-.864 2.73-1.297 4.46-1.297 1.75 0 3.24.438 4.47 1.314 1.23.864 2.05 2.039 2.46 3.525h.27c.52-1.464 1.46-2.633 2.82-3.509 1.38-.886 3-1.33 4.87-1.33 2.39 0 4.32.76 5.81 2.278 1.49 1.508 2.24 3.647 2.24 6.418V761h-7.07v-15.778c0-1.419-.37-2.483-1.13-3.193-.75-.709-1.69-1.064-2.82-1.064-1.29 0-2.29.41-3.01 1.231-.72.809-1.08 1.878-1.08 3.208V761h-6.87v-15.928c0-1.253-.36-2.25-1.08-2.993-.71-.743-1.65-1.114-2.81-1.114-.79 0-1.5.2-2.13.599-.62.388-1.11.936-1.48 1.646-.36.698-.55 1.518-.55 2.46V761h-7.08zm53.67.499c-2.63 0-4.89-.532-6.78-1.596-1.89-1.076-3.34-2.594-4.36-4.556-1.02-1.973-1.53-4.306-1.53-7 0-2.627.51-4.932 1.53-6.916s2.46-3.531 4.31-4.639c1.86-1.108 4.04-1.663 6.55-1.663 1.68 0 3.25.272 4.7.815 1.47.532 2.74 1.336 3.83 2.411 1.1 1.075 1.95 2.427 2.56 4.057.61 1.618.91 3.513.91 5.686v1.945h-21.56v-4.389h14.9c0-1.02-.23-1.923-.67-2.71a4.738 4.738 0 00-1.85-1.846c-.77-.454-1.67-.682-2.71-.682-1.07 0-2.02.25-2.85.749a5.135 5.135 0 00-1.93 1.978c-.47.82-.71 1.735-.72 2.744v4.173c0 1.263.23 2.355.7 3.275.48.92 1.15 1.63 2.01 2.128.87.499 1.89.749 3.08.749.78 0 1.5-.111 2.16-.333a4.553 4.553 0 001.68-.998c.46-.443.82-.986 1.06-1.629l6.55.432c-.33 1.574-1.01 2.949-2.04 4.124-1.02 1.164-2.34 2.072-3.96 2.726-1.61.643-3.46.965-5.57.965zm15.67-.499v-25.538h6.87v4.456h.26c.47-1.585 1.25-2.782 2.35-3.592 1.1-.82 2.36-1.23 3.79-1.23.35 0 .74.022 1.15.067.41.044.77.105 1.08.182v6.285c-.34-.1-.8-.188-1.38-.266-.59-.077-1.13-.116-1.62-.116-1.04 0-1.97.227-2.79.681a5.048 5.048 0 00-1.93 1.863c-.46.798-.7 1.718-.7 2.76V761h-7.08zm18.62 0v-34.051h13.63c2.51 0 4.6.371 6.27 1.114 1.67.743 2.93 1.774 3.77 3.093.85 1.308 1.27 2.815 1.27 4.522 0 1.33-.27 2.499-.8 3.508a6.864 6.864 0 01-2.19 2.461c-.92.632-1.98 1.081-3.16 1.347v.332a7.65 7.65 0 013.64 1.097c1.14.677 2.07 1.624 2.77 2.844.71 1.208 1.07 2.649 1.07 4.322 0 1.807-.45 3.42-1.35 4.839-.88 1.407-2.2 2.521-3.94 3.342-1.74.82-3.88 1.23-6.43 1.23h-14.55zm7.2-5.886h5.87c2 0 3.47-.382 4.39-1.147.92-.776 1.38-1.807 1.38-3.092 0-.943-.23-1.774-.69-2.494-.45-.721-1.1-1.286-1.94-1.696-.83-.41-1.82-.616-2.98-.616h-6.03v9.045zm0-13.916h5.34c.98 0 1.86-.172 2.62-.515.78-.355 1.39-.854 1.83-1.497.46-.643.68-1.413.68-2.311 0-1.23-.44-2.222-1.31-2.976-.87-.754-2.1-1.131-3.69-1.131h-5.47v8.43z" fill="#fff"></path><path fill-rule="evenodd" clip-rule="evenodd" d="M832 95c0-5.523 4.477-10 10-10h311c5.52 0 10 4.477 10 10v92c0 5.523-4.48 10-10 10H842c-5.523 0-10-4.477-10-10V95z" fill="#53777A"></path><path d="M901.003 135.87h-7.282c-.133-.942-.405-1.779-.815-2.51a6.38 6.38 0 00-1.579-1.896 6.954 6.954 0 00-2.228-1.197 8.525 8.525 0 00-2.71-.416c-1.763 0-3.298.438-4.606 1.314-1.308.865-2.322 2.128-3.042 3.791-.721 1.651-1.081 3.658-1.081 6.019 0 2.427.36 4.467 1.081 6.118.731 1.652 1.751 2.899 3.059 3.741 1.308.842 2.821 1.264 4.539 1.264.964 0 1.857-.128 2.677-.383a7.033 7.033 0 002.211-1.114 6.421 6.421 0 001.596-1.812c.433-.709.732-1.519.898-2.427l7.282.033a13.155 13.155 0 01-1.413 4.522c-.742 1.441-1.746 2.732-3.009 3.874-1.253 1.131-2.749 2.029-4.489 2.694-1.729.654-3.686.981-5.869.981-3.038 0-5.753-.688-8.147-2.062-2.384-1.375-4.268-3.364-5.653-5.969-1.375-2.605-2.062-5.758-2.062-9.46 0-3.714.698-6.873 2.095-9.478 1.397-2.604 3.292-4.588 5.686-5.952 2.394-1.374 5.088-2.061 8.081-2.061 1.973 0 3.801.277 5.486.831 1.696.554 3.198 1.363 4.506 2.427a12.49 12.49 0 013.192 3.874c.832 1.53 1.364 3.281 1.596 5.254zm15.895 22.629c-2.582 0-4.816-.549-6.7-1.646-1.873-1.109-3.32-2.649-4.34-4.622-1.019-1.984-1.529-4.284-1.529-6.9 0-2.638.51-4.944 1.529-6.917 1.02-1.984 2.467-3.525 4.34-4.622 1.884-1.108 4.118-1.663 6.7-1.663 2.583 0 4.811.555 6.684 1.663 1.884 1.097 3.336 2.638 4.356 4.622 1.02 1.973 1.53 4.279 1.53 6.917 0 2.616-.51 4.916-1.53 6.9-1.02 1.973-2.472 3.513-4.356 4.622-1.873 1.097-4.101 1.646-6.684 1.646zm.034-5.487c1.174 0 2.155-.332 2.942-.998.787-.676 1.38-1.596 1.779-2.759.411-1.164.616-2.489.616-3.974 0-1.486-.205-2.81-.616-3.974-.399-1.164-.992-2.084-1.779-2.76-.787-.676-1.768-1.014-2.942-1.014-1.186 0-2.184.338-2.993 1.014-.798.676-1.402 1.596-1.812 2.76-.4 1.164-.599 2.488-.599 3.974 0 1.485.199 2.81.599 3.974.41 1.163 1.014 2.083 1.812 2.759.809.666 1.807.998 2.993.998zm23.551-9.776V158H933.4v-25.538h6.75v4.506h.3a7.118 7.118 0 012.843-3.525c1.33-.876 2.943-1.314 4.838-1.314 1.773 0 3.32.388 4.639 1.164 1.319.776 2.344 1.884 3.076 3.325.731 1.43 1.097 3.137 1.097 5.121V158h-7.083v-14.997c.011-1.563-.388-2.782-1.197-3.658-.809-.887-1.923-1.33-3.342-1.33-.953 0-1.796.205-2.527.615-.721.41-1.286 1.009-1.696 1.796-.399.776-.604 1.712-.615 2.81zm42.618-3.492l-6.485.399a3.35 3.35 0 00-.715-1.496c-.366-.455-.848-.815-1.446-1.081-.588-.277-1.292-.416-2.112-.416-1.097 0-2.023.233-2.776.699-.754.454-1.131 1.064-1.131 1.829 0 .609.244 1.125.732 1.546.487.421 1.324.759 2.51 1.014l4.622.931c2.483.51 4.334 1.33 5.554 2.461 1.219 1.131 1.828 2.616 1.828 4.456 0 1.674-.493 3.142-1.479 4.406-.976 1.263-2.317 2.25-4.024 2.959-1.696.699-3.652 1.048-5.869 1.048-3.381 0-6.074-.704-8.08-2.112-1.996-1.419-3.165-3.347-3.509-5.786l6.967-.366c.21 1.031.72 1.818 1.529 2.361.81.532 1.846.798 3.11.798 1.241 0 2.239-.238 2.992-.714.765-.488 1.153-1.114 1.164-1.879-.011-.643-.282-1.17-.815-1.58-.532-.421-1.352-.742-2.46-.964l-4.423-.881c-2.494-.499-4.35-1.364-5.57-2.594-1.208-1.23-1.812-2.799-1.812-4.705 0-1.641.443-3.054 1.33-4.24.898-1.186 2.156-2.1 3.774-2.743 1.63-.643 3.536-.965 5.72-.965 3.225 0 5.764.682 7.615 2.045 1.862 1.364 2.948 3.22 3.259 5.57zm20.749 7.382v-14.664h7.08V158h-6.8v-4.639h-.27c-.57 1.497-1.53 2.699-2.87 3.608-1.334.909-2.958 1.364-4.875 1.364-1.707 0-3.209-.388-4.506-1.164-1.297-.776-2.311-1.879-3.043-3.309-.72-1.43-1.086-3.142-1.097-5.138v-16.26h7.083v14.997c.011 1.507.416 2.699 1.214 3.575.798.875 1.867 1.313 3.209 1.313.853 0 1.655-.194 2.395-.582.74-.399 1.34-.986 1.79-1.762.47-.776.7-1.735.69-2.877zM1015.92 158v-25.538h6.75v4.506h.3c.53-1.497 1.42-2.677 2.66-3.542 1.24-.864 2.73-1.297 4.46-1.297 1.75 0 3.24.438 4.47 1.314 1.23.864 2.05 2.039 2.46 3.525h.27c.52-1.464 1.46-2.633 2.82-3.509 1.38-.886 3-1.33 4.87-1.33 2.39 0 4.32.76 5.81 2.278 1.49 1.508 2.24 3.647 2.24 6.418V158h-7.07v-15.778c0-1.419-.37-2.483-1.13-3.193-.75-.709-1.69-1.064-2.82-1.064-1.29 0-2.29.41-3.01 1.231-.72.809-1.08 1.878-1.08 3.208V158h-6.87v-15.928c0-1.253-.36-2.25-1.08-2.993-.71-.743-1.65-1.114-2.81-1.114-.79 0-1.5.2-2.13.599-.62.388-1.11.936-1.48 1.646-.36.698-.55 1.518-.55 2.46V158h-7.08zm53.67.499c-2.63 0-4.89-.532-6.78-1.596-1.89-1.076-3.34-2.594-4.36-4.556-1.02-1.973-1.53-4.306-1.53-7 0-2.627.51-4.932 1.53-6.916s2.46-3.531 4.31-4.639c1.86-1.108 4.04-1.663 6.55-1.663 1.68 0 3.25.272 4.7.815 1.47.532 2.74 1.336 3.83 2.411 1.1 1.075 1.95 2.427 2.56 4.057.61 1.618.91 3.513.91 5.686v1.945h-21.56v-4.389h14.9c0-1.02-.23-1.923-.67-2.71a4.738 4.738 0 00-1.85-1.846c-.77-.454-1.67-.682-2.71-.682-1.07 0-2.02.25-2.85.749a5.135 5.135 0 00-1.93 1.978c-.47.82-.71 1.735-.72 2.744v4.173c0 1.263.23 2.355.7 3.275.48.92 1.15 1.63 2.01 2.128.87.499 1.89.749 3.08.749.78 0 1.5-.111 2.16-.333a4.553 4.553 0 001.68-.998c.46-.443.82-.986 1.06-1.629l6.55.432c-.33 1.574-1.01 2.949-2.04 4.124-1.02 1.164-2.34 2.072-3.96 2.726-1.61.643-3.46.965-5.57.965zm15.67-.499v-25.538h6.87v4.456h.26c.47-1.585 1.25-2.782 2.35-3.592 1.1-.82 2.36-1.23 3.79-1.23.35 0 .74.022 1.15.067.41.044.77.105 1.08.182v6.285c-.34-.1-.8-.188-1.38-.266-.59-.077-1.13-.116-1.62-.116-1.04 0-1.97.227-2.79.681a5.048 5.048 0 00-1.93 1.863c-.46.798-.7 1.718-.7 2.76V158h-7.08zm22.61 0h-7.71l11.75-34.051h9.28L1132.93 158h-7.72l-8.52-26.27h-.27l-8.55 26.27zm-.48-13.384h18.22v5.619h-18.22v-5.619z" fill="#fff"></path><path d="M402 219l-50-28.868v57.736L402 219zm-72 0v-5a5 5 0 00-5 5h5zm0 230v5a5 5 0 005-5h-5zm0-225h27v-10h-27v10zm-26 230h26v-10h-26v10zm31-5V219h-10v230h10zm655 240l28.87-50h-57.738L990 689zm0-211h5a5 5 0 00-5-5v5zm-158 5h158v-10H832v10zm153-5v166h10V478h-10zm5-280l28.87 50h-57.738L990 198zm0 152h5a5 5 0 01-5 5v-5zm-158-5h158v10H832v-10zm153 5V243h10v107h-10z" fill="#00CD00"></path><path d="M1012.93 372.596h-65.767l22.717-22.5 10.168 9.952 10.168-9.952 22.714 22.5z" fill="#FFD25B"></path><path d="M1013.37 372.163v-45.865L990 349.231l23.37 22.932zm-66.639 0v-45.865l23.365 22.933-23.365 22.932z" fill="#F2C357"></path><path d="M1012.93 327.163h-65.767l32.452 32.452 33.315-32.452z" fill="#F0BB42"></path><path d="M1013.19 325h-66.739c-.871 0-1.451.725-1.451 1.45v46.426c0 .87.58 1.451 1.451 1.451h66.739c.87 0 1.45-.581 1.45-1.451V326.45c0-.725-.58-1.45-1.45-1.45zm-65.289 4.932l19.731 19.732-19.731 19.731v-39.463zm31.918 27.856l-29.886-29.886h59.777l-29.891 29.886zm-10.156-6.093l9.14 9.14c.29.29.726.435 1.016.435.435 0 .725-.145 1.016-.435l9.14-9.14 19.735 19.731h-59.777l19.73-19.731zm22.343-2.031l19.734-19.732v39.462l-19.734-19.73z" fill="#000"></path><path d="M599 689l27.975 7.124-7.818-27.789L599 689zm22.505-3.741c31.038-11.175 72.102-35.969 79.956-79.818l-4.922-.882c-7.355 41.068-46.089 64.965-76.728 75.996l1.694 4.704zM732 609l-20.5 20.324 27.851 7.592L732 609zM607.504 726.449c15.541-3.2 39.977-11.806 63.397-27.109 23.427-15.307 46.014-37.436 57.521-67.751l-4.675-1.774c-11.015 29.021-32.72 50.402-55.581 65.34-22.867 14.942-46.712 23.317-61.67 26.396l1.008 4.898zm98.873-484.056l-.36-28.865-24.818 14.743 25.178 14.122zm-9.439-20.77c-18.827-27.088-53.405-60.336-97.792-56.573l.422 4.982c41.572-3.524 74.679 27.705 93.265 54.445l4.105-2.854zM594.68 134.63l24.937 14.542.124-28.868-25.061 14.326zm145.668 89.856c-7.113-14.183-21.75-35.559-42.593-54.22-20.849-18.667-48.069-34.758-80.33-38.026l-.504 4.974c30.883 3.129 57.153 18.561 77.499 36.777 20.351 18.221 34.613 39.086 41.459 52.737l4.469-2.242zM480 403l-14.434 25h28.868L480 403zm-2.5 22.5V489h5v-63.5h-5zM513 489l14.434-25h-28.868L513 489zm-2.5-86v63.5h5V403h-5z" fill="#1EC0E4"></path><path d="M54.703 807.04c.775-.718 1.38-1.002 1.816-.85.472.152.812.649 1.02 1.49.206.842.32 1.937.337 3.287a66.775 66.775 0 01-.117 4.592 97.652 97.652 0 01-.347 5.355 303.125 303.125 0 00-.458 5.518c-.133 1.785-.23 3.497-.288 5.137-.06 1.64-.024 3.063.105 4.268l.164.002c.073.001.128-.017.165-.053a46.238 46.238 0 005.168-5.945 175.82 175.82 0 004.127-5.905 360.464 360.464 0 013.24-4.879c.966-1.372 1.854-2.308 2.663-2.807.547.007 1.001.104 1.363.292.399.187.593.609.584 1.266a2.3 2.3 0 01-.06.382l-.004.328a94.687 94.687 0 01-3.084 5.591 65.836 65.836 0 01-3.628 5.365 49.282 49.282 0 01-4.224 4.92 35.269 35.269 0 01-4.816 4.2.9.9 0 01-.057.218l-.003.164c-.005.365.282.769.859 1.215.614.446 1.373.875 2.28 1.289.942.414 1.975.829 3.1 1.245 1.161.417 2.286.779 3.376 1.086 1.126.307 2.162.558 3.107.753.982.196 1.746.297 2.293.305l-.011.82c.031.401.007.82-.072 1.257a4.236 4.236 0 01-.399 1.198c-.187.325-.48.485-.882.48l-.218-.003c-.073-.001-.128-.02-.164-.057l-15.553-6.502c-.066 2.151-.236 3.898-.51 5.244-.272 1.309-.595 2.271-.968 2.885-.337.652-.706.957-1.107.915-.364-.041-.688-.338-.972-.888l2.175-43.178zm37.396 41.092a44.05 44.05 0 01-.446-3.397c-.09-1.35-.2-2.701-.327-4.052a52.48 52.48 0 00-.494-3.89c-.166-1.205-.444-2.193-.835-2.964-1.91 3.766-3.592 6.732-5.043 8.9-1.452 2.132-2.73 3.664-3.837 4.597-1.07.897-1.969 1.322-2.697 1.276-.729-.047-1.326-.383-1.791-1.009-.466-.626-.802-1.415-1.007-2.366a28.74 28.74 0 01-.346-2.739c.011-.802.209-1.93.593-3.383a49.143 49.143 0 011.542-4.737 58.212 58.212 0 012.26-5.274 40.644 40.644 0 012.854-4.829c1.004-1.445 2.042-2.634 3.112-3.567 1.07-.934 2.133-1.393 3.19-1.379 1.572-.234 2.715.128 3.432 1.086.753.922.877 2.473.374 4.654-.033 2.406.03 4.467.189 6.183.195 1.716.391 3.36.589 4.93a89.85 89.85 0 01.589 4.931c.195 1.716.277 3.777.244 6.183-.006.438-.066.82-.18 1.146-.077.291-.516.431-1.318.42-.11-.002-.254-.095-.434-.28-.143-.184-.214-.331-.213-.44zm-2.62-24.483c-.392-.589-.938-.651-1.638-.187-.699.465-1.438 1.239-2.219 2.322-.78 1.083-1.582 2.385-2.405 3.905a77.615 77.615 0 00-2.305 4.617 67.793 67.793 0 00-1.866 4.46c-.53 1.378-.891 2.522-1.086 3.43-.018 1.313.172 2.063.571 2.251.4.151.894-.061 1.485-.636.592-.576 1.26-1.405 2.003-2.489a40.785 40.785 0 002.235-3.47 95.231 95.231 0 002.073-3.581 69.567 69.567 0 001.57-2.823c.338-.761.603-1.468.794-2.122.191-.654.346-1.271.463-1.853a8.1 8.1 0 00.244-1.856c.045-.62.072-1.276.082-1.968zm12.172 5.854c-.146-.002-.366.068-.659.21a6.92 6.92 0 00-.936.424l-.88.426c-.294.142-.55.211-.77.208a2.168 2.168 0 01-.98-.232c-.254-.149-.377-.443-.371-.88.005-.365.173-.709.506-1.032a12.54 12.54 0 011.271-.968c.479-.321.957-.625 1.435-.91.477-.285.828-.572 1.05-.861-.065-.584-.104-1.678-.119-3.283-.014-1.604.01-3.427.075-5.468.101-2.077.258-4.208.47-6.393.248-2.184.585-4.13 1.009-5.838.461-1.744 1.045-3.103 1.751-4.078.706-.975 1.604-1.273 2.692-.893a3.34 3.34 0 012.069.739 5.903 5.903 0 011.562 1.717c.429.662.747 1.396.955 2.201.244.805.362 1.536.353 2.192-.005.365-.102.764-.29 1.199-.151.399-.446.596-.883.59l-.164-.002c-.037-.001-.073-.019-.109-.056-.845-2.236-1.573-3.65-2.185-4.242-.574-.627-1.084-.652-1.53-.075-.409.578-.769 1.612-1.081 3.103-.276 1.491-.518 3.219-.727 5.186a225.764 225.764 0 00-.577 6.172 572.808 572.808 0 01-.519 6.009 15.848 15.848 0 001.812-.522 17.84 17.84 0 001.374-.528c.404-.214.771-.409 1.102-.587a5.105 5.105 0 011.101-.532 27.79 27.79 0 012.53-1.005c.953-.351 1.866-.521 2.741-.509-.014 1.057-.227 1.929-.637 2.616a4.745 4.745 0 01-1.5 1.676 6.156 6.156 0 01-2.036.956c-.768.172-1.554.325-2.358.46-.768.136-1.499.272-2.194.408a9.602 9.602 0 00-1.811.522c.077 2.371.194 4.451.352 6.24.194 1.789.355 3.377.482 4.765.163 1.387.273 2.665.33 3.833a17.536 17.536 0 01-.046 3.39l-.015 1.094c.031.438.007.875-.072 1.311a2.388 2.388 0 01-.399 1.143c-.222.289-.571.43-1.045.424-.437-.006-.764-.102-.98-.287-.216-.222-.356-.643-.42-1.264-.179-2.956-.327-5.455-.445-7.499l-.203-5.198a69.915 69.915 0 01-.064-3.337l.035-2.516c.002-.146-.016-.219-.052-.219zm16.921-21.592c.775-.719 1.381-1.002 1.816-.85.472.152.812.649 1.019 1.49.208.842.32 1.937.338 3.287a66.946 66.946 0 01-.117 4.592 98.028 98.028 0 01-.346 5.355 302.305 302.305 0 00-.459 5.518c-.133 1.785-.23 3.497-.288 5.137-.059 1.64-.024 3.063.105 4.268l.165.002c.072.001.127-.017.164-.053a46.251 46.251 0 005.168-5.945 177.843 177.843 0 004.128-5.906 360.012 360.012 0 013.238-4.878c.967-1.372 1.855-2.308 2.664-2.807.547.007 1.001.104 1.363.292.399.187.593.609.584 1.266 0 .072-.02.2-.059.382l-.005.328a95.405 95.405 0 01-3.084 5.591 66.04 66.04 0 01-3.628 5.365 49.337 49.337 0 01-4.224 4.92 35.285 35.285 0 01-4.816 4.2.863.863 0 01-.057.218l-.003.164c-.005.364.282.769.859 1.215.614.446 1.374.875 2.279 1.289.943.414 1.976.829 3.101 1.245 1.161.417 2.286.779 3.376 1.086 1.126.307 2.162.558 3.107.753.982.196 1.746.297 2.293.305l-.011.82c.031.401.007.82-.072 1.257a4.245 4.245 0 01-.399 1.198c-.187.325-.481.485-.882.48l-.218-.003c-.073-.001-.128-.02-.164-.057l-15.553-6.502c-.066 2.151-.235 3.898-.509 5.244-.273 1.309-.596 2.27-.969 2.885-.337.652-.706.957-1.107.915-.364-.041-.688-.338-.972-.888l2.175-43.178zm37.396 41.092a44.194 44.194 0 01-.446-3.397c-.091-1.35-.2-2.701-.327-4.052a52.69 52.69 0 00-.494-3.89c-.166-1.205-.444-2.193-.835-2.964-1.911 3.766-3.592 6.732-5.043 8.9-1.452 2.132-2.73 3.664-3.837 4.597-1.07.897-1.969 1.322-2.697 1.276-.729-.047-1.326-.383-1.791-1.009-.466-.626-.801-1.415-1.007-2.366a28.92 28.92 0 01-.346-2.739c.011-.802.209-1.93.593-3.383a49.355 49.355 0 011.542-4.737 58.006 58.006 0 012.259-5.274 40.752 40.752 0 012.855-4.829c1.005-1.445 2.042-2.634 3.112-3.567 1.07-.934 2.134-1.393 3.191-1.379 1.571-.234 2.714.128 3.431 1.086.753.922.877 2.473.374 4.654-.033 2.406.03 4.467.189 6.183.195 1.716.392 3.36.589 4.93.234 1.571.43 3.215.589 4.931.195 1.716.277 3.777.244 6.183-.006.438-.066.82-.18 1.146-.077.291-.516.431-1.318.42-.11-.002-.254-.095-.434-.28-.143-.184-.214-.331-.213-.44zm-2.619-24.483c-.393-.589-.939-.651-1.638-.187-.7.465-1.439 1.239-2.22 2.322-.78 1.083-1.582 2.385-2.405 3.905a77.549 77.549 0 00-2.305 4.617 67.97 67.97 0 00-1.866 4.46c-.529 1.378-.891 2.522-1.086 3.43-.018 1.313.173 2.063.571 2.251.399.151.894-.061 1.485-.636.592-.576 1.259-1.405 2.003-2.489a40.541 40.541 0 002.235-3.47 95.677 95.677 0 002.073-3.581 70.489 70.489 0 001.57-2.823c.338-.761.603-1.468.794-2.122.192-.654.346-1.272.463-1.853a8.09 8.09 0 00.244-1.857c.045-.619.072-1.275.082-1.967zm32.956 13.739c.127-1.311.256-2.731.386-4.26.131-1.566.316-3.114.556-4.642a48.81 48.81 0 01.989-4.362c.42-1.379.947-2.594 1.581-3.642.671-1.085 1.485-1.931 2.441-2.538.957-.643 2.11-.937 3.458-.882.911.012 1.599.404 2.062 1.176.5.773.834 1.707 1.001 2.803.204 1.097.298 2.229.282 3.395a89.83 89.83 0 01.017 2.79c-.729-.01-1.327-.328-1.792-.955a7.554 7.554 0 01-1.063-2.256 15.696 15.696 0 01-.513-2.469l-.143-1.588-.219-.003a.43.43 0 00-.163-.057c-.62-.008-1.208.33-1.764 1.016-.52.685-1.024 1.572-1.513 2.659-.452 1.051-.851 2.249-1.197 3.593a52.747 52.747 0 00-.874 3.872 97.763 97.763 0 00-.595 3.546c-.124 1.056-.19 1.876-.198 2.459-.085.947-.1 1.986-.042 3.117.057 1.131.262 2.191.613 3.18a7.89 7.89 0 001.496 2.591c.647.702 1.515 1.188 2.605 1.458 1.349.018 2.445-.149 3.289-.502.843-.353 1.524-.836 2.043-1.449a6.745 6.745 0 001.286-2.061c.302-.761.586-1.542.852-2.34.304-.835.606-1.651.909-2.449a8.036 8.036 0 011.288-2.225c.439-.103.749-.081.929.068a.83.83 0 01.431.498c.07.22.103.475.099.767l-.008.601a13.036 13.036 0 01-.826 4.419 11.886 11.886 0 01-2.295 3.797 11.834 11.834 0 01-3.591 2.631c-1.357.638-2.911.945-4.661.921-1.458-.02-2.673-.492-3.645-1.417-.935-.961-1.667-2.101-2.196-3.421a19.43 19.43 0 01-1.037-4.116c-.199-1.461-.292-2.702-.278-3.723zm22.888 10.102c.278-1.673.471-3.767.578-6.281.144-2.514.216-5.193.219-8.037.039-2.844.024-5.779-.044-8.806a273.062 273.062 0 00-.321-8.591c-.145-2.737-.33-5.182-.556-7.337-.189-2.154-.403-3.852-.641-5.095a8.1 8.1 0 01.827-.481c.257-.142.549-.211.877-.207.256.004.474.061.654.173.182.076.325.26.43.553a325.04 325.04 0 011.182 21.62c.193 7.258.313 14.479.361 21.663l-.018 1.367c-.008.547-.03.838-.067.874-.514.248-.971.37-1.372.364a2.726 2.726 0 01-1.089-.343 2.868 2.868 0 01-.756-.721c-.179-.258-.267-.496-.264-.715zm20.5-3.275c-.152.435-.525 1.032-1.119 1.79a21.1 21.1 0 01-1.999 2.215 20.178 20.178 0 01-2.433 1.935c-.809.536-1.524.8-2.143.792-1.167-.016-2.126-.576-2.876-1.68-.714-1.104-1.26-2.515-1.638-4.234-.378-1.719-.625-3.618-.743-5.698-.117-2.117-.18-4.178-.189-6.183-.009-2.006-.002-3.829.02-5.469.022-1.64-.015-2.881-.113-3.721.151-.362.336-.578.556-.648.256-.07.548-.102.876-.098.292.004.546.044.764.12.254.076.47.298.647.665l-.027 2.023c.023.949.063 2.025.12 3.229.057 1.167.113 2.408.168 3.721.055 1.277.093 2.499.114 3.666.057 1.168.097 2.226.121 3.174.06.912.106 1.588.136 2.026.033.255.064.675.092 1.259.065.584.148 1.205.248 1.863.138.621.294 1.189.469 1.702.212.513.482.79.809.831.547.007 1.097-.222 1.651-.689.589-.466 1.163-1.059 1.719-1.781a19.463 19.463 0 001.564-2.385c.486-.869.917-1.701 1.292-2.498.413-.833.715-1.577.906-2.23.227-.654.361-1.126.402-1.417.081-.619.166-1.493.254-2.622.089-1.165.161-2.404.215-3.716.055-1.312.09-2.551.106-3.718.052-1.166.082-2.058.091-2.678l3.005.205a189.88 189.88 0 01-.164 8.037 141.667 141.667 0 00-.147 6.726c.009 2.078.145 4.104.41 6.076.265 1.973.765 4.021 1.502 6.146-.111.108-.332.251-.662.429-.331.214-.57.32-.715.318-.912-.012-1.527-.331-1.847-.955-.284-.587-.475-1.283-.573-2.086-.062-.84-.123-1.661-.185-2.464-.025-.839-.253-1.498-.684-1.978zm12.064 5.688c-.001.037.385-.177 1.157-.64a36.614 36.614 0 002.814-1.821 91.72 91.72 0 003.371-2.525c1.143-.932 2.085-1.813 2.825-2.641.741-.829 1.133-1.534 1.178-2.117.081-.619-.406-1.027-1.46-1.223-1.31-.201-2.422-.197-3.337.009a18.66 18.66 0 00-2.416.733c-.733.281-1.43.545-2.089.791-.624.247-1.317.329-2.082.246-1.604-.022-2.709-.53-3.315-1.522-.57-1.029-.843-2.4-.819-4.113a10.743 10.743 0 011.214-4.852c.787-1.557 1.79-2.892 3.008-4.006a13.812 13.812 0 014.193-2.623c1.577-.671 3.185-.995 4.826-.973.656.009 1.22.071 1.693.187.472.116.703.539.694 1.268-.007.51-.233.999-.677 1.467-.443.432-.938.644-1.485.636-.037 0-.127-.02-.273-.058a2.863 2.863 0 01-.434-.28 1.226 1.226 0 00-.434-.224c-.145-.075-.235-.113-.272-.113-1.162-.344-2.294-.196-3.397.446-1.103.641-2.099 1.521-2.989 2.639a14.563 14.563 0 00-2.073 3.581c-.528 1.269-.798 2.414-.812 3.435-.006.401.063.73.205.987.179.221.396.388.649.501.291.113.599.191.927.231l1.094.015a7.564 7.564 0 002.191-.298 19.006 19.006 0 002.198-.736 25.992 25.992 0 012.198-.735 8.488 8.488 0 012.356-.296c.364.005.764.119 1.198.344.435.188.832.485 1.191.891.36.37.664.812.912 1.326a3.8 3.8 0 01.416 1.591c.212.514.13 1.187-.246 2.021-.34.834-.862 1.72-1.568 2.658a25.052 25.052 0 01-2.555 2.864 47.4 47.4 0 01-2.989 2.584c-.994.753-1.969 1.359-2.923 1.82-.955.498-1.76.724-2.416.678-.729-.01-1.163-.234-1.303-.674a6.045 6.045 0 01-.144-1.479zm17.969-22.288a9.637 9.637 0 00-1.047.587l-.882.535a4.291 4.291 0 01-.879.317 2.02 2.02 0 01-.93-.013c-.219-.003-.399-.133-.542-.39a3.998 3.998 0 01-.315-.934 5.942 5.942 0 01-.205-1.042c-.031-.365-.027-.639.012-.821l5.29-2.936.519-13.994c.079-.473.374-.651.882-.535.51.08 1.037.197 1.582.35.073.001.181.039.326.114.182.039.309.077.382.114-.087.984-.193 2.058-.318 3.223-.088 1.129-.177 2.276-.266 3.442a107.21 107.21 0 00-.209 3.333 23.845 23.845 0 00.124 2.955l8.233-2.184c.147-.035.255.076.324.332.106.22.194.495.262.824.105.33.174.659.206.987l.048.493-9.35 3.811c-.005.328.003 1.112.022 2.352.056 1.24.109 2.718.159 4.432.05 1.678.098 3.502.144 5.471.047 1.933.095 3.739.145 5.417.05 1.678.084 3.155.104 4.431.019 1.24.027 2.024.022 2.352-.088 1.093-.423 1.635-1.007 1.627-.546-.007-1.144-.289-1.793-.844l-1.043-23.806zm14.99 11.745l-.822.153c-.366.067-.749.08-1.149.039a2.32 2.32 0 01-1.035-.343c-.326-.186-.485-.499-.479-.936.003-.255.06-.437.171-.545.111-.107.296-.269.554-.484.811-.646 1.496-1.475 2.057-2.488a31.195 31.195 0 001.632-3.314c.49-1.197.998-2.375 1.524-3.534a18.24 18.24 0 011.904-3.201 8.158 8.158 0 012.601-2.262c1.029-.569 2.29-.825 3.784-.769.62.009 1.311.164 2.072.466a8.223 8.223 0 012.116 1.232 6.268 6.268 0 011.617 1.772c.428.699.636 1.468.625 2.306.178.294-.01.711-.564 1.25-.518.54-1.237 1.132-2.157 1.776a61.054 61.054 0 01-3.144 1.926 172.148 172.148 0 01-3.306 1.814 589.545 589.545 0 01-2.81 1.493c-.808.427-1.341.748-1.599.963a5.66 5.66 0 00-.455 1.252 22.61 22.61 0 00-.292 1.363c-.042.401-.083.783-.125 1.147l-.01.765c-.01.693-.057 1.458-.141 2.296a12.98 12.98 0 00.077 2.407c.135.731.437 1.355.904 1.872.467.48 1.266.728 2.396.744a6.912 6.912 0 003.402-.829 15.758 15.758 0 002.984-2.202 20.229 20.229 0 002.499-2.81 62.55 62.55 0 002.062-2.816 33.697 33.697 0 011.671-2.219c.482-.577.887-.863 1.215-.859.365.005.747.083 1.146.235.436.115.65.41.644.884-.009.656-.293 1.436-.852 2.34-.523.904-1.229 1.861-2.118 2.87a28.79 28.79 0 01-2.994 3.022 37.304 37.304 0 01-3.373 2.634 24.344 24.344 0 01-3.361 1.868c-1.1.459-2.07.683-2.908.671-1.641-.022-2.875-.44-3.702-1.253-.828-.814-1.416-1.825-1.764-3.033a16.187 16.187 0 01-.494-3.835 121.38 121.38 0 00-.003-3.828zm10.263-14.627c-.62-.009-1.28.292-1.981.902-.701.574-1.367 1.294-1.999 2.161a15.67 15.67 0 00-1.512 2.604c-.376.87-.569 1.597-.576 2.18.546.008 1.333-.182 2.359-.569a22.955 22.955 0 003.139-1.543 17.61 17.61 0 002.706-1.932c.775-.683 1.167-1.334 1.175-1.953a1.033 1.033 0 00-.372-.826 3.27 3.27 0 00-.922-.559 4.903 4.903 0 00-1.034-.343 5.137 5.137 0 00-.983-.122zm14.214.412l.006-.437c.005-.365.137-.618.394-.761.293-.141.622-.21.987-.205.292.004.564.044.819.121.254.04.452.243.593.609.102.549.201 1.316.297 2.302.096.949.209 2.008.339 3.176.13 1.169.259 2.41.387 3.725a210.8 210.8 0 01.442 3.67c.167 1.133.335 2.156.505 3.07.17.914.361 1.609.573 2.086-.061-3.501.089-6.526.452-9.073.364-2.584 1.012-4.671 1.945-6.263.97-1.628 2.262-2.74 3.874-3.338 1.65-.634 3.693-.752 6.131-.354 1.13.015 1.687.625 1.67 1.828-.006.473-.321.797-.943.971-.622.138-1.316.237-2.082.3a43.12 43.12 0 00-2.244.133c-.73.063-1.262.238-1.594.526-1.322.711-2.267 1.828-2.835 3.352-.531 1.524-.92 3.324-1.167 5.399a114.016 114.016 0 00-.586 6.828 61.246 61.246 0 01-.813 7.537c-.005.364-.155.636-.449.814-.294.178-.66.264-1.097.258a2.894 2.894 0 01-1.2-.289 2.102 2.102 0 01-.863-.833l-3.541-25.152z" fill="#333"></path><path d="M893.935 440.936c.029 2.01.048 4.022.058 6.038l-1.5.007.004 1.133c.002.629.003 1.257.003 1.886l-.001 1.33-.006 1.689 1.5.007a637.44 637.44 0 01-.058 6.038l-1.5-.022a628.339 628.339 0 01-.115 6.004l1.5.036a659.911 659.911 0 01-.172 5.999l-1.5-.05c-.067 2.007-.144 4.01-.23 6.01l1.499.065a628.564 628.564 0 01-.29 6.028l-1.498-.079c-.106 2-.221 3.998-.346 5.991l1.497.094a587.022 587.022 0 01-.404 5.984l-1.496-.108a590.822 590.822 0 01-.464 6.007l1.495.123a620.577 620.577 0 01-.523 6.008l-1.494-.138a606.051 606.051 0 01-.58 5.969l1.493.153a607.605 607.605 0 01-.639 5.965l-1.49-.167a608.711 608.711 0 01-.701 5.99l1.489.182c-.244 1.997-.498 3.99-.761 5.978l-1.487-.197a592.898 592.898 0 01-.815 5.936l1.485.212a567.548 567.548 0 01-.878 5.95l-1.482-.226a595.222 595.222 0 01-.94 5.951l1.481.242a627.628 627.628 0 01-.999 5.936l-1.478-.256a618.44 618.44 0 01-1.053 5.891l1.475.271a564.062 564.062 0 01-1.122 5.928l-1.472-.287c-.384 1.973-.778 3.94-1.18 5.901l1.469.302a571.96 571.96 0 01-1.24 5.883l-1.466-.317a564.409 564.409 0 01-1.295 5.842l1.463.332a580.518 580.518 0 01-1.37 5.89l-1.459-.348a565.026 565.026 0 01-1.423 5.838l1.455.363a555.732 555.732 0 01-1.483 5.818l-1.452-.378a560.652 560.652 0 01-1.545 5.804l1.447.393a557.861 557.861 0 01-1.616 5.818l-1.443-.41a548.757 548.757 0 01-1.669 5.763l1.439.425a545.577 545.577 0 01-1.729 5.738l-1.434-.44a550.82 550.82 0 01-1.803 5.756l1.429.456a533.16 533.16 0 01-1.865 5.731l-1.424-.472a531.627 531.627 0 01-1.916 5.673l1.419.488a535.76 535.76 0 01-1.991 5.683l-1.412-.504a548.417 548.417 0 01-2.055 5.66l1.407.519a514.992 514.992 0 01-2.116 5.63l-1.401-.536a527.763 527.763 0 01-2.167 5.572l1.394.552a516.839 516.839 0 01-2.257 5.612l-1.389-.568a528.14 528.14 0 01-2.307 5.545l1.382.585a525.01 525.01 0 01-2.37 5.512l-1.375-.601a488.594 488.594 0 01-2.44 5.496l1.367.617a498.302 498.302 0 01-2.515 5.485l-1.359-.634c-.845 1.814-1.7 3.619-2.563 5.415l1.352.65c-.87 1.809-1.749 3.61-2.638 5.401l-1.343-.667a491.302 491.302 0 01-2.711 5.38l1.336.683c-.916 1.79-1.84 3.569-2.774 5.339l-1.327-.7a478.944 478.944 0 01-2.821 5.266l1.318.717a479.873 479.873 0 01-2.925 5.296l-1.309-.734a446.744 446.744 0 01-2.971 5.218l1.299.751a467.393 467.393 0 01-3.035 5.172l-1.289-.768a450.581 450.581 0 01-3.114 5.149l1.278.785a436.703 436.703 0 01-3.19 5.118l-1.267-.803a455.52 455.52 0 01-3.233 5.034l1.256.819a424.016 424.016 0 01-3.326 5.024l-1.245-.836a424.575 424.575 0 01-3.389 4.968l1.233.854a421.684 421.684 0 01-3.456 4.914l-1.221-.872a398.457 398.457 0 01-3.518 4.853l1.208.89a413.657 413.657 0 01-3.615 4.837l-1.195-.907a396.82 396.82 0 01-3.655 4.744l1.181.924a389.741 389.741 0 01-3.739 4.705l-1.167-.942a389.112 389.112 0 01-3.816 4.655l1.152.959a369.882 369.882 0 01-3.884 4.591l-1.137-.978a382.086 382.086 0 01-3.935 4.506l1.122.996a379.02 379.02 0 01-4.047 4.488l-1.106-1.013a370.805 370.805 0 01-4.083 4.383l1.09 1.031a363.67 363.67 0 01-4.165 4.326l-1.072-1.049a348.585 348.585 0 01-4.245 4.265l1.054 1.067a354.11 354.11 0 01-4.315 4.191l-1.035-1.085a348.16 348.16 0 01-4.362 4.091l1.017 1.103a346.3 346.3 0 01-4.477 4.056l-.998-1.121a331.591 331.591 0 01-4.508 3.94l.977 1.138a331.545 331.545 0 01-4.596 3.872l-.956-1.156a323.24 323.24 0 01-4.668 3.787l.934 1.174a321.814 321.814 0 01-4.738 3.7l-.912-1.191a317.708 317.708 0 01-4.788 3.593l.889 1.209a314.812 314.812 0 01-4.896 3.528l-.865-1.225a301.488 301.488 0 01-4.919 3.4l.841 1.242a302.427 302.427 0 01-5.021 3.324l-.816-1.258a288.956 288.956 0 01-5.068 3.209l.79 1.275a292.51 292.51 0 01-5.141 3.109l-.763-1.292a275.478 275.478 0 01-5.195 2.995l.736 1.307a283.527 283.527 0 01-5.283 2.897l-.707-1.323c-1.759.94-3.525 1.86-5.299 2.759l.678 1.338c-1.796.91-3.599 1.799-5.41 2.667l-.648-1.353a266.241 266.241 0 01-5.428 2.528l.618 1.367a269.97 269.97 0 01-5.504 2.414l-.587-1.38a265.713 265.713 0 01-5.544 2.282l.555 1.393a258.76 258.76 0 01-5.617 2.162l-.523-1.406a255.11 255.11 0 01-5.631 2.017l.489 1.418a253.302 253.302 0 01-5.717 1.898l-.456-1.43a249.71 249.71 0 01-5.722 1.749l.421 1.439a242.863 242.863 0 01-5.797 1.62l-.386-1.449a251.122 251.122 0 01-5.801 1.47l.351 1.458c-1.952.469-3.909.915-5.872 1.336l-.315-1.466c-1.948.418-3.902.812-5.861 1.183l.278 1.474c-1.971.372-3.947.72-5.929 1.044l-.242-1.48c-1.969.322-3.943.619-5.923.893l.205 1.485c-1.983.274-3.97.523-5.963.748l-.168-1.491a240.14 240.14 0 01-5.957.596l.131 1.495c-1.998.174-4.001.324-6.008.45l-.094-1.497c-1.983.123-3.971.222-5.963.297l.056 1.499c-2.005.075-4.014.125-6.028.15l-.019-1.5a231.33 231.33 0 01-6.01 0l-.019 1.5a241.398 241.398 0 01-6.028-.15l.056-1.499c-1.992-.075-3.98-.174-5.963-.297l-.094 1.497c-2.007-.126-4.01-.276-6.008-.45l.131-1.495a240.14 240.14 0 01-5.957-.596l-.168 1.491c-1.993-.225-3.98-.474-5.963-.748l.205-1.485c-1.98-.274-3.954-.571-5.923-.893l-.242 1.48a245.656 245.656 0 01-5.929-1.044l.278-1.474a247.006 247.006 0 01-5.861-1.183l-.315 1.466c-1.963-.421-3.92-.867-5.872-1.336l.351-1.458c-1.94-.467-3.874-.957-5.801-1.47l-.386 1.449a244.262 244.262 0 01-5.798-1.62l.421-1.439c-1.913-.56-3.82-1.143-5.721-1.749l-.456 1.429a248.338 248.338 0 01-5.717-1.897l.489-1.418a253.283 253.283 0 01-5.631-2.017l-.523 1.406a258.76 258.76 0 01-5.617-2.162l.555-1.393a260.41 260.41 0 01-5.544-2.283l-.587 1.381a265.195 265.195 0 01-5.504-2.414l.618-1.367a263.76 263.76 0 01-5.428-2.528l-.649 1.353a276.492 276.492 0 01-5.41-2.667l.679-1.338a274.812 274.812 0 01-5.299-2.759l-.707 1.323a277.28 277.28 0 01-5.283-2.897l.735-1.308a278.546 278.546 0 01-5.194-2.994l-.763 1.292a292.51 292.51 0 01-5.141-3.109l.79-1.275a289.091 289.091 0 01-5.069-3.21l-.815 1.259a298.307 298.307 0 01-5.021-3.324l.841-1.242a297.277 297.277 0 01-4.919-3.401l-.865 1.226a314.812 314.812 0 01-4.896-3.528l.889-1.209c-1.604-1.18-3.2-2.378-4.788-3.593l-.912 1.191a321.89 321.89 0 01-4.739-3.7l.935-1.174a323.24 323.24 0 01-4.668-3.787l-.956 1.156a331.545 331.545 0 01-4.596-3.872l.977-1.138a337.834 337.834 0 01-4.509-3.94l-.997 1.121a346.3 346.3 0 01-4.477-4.056l1.016-1.103a347.719 347.719 0 01-4.361-4.092l-1.035 1.085a346.717 346.717 0 01-4.315-4.19l1.054-1.067a348.585 348.585 0 01-4.245-4.265l-1.072 1.049a363.67 363.67 0 01-4.165-4.326l1.09-1.031a370.805 370.805 0 01-4.083-4.383l-1.106 1.013a379.02 379.02 0 01-4.047-4.488l1.122-.996a382.086 382.086 0 01-3.935-4.506l-1.137.978a369.882 369.882 0 01-3.884-4.591l1.152-.959a389.112 389.112 0 01-3.816-4.655l-1.167.942a397.636 397.636 0 01-3.739-4.704l1.181-.925a396.702 396.702 0 01-3.655-4.743l-1.195.906a413.657 413.657 0 01-3.615-4.837l1.208-.889a406.514 406.514 0 01-3.518-4.854l-1.221.872a421.684 421.684 0 01-3.456-4.914l1.233-.854a424.575 424.575 0 01-3.389-4.968l-1.245.836a424.016 424.016 0 01-3.326-5.024l1.256-.819a455.52 455.52 0 01-3.233-5.034l-1.267.803a436.703 436.703 0 01-3.19-5.118l1.278-.785a450.581 450.581 0 01-3.114-5.149l-1.289.768a467.393 467.393 0 01-3.035-5.172l1.299-.751c-1-1.729-1.99-3.468-2.971-5.218l-1.309.734a479.873 479.873 0 01-2.925-5.296l1.318-.717a478.944 478.944 0 01-2.821-5.266l-1.327.7a478.958 478.958 0 01-2.774-5.339l1.336-.683a500.287 500.287 0 01-2.711-5.379l-1.343.666a482.272 482.272 0 01-2.638-5.401l1.352-.65a499.111 499.111 0 01-2.563-5.415l-1.359.634a498.302 498.302 0 01-2.515-5.485l1.367-.617a488.594 488.594 0 01-2.44-5.496l-1.375.601a525.01 525.01 0 01-2.37-5.512l1.382-.585a499.622 499.622 0 01-2.307-5.546l-1.389.569a516.839 516.839 0 01-2.257-5.612l1.394-.552a527.763 527.763 0 01-2.167-5.572l-1.401.536a514.992 514.992 0 01-2.116-5.63l1.407-.52a548.235 548.235 0 01-2.055-5.659l-1.412.504a535.76 535.76 0 01-1.991-5.683l1.419-.488a531.627 531.627 0 01-1.916-5.673l-1.424.472a533.16 533.16 0 01-1.865-5.731l1.429-.456a527.938 527.938 0 01-1.803-5.756l-1.434.44a545.577 545.577 0 01-1.729-5.738l1.439-.425a555.828 555.828 0 01-1.669-5.763l-1.443.409a550.906 550.906 0 01-1.616-5.817l1.447-.394a554.007 554.007 0 01-1.545-5.804l-1.452.379a562.154 562.154 0 01-1.483-5.818l1.455-.363c-.484-1.94-.958-3.886-1.423-5.838l-1.459.347a574.13 574.13 0 01-1.37-5.889l1.463-.332a570.245 570.245 0 01-1.295-5.842l-1.466.317a577.615 577.615 0 01-1.24-5.883l1.469-.302a615.533 615.533 0 01-1.18-5.901l-1.472.287a564.062 564.062 0 01-1.122-5.928l1.475-.271c-.36-1.959-.711-3.923-1.053-5.892l-1.478.257a622.472 622.472 0 01-.999-5.937l1.481-.241a599.826 599.826 0 01-.94-5.951l-1.483.226a595.472 595.472 0 01-.877-5.951l1.485-.211a596.921 596.921 0 01-.815-5.936l-1.487.197a605.735 605.735 0 01-.761-5.978l1.489-.182a608.711 608.711 0 01-.701-5.99l-1.49.167a604.55 604.55 0 01-.639-5.966l1.493-.152a606.051 606.051 0 01-.58-5.969l-1.494.138a618.041 618.041 0 01-.523-6.009l1.495-.123c-.165-1.998-.319-4-.464-6.007l-1.496.109a587.022 587.022 0 01-.404-5.984l1.497-.094c-.125-1.993-.24-3.991-.346-5.992l-1.498.08a630.132 630.132 0 01-.29-6.028l1.499-.065c-.086-2-.163-4.003-.23-6.01l-1.5.05a659.911 659.911 0 01-.172-5.999l1.5-.036a628.339 628.339 0 01-.115-6.004l-1.5.022c-.029-2.01-.048-4.022-.058-6.038l1.5-.007a607.348 607.348 0 010-6.038l-1.5-.007c.01-2.016.029-4.028.058-6.038l1.5.022c.029-2.005.067-4.006.115-6.004l-1.5-.036c.048-2.003.106-4.003.172-5.999l1.5.05c.067-2.007.144-4.01.23-6.01l-1.499-.065c.087-2.013.184-4.022.29-6.028l1.498.079c.106-2 .221-3.998.346-5.991l-1.497-.094c.125-1.998.259-3.993.404-5.984l1.496.108c.145-2.006.3-4.008.464-6.007l-1.495-.123c.165-2.006.339-4.009.523-6.008l1.494.138c.184-1.994.377-3.984.58-5.969l-1.493-.153c.204-1.992.416-3.981.639-5.965l1.49.167c.224-2.001.458-3.998.701-5.99l-1.489-.182c.244-1.997.498-3.99.761-5.978l1.487.197c.262-1.984.534-3.962.815-5.936l-1.485-.212c.283-1.988.575-3.972.878-5.95l1.482.226c.304-1.989.617-3.972.94-5.951l-1.481-.242c.324-1.983.657-3.962.999-5.936l1.478.256a618.44 618.44 0 011.053-5.891l-1.475-.271c.364-1.981.738-3.957 1.122-5.928l1.472.287c.384-1.973.778-3.94 1.18-5.901l-1.469-.302a571.96 571.96 0 011.24-5.883l1.466.317c.422-1.953.854-3.901 1.295-5.842l-1.463-.332c.447-1.969.904-3.932 1.37-5.89l1.459.348c.465-1.952.939-3.898 1.423-5.838l-1.455-.363c.485-1.946.979-3.885 1.483-5.818l1.452.378a560.652 560.652 0 011.545-5.804l-1.447-.393a557.861 557.861 0 011.616-5.818l1.443.41a548.757 548.757 0 011.669-5.763l-1.439-.425a545.577 545.577 0 011.729-5.738l1.434.44a550.82 550.82 0 011.803-5.756l-1.429-.456a533.16 533.16 0 011.865-5.731l1.424.472a531.627 531.627 0 011.916-5.673l-1.419-.488a535.76 535.76 0 011.991-5.683l1.413.504c.675-1.894 1.36-3.781 2.054-5.66l-1.407-.519a514.992 514.992 0 012.116-5.63l1.401.536a527.763 527.763 0 012.167-5.572l-1.394-.552a516.839 516.839 0 012.257-5.612l1.389.568a528.14 528.14 0 012.307-5.545l-1.382-.585a525.01 525.01 0 012.37-5.512l1.375.601a488.594 488.594 0 012.44-5.496l-1.367-.617a498.302 498.302 0 012.515-5.485l1.359.634c.845-1.814 1.7-3.619 2.563-5.415l-1.352-.65c.87-1.809 1.749-3.61 2.638-5.401l1.343.667a491.302 491.302 0 012.711-5.38l-1.336-.683c.916-1.79 1.84-3.569 2.774-5.339l1.327.7c.931-1.765 1.872-3.52 2.821-5.266l-1.318-.717a479.873 479.873 0 012.925-5.296l1.309.734c.981-1.75 1.971-3.489 2.971-5.218l-1.299-.751a467.393 467.393 0 013.035-5.172l1.289.768a450.581 450.581 0 013.114-5.149l-1.278-.785a436.703 436.703 0 013.19-5.118l1.267.803a441.343 441.343 0 013.233-5.034l-1.256-.819a424.016 424.016 0 013.326-5.024l1.245.836a424.575 424.575 0 013.389-4.968l-1.233-.854a421.684 421.684 0 013.456-4.914l1.221.872a398.457 398.457 0 013.518-4.853l-1.208-.89a413.657 413.657 0 013.615-4.837l1.195.906a404.905 404.905 0 013.655-4.743l-1.181-.924a389.741 389.741 0 013.739-4.705l1.167.942a389.112 389.112 0 013.816-4.655l-1.152-.959a369.882 369.882 0 013.884-4.591l1.137.977a390.197 390.197 0 013.935-4.505l-1.122-.996a379.02 379.02 0 014.047-4.488l1.106 1.014a360.91 360.91 0 014.083-4.384l-1.09-1.031a365.974 365.974 0 014.165-4.326l1.072 1.05a350.757 350.757 0 014.245-4.266l-1.054-1.067a345.32 345.32 0 014.315-4.19l1.035 1.084a343.126 343.126 0 014.362-4.091l-1.017-1.103a335.017 335.017 0 014.478-4.056l.997 1.12a330.842 330.842 0 014.508-3.939l-.977-1.138A333.662 333.662 0 01398.819 64l.956 1.156a325.273 325.273 0 014.668-3.787l-.934-1.174a320.45 320.45 0 014.738-3.7l.912 1.191a312.45 312.45 0 014.788-3.593l-.889-1.209a310.264 310.264 0 014.896-3.528l.865 1.225a300.264 300.264 0 014.919-3.4l-.841-1.242a301.816 301.816 0 015.021-3.325l.816 1.26a290.16 290.16 0 015.068-3.21l-.79-1.275a290.674 290.674 0 015.141-3.109l.763 1.292a279.894 279.894 0 015.195-2.995l-.736-1.307a283.521 283.521 0 015.283-2.897l.707 1.323c1.759-.94 3.525-1.86 5.299-2.759l-.678-1.338c1.796-.91 3.599-1.8 5.41-2.667l.648 1.353a268.396 268.396 0 015.428-2.528l-.618-1.367a268.322 268.322 0 015.504-2.414l.587 1.38a259.855 259.855 0 015.544-2.282l-.555-1.393a260.312 260.312 0 015.617-2.162l.523 1.406a255.11 255.11 0 015.631-2.017l-.489-1.418a253.282 253.282 0 015.717-1.898l.456 1.43a248.694 248.694 0 015.722-1.749l-.421-1.44a248.095 248.095 0 015.797-1.62l.386 1.45a245.419 245.419 0 015.801-1.47l-.351-1.458c1.952-.47 3.909-.915 5.872-1.336l.315 1.466c1.948-.418 3.902-.812 5.861-1.183l-.278-1.474c1.971-.372 3.947-.72 5.929-1.044l.242 1.48c1.969-.322 3.943-.62 5.923-.893l-.205-1.485c1.983-.274 3.97-.523 5.963-.748l.168 1.49c1.981-.222 3.966-.421 5.957-.595l-.131-1.495a244.27 244.27 0 016.008-.45l.094 1.497c1.983-.123 3.971-.222 5.963-.297l-.056-1.499a241.97 241.97 0 016.028-.15l.019 1.5a241.155 241.155 0 016.01 0l.019-1.5c2.014.025 4.023.075 6.028.15l-.056 1.499c1.992.075 3.98.174 5.963.297l.094-1.497c2.007.125 4.01.276 6.008.45l-.131 1.495c1.991.174 3.976.373 5.957.596l.168-1.49c1.993.224 3.98.473 5.963.747l-.205 1.485c1.98.274 3.954.571 5.923.893l.242-1.48c1.982.324 3.958.672 5.929 1.045l-.278 1.473c1.959.37 3.913.765 5.861 1.183l.315-1.466c1.963.421 3.92.867 5.872 1.336l-.351 1.458c1.94.467 3.874.957 5.801 1.47l.386-1.449c1.939.516 3.871 1.056 5.798 1.62l-.421 1.44c1.913.56 3.82 1.142 5.721 1.748l.456-1.43c1.912.61 3.818 1.242 5.717 1.898l-.489 1.418c1.884.65 3.761 1.322 5.631 2.017l.523-1.406a258.76 258.76 0 015.617 2.162l-.555 1.393c1.855.739 3.703 1.5 5.544 2.282l.587-1.38c1.842.783 3.677 1.588 5.504 2.414l-.618 1.367a265.34 265.34 0 015.428 2.528l.649-1.353c1.81.868 3.614 1.757 5.41 2.668l-.679 1.337a273.11 273.11 0 015.299 2.759l.707-1.323a277.28 277.28 0 015.283 2.897l-.735 1.307a283.7 283.7 0 015.194 2.995l.763-1.292a290.674 290.674 0 015.141 3.109l-.79 1.275c1.698 1.05 3.387 2.12 5.069 3.21l.815-1.26a297.713 297.713 0 015.021 3.325l-.841 1.242a301.507 301.507 0 014.919 3.4l.865-1.225a310.264 310.264 0 014.896 3.528l-.889 1.209a312.45 312.45 0 014.788 3.593l.912-1.19a320.526 320.526 0 014.739 3.7l-.935 1.173a324.592 324.592 0 014.668 3.787l.956-1.156a333.662 333.662 0 014.596 3.872l-.977 1.138a337.057 337.057 0 014.509 3.94l.997-1.12a340.535 340.535 0 014.477 4.055l-1.016 1.103a350.684 350.684 0 014.361 4.091l1.035-1.084a345.328 345.328 0 014.315 4.19l-1.054 1.067a350.03 350.03 0 014.245 4.265l1.072-1.049a365.964 365.964 0 014.165 4.326l-1.09 1.031a361.644 361.644 0 014.083 4.383l1.106-1.013a375.885 375.885 0 014.047 4.488l-1.122.996c1.32 1.488 2.632 2.99 3.935 4.506l1.137-.978a369.882 369.882 0 013.884 4.591l-1.152.959a389.112 389.112 0 013.816 4.655l1.167-.942a389.741 389.741 0 013.739 4.705l-1.181.924a396.702 396.702 0 013.655 4.743l1.195-.906c1.214 1.6 2.419 3.212 3.615 4.837l-1.208.89a398.457 398.457 0 013.518 4.853l1.221-.872a421.684 421.684 0 013.456 4.914l-1.233.854c1.139 1.644 2.268 3.3 3.389 4.968l1.245-.836a424.016 424.016 0 013.326 5.024l-1.256.819a455.52 455.52 0 013.233 5.034l1.267-.803a436.703 436.703 0 013.19 5.118l-1.278.785a450.581 450.581 0 013.114 5.149l1.289-.768a467.393 467.393 0 013.035 5.172l-1.299.751c1 1.729 1.99 3.468 2.971 5.218l1.309-.734a479.873 479.873 0 012.925 5.296l-1.318.717c.949 1.745 1.89 3.501 2.821 5.266l1.327-.7c.934 1.77 1.858 3.549 2.774 5.339l-1.336.683a482.415 482.415 0 012.71 5.379l1.344-.666a482.272 482.272 0 012.638 5.401l-1.352.65a499.111 499.111 0 012.563 5.415l1.359-.634c.848 1.82 1.686 3.648 2.515 5.485l-1.367.617a488.594 488.594 0 012.44 5.496l1.375-.601a525.01 525.01 0 012.37 5.512l-1.382.585a519.55 519.55 0 012.307 5.546l1.389-.569a516.839 516.839 0 012.257 5.612l-1.394.552a527.763 527.763 0 012.167 5.572l1.401-.536c.715 1.869 1.42 3.746 2.116 5.63l-1.407.52a548.235 548.235 0 012.055 5.659l1.412-.504a535.76 535.76 0 011.991 5.683l-1.419.488a531.627 531.627 0 011.916 5.673l1.424-.472a533.16 533.16 0 011.865 5.731l-1.429.456a527.938 527.938 0 011.803 5.756l1.434-.44a538.678 538.678 0 011.729 5.739l-1.439.424a555.828 555.828 0 011.669 5.763l1.443-.409a550.906 550.906 0 011.616 5.817l-1.447.394c.524 1.928 1.04 3.863 1.545 5.804l1.452-.379c.504 1.933.998 3.873 1.483 5.818l-1.455.363c.484 1.94.958 3.886 1.423 5.838l1.459-.347c.466 1.957.923 3.92 1.37 5.889l-1.463.332c.441 1.942.873 3.889 1.295 5.842l1.466-.317c.423 1.955.836 3.917 1.24 5.883l-1.469.302c.402 1.962.796 3.929 1.18 5.901l1.472-.287c.384 1.971.758 3.947 1.122 5.928l-1.475.271c.36 1.959.711 3.923 1.053 5.892l1.478-.257c.342 1.974.675 3.953.999 5.937l-1.481.241c.323 1.979.636 3.963.94 5.951l1.482-.226c.303 1.979.595 3.962.878 5.951l-1.485.211c.282 1.974.553 3.953.815 5.936l1.488-.197c.262 1.988.516 3.981.76 5.978l-1.489.182c.243 1.992.477 3.989.701 5.99l1.49-.167c.223 1.984.435 3.973.639 5.966l-1.493.152c.203 1.985.396 3.975.58 5.969l1.494-.138c.184 1.999.358 4.002.523 6.009l-1.495.123c.165 1.998.319 4 .464 6.007l1.496-.109c.145 1.991.279 3.986.404 5.984l-1.497.094c.125 1.993.24 3.991.346 5.992l1.498-.08c.106 2.006.203 4.016.29 6.028l-1.499.065c.086 2 .163 4.003.23 6.01l1.5-.05c.066 1.996.124 3.996.172 5.999l-1.5.036c.048 1.998.086 3.999.115 6.004l1.5-.022z" stroke="#000" stroke-width="3" stroke-dasharray="6 6"></path></svg>