<svg viewBox="0 0 1200 800" fill="none" xmlns="http://www.w3.org/2000/svg"><g clip-path="url(#clip0_1114_56)"><path fill="#fff" d="M0 0h1200v800H0z"></path><path fill="#F9F2E7" d="M-1 0h1200v800H-1z"></path><path fill-rule="evenodd" clip-rule="evenodd" d="M430.508 650.86v36.104a3.394 3.394 0 01-2.102 3.146 3.444 3.444 0 01-1.303.259H126.535a3.375 3.375 0 01-.988-.147 3.464 3.464 0 01-.617-.255 3.438 3.438 0 01-1.398-1.398 3.323 3.323 0 01-.255-.617 3.652 3.652 0 01-.13-.654 3.396 3.396 0 01-.017-.334V650.86a3.396 3.396 0 01.26-1.303 3.323 3.323 0 01.738-1.105 3.276 3.276 0 01.802-.595 3.464 3.464 0 011.605-.402h300.568a3.325 3.325 0 01.989.147 3.444 3.444 0 01.903.427 3.26 3.26 0 01.516.423 3.276 3.276 0 01.423.516 3.35 3.35 0 01.428.904 3.486 3.486 0 01.146.988z" fill="#7C7C7C"></path><path fill-rule="evenodd" clip-rule="evenodd" d="M166.735 656.753h203.013v5.722H166.735v-5.722z" fill="#D8D8D8"></path><path fill-rule="evenodd" clip-rule="evenodd" d="M132.423 656.753h12.867v5.722h-12.867v-5.722z" fill="#D7D7D7"></path><path fill-rule="evenodd" clip-rule="evenodd" d="M398.341 656.753h5.718v5.722h-5.718v-5.722z" fill="#D7D400"></path><path fill-rule="evenodd" clip-rule="evenodd" d="M389.763 656.753h5.718v5.722h-5.718v-5.722z" fill="#FF3C00"></path><path fill-rule="evenodd" clip-rule="evenodd" d="M408.348 656.753h12.867v5.722h-12.867v-5.722z" fill="#00CD00"></path><path fill-rule="evenodd" clip-rule="evenodd" d="M166.735 666.051h203.013v5.722H166.735v-5.722z" fill="#D8D8D8"></path><path fill-rule="evenodd" clip-rule="evenodd" d="M132.423 666.051h12.867v5.722h-12.867v-5.722z" fill="#D7D7D7"></path><path fill-rule="evenodd" clip-rule="evenodd" d="M398.341 666.051h5.718v5.722h-5.718v-5.722z" fill="#D7D400"></path><path fill-rule="evenodd" clip-rule="evenodd" d="M389.763 666.051h5.718v5.722h-5.718v-5.722z" fill="#FF3C00"></path><path fill-rule="evenodd" clip-rule="evenodd" d="M408.348 666.051h12.867v5.722h-12.867v-5.722z" fill="#00CD00"></path><path fill-rule="evenodd" clip-rule="evenodd" d="M166.735 675.349h203.013v5.721H166.735v-5.721z" fill="#D8D8D8"></path><path fill-rule="evenodd" clip-rule="evenodd" d="M132.423 675.349h12.867v5.721h-12.867v-5.721z" fill="#D7D7D7"></path><path fill-rule="evenodd" clip-rule="evenodd" d="M398.341 675.349h5.718v5.721h-5.718v-5.721z" fill="#D7D400"></path><path fill-rule="evenodd" clip-rule="evenodd" d="M389.763 675.349h5.718v5.721h-5.718v-5.721z" fill="#FF3C00"></path><path fill-rule="evenodd" clip-rule="evenodd" d="M408.348 675.349h12.867v5.721h-12.867v-5.721z" fill="#00CD00"></path><path fill-rule="evenodd" clip-rule="evenodd" d="M430.508 115.278v521.803a6.574 6.574 0 01-.146 1.381 6.101 6.101 0 01-.256.861 5.29 5.29 0 01-.371.775 4.362 4.362 0 01-.472.658 3.736 3.736 0 01-.268.279 3.428 3.428 0 01-.589.44 2.865 2.865 0 01-.639.269 2.36 2.36 0 01-.664.092H126.535a2.485 2.485 0 01-.988-.205 2.879 2.879 0 01-.617-.356 3.563 3.563 0 01-.555-.519 4.672 4.672 0 01-.671-1.033 5.73 5.73 0 01-.508-1.714 6.335 6.335 0 01-.066-.928V115.278a6.574 6.574 0 01.26-1.819 5.645 5.645 0 01.314-.822 4.472 4.472 0 01.671-1.034 3.548 3.548 0 01.857-.718 2.887 2.887 0 01.639-.27 2.528 2.528 0 01.664-.092h300.568a2.488 2.488 0 01.989.205 2.873 2.873 0 01.616.357 3.347 3.347 0 01.555.518 4.187 4.187 0 01.472.659 4.962 4.962 0 01.371.775 5.65 5.65 0 01.256.861 6.778 6.778 0 01.13.914c.011.155.016.31.016.466z" fill="#7C7C7C"></path><path fill-rule="evenodd" clip-rule="evenodd" d="M134.198 136.067h285.243a1.173 1.173 0 01.332.048 1.312 1.312 0 01.47.243 1.839 1.839 0 01.401.431 2.46 2.46 0 01.211.373c.032.067.06.136.086.207a3.51 3.51 0 01.128.446 3.722 3.722 0 01.065.474c.005.08.008.161.008.241v475.299a3.912 3.912 0 01-.032.481 3.57 3.57 0 01-.097.462 3.708 3.708 0 01-.072.218 2.389 2.389 0 01-.185.401 2.262 2.262 0 01-.37.486 1.502 1.502 0 01-.451.309 1.213 1.213 0 01-.494.106H134.198a1.162 1.162 0 01-.332-.047 1.366 1.366 0 01-.47-.244 1.863 1.863 0 01-.401-.43 2.022 2.022 0 01-.112-.18 2.338 2.338 0 01-.186-.401 3.084 3.084 0 01-.127-.446 3.57 3.57 0 01-.074-.715V138.53c0-.08.003-.161.009-.241a3.17 3.17 0 01.065-.474 3.27 3.27 0 01.127-.446c.027-.071.055-.14.086-.207a2.359 2.359 0 01.212-.373 2.065 2.065 0 01.401-.431 1.492 1.492 0 01.47-.243 1.155 1.155 0 01.332-.048z" fill="#fff"></path><path fill-rule="evenodd" clip-rule="evenodd" d="M132.423 122.512h288.792v5.722H132.423v-5.722zm0 502.056h288.792v5.722H132.423v-5.722z" fill="#D7D7D7"></path><path d="M395.949 168.149H158.207c-5.592 0-10.126 4.533-10.126 10.125v410.589c0 5.592 4.534 10.125 10.126 10.125h237.742c5.592 0 10.125-4.533 10.125-10.125V178.274c0-5.592-4.533-10.125-10.125-10.125z" fill="#EEF8F9" stroke="#D9EFF2" stroke-width="1.703"></path><path fill-rule="evenodd" clip-rule="evenodd" d="M157.189 237.056a6.968 6.968 0 016.968-6.968h226.274a6.968 6.968 0 016.968 6.968v190.906a6.968 6.968 0 01-6.968 6.968H164.157a6.968 6.968 0 01-6.968-6.968V237.056z" fill="#FCF3CF"></path><rect x="168.258" y="263.786" width="217.123" height="58.751" rx="4.257" fill="#53777A" fill-opacity="0.2" stroke="#53777A" stroke-width="1.703" stroke-dasharray="8.51 8.51"></rect><path d="M233.763 312.827h-56l19.342-19.158 8.658 8.474 8.658-8.474 19.342 19.158z" fill="#FFD25B"></path><path d="M234.132 312.459v-39.053l-19.895 19.527 19.895 19.526zm-56.737 0v-39.053l19.895 19.527-19.895 19.526z" fill="#F2C357"></path><path d="M233.763 274.143h-56l27.632 27.631 28.368-27.631z" fill="#F0BB42"></path><path d="M233.98 272.301h-56.823c-.742 0-1.236.617-1.236 1.235v39.529c0 .742.494 1.236 1.236 1.236h56.824c.741 0 1.236-.494 1.236-1.236l-.001-39.529c0-.618-.494-1.235-1.235-1.235h-.001zm-55.589 4.2l16.801 16.8-16.801 16.801v-33.601zm27.177 23.717l-25.447-25.447h50.895l-25.448 25.447zm-8.647-5.188l7.782 7.783c.247.247.618.37.865.37.371 0 .618-.123.865-.37l7.783-7.783 16.799 16.801h-50.894l16.8-16.801zm19.024-1.729l16.801-16.801v33.6l-16.801-16.799z" fill="#000"></path><path d="M304.5 312.827h-56l19.342-19.158 8.658 8.474 8.658-8.474 19.342 19.158z" fill="#FFD25B"></path><path d="M304.868 312.459v-39.053l-19.894 19.527 19.894 19.526zm-56.736 0v-39.053l19.894 19.527-19.894 19.526z" fill="#F2C357"></path><path d="M304.5 274.143h-56l27.632 27.631 28.368-27.631z" fill="#F0BB42"></path><path d="M304.717 272.301h-56.824c-.741 0-1.235.617-1.235 1.235v39.529c0 .742.494 1.236 1.235 1.236h56.825c.741 0 1.235-.494 1.235-1.236v-39.529c0-.618-.494-1.235-1.235-1.235h-.001zm-55.589 4.2l16.801 16.8-16.801 16.801v-33.601zm27.177 23.717l-25.447-25.447h50.895l-25.448 25.447zm-8.647-5.188l7.782 7.783c.247.247.618.37.865.37.371 0 .618-.123.865-.37l7.782-7.783 16.8 16.801h-50.894l16.8-16.801zm19.024-1.729l16.801-16.801v33.6l-16.801-16.799z" fill="#000"></path><path d="M375.237 312.827h-56l19.342-19.158 8.658 8.474 8.658-8.474 19.342 19.158z" fill="#FFD25B"></path><path d="M375.605 312.459v-39.053l-19.894 19.527 19.894 19.526zm-56.737 0v-39.053l19.895 19.527-19.895 19.526z" fill="#F2C357"></path><path d="M375.237 274.143h-56l27.631 27.631 28.369-27.631z" fill="#F0BB42"></path><path d="M375.454 272.301H318.63c-.741 0-1.235.617-1.235 1.235v39.529c0 .742.494 1.236 1.235 1.236h56.825c.741 0 1.235-.494 1.235-1.236v-39.529c0-.618-.494-1.235-1.236-1.235zm-55.589 4.2l16.8 16.8-16.8 16.801v-33.601zm27.177 23.717l-25.447-25.447h50.895l-25.448 25.447zm-8.647-5.188l7.782 7.783c.247.247.618.37.865.37.371 0 .617-.123.865-.37l7.782-7.783 16.8 16.801h-50.894l16.8-16.801zm19.024-1.729l16.8-16.801v33.6l-16.8-16.799z" fill="#000"></path><rect x="168.258" y="364.93" width="217.123" height="58.751" rx="4.257" fill="#53777A" fill-opacity="0.2" stroke="#53777A" stroke-width="1.703" stroke-dasharray="8.51 8.51"></rect><path d="M233.763 413.97h-56l19.342-19.158 8.658 8.474 8.658-8.474 19.342 19.158z" fill="#FFD25B"></path><path d="M234.132 413.602V374.55l-19.895 19.526 19.895 19.526zm-56.737 0V374.55l19.894 19.526-19.894 19.526z" fill="#F2C357"></path><path d="M233.763 375.286h-56l27.632 27.632 28.368-27.632z" fill="#F0BB42"></path><path d="M233.98 373.444h-56.824c-.741 0-1.235.618-1.235 1.235v39.53c0 .741.494 1.235 1.235 1.235h56.825c.741 0 1.235-.494 1.235-1.235v-39.53c0-.617-.494-1.235-1.235-1.235h-.001zm-55.589 4.2l16.801 16.801-16.801 16.8v-33.601zm27.177 23.718l-25.447-25.447h50.895l-25.448 25.447zm-8.647-5.188l7.782 7.782c.247.247.618.371.865.371.371 0 .618-.124.865-.371l7.783-7.782 16.799 16.8h-50.894l16.8-16.8zm19.024-1.73l16.801-16.8v33.6l-16.801-16.8z" fill="#000"></path><path d="M304.5 413.97h-56l19.342-19.158 8.658 8.474 8.658-8.474L304.5 413.97z" fill="#FFD25B"></path><path d="M304.868 413.602V374.55l-19.894 19.526 19.894 19.526zm-56.736 0V374.55l19.894 19.526-19.894 19.526z" fill="#F2C357"></path><path d="M304.5 375.286h-56l27.632 27.632 28.368-27.632z" fill="#F0BB42"></path><path d="M304.717 373.444h-56.824c-.741 0-1.235.618-1.235 1.235v39.53c0 .741.494 1.235 1.235 1.235h56.825c.741 0 1.235-.494 1.235-1.235v-39.53c0-.617-.494-1.235-1.236-1.235zm-55.589 4.2l16.8 16.801-16.8 16.8v-33.601zm27.177 23.718l-25.447-25.447h50.895l-25.448 25.447zm-8.647-5.188l7.782 7.782c.247.247.618.371.865.371.371 0 .618-.124.865-.371l7.782-7.782 16.8 16.8h-50.894l16.8-16.8zm19.024-1.73l16.8-16.8v33.6l-16.8-16.8z" fill="#000"></path><path d="M375.237 413.97h-56l19.342-19.158 8.658 8.474 8.658-8.474 19.342 19.158z" fill="#FFD25B"></path><path d="M375.605 413.602V374.55l-19.894 19.526 19.894 19.526zm-56.737 0V374.55l19.895 19.526-19.895 19.526z" fill="#F2C357"></path><path d="M375.237 375.286h-56l27.632 27.632 28.368-27.632z" fill="#F0BB42"></path><path d="M375.454 373.444H318.63c-.741 0-1.235.618-1.235 1.235v39.53c0 .741.494 1.235 1.235 1.235h56.825c.741 0 1.235-.494 1.235-1.235v-39.53c0-.617-.494-1.235-1.235-1.235h-.001zm-55.589 4.2l16.801 16.801-16.801 16.8v-33.601zm27.177 23.718l-25.447-25.447h50.895l-25.448 25.447zm-8.647-5.188l7.782 7.782c.247.247.618.371.865.371.371 0 .618-.124.865-.371l7.782-7.782 16.8 16.8h-50.894l16.8-16.8zm19.024-1.73l16.8-16.8v33.6l-16.8-16.8z" fill="#000"></path><path fill-rule="evenodd" clip-rule="evenodd" d="M156.337 487.876a6.968 6.968 0 016.968-6.968h226.177a6.968 6.968 0 016.968 6.968v89.091a6.968 6.968 0 01-6.968 6.968H163.305a6.968 6.968 0 01-6.968-6.968v-89.091z" fill="#FEF5FC"></path><rect x="167.406" y="514.966" width="217.123" height="58.751" rx="4.257" fill="#53777A" fill-opacity="0.2" stroke="#53777A" stroke-width="1.703" stroke-dasharray="8.51 8.51"></rect><path d="M232.912 564.007h-56l19.342-19.158 8.658 8.473 8.658-8.473 19.342 19.158z" fill="#FAD1F1"></path><path d="M233.28 563.639v-39.053l-19.895 19.526 19.895 19.527zm-56.737 0v-39.053l19.895 19.526-19.895 19.527z" fill="#F8BAEA"></path><path d="M232.912 525.322h-56l27.631 27.632 28.369-27.632z" fill="#F59EE1"></path><path d="M233.128 523.48h-56.823c-.741 0-1.235.618-1.235 1.235v39.53c0 .741.494 1.235 1.235 1.235h56.825c.741 0 1.235-.494 1.235-1.235v-39.53c0-.617-.495-1.235-1.236-1.235h-.001zm-55.588 4.2l16.8 16.801-16.8 16.8V527.68zm27.177 23.718l-25.447-25.447h50.895l-25.448 25.447zm-8.648-5.188l7.783 7.782c.247.247.617.371.865.371.37 0 .617-.124.865-.371l7.782-7.782 16.8 16.8h-50.895l16.8-16.8zm19.025-1.729l16.8-16.801v33.6l-16.8-16.799z" fill="#000"></path><path d="M303.649 564.007h-56l19.342-19.158 8.658 8.473 8.657-8.473 19.343 19.158z" fill="#FAD1F1"></path><path d="M304.017 563.639v-39.053l-19.895 19.526 19.895 19.527zm-56.737 0v-39.053l19.895 19.526-19.895 19.527z" fill="#F8BAEA"></path><path d="M303.649 525.322h-56l27.631 27.632 28.369-27.632z" fill="#F59EE1"></path><path d="M303.865 523.48h-56.823c-.741 0-1.236.618-1.236 1.235v39.53c0 .741.495 1.235 1.236 1.235h56.824c.742 0 1.236-.494 1.236-1.235l-.001-39.53c0-.617-.494-1.235-1.235-1.235h-.001zm-55.589 4.2l16.801 16.801-16.801 16.8V527.68zm27.178 23.718l-25.447-25.447h50.895l-25.448 25.447zm-8.648-5.188l7.783 7.782c.247.247.617.371.865.371.37 0 .617-.124.864-.371l7.783-7.782 16.799 16.8h-50.894l16.8-16.8zm19.024-1.729l16.801-16.801v33.6l-16.801-16.799z" fill="#000"></path><path d="M374.385 564.007h-56l19.342-19.158 8.658 8.473 8.658-8.473 19.342 19.158z" fill="#FAD1F1"></path><path d="M374.754 563.639v-39.053l-19.895 19.526 19.895 19.527zm-56.737 0v-39.053l19.895 19.526-19.895 19.527z" fill="#F8BAEA"></path><path d="M374.385 525.322h-56l27.632 27.632 28.368-27.632z" fill="#F59EE1"></path><path d="M374.602 523.48h-56.823c-.741 0-1.236.618-1.236 1.235v39.53c0 .741.495 1.235 1.236 1.235h56.824c.742 0 1.236-.494 1.236-1.235l-.001-39.53c0-.617-.494-1.235-1.235-1.235h-.001zm-55.589 4.2l16.801 16.801-16.801 16.8V527.68zm27.178 23.718l-25.447-25.447h50.895l-25.448 25.447zm-8.648-5.188l7.783 7.782c.247.247.617.371.865.371.37 0 .617-.124.864-.371l7.783-7.782 16.799 16.8h-50.894l16.8-16.8zm19.024-1.729l16.801-16.801v33.6l-16.801-16.799z" fill="#000"></path><path d="M328.91 182.2a1.887 1.887 0 00-1.357-.569 1.862 1.862 0 00-1.347.569h-.009a1.942 1.942 0 00-.563 1.378 1.934 1.934 0 00.557 1.374l.009.01a1.867 1.867 0 001.347.563c.533 0 1.012-.213 1.357-.563l.004-.01c.345-.346.549-.831.549-1.374a1.952 1.952 0 00-.556-1.377h.003l.006-.001zm-1.357 26.655c.534 0 1.012-.221 1.357-.568l.004-.01c.345-.345.549-.833.549-1.37 0-.549-.21-1.028-.549-1.38h-.004a1.873 1.873 0 00-1.357-.571 1.841 1.841 0 00-1.347.571h-.009a1.96 1.96 0 00-.557 1.38 1.933 1.933 0 00.557 1.37l.009.01a1.876 1.876 0 001.347.567v.001zm10.425-5.899a1.906 1.906 0 001.166-.905l.035-.068c.226-.434.28-.938.151-1.41a1.891 1.891 0 00-.892-1.184l-.027-.018a1.878 1.878 0 00-1.424-.175 1.879 1.879 0 00-1.164.908 1.97 1.97 0 00.699 2.664h.003c.457.269.974.316 1.454.183l-.001.005zm-8.468-9.703a2.753 2.753 0 00-1.962-.83 2.749 2.749 0 00-1.959.83 2.828 2.828 0 00-.808 1.992 2.863 2.863 0 00.808 2.001c.5.506 1.192.824 1.953.824.76 0 1.46-.318 1.962-.824a2.86 2.86 0 00.809-2.002 2.823 2.823 0 00-.809-1.992l.006.001zm-1.098-3.318a5.232 5.232 0 012.878 1.513h.006c.123.125.239.257.349.394l1.91-1.124a4.21 4.21 0 01-.062-2.39 4.166 4.166 0 011.923-2.547l.033-.021a4.043 4.043 0 013.098-.404c.525.144 1.017.39 1.446.726.43.335.789.752 1.056 1.227v.003c.568 1 .683 2.149.413 3.182a4.158 4.158 0 01-1.924 2.55l-.261.157h-.026a4.085 4.085 0 01-4.845-.982l-1.908 1.121a5.482 5.482 0 010 3.806l1.908 1.119a4.103 4.103 0 012-1.248 4.011 4.011 0 013.132.422l.064.031v.003a4.186 4.186 0 011.86 2.519 4.256 4.256 0 01-.413 3.18l-.034.07h-.005a4.155 4.155 0 01-2.466 1.899 4.093 4.093 0 01-3.134-.419v-.008a4.174 4.174 0 01-1.923-2.548 4.199 4.199 0 01.062-2.387l-1.91-1.121c-.11.135-.227.265-.349.389l-.007.006a5.203 5.203 0 01-2.877 1.504v2.245c.784.17 1.5.566 2.06 1.14l.003.006a4.21 4.21 0 011.209 2.965 4.208 4.208 0 01-1.209 2.96l-.003.012a4.11 4.11 0 01-2.918 1.223 4.093 4.093 0 01-2.915-1.229h-.003v-.013a4.211 4.211 0 01-1.21-2.96c0-1.157.464-2.21 1.21-2.965v-.007h.003a4.026 4.026 0 012.059-1.139v-2.245a5.15 5.15 0 01-2.868-1.505l-.008-.006a5.419 5.419 0 01-.007-7.597h.008a5.224 5.224 0 012.875-1.513v-2.236a4.156 4.156 0 01-2.059-1.142h-.003v-.006a4.22 4.22 0 01-1.21-2.967 4.225 4.225 0 011.21-2.965l.009-.003a4.046 4.046 0 012.909-1.233c1.137 0 2.168.47 2.919 1.233v.003h.003a4.23 4.23 0 011.208 2.965 4.236 4.236 0 01-1.208 2.966l-.003.006a4.147 4.147 0 01-2.061 1.142v2.237l.006.006zm10.73-1.492l-.015-.024a1.925 1.925 0 00-1.149-.883 1.893 1.893 0 00-1.458.193h.003a1.93 1.93 0 00-.894 1.184 1.977 1.977 0 00.193 1.48l.008.012c.264.457.685.766 1.155.889.472.136.999.079 1.451-.19l.025-.012c.445-.271.744-.699.868-1.169a1.982 1.982 0 00-.187-1.48zm8.478.657h2.131v6.622l3.074-3.46h2.563l-3.711 4.009 3.714 5.074h-2.441l-3.204-4.539v4.539h-2.133v-12.251l.007.006zm10.232 7.739c0 1.128.797 2.767 2.717 2.767 1.188 0 1.97-.63 2.375-1.455.213-.401.31-.83.343-1.282a2.881 2.881 0 00-.245-1.278c-.373-.859-1.203-1.603-2.488-1.603-1.724 0-2.702 1.422-2.702 2.83v.021zm7.549 4.506h-2.132v-1.308c-.568 1.057-1.757 1.588-3.01 1.588-2.864 0-4.54-2.27-4.54-4.834 0-2.863 2.034-4.817 4.54-4.817 1.627 0 2.619.878 3.01 1.607v-1.326h2.132v9.09zm2.415-7.417h-1.099v-1.672h1.099v-.512c0-2.701 2.018-2.864 3.548-2.882v1.67c-.538 0-1.415 0-1.415 1.277v.446h1.415v1.672h-1.415v7.418h-2.133v-7.417zm5.004-4.834h2.13v6.622l3.076-3.46h2.563l-3.711 4.009 3.718 5.08h-2.441l-3.205-4.539v4.539h-2.131v-12.251h.001zm10.238 7.745c0 1.128.797 2.767 2.718 2.767 1.186 0 1.968-.63 2.38-1.455.213-.401.305-.83.342-1.282a2.892 2.892 0 00-.245-1.278c-.367-.859-1.203-1.603-2.488-1.603-1.725 0-2.702 1.422-2.702 2.83v.015l-.005.006zm7.543 4.506h-2.132v-1.308c-.57 1.057-1.758 1.588-3.01 1.588-2.864 0-4.538-2.27-4.538-4.834 0-2.863 2.032-4.817 4.538-4.817 1.626 0 2.619.878 3.01 1.607v-1.326h2.132v9.09z" fill="#1A464C"></path><path fill-rule="evenodd" clip-rule="evenodd" d="M755.767 650.86v36.104c0 .111-.006.223-.016.334a3.647 3.647 0 01-.131.654 3.185 3.185 0 01-.255.617 3.438 3.438 0 01-1.398 1.398 3.464 3.464 0 01-1.605.402H451.794a3.38 3.38 0 01-.989-.147 3.555 3.555 0 01-.616-.255 3.456 3.456 0 01-.803-.596 3.282 3.282 0 01-.423-.516 3.438 3.438 0 01-.427-.903 3.34 3.34 0 01-.147-.988V650.86a3.394 3.394 0 012.102-3.146 3.555 3.555 0 01.639-.193 3.325 3.325 0 01.664-.066h300.568a3.325 3.325 0 01.988.147 3.464 3.464 0 01.617.255 3.628 3.628 0 01.555.371 3.504 3.504 0 01.843 1.027 3.185 3.185 0 01.255.617 3.647 3.647 0 01.131.654c.01.111.016.223.016.334z" fill="#7C7C7C"></path><path fill-rule="evenodd" clip-rule="evenodd" d="M491.994 656.753h203.012v5.722H491.994v-5.722z" fill="#D8D8D8"></path><path fill-rule="evenodd" clip-rule="evenodd" d="M457.682 656.753h12.867v5.722h-12.867v-5.722z" fill="#D7D7D7"></path><path fill-rule="evenodd" clip-rule="evenodd" d="M723.599 656.753h5.719v5.722h-5.719v-5.722z" fill="#D7D400"></path><path fill-rule="evenodd" clip-rule="evenodd" d="M715.021 656.753h5.719v5.722h-5.719v-5.722z" fill="#FF3C00"></path><path fill-rule="evenodd" clip-rule="evenodd" d="M733.607 656.753h12.867v5.722h-12.867v-5.722z" fill="#00CD00"></path><path fill-rule="evenodd" clip-rule="evenodd" d="M491.994 666.051h203.012v5.722H491.994v-5.722z" fill="#D8D8D8"></path><path fill-rule="evenodd" clip-rule="evenodd" d="M457.682 666.051h12.867v5.722h-12.867v-5.722z" fill="#D7D7D7"></path><path fill-rule="evenodd" clip-rule="evenodd" d="M723.599 666.051h5.719v5.722h-5.719v-5.722z" fill="#D7D400"></path><path fill-rule="evenodd" clip-rule="evenodd" d="M715.021 666.051h5.719v5.722h-5.719v-5.722z" fill="#FF3C00"></path><path fill-rule="evenodd" clip-rule="evenodd" d="M733.607 666.051h12.867v5.722h-12.867v-5.722z" fill="#00CD00"></path><path fill-rule="evenodd" clip-rule="evenodd" d="M491.994 675.349h203.012v5.721H491.994v-5.721z" fill="#D8D8D8"></path><path fill-rule="evenodd" clip-rule="evenodd" d="M457.682 675.349h12.867v5.721h-12.867v-5.721z" fill="#D7D7D7"></path><path fill-rule="evenodd" clip-rule="evenodd" d="M723.599 675.349h5.719v5.721h-5.719v-5.721z" fill="#D7D400"></path><path fill-rule="evenodd" clip-rule="evenodd" d="M715.021 675.349h5.719v5.721h-5.719v-5.721z" fill="#FF3C00"></path><path fill-rule="evenodd" clip-rule="evenodd" d="M733.607 675.349h12.867v5.721h-12.867v-5.721z" fill="#00CD00"></path><path fill-rule="evenodd" clip-rule="evenodd" d="M755.767 115.278v521.803c0 .156-.006.311-.016.466a6.942 6.942 0 01-.131.915 5.612 5.612 0 01-.255.861 5.137 5.137 0 01-.595 1.121 4.092 4.092 0 01-.516.591 3.428 3.428 0 01-.589.44 2.879 2.879 0 01-.639.269 2.36 2.36 0 01-.664.092H451.794a2.488 2.488 0 01-.989-.205 2.956 2.956 0 01-.616-.356 3.576 3.576 0 01-.555-.519 4.092 4.092 0 01-.472-.658 5.137 5.137 0 01-.371-.775 5.675 5.675 0 01-.255-.861 6.126 6.126 0 01-.131-.915 6.574 6.574 0 01-.016-.466V115.278a6.574 6.574 0 01.147-1.38 5.637 5.637 0 01.626-1.636 4.463 4.463 0 01.472-.659 3.537 3.537 0 01.857-.718 2.607 2.607 0 011.303-.362h300.568a2.51 2.51 0 01.988.205 2.887 2.887 0 01.617.357 3.347 3.347 0 01.555.518 4.11 4.11 0 01.472.659 5.347 5.347 0 01.514 1.197c.043.143.08.29.112.439a7.089 7.089 0 01.131.914c.01.155.016.31.016.466z" fill="#7C7C7C"></path><path fill-rule="evenodd" clip-rule="evenodd" d="M459.456 136.067H744.7a1.159 1.159 0 01.331.048 1.204 1.204 0 01.32.14 1.6 1.6 0 01.294.227 2.054 2.054 0 01.369.486 2.723 2.723 0 01.257.62 3.115 3.115 0 01.121.701c.006.08.009.161.009.241v475.299c0 .081-.003.161-.009.242a3.17 3.17 0 01-.064.473 3.084 3.084 0 01-.214.654 2.338 2.338 0 01-.1.193 2.255 2.255 0 01-.235.342 1.853 1.853 0 01-.278.268 1.612 1.612 0 01-.15.104 1.366 1.366 0 01-.32.14 1.152 1.152 0 01-.331.047H459.456a1.183 1.183 0 01-.494-.106 1.798 1.798 0 01-.157-.081 1.625 1.625 0 01-.294-.228 1.853 1.853 0 01-.258-.306 2.621 2.621 0 01-.297-.581 3.084 3.084 0 01-.128-.446 3.569 3.569 0 01-.073-.715V138.53a3.88 3.88 0 01.033-.48 2.789 2.789 0 01.097-.462 2.95 2.95 0 01.256-.62 2.583 2.583 0 01.236-.342 2.054 2.054 0 01.277-.268 1.613 1.613 0 01.308-.185 1.312 1.312 0 01.494-.106z" fill="#fff"></path><path fill-rule="evenodd" clip-rule="evenodd" d="M457.682 122.512h288.792v5.722H457.682v-5.722zm0 502.056h288.792v5.722H457.682v-5.722z" fill="#D7D7D7"></path><path d="M720.949 168.422H483.207c-5.592 0-10.126 4.533-10.126 10.125v410.59c0 5.592 4.534 10.125 10.126 10.125h237.742c5.592 0 10.125-4.533 10.125-10.125v-410.59c0-5.592-4.533-10.125-10.125-10.125z" fill="#EEF8F9" stroke="#D9EFF2" stroke-width="1.703"></path><path fill-rule="evenodd" clip-rule="evenodd" d="M481.596 236.696a6.968 6.968 0 016.968-6.968H714.74a6.967 6.967 0 016.968 6.968v89.09a6.967 6.967 0 01-6.968 6.968H488.564a6.968 6.968 0 01-6.968-6.968v-89.09z" fill="#FEF5FC"></path><rect x="492.665" y="263.786" width="217.123" height="58.751" rx="4.257" fill="#53777A" fill-opacity="0.2" stroke="#53777A" stroke-width="1.703" stroke-dasharray="8.51 8.51"></rect><path d="M558.17 312.827h-56l19.342-19.158 8.658 8.474 8.658-8.474 19.342 19.158z" fill="#FAD1F1"></path><path d="M558.539 312.459v-39.053l-19.895 19.527 19.895 19.526zm-56.737 0v-39.053l19.895 19.527-19.895 19.526z" fill="#F8BAEA"></path><path d="M558.17 274.143h-56l27.632 27.631 28.368-27.631z" fill="#F59EE1"></path><path d="M558.387 272.301h-56.823c-.741 0-1.236.617-1.236 1.235v39.529c0 .742.495 1.236 1.236 1.236h56.824c.741 0 1.236-.494 1.236-1.236l-.001-39.529c0-.618-.494-1.235-1.235-1.235h-.001zm-55.589 4.2l16.801 16.8-16.801 16.801v-33.601zm27.177 23.717l-25.447-25.447h50.896l-25.449 25.447zm-8.647-5.188l7.783 7.783c.247.247.617.37.864.37.371 0 .618-.123.865-.37l7.783-7.783 16.799 16.801h-50.894l16.8-16.801zm19.024-1.729l16.801-16.801v33.6l-16.801-16.799z" fill="#000"></path><path d="M628.907 312.827h-56l19.342-19.158 8.658 8.474 8.658-8.474 19.342 19.158z" fill="#FAD1F1"></path><path d="M629.276 312.459v-39.053l-19.895 19.527 19.895 19.526zm-56.737 0v-39.053l19.894 19.527-19.894 19.526z" fill="#F8BAEA"></path><path d="M628.907 274.143h-56l27.632 27.631 28.368-27.631z" fill="#F59EE1"></path><path d="M629.124 272.301h-56.823c-.742 0-1.236.617-1.236 1.235v39.529c0 .742.494 1.236 1.236 1.236h56.824c.741 0 1.236-.494 1.236-1.236l-.001-39.529c0-.618-.494-1.235-1.235-1.235h-.001zm-55.589 4.2l16.801 16.8-16.801 16.801v-33.601zm27.177 23.717l-25.447-25.447h50.895l-25.448 25.447zm-8.647-5.188l7.782 7.783c.247.247.618.37.865.37.371 0 .618-.123.865-.37l7.783-7.783 16.799 16.801h-50.894l16.8-16.801zm19.024-1.729L627.89 276.5v33.6l-16.801-16.799z" fill="#000"></path><path d="M699.644 312.827h-56l19.342-19.158 8.658 8.474 8.658-8.474 19.342 19.158z" fill="#FAD1F1"></path><path d="M700.013 312.459v-39.053l-19.895 19.527 19.895 19.526zm-56.737 0v-39.053l19.894 19.527-19.894 19.526z" fill="#F8BAEA"></path><path d="M699.644 274.143h-56l27.632 27.631 28.368-27.631z" fill="#F59EE1"></path><path d="M699.861 272.301h-56.824c-.741 0-1.235.617-1.235 1.235v39.529c0 .742.494 1.236 1.235 1.236h56.825c.741 0 1.235-.494 1.235-1.236v-39.529c0-.618-.494-1.235-1.235-1.235h-.001zm-55.589 4.2l16.801 16.8-16.801 16.801v-33.601zm27.177 23.717l-25.447-25.447h50.895l-25.448 25.447zm-8.647-5.188l7.782 7.783c.247.247.618.37.865.37.371 0 .618-.123.865-.37l7.783-7.783 16.799 16.801h-50.894l16.8-16.801zm19.024-1.729l16.801-16.801v33.6l-16.801-16.799z" fill="#000"></path><path d="M654.169 182.2a1.89 1.89 0 00-2.704 0h-.01c-.18.182-.322.397-.419.633-.096.237-.145.49-.144.745a1.943 1.943 0 00.557 1.374l.009.01a1.87 1.87 0 001.348.563c.533 0 1.012-.213 1.357-.563l.004-.01c.345-.346.549-.831.549-1.374a1.956 1.956 0 00-.556-1.377h.003l.006-.001zm-1.357 26.655a1.91 1.91 0 001.357-.568l.004-.01c.345-.345.549-.833.549-1.37 0-.549-.211-1.028-.549-1.38h-.004a1.876 1.876 0 00-1.357-.571 1.837 1.837 0 00-1.347.571h-.01a1.969 1.969 0 00-.557 1.38 1.942 1.942 0 00.557 1.37l.01.01a1.873 1.873 0 001.347.567v.001zm10.425-5.899a1.893 1.893 0 001.165-.905l.036-.068c.226-.434.28-.938.151-1.41a1.895 1.895 0 00-.892-1.184l-.027-.018a1.878 1.878 0 00-1.424-.175 1.879 1.879 0 00-1.164.908 1.969 1.969 0 00.698 2.664h.003c.458.269.975.316 1.454.183v.005zm-8.468-9.703a2.754 2.754 0 00-1.963-.83 2.741 2.741 0 00-1.958.83 2.824 2.824 0 00-.808 1.992 2.863 2.863 0 00.808 2.001c.5.506 1.192.824 1.952.824.761 0 1.461-.318 1.963-.824.52-.536.811-1.254.809-2.002a2.828 2.828 0 00-.809-1.992l.006.001zm-1.099-3.318a5.226 5.226 0 012.878 1.513h.006c.123.125.24.257.35.394l1.91-1.124a4.21 4.21 0 01-.062-2.39 4.163 4.163 0 011.923-2.547l.032-.021a4.048 4.048 0 013.099-.404 4.106 4.106 0 012.501 1.953v.003a4.26 4.26 0 01.414 3.182 4.158 4.158 0 01-1.924 2.55l-.261.157h-.026a4.087 4.087 0 01-2.846.265 4.125 4.125 0 01-1.999-1.247l-1.908 1.121a5.482 5.482 0 010 3.806l1.908 1.119a4.105 4.105 0 011.999-1.248 4.014 4.014 0 013.133.422l.064.031v.003a4.19 4.19 0 011.86 2.519 4.252 4.252 0 01-.414 3.18l-.034.07h-.004a4.161 4.161 0 01-2.466 1.899 4.092 4.092 0 01-3.134-.419v-.008a4.174 4.174 0 01-1.923-2.548 4.19 4.19 0 01.062-2.387l-1.91-1.121c-.11.135-.227.265-.35.389l-.006.006a5.206 5.206 0 01-2.878 1.504v2.245a4.09 4.09 0 012.061 1.14l.003.006a4.213 4.213 0 011.208 2.965 4.211 4.211 0 01-1.208 2.96l-.003.012a4.113 4.113 0 01-2.919 1.223 4.09 4.09 0 01-2.914-1.229h-.003v-.013a4.207 4.207 0 01-1.21-2.96c0-1.157.464-2.21 1.21-2.965v-.007h.003a4.022 4.022 0 012.059-1.139v-2.245a5.146 5.146 0 01-2.868-1.505l-.008-.006a5.414 5.414 0 01-1.557-3.8c0-1.482.596-2.824 1.55-3.797h.008a5.217 5.217 0 012.874-1.513v-2.236a4.156 4.156 0 01-2.059-1.142h-.003v-.006a4.225 4.225 0 01-1.21-2.967 4.23 4.23 0 011.21-2.965l.01-.003a4.046 4.046 0 012.908-1.233c1.138 0 2.169.47 2.92 1.233v.003h.003a4.23 4.23 0 011.208 2.965 4.236 4.236 0 01-1.208 2.966l-.003.006a4.151 4.151 0 01-2.061 1.142v2.237l.005.006zm10.731-1.492l-.016-.024a1.92 1.92 0 00-1.897-.935c-.25.034-.491.117-.709.245h.003a1.924 1.924 0 00-.894 1.184 1.976 1.976 0 00.192 1.48l.009.012c.264.457.685.766 1.155.889.472.136.998.079 1.451-.19l.025-.012c.445-.271.744-.699.867-1.169a1.976 1.976 0 00-.186-1.48zm8.477.657h2.132v6.622l3.074-3.46h2.563l-3.711 4.009 3.714 5.074h-2.441l-3.205-4.539v4.539h-2.132v-12.251l.006.006zm10.232 7.739c0 1.128.797 2.767 2.718 2.767 1.188 0 1.969-.63 2.375-1.455.213-.401.31-.83.343-1.282a2.91 2.91 0 00-.245-1.278c-.374-.859-1.204-1.603-2.489-1.603-1.724 0-2.701 1.422-2.701 2.83v.015l-.001.006zm7.55 4.506h-2.133v-1.308c-.567 1.057-1.756 1.588-3.009 1.588-2.864 0-4.54-2.27-4.54-4.834 0-2.863 2.033-4.817 4.54-4.817 1.626 0 2.619.878 3.009 1.607v-1.326h2.133v9.09zm2.414-7.417h-1.098v-1.672h1.098v-.512c0-2.701 2.018-2.864 3.549-2.882v1.67c-.538 0-1.416 0-1.416 1.277v.446h1.416v1.672h-1.416v7.418h-2.133v-7.417zm5.004-4.834h2.131v6.622l3.076-3.46h2.563l-3.712 4.009 3.718 5.08h-2.441l-3.204-4.539v4.539h-2.131v-12.251zm10.239 7.745c0 1.128.796 2.767 2.717 2.767 1.187 0 1.969-.63 2.38-1.455.214-.401.305-.83.343-1.282a2.879 2.879 0 00-.246-1.278c-.366-.859-1.202-1.603-2.488-1.603-1.724 0-2.701 1.422-2.701 2.83v.015l-.005.006zm7.542 4.506h-2.132v-1.308c-.569 1.057-1.757 1.588-3.009 1.588-2.864 0-4.539-2.27-4.539-4.834 0-2.863 2.032-4.817 4.539-4.817 1.626 0 2.619.878 3.009 1.607v-1.326h2.132v9.09z" fill="#1A464C"></path><path fill-rule="evenodd" clip-rule="evenodd" d="M1081.03 650.86v36.104a3.74 3.74 0 01-.15.988 3.45 3.45 0 01-.11.315c-.05.103-.09.204-.15.302a3.166 3.166 0 01-.37.555 2.854 2.854 0 01-.47.472c-.09.071-.18.137-.27.199-.09.062-.19.119-.28.172-.1.052-.2.1-.31.143a3.305 3.305 0 01-.64.193 3.315 3.315 0 01-.66.066H777.053a3.38 3.38 0 01-.989-.147 3.444 3.444 0 01-.903-.427 3.456 3.456 0 01-.741-.671 3.525 3.525 0 01-.37-.555 3.47 3.47 0 01-.386-1.271 3.394 3.394 0 01-.016-.334V650.86a3.394 3.394 0 012.102-3.146 3.444 3.444 0 011.303-.259h300.567c.11 0 .22.006.33.016.12.011.23.028.33.05a3.305 3.305 0 01.95.336c.09.053.19.11.28.172.09.062.18.128.27.199a3.023 3.023 0 01.47.472 3.215 3.215 0 01.37.555c.06.098.1.199.15.302a3.45 3.45 0 01.19.639 3.647 3.647 0 01.07.664z" fill="#7C7C7C"></path><path fill-rule="evenodd" clip-rule="evenodd" d="M817.252 656.753h203.008v5.722H817.252v-5.722z" fill="#D8D8D8"></path><path fill-rule="evenodd" clip-rule="evenodd" d="M782.94 656.753h12.867v5.722H782.94v-5.722z" fill="#D7D7D7"></path><path fill-rule="evenodd" clip-rule="evenodd" d="M1048.86 656.753h5.72v5.722h-5.72v-5.722z" fill="#D7D400"></path><path fill-rule="evenodd" clip-rule="evenodd" d="M1040.28 656.753h5.72v5.722h-5.72v-5.722z" fill="#FF3C00"></path><path fill-rule="evenodd" clip-rule="evenodd" d="M1058.87 656.753h12.86v5.722h-12.86v-5.722z" fill="#00CD00"></path><path fill-rule="evenodd" clip-rule="evenodd" d="M817.252 666.051h203.008v5.722H817.252v-5.722z" fill="#D8D8D8"></path><path fill-rule="evenodd" clip-rule="evenodd" d="M782.94 666.051h12.867v5.722H782.94v-5.722z" fill="#D7D7D7"></path><path fill-rule="evenodd" clip-rule="evenodd" d="M1048.86 666.051h5.72v5.722h-5.72v-5.722z" fill="#D7D400"></path><path fill-rule="evenodd" clip-rule="evenodd" d="M1040.28 666.051h5.72v5.722h-5.72v-5.722z" fill="#FF3C00"></path><path fill-rule="evenodd" clip-rule="evenodd" d="M1058.87 666.051h12.86v5.722h-12.86v-5.722z" fill="#00CD00"></path><path fill-rule="evenodd" clip-rule="evenodd" d="M817.252 675.349h203.008v5.721H817.252v-5.721z" fill="#D8D8D8"></path><path fill-rule="evenodd" clip-rule="evenodd" d="M782.94 675.349h12.867v5.721H782.94v-5.721z" fill="#D7D7D7"></path><path fill-rule="evenodd" clip-rule="evenodd" d="M1048.86 675.349h5.72v5.721h-5.72v-5.721z" fill="#D7D400"></path><path fill-rule="evenodd" clip-rule="evenodd" d="M1040.28 675.349h5.72v5.721h-5.72v-5.721z" fill="#FF3C00"></path><path fill-rule="evenodd" clip-rule="evenodd" d="M1058.87 675.349h12.86v5.721h-12.86v-5.721z" fill="#00CD00"></path><path fill-rule="evenodd" clip-rule="evenodd" d="M1081.03 115.278v521.803a7.23 7.23 0 01-.15 1.381c-.03.149-.07.295-.11.438-.05.145-.09.285-.15.423a4.785 4.785 0 01-.37.775c-.07.12-.14.236-.22.346-.08.11-.16.214-.25.312-.09.099-.18.192-.27.279-.09.086-.19.166-.28.24-.1.073-.2.139-.31.2a2.682 2.682 0 01-.64.269 2.44 2.44 0 01-.66.092H777.053a2.488 2.488 0 01-.989-.205 2.865 2.865 0 01-.617-.356 3.747 3.747 0 01-.802-.831 4.672 4.672 0 01-.424-.721 5.282 5.282 0 01-.314-.823 6.101 6.101 0 01-.243-1.353 6.574 6.574 0 01-.016-.466V115.278a6.574 6.574 0 01.146-1.38 6.129 6.129 0 01.256-.861 4.956 4.956 0 01.595-1.121 4.1 4.1 0 01.516-.591 3.336 3.336 0 01.589-.44 2.873 2.873 0 01.638-.27 2.562 2.562 0 01.665-.092h300.567a2.44 2.44 0 01.66.092c.11.03.22.068.33.113.11.045.21.098.31.157.11.06.21.126.31.2.09.073.19.153.28.24.09.086.18.179.27.278a3.91 3.91 0 01.47.659 4.95 4.95 0 01.37.775c.06.137.1.278.15.422a6.12 6.12 0 01.19.891c.02.153.04.307.05.462.01.155.02.31.02.466z" fill="#7C7C7C"></path><path fill-rule="evenodd" clip-rule="evenodd" d="M784.715 136.067h285.245c.05 0 .11.004.16.012a1.285 1.285 0 01.49.176c.05.031.1.065.15.103.05.038.1.08.14.124.05.045.09.093.14.144.04.052.08.106.12.163.04.057.08.117.11.179.04.062.07.127.1.194l.09.207c.02.071.05.144.07.219l.06.227c.01.078.03.156.04.235.01.079.02.159.02.239.01.08.01.161.01.241v475.299c0 .081 0 .161-.01.242 0 .08-.01.16-.02.239-.01.079-.03.157-.04.234a36.4 36.4 0 01-.06.228c-.02.074-.05.147-.07.218l-.09.208a1.41 1.41 0 01-.1.193c-.03.063-.07.122-.11.179a3.29 3.29 0 01-.12.163c-.05.051-.09.1-.14.144a.926.926 0 01-.14.124c-.05.038-.1.073-.15.104a1.477 1.477 0 01-.32.14 1.02 1.02 0 01-.17.035c-.05.008-.11.012-.16.012H784.715a1.173 1.173 0 01-.332-.047 1.366 1.366 0 01-.47-.244 1.677 1.677 0 01-.277-.268 2.034 2.034 0 01-.236-.342 2.338 2.338 0 01-.185-.401 2.648 2.648 0 01-.128-.446 3.57 3.57 0 01-.065-.473 3.26 3.26 0 01-.008-.242V138.53a3.233 3.233 0 01.032-.48 3.722 3.722 0 01.097-.462 2.55 2.55 0 01.072-.219 2.717 2.717 0 01.185-.401 2.46 2.46 0 01.236-.342 1.84 1.84 0 01.277-.268 1.492 1.492 0 01.47-.243 1.218 1.218 0 01.332-.048z" fill="#fff"></path><path fill-rule="evenodd" clip-rule="evenodd" d="M782.94 122.512h288.79v5.722H782.94v-5.722zm0 502.056h288.79v5.722H782.94v-5.722z" fill="#D7D7D7"></path><path d="M1046.21 168.422H808.465c-5.592 0-10.125 4.533-10.125 10.125v410.59c0 5.592 4.533 10.125 10.125 10.125h237.745c5.59 0 10.12-4.533 10.12-10.125v-410.59c0-5.592-4.53-10.125-10.12-10.125z" fill="#EEF8F9" stroke="#D9EFF2" stroke-width="1.703"></path><path fill-rule="evenodd" clip-rule="evenodd" d="M806.855 236.696a6.967 6.967 0 016.968-6.968H1040c3.85 0 6.97 3.119 6.97 6.968v89.09a6.968 6.968 0 01-6.97 6.968H813.823a6.967 6.967 0 01-6.968-6.968v-89.09z" fill="#FEF5FC"></path><rect x="817.924" y="263.786" width="217.123" height="58.751" rx="4.257" fill="#53777A" fill-opacity="0.2" stroke="#53777A" stroke-width="1.703" stroke-dasharray="8.51 8.51"></rect><path d="M883.429 312.827h-56l19.342-19.158 8.658 8.474 8.658-8.474 19.342 19.158z" fill="#FAD1F1"></path><path d="M883.797 312.459v-39.053l-19.894 19.527 19.894 19.526zm-56.736 0v-39.053l19.894 19.527-19.894 19.526z" fill="#F8BAEA"></path><path d="M883.429 274.143h-56l27.632 27.631 28.368-27.631z" fill="#F59EE1"></path><path d="M883.646 272.301h-56.824c-.741 0-1.235.617-1.235 1.235v39.529c0 .742.494 1.236 1.235 1.236h56.825c.741 0 1.235-.494 1.235-1.236v-39.529c0-.618-.494-1.235-1.235-1.235h-.001zm-55.589 4.2l16.801 16.8-16.801 16.801v-33.601zm27.177 23.717l-25.447-25.447h50.895l-25.448 25.447zm-8.647-5.188l7.782 7.783c.247.247.618.37.865.37.371 0 .618-.123.865-.37l7.782-7.783 16.8 16.801h-50.894l16.8-16.801zm19.024-1.729l16.8-16.801v33.6l-16.8-16.799z" fill="#000"></path><path d="M954.166 312.827h-56l19.342-19.158 8.658 8.474 8.658-8.474 19.342 19.158z" fill="#FAD1F1"></path><path d="M954.534 312.459v-39.053l-19.894 19.527 19.894 19.526zm-56.737 0v-39.053l19.895 19.527-19.895 19.526z" fill="#F8BAEA"></path><path d="M954.166 274.143h-56l27.631 27.631 28.369-27.631z" fill="#F59EE1"></path><path d="M954.383 272.301h-56.824c-.741 0-1.235.617-1.235 1.235v39.529c0 .742.494 1.236 1.235 1.236h56.825c.741 0 1.235-.494 1.235-1.236v-39.529c0-.618-.494-1.235-1.236-1.235zm-55.589 4.2l16.8 16.8-16.8 16.801v-33.601zm27.177 23.717l-25.447-25.447h50.895l-25.448 25.447zm-8.647-5.188l7.782 7.783c.247.247.618.37.865.37.371 0 .617-.123.865-.37l7.782-7.783 16.8 16.801h-50.894l16.8-16.801zm19.024-1.729l16.8-16.801v33.6l-16.8-16.799z" fill="#000"></path><path d="M979.428 182.2a1.891 1.891 0 00-2.705 0h-.009a1.926 1.926 0 00-.563 1.378 1.938 1.938 0 00.557 1.374l.009.01a1.867 1.867 0 001.347.563c.534 0 1.012-.213 1.357-.563l.004-.01c.346-.346.549-.831.549-1.374a1.948 1.948 0 00-.556-1.377h.003l.007-.001zm-1.358 26.655c.534 0 1.012-.221 1.358-.568l.003-.01c.346-.345.549-.833.549-1.37 0-.549-.21-1.028-.549-1.38h-.003a1.877 1.877 0 00-1.358-.571 1.841 1.841 0 00-1.347.571h-.009a1.96 1.96 0 00-.557 1.38 1.938 1.938 0 00.557 1.37l.009.01c.176.18.385.322.617.419.231.098.479.148.73.148v.001zm10.425-5.899a1.898 1.898 0 001.166-.905l.035-.068a1.95 1.95 0 00.152-1.41 1.896 1.896 0 00-.893-1.184l-.026-.018a1.88 1.88 0 00-1.425-.175 1.879 1.879 0 00-1.164.908c-.254.449-.323.98-.193 1.479.132.496.452.921.892 1.185h.003c.458.269.974.316 1.454.183l-.001.005zm-8.468-9.703a2.753 2.753 0 00-1.962-.83 2.753 2.753 0 00-1.959.83 2.828 2.828 0 00-.808 1.992 2.863 2.863 0 00.808 2.001 2.748 2.748 0 001.953.824c.76 0 1.46-.318 1.962-.824a2.86 2.86 0 00.809-2.002 2.823 2.823 0 00-.809-1.992l.006.001zm-1.098-3.318a5.226 5.226 0 012.878 1.513h.006c.123.125.24.257.35.394l1.91-1.124a4.21 4.21 0 01-.063-2.39 4.164 4.164 0 011.924-2.547l.032-.021a4.05 4.05 0 013.098-.404 4.11 4.11 0 012.502 1.953v.003a4.26 4.26 0 01.413 3.182 4.16 4.16 0 01-1.923 2.55l-.261.157h-.027a4.085 4.085 0 01-4.845-.982l-1.907 1.121a5.505 5.505 0 010 3.806l1.907 1.119a4.103 4.103 0 012-1.248 4.014 4.014 0 013.133.422l.063.031v.003a4.186 4.186 0 011.86 2.519 4.252 4.252 0 01-.413 3.18l-.034.07h-.004a4.16 4.16 0 01-2.467 1.899 4.09 4.09 0 01-3.133-.419v-.008a4.172 4.172 0 01-1.924-2.548 4.199 4.199 0 01.062-2.387l-1.91-1.121c-.11.135-.226.265-.349.389l-.006.006a5.21 5.21 0 01-2.878 1.504v2.245a4.09 4.09 0 012.061 1.14l.003.006a4.213 4.213 0 011.208 2.965 4.211 4.211 0 01-1.208 2.96l-.003.012a4.115 4.115 0 01-2.919 1.223 4.09 4.09 0 01-2.914-1.229h-.003v-.013a4.212 4.212 0 01-1.211-2.96 4.21 4.21 0 011.211-2.965v-.007h.003a4.023 4.023 0 012.058-1.139v-2.245a5.15 5.15 0 01-2.868-1.505l-.007-.006a5.42 5.42 0 01-.008-7.597h.008a5.224 5.224 0 012.875-1.513v-2.236a4.156 4.156 0 01-2.059-1.142h-.003v-.006a4.225 4.225 0 01-1.21-2.967 4.225 4.225 0 011.21-2.965l.009-.003c.378-.39.83-.7 1.33-.911a4.039 4.039 0 011.579-.322c1.137 0 2.168.47 2.919 1.233v.003h.003a4.226 4.226 0 011.209 2.965 4.237 4.237 0 01-1.209 2.966l-.003.006a4.148 4.148 0 01-2.06 1.142v2.237l.005.006zm10.731-1.492l-.016-.024a1.923 1.923 0 00-1.897-.935 1.895 1.895 0 00-.709.245h.003a1.929 1.929 0 00-.895 1.184 1.981 1.981 0 00.193 1.48l.008.012c.265.457.686.766 1.156.889.471.136.998.079 1.451-.19l.024-.012a1.94 1.94 0 00.868-1.169 1.986 1.986 0 00-.186-1.48zm8.477.657h2.133v6.622l3.07-3.46h2.57l-3.72 4.009 3.72 5.074h-2.44l-3.21-4.539v4.539h-2.129v-12.251l.006.006zm10.233 7.739c0 1.128.8 2.767 2.72 2.767 1.18 0 1.97-.63 2.37-1.455.21-.401.31-.83.34-1.282a2.81 2.81 0 00-.24-1.278c-.37-.859-1.2-1.603-2.49-1.603-1.72 0-2.7 1.422-2.7 2.83v.021zm7.55 4.506h-2.13v-1.308c-.57 1.057-1.76 1.588-3.01 1.588-2.87 0-4.54-2.27-4.54-4.834 0-2.863 2.03-4.817 4.54-4.817 1.62 0 2.62.878 3.01 1.607v-1.326h2.13v9.09zm2.41-7.417h-1.1v-1.672h1.1v-.512c0-2.701 2.02-2.864 3.55-2.882v1.67c-.54 0-1.41 0-1.41 1.277v.446h1.41v1.672h-1.41v7.418h-2.14v-7.417zm5.01-4.834h2.13v6.622l3.07-3.46h2.57l-3.72 4.009 3.72 5.08h-2.44l-3.2-4.539v4.539h-2.13v-12.251zm10.24 7.745c0 1.128.79 2.767 2.71 2.767 1.19 0 1.97-.63 2.38-1.455.22-.401.31-.83.35-1.282.01-.431-.07-.88-.25-1.278-.37-.859-1.2-1.603-2.49-1.603-1.72 0-2.7 1.422-2.7 2.83v.021zm7.54 4.506h-2.13v-1.308c-.57 1.057-1.76 1.588-3.01 1.588-2.87 0-4.54-2.27-4.54-4.834 0-2.863 2.03-4.817 4.54-4.817 1.62 0 2.62.878 3.01 1.607v-1.326h2.13v9.09z" fill="#1A464C"></path><path d="M699.043 250.327l5.633-8.499-5.351 20.883h-33.626l-5.35-20.88 5.632 8.495 1.245 1.878.308-2.232 2.334-16.92 4.879 13.359.872 2.386.742-2.429 6.099-19.945.052-.172.053.172 6.098 19.945.743 2.429.871-2.386 4.879-13.358 2.334 16.92.308 2.233 1.245-1.879z" fill="#F7D62A" stroke="#F2C357" stroke-width="1.703"></path><path d="M644.593 237.336a1.278 1.278 0 00.856-1.59l-3.308-11.009a1.277 1.277 0 10-2.446.735l2.94 9.785-9.786 2.94a1.278 1.278 0 00.735 2.447l11.009-3.308zm36.245-169.387c-4.654 0-10.817 1.544-17.709 4.294-6.919 2.76-14.669 6.774-22.526 11.806-15.704 10.059-31.937 24.251-42.837 40.777-10.906 16.534-16.545 35.524-10.769 55.041 5.769 19.493 22.834 39.193 56.623 57.371l1.21-2.25c-33.476-18.009-49.884-37.263-55.384-55.846-5.492-18.56-.195-36.768 10.452-52.909 10.652-16.149 26.588-30.108 42.083-40.032 7.741-4.96 15.347-8.894 22.094-11.586 6.773-2.702 12.584-4.111 16.763-4.111v-2.555zM274.767 586.89a1.278 1.278 0 00-1.805-.051l-8.354 7.896a1.279 1.279 0 00-.051 1.806 1.279 1.279 0 001.806.051l7.425-7.019 7.019 7.426a1.277 1.277 0 001.856-1.755l-7.896-8.354zm-2.205.842c-.428 15.205-1.182 50.032 31.012 83.303 32.143 33.217 96.911 64.662 226.891 73.824l.18-2.548c-129.716-9.144-193.731-40.495-225.235-73.053-31.453-32.504-30.717-66.433-30.294-81.454l-2.554-.072zm661.617-249.941a1.278 1.278 0 00-1.806.042l-7.94 8.312a1.277 1.277 0 101.848 1.764l7.057-7.388 7.389 7.057a1.277 1.277 0 101.764-1.847l-8.312-7.94zM681.731 748.693c29.787-.971 60.712-16.739 90.218-42.258 29.523-25.535 57.742-60.932 82.138-101.405 48.778-80.923 82.41-182.378 80.487-266.344l-2.554.058c1.909 83.346-31.512 184.326-80.121 264.968-24.297 40.309-52.354 75.477-81.621 100.791-29.286 25.329-59.666 40.693-88.63 41.637l.083 2.553zm312.092-452.602a1.277 1.277 0 001.581-.874l3.18-11.046a1.278 1.278 0 00-2.455-.706l-2.827 9.818-9.818-2.826a1.277 1.277 0 10-.707 2.455l11.046 3.179zm-20.34-201.953c-4.478 7.864-7.967 19.858-10.086 34.468-2.122 14.635-2.882 31.99-1.84 50.637 2.083 37.283 11.376 79.842 31.502 116.239l2.235-1.236c-19.893-35.977-29.119-78.139-31.187-115.146-1.033-18.497-.277-35.68 1.818-50.128 2.099-14.473 5.528-26.106 9.778-33.57l-2.22-1.264zM393.644 544.975a1.278 1.278 0 00.458 1.748l9.921 5.805a1.277 1.277 0 001.29-2.205l-8.819-5.16 5.16-8.819a1.277 1.277 0 10-2.205-1.29l-5.805 9.921zm1.426 1.881c32.153-8.416 45.167-26.516 59.119-42.325 6.973-7.901 14.158-15.214 24.089-20.652 9.918-5.431 22.665-9.04 40.805-9.356l-.045-2.554c-18.473.322-31.642 4.005-41.987 9.669-10.331 5.658-17.754 13.245-24.777 21.203-14.04 15.908-26.569 33.356-57.851 41.544l.647 2.471zm206.15-206.97a1.278 1.278 0 00-1.802.112l-7.609 8.616a1.277 1.277 0 001.914 1.691l6.764-7.658 7.658 6.763a1.277 1.277 0 101.691-1.915l-8.616-7.609zm61.96 137.172c15.1-2.668 25.639-5.836 32.444-9.512 6.81-3.68 10.153-8.035 10.199-13.12.045-4.927-3.041-10.053-7.764-15.262-4.767-5.256-11.428-10.838-18.994-16.686-15.205-11.752-34.083-24.604-49.499-38.448-15.45-13.874-26.993-28.389-27.916-43.265l-2.55.158c.993 15.989 13.29 31.116 28.759 45.007 15.503 13.922 34.622 26.959 49.644 38.569 7.547 5.833 14.057 11.301 18.663 16.381 4.649 5.126 7.138 9.622 7.103 13.523-.034 3.742-2.425 7.419-8.859 10.895-6.44 3.48-16.655 6.591-31.675 9.245l.445 2.515z" fill="#000"></path><path fill="#D8D8D8" d="M694 56h105v26H694zm166-2h204v28H860zM530 456h128v35H530zm8 274h136v28H538z"></path><path fill="#4F083F" d="M489 213h65v9h-65z"></path><path fill="#6F0B58" d="M495 247h97v6h-97z"></path><path fill="#4F083F" d="M173 465h65v9h-65z"></path><path fill="#6F0B58" d="M179 499h88v6h-88z"></path><path fill="#CC9210" d="M167 213h65v9h-65z"></path><path fill="#EDAC17" d="M173 247h63v6h-63zm0 102h63v6h-63z"></path><path fill="#4F083F" d="M818 213h65v9h-65z"></path><path fill="#6F0B58" d="M824 247h94v6h-94z"></path><path fill="#C4C4C4" d="M157 149h73v15h-73zm324 0h73v15h-73zm326 0h73v15h-73z"></path></g></svg>