<svg viewBox="0 0 1200 900" fill="none" xmlns="http://www.w3.org/2000/svg"><path fill="#fff" d="M0 0h1200v900H0z"></path><path fill-rule="evenodd" clip-rule="evenodd" d="M780 744.599v42.402a3.942 3.942 0 01-.172 1.161 4.05 4.05 0 01-.502 1.061 4.013 4.013 0 01-2.933 1.758 3.956 3.956 0 01-.392.019H422.999a3.942 3.942 0 01-1.161-.172 4.05 4.05 0 01-1.061-.502 4.013 4.013 0 01-1.758-2.933 3.942 3.942 0 01-.019-.392v-42.402a3.942 3.942 0 01.172-1.161 4.05 4.05 0 01.502-1.061 4.013 4.013 0 012.933-1.758c.13-.012.261-.019.392-.019h353.002a3.86 3.86 0 011.161.172 4.104 4.104 0 011.061.502 4.013 4.013 0 011.758 2.933c.013.13.019.261.019.392z" fill="#7C7C7C"></path><path fill-rule="evenodd" clip-rule="evenodd" d="M470.212 751.52H708.64v6.72H470.212v-6.72z" fill="#D8D8D8"></path><path fill-rule="evenodd" clip-rule="evenodd" d="M429.914 751.52h15.112v6.72h-15.112v-6.72z" fill="#D7D7D7"></path><path fill-rule="evenodd" clip-rule="evenodd" d="M742.221 751.52h6.716v6.72h-6.716v-6.72z" fill="#D7D400"></path><path fill-rule="evenodd" clip-rule="evenodd" d="M732.147 751.52h6.716v6.72h-6.716v-6.72z" fill="#FF3C00"></path><path fill-rule="evenodd" clip-rule="evenodd" d="M753.975 751.52h15.111v6.72h-15.111v-6.72z" fill="#00CD00"></path><path fill-rule="evenodd" clip-rule="evenodd" d="M470.212 762.44H708.64v6.72H470.212v-6.72z" fill="#D8D8D8"></path><path fill-rule="evenodd" clip-rule="evenodd" d="M429.914 762.44h15.112v6.72h-15.112v-6.72z" fill="#D7D7D7"></path><path fill-rule="evenodd" clip-rule="evenodd" d="M742.221 762.44h6.716v6.72h-6.716v-6.72z" fill="#D7D400"></path><path fill-rule="evenodd" clip-rule="evenodd" d="M732.147 762.44h6.716v6.72h-6.716v-6.72z" fill="#FF3C00"></path><path fill-rule="evenodd" clip-rule="evenodd" d="M753.975 762.44h15.111v6.72h-15.111v-6.72z" fill="#00CD00"></path><path fill-rule="evenodd" clip-rule="evenodd" d="M470.212 773.36H708.64v6.72H470.212v-6.72z" fill="#D8D8D8"></path><path fill-rule="evenodd" clip-rule="evenodd" d="M429.914 773.36h15.112v6.72h-15.112v-6.72z" fill="#D7D7D7"></path><path fill-rule="evenodd" clip-rule="evenodd" d="M742.221 773.36h6.716v6.72h-6.716v-6.72z" fill="#D7D400"></path><path fill-rule="evenodd" clip-rule="evenodd" d="M732.147 773.36h6.716v6.72h-6.716v-6.72z" fill="#FF3C00"></path><path fill-rule="evenodd" clip-rule="evenodd" d="M753.975 773.36h15.111v6.72h-15.111v-6.72z" fill="#00CD00"></path><path fill-rule="evenodd" clip-rule="evenodd" d="M780 115.584v612.832a7.688 7.688 0 01-.172 1.621 7.053 7.053 0 01-.3 1.011 6.344 6.344 0 01-.436.911 4.888 4.888 0 01-.869 1.1 3.62 3.62 0 01-1.061.701 2.962 2.962 0 01-.381.132 2.876 2.876 0 01-.78.108H422.999a2.858 2.858 0 01-.78-.108 2.962 2.962 0 01-.381-.132 3.62 3.62 0 01-1.061-.701 4.888 4.888 0 01-.869-1.1 6.344 6.344 0 01-.436-.911 6.872 6.872 0 01-.3-1.011 7.42 7.42 0 01-.172-1.621V115.584a7.668 7.668 0 01.304-2.137 6.21 6.21 0 01.604-1.405 5.337 5.337 0 01.554-.774 4.253 4.253 0 01.652-.609 3.62 3.62 0 01.724-.419 3.129 3.129 0 01.769-.213c.13-.018.261-.027.392-.027h353.002a2.87 2.87 0 01.78.107 3.129 3.129 0 01.75.318 3.62 3.62 0 01.692.516 4.907 4.907 0 01.869 1.101 5.918 5.918 0 01.436.91 7.214 7.214 0 01.395 1.543 8.087 8.087 0 01.077 1.089z" fill="#7C7C7C"></path><path fill-rule="evenodd" clip-rule="evenodd" d="M431.998 140h335.004a1.435 1.435 0 01.58.125 1.705 1.705 0 01.53.362 2.327 2.327 0 01.434.571 3.096 3.096 0 01.302.728 3.718 3.718 0 01.114.542c.013.093.022.187.028.281.007.094.01.189.01.284v558.214c0 .095-.003.189-.01.284a3.764 3.764 0 01-.142.823 3.334 3.334 0 01-.433.938 2.183 2.183 0 01-.146.191 1.96 1.96 0 01-.325.315 1.996 1.996 0 01-.177.122 1.734 1.734 0 01-.375.165 1.31 1.31 0 01-.194.04c-.065.01-.131.015-.196.015H431.998c-.065 0-.131-.005-.196-.015a1.31 1.31 0 01-.384-.109 1.806 1.806 0 01-.53-.364 2.14 2.14 0 01-.303-.359 2.853 2.853 0 01-.349-.683 3.334 3.334 0 01-.15-.523 4.272 4.272 0 01-.076-.556 3.85 3.85 0 01-.01-.284V142.893a4.38 4.38 0 01.038-.565 4.154 4.154 0 01.114-.542 3.51 3.51 0 01.185-.5c.036-.079.075-.155.117-.228a2.59 2.59 0 01.434-.571 1.895 1.895 0 01.53-.362 1.4 1.4 0 01.384-.111c.065-.009.131-.014.196-.014z" fill="#fff"></path><path fill-rule="evenodd" clip-rule="evenodd" d="M429.914 124.08h339.172v6.72H429.914v-6.72zm0 589.64h339.172v6.72H429.914v-6.72z" fill="#D7D7D7"></path><path d="M459.063 169v-12.233h4.898c.9 0 1.651.134 2.252.4.601.267 1.053.638 1.356 1.111.302.47.454 1.012.454 1.625 0 .478-.096.898-.287 1.26a2.472 2.472 0 01-.788.884 3.226 3.226 0 01-1.135.484v.12a2.792 2.792 0 012.305 1.415c.255.434.383.952.383 1.553 0 .649-.162 1.229-.484 1.738-.319.506-.791.906-1.416 1.201-.625.295-1.396.442-2.311.442h-5.227zm2.587-2.114h2.108c.721 0 1.246-.138 1.577-.413.33-.278.496-.649.496-1.111 0-.338-.082-.637-.245-.896a1.676 1.676 0 00-.699-.609c-.299-.147-.655-.221-1.069-.221h-2.168v3.25zm0-5h1.917c.354 0 .669-.062.944-.185.278-.127.497-.307.657-.538.163-.231.245-.507.245-.83 0-.442-.158-.798-.472-1.069-.311-.271-.753-.406-1.326-.406h-1.965v3.028zm7.86 7.114v-12.233h4.826c.924 0 1.713.166 2.366.496.657.327 1.156.79 1.499 1.392.346.597.519 1.3.519 2.108 0 .813-.175 1.511-.525 2.097-.351.581-.858 1.027-1.523 1.338-.661.31-1.462.466-2.401.466h-3.232v-2.079h2.813c.494 0 .904-.068 1.231-.203a1.47 1.47 0 00.729-.609c.163-.271.244-.608.244-1.01 0-.406-.081-.748-.244-1.027a1.504 1.504 0 00-.735-.633c-.327-.148-.739-.221-1.237-.221h-1.744V169h-2.586zm6.606-5.567l3.04 5.567h-2.855l-2.974-5.567h2.789zm15-.549c0 1.334-.253 2.468-.759 3.404-.501.936-1.186 1.651-2.054 2.145-.864.489-1.836.734-2.915.734-1.087 0-2.063-.247-2.927-.74-.864-.494-1.547-1.209-2.049-2.145-.501-.935-.752-2.068-.752-3.398 0-1.334.251-2.469.752-3.405.502-.936 1.185-1.649 2.049-2.138.864-.494 1.84-.741 2.927-.741 1.079 0 2.051.247 2.915.741.868.489 1.553 1.202 2.054 2.138.506.936.759 2.071.759 3.405zm-2.622 0c0-.864-.13-1.593-.388-2.186-.255-.594-.616-1.044-1.082-1.35-.465-.307-1.011-.46-1.636-.46s-1.171.153-1.637.46c-.466.306-.828.756-1.087 1.35-.255.593-.382 1.322-.382 2.186 0 .864.127 1.592.382 2.186.259.593.621 1.043 1.087 1.35.466.306 1.012.46 1.637.46s1.171-.154 1.636-.46c.466-.307.827-.757 1.082-1.35.258-.594.388-1.322.388-2.186zm3.864 6.116v-12.233h2.587v5.394h.161l4.402-5.394h3.1l-4.539 5.478 4.593 6.755h-3.094l-3.351-5.029-1.272 1.553V169h-2.587zm10.924 0v-12.233h8.242v2.133h-5.656v2.914h5.232v2.133h-5.232v2.921h5.68V169h-8.266zm9.625 0v-12.233h4.826c.924 0 1.713.166 2.366.496.657.327 1.157.79 1.499 1.392.346.597.52 1.3.52 2.108 0 .813-.176 1.511-.526 2.097-.35.581-.858 1.027-1.523 1.338-.661.31-1.461.466-2.401.466h-3.232v-2.079h2.814c.493 0 .904-.068 1.23-.203.327-.135.57-.339.729-.609.163-.271.245-.608.245-1.01 0-.406-.082-.748-.245-1.027a1.496 1.496 0 00-.735-.633c-.326-.148-.739-.221-1.236-.221h-1.744V169h-2.587zm6.606-5.567l3.041 5.567h-2.855l-2.975-5.567h2.789zm12.229-6.666V169h-2.587v-9.778h-.071l-2.802 1.756v-2.293l3.029-1.918h2.431z" fill="#919191"></path><path d="M739.109 178H459.891c-6.567 0-11.891 5.324-11.891 11.891v482.218c0 6.567 5.324 11.891 11.891 11.891h279.218c6.567 0 11.891-5.324 11.891-11.892V189.891c0-6.567-5.324-11.891-11.891-11.891z" fill="#EEF8F9" stroke="#D9EFF2" stroke-width="2"></path><path fill-rule="evenodd" clip-rule="evenodd" d="M459 258.184a8.184 8.184 0 018.184-8.184h265.632a8.184 8.184 0 018.184 8.184v279.632a8.184 8.184 0 01-8.184 8.184H467.184a8.184 8.184 0 01-8.184-8.184V258.184z" fill="#FCF3CF"></path><rect x="472" y="290" width="255" height="245" rx="5" fill="#53777A" fill-opacity="0.2" stroke="#53777A" stroke-width="2" stroke-dasharray="10 10"></rect><path d="M548.933 347.596h-65.769l22.716-22.5 10.168 9.952 10.169-9.952 22.716 22.5z" fill="#FFD25B"></path><path d="M549.366 347.164v-45.866L526 324.231l23.366 22.933zm-66.635 0v-45.866l23.365 22.933-23.365 22.933z" fill="#F2C357"></path><path d="M548.933 302.164h-65.769l32.452 32.451 33.317-32.451z" fill="#F0BB42"></path><path d="M549.188 300h-66.737c-.87 0-1.451.725-1.451 1.45v46.426c0 .87.581 1.451 1.451 1.451h66.738c.87 0 1.451-.581 1.451-1.451l-.001-46.426c0-.725-.58-1.45-1.451-1.45zm-65.287 4.932l19.732 19.732-19.732 19.731v-39.463zm31.918 27.856l-29.886-29.886h59.774l-29.888 29.886zm-10.155-6.093l9.14 9.14c.29.29.725.435 1.015.435.436 0 .726-.145 1.016-.435l9.14-9.14 19.73 19.731h-59.772l19.731-19.731zm22.342-2.031l19.732-19.732v39.462l-19.732-19.73z" fill="#000"></path><path d="M632.01 347.596h-65.769l22.716-22.5 10.168 9.952 10.169-9.952 22.716 22.5z" fill="#FFD25B"></path><path d="M632.443 347.164v-45.866l-23.366 22.933 23.366 22.933zm-66.635 0v-45.866l23.365 22.933-23.365 22.933z" fill="#F2C357"></path><path d="M632.01 302.164h-65.769l32.452 32.451 33.317-32.451z" fill="#F0BB42"></path><path d="M632.265 300h-66.737c-.87 0-1.451.725-1.451 1.45v46.426c0 .87.581 1.451 1.451 1.451h66.738c.87 0 1.451-.581 1.451-1.451l-.001-46.426c0-.725-.58-1.45-1.451-1.45zm-65.287 4.932l19.732 19.732-19.732 19.731v-39.463zm31.918 27.856l-29.886-29.886h59.774l-29.888 29.886zm-10.156-6.093l9.141 9.14c.29.29.725.435 1.015.435.436 0 .726-.145 1.016-.435l9.14-9.14 19.73 19.731H569.01l19.73-19.731zm22.343-2.031l19.732-19.732v39.462l-19.732-19.73z" fill="#000"></path><path d="M715.087 347.596h-65.769l22.716-22.5 10.168 9.952 10.169-9.952 22.716 22.5z" fill="#FFD25B"></path><path d="M715.52 347.164v-45.866l-23.366 22.933 23.366 22.933zm-66.635 0v-45.866l23.365 22.933-23.365 22.933z" fill="#F2C357"></path><path d="M715.087 302.164h-65.769l32.452 32.451 33.317-32.451z" fill="#F0BB42"></path><path d="M715.342 300h-66.737c-.87 0-1.451.725-1.451 1.45v46.426c0 .87.581 1.451 1.451 1.451h66.738c.87 0 1.451-.581 1.451-1.451l-.001-46.426c0-.725-.58-1.45-1.451-1.45zm-65.287 4.932l19.732 19.732-19.732 19.731v-39.463zm31.918 27.856l-29.886-29.886h59.774l-29.888 29.886zm-10.155-6.093l9.14 9.14c.29.29.725.435 1.015.435.436 0 .726-.145 1.016-.435l9.14-9.14 19.73 19.731h-59.772l19.731-19.731zm22.343-2.031l19.731-19.732v39.462l-19.731-19.73z" fill="#000"></path><path d="M548.933 406.596h-65.769l22.716-22.5 10.168 9.952 10.169-9.952 22.716 22.5z" fill="#FFD25B"></path><path d="M549.366 406.164v-45.866L526 383.231l23.366 22.933zm-66.635 0v-45.866l23.365 22.933-23.365 22.933z" fill="#F2C357"></path><path d="M548.933 361.164h-65.769l32.452 32.451 33.317-32.451z" fill="#F0BB42"></path><path d="M549.188 359h-66.737c-.87 0-1.451.725-1.451 1.45v46.426c0 .87.581 1.451 1.451 1.451h66.738c.87 0 1.451-.581 1.451-1.451l-.001-46.426c0-.725-.58-1.45-1.451-1.45zm-65.287 4.932l19.732 19.732-19.732 19.731v-39.463zm31.918 27.856l-29.886-29.886h59.774l-29.888 29.886zm-10.155-6.093l9.14 9.14c.29.29.725.435 1.015.435.436 0 .726-.145 1.016-.435l9.14-9.14 19.73 19.731h-59.772l19.731-19.731zm22.342-2.031l19.732-19.732v39.462l-19.732-19.73z" fill="#000"></path><path d="M632.01 406.596h-65.769l22.716-22.5 10.168 9.952 10.169-9.952 22.716 22.5z" fill="#FFD25B"></path><path d="M632.443 406.164v-45.866l-23.366 22.933 23.366 22.933zm-66.635 0v-45.866l23.365 22.933-23.365 22.933z" fill="#F2C357"></path><path d="M632.01 361.164h-65.769l32.452 32.451 33.317-32.451z" fill="#F0BB42"></path><path d="M632.265 359h-66.737c-.87 0-1.451.725-1.451 1.45v46.426c0 .87.581 1.451 1.451 1.451h66.738c.87 0 1.451-.581 1.451-1.451l-.001-46.426c0-.725-.58-1.45-1.451-1.45zm-65.287 4.932l19.732 19.732-19.732 19.731v-39.463zm31.918 27.856l-29.886-29.886h59.774l-29.888 29.886zm-10.156-6.093l9.141 9.14c.29.29.725.435 1.015.435.436 0 .726-.145 1.016-.435l9.14-9.14 19.73 19.731H569.01l19.73-19.731zm22.343-2.031l19.732-19.732v39.462l-19.732-19.73z" fill="#000"></path><path d="M715.087 406.596h-65.769l22.716-22.5 10.168 9.952 10.169-9.952 22.716 22.5z" fill="#FFD25B"></path><path d="M715.52 406.164v-45.866l-23.366 22.933 23.366 22.933zm-66.635 0v-45.866l23.365 22.933-23.365 22.933z" fill="#F2C357"></path><path d="M715.087 361.164h-65.769l32.452 32.451 33.317-32.451z" fill="#F0BB42"></path><path d="M715.342 359h-66.737c-.87 0-1.451.725-1.451 1.45v46.426c0 .87.581 1.451 1.451 1.451h66.738c.87 0 1.451-.581 1.451-1.451l-.001-46.426c0-.725-.58-1.45-1.451-1.45zm-65.287 4.932l19.732 19.732-19.732 19.731v-39.463zm31.918 27.856l-29.886-29.886h59.774l-29.888 29.886zm-10.155-6.093l9.14 9.14c.29.29.725.435 1.015.435.436 0 .726-.145 1.016-.435l9.14-9.14 19.73 19.731h-59.772l19.731-19.731zm22.343-2.031l19.731-19.732v39.462l-19.731-19.73z" fill="#000"></path><path d="M548.933 464.596h-65.769l22.716-22.5 10.168 9.952 10.169-9.952 22.716 22.5z" fill="#FFD25B"></path><path d="M549.366 464.164v-45.866L526 441.231l23.366 22.933zm-66.635 0v-45.866l23.365 22.933-23.365 22.933z" fill="#F2C357"></path><path d="M548.933 419.164h-65.769l32.452 32.451 33.317-32.451z" fill="#F0BB42"></path><path d="M549.188 417h-66.737c-.87 0-1.451.725-1.451 1.45v46.426c0 .87.581 1.451 1.451 1.451h66.738c.87 0 1.451-.581 1.451-1.451l-.001-46.426c0-.725-.58-1.45-1.451-1.45zm-65.287 4.932l19.732 19.732-19.732 19.731v-39.463zm31.918 27.856l-29.886-29.886h59.774l-29.888 29.886zm-10.155-6.093l9.14 9.14c.29.29.725.435 1.015.435.436 0 .726-.145 1.016-.435l9.14-9.14 19.73 19.731h-59.772l19.731-19.731zm22.342-2.031l19.732-19.732v39.462l-19.732-19.73z" fill="#000"></path><path d="M632.01 464.596h-65.769l22.716-22.5 10.168 9.952 10.169-9.952 22.716 22.5z" fill="#FFD25B"></path><path d="M632.443 464.164v-45.866l-23.366 22.933 23.366 22.933zm-66.635 0v-45.866l23.365 22.933-23.365 22.933z" fill="#F2C357"></path><path d="M632.01 419.164h-65.769l32.452 32.451 33.317-32.451z" fill="#F0BB42"></path><path d="M632.265 417h-66.737c-.87 0-1.451.725-1.451 1.45v46.426c0 .87.581 1.451 1.451 1.451h66.738c.87 0 1.451-.581 1.451-1.451l-.001-46.426c0-.725-.58-1.45-1.451-1.45zm-65.287 4.932l19.732 19.732-19.732 19.731v-39.463zm31.918 27.856l-29.886-29.886h59.774l-29.888 29.886zm-10.156-6.093l9.141 9.14c.29.29.725.435 1.015.435.436 0 .726-.145 1.016-.435l9.14-9.14 19.73 19.731H569.01l19.73-19.731zm22.343-2.031l19.732-19.732v39.462l-19.732-19.73z" fill="#000"></path><path d="M715.087 464.596h-65.769l22.716-22.5 10.168 9.952 10.169-9.952 22.716 22.5z" fill="#FFD25B"></path><path d="M715.52 464.164v-45.866l-23.366 22.933 23.366 22.933zm-66.635 0v-45.866l23.365 22.933-23.365 22.933z" fill="#F2C357"></path><path d="M715.087 419.164h-65.769l32.452 32.451 33.317-32.451z" fill="#F0BB42"></path><path d="M715.342 417h-66.737c-.87 0-1.451.725-1.451 1.45v46.426c0 .87.581 1.451 1.451 1.451h66.738c.87 0 1.451-.581 1.451-1.451l-.001-46.426c0-.725-.58-1.45-1.451-1.45zm-65.287 4.932l19.732 19.732-19.732 19.731v-39.463zm31.918 27.856l-29.886-29.886h59.774l-29.888 29.886zm-10.155-6.093l9.14 9.14c.29.29.725.435 1.015.435.436 0 .726-.145 1.016-.435l9.14-9.14 19.73 19.731h-59.772l19.731-19.731zm22.343-2.031l19.731-19.732v39.462l-19.731-19.73z" fill="#000"></path><path d="M548.933 523.596h-65.769l22.716-22.5 10.168 9.952 10.169-9.952 22.716 22.5z" fill="#FFD25B"></path><path d="M549.366 523.164v-45.866L526 500.231l23.366 22.933zm-66.635 0v-45.866l23.365 22.933-23.365 22.933z" fill="#F2C357"></path><path d="M548.933 478.164h-65.769l32.452 32.451 33.317-32.451z" fill="#F0BB42"></path><path d="M549.188 476h-66.737c-.87 0-1.451.725-1.451 1.45v46.426c0 .87.581 1.451 1.451 1.451h66.738c.87 0 1.451-.581 1.451-1.451l-.001-46.426c0-.725-.58-1.45-1.451-1.45zm-65.287 4.932l19.732 19.732-19.732 19.731v-39.463zm31.918 27.856l-29.886-29.886h59.774l-29.888 29.886zm-10.155-6.093l9.14 9.14c.29.29.725.435 1.015.435.436 0 .726-.145 1.016-.435l9.14-9.14 19.73 19.731h-59.772l19.731-19.731zm22.342-2.031l19.732-19.732v39.462l-19.732-19.73z" fill="#000"></path><path d="M632.01 523.596h-65.769l22.716-22.5 10.168 9.952 10.169-9.952 22.716 22.5z" fill="#FFD25B"></path><path d="M632.443 523.164v-45.866l-23.366 22.933 23.366 22.933zm-66.635 0v-45.866l23.365 22.933-23.365 22.933z" fill="#F2C357"></path><path d="M632.01 478.164h-65.769l32.452 32.451 33.317-32.451z" fill="#F0BB42"></path><path d="M632.265 476h-66.737c-.87 0-1.451.725-1.451 1.45v46.426c0 .87.581 1.451 1.451 1.451h66.738c.87 0 1.451-.581 1.451-1.451l-.001-46.426c0-.725-.58-1.45-1.451-1.45zm-65.287 4.932l19.732 19.732-19.732 19.731v-39.463zm31.918 27.856l-29.886-29.886h59.774l-29.888 29.886zm-10.156-6.093l9.141 9.14c.29.29.725.435 1.015.435.436 0 .726-.145 1.016-.435l9.14-9.14 19.73 19.731H569.01l19.73-19.731zm22.343-2.031l19.732-19.732v39.462l-19.732-19.73z" fill="#000"></path><path d="M715.087 523.596h-65.769l22.716-22.5 10.168 9.952 10.169-9.952 22.716 22.5z" fill="#FFD25B"></path><path d="M715.52 523.164v-45.866l-23.366 22.933 23.366 22.933zm-66.635 0v-45.866l23.365 22.933-23.365 22.933z" fill="#F2C357"></path><path d="M715.087 478.164h-65.769l32.452 32.451 33.317-32.451z" fill="#F0BB42"></path><path d="M715.342 476h-66.737c-.87 0-1.451.725-1.451 1.45v46.426c0 .87.581 1.451 1.451 1.451h66.738c.87 0 1.451-.581 1.451-1.451l-.001-46.426c0-.725-.58-1.45-1.451-1.45zm-65.287 4.932l19.732 19.732-19.732 19.731v-39.463zm31.918 27.856l-29.886-29.886h59.774l-29.888 29.886zm-10.155-6.093l9.14 9.14c.29.29.725.435 1.015.435.436 0 .726-.145 1.016-.435l9.14-9.14 19.73 19.731h-59.772l19.731-19.731zm22.343-2.031l19.731-19.732v39.462l-19.731-19.73z" fill="#000"></path><path d="M507.453 320v-11.94h3.974c.796 0 1.488.153 2.077.458.6.306 1.063.736 1.39 1.292.328.546.491 1.189.491 1.93 0 .742-.163 1.391-.491 1.947-.327.545-.79.97-1.39 1.275-.589.306-1.281.458-2.077.458h-1.93V320h-2.044zm2.044-6.379h1.93c.578 0 1.036-.174 1.374-.523.338-.349.507-.802.507-1.358s-.169-1.008-.507-1.357c-.338-.349-.796-.524-1.374-.524h-1.93v3.762zm7.877 6.379v-1.848h3.108v-8.276l-3.124 2.322v-2.159l2.748-1.979h2.42v10.092h2.503V320h-7.655zm73.079 0v-11.94h3.974c.796 0 1.488.153 2.077.458.6.306 1.063.736 1.39 1.292.328.546.491 1.189.491 1.93 0 .742-.163 1.391-.491 1.947-.327.545-.79.97-1.39 1.275-.589.306-1.281.458-2.077.458h-1.93V320h-2.044zm2.044-6.379h1.93c.578 0 1.036-.174 1.374-.523.338-.349.507-.802.507-1.358s-.169-1.008-.507-1.357c-.338-.349-.796-.524-1.374-.524h-1.93v3.762zm7.877 6.379v-1.848h3.108v-8.276l-3.124 2.322v-2.159l2.748-1.979h2.42v10.092h2.503V320h-7.655zm73.079 0v-11.94h3.974c.796 0 1.488.153 2.077.458.6.306 1.063.736 1.39 1.292.328.546.491 1.189.491 1.93 0 .742-.163 1.391-.491 1.947-.327.545-.79.97-1.39 1.275-.589.306-1.281.458-2.077.458h-1.93V320h-2.044zm2.044-6.379h1.93c.578 0 1.036-.174 1.374-.523.338-.349.507-.802.507-1.358s-.169-1.008-.507-1.357c-.338-.349-.796-.524-1.374-.524h-1.93v3.762zm7.877 6.379v-1.848h3.108v-8.276l-3.124 2.322v-2.159l2.748-1.979h2.42v10.092h2.503V320h-7.655zm-175.921 59v-11.94h3.974c.796 0 1.488.153 2.077.458.6.306 1.063.736 1.39 1.292.328.546.491 1.189.491 1.93 0 .742-.163 1.391-.491 1.947-.327.545-.79.97-1.39 1.275-.589.306-1.281.458-2.077.458h-1.93V379h-2.044zm2.044-6.379h1.93c.578 0 1.036-.174 1.374-.523.338-.349.507-.802.507-1.358s-.169-1.008-.507-1.357c-.338-.349-.796-.524-1.374-.524h-1.93v3.762zm7.877 6.379v-1.848h3.108v-8.276l-3.124 2.322v-2.159l2.748-1.979h2.42v10.092h2.503V379h-7.655zm73.079 0v-11.94h3.974c.796 0 1.488.153 2.077.458.6.306 1.063.736 1.39 1.292.328.546.491 1.189.491 1.93 0 .742-.163 1.391-.491 1.947-.327.545-.79.97-1.39 1.275-.589.306-1.281.458-2.077.458h-1.93V379h-2.044zm2.044-6.379h1.93c.578 0 1.036-.174 1.374-.523.338-.349.507-.802.507-1.358s-.169-1.008-.507-1.357c-.338-.349-.796-.524-1.374-.524h-1.93v3.762zm7.877 6.379v-1.848h3.108v-8.276l-3.124 2.322v-2.159l2.748-1.979h2.42v10.092h2.503V379h-7.655zm73.079 0v-11.94h3.974c.796 0 1.488.153 2.077.458.6.306 1.063.736 1.39 1.292.328.546.491 1.189.491 1.93 0 .742-.163 1.391-.491 1.947-.327.545-.79.97-1.39 1.275-.589.306-1.281.458-2.077.458h-1.93V379h-2.044zm2.044-6.379h1.93c.578 0 1.036-.174 1.374-.523.338-.349.507-.802.507-1.358s-.169-1.008-.507-1.357c-.338-.349-.796-.524-1.374-.524h-1.93v3.762zm7.877 6.379v-1.848h3.108v-8.276l-3.124 2.322v-2.159l2.748-1.979h2.42v10.092h2.503V379h-7.655zm-175.921 58v-11.94h3.974c.796 0 1.488.153 2.077.458.6.306 1.063.736 1.39 1.292.328.546.491 1.189.491 1.93 0 .742-.163 1.391-.491 1.947-.327.545-.79.97-1.39 1.275-.589.306-1.281.458-2.077.458h-1.93V437h-2.044zm2.044-6.379h1.93c.578 0 1.036-.174 1.374-.523.338-.349.507-.802.507-1.358s-.169-1.008-.507-1.357c-.338-.349-.796-.524-1.374-.524h-1.93v3.762zm7.877 6.379v-1.848h3.108v-8.276l-3.124 2.322v-2.159l2.748-1.979h2.42v10.092h2.503V437h-7.655zm73.079 0v-11.94h3.974c.796 0 1.488.153 2.077.458.6.306 1.063.736 1.39 1.292.328.546.491 1.189.491 1.93 0 .742-.163 1.391-.491 1.947-.327.545-.79.97-1.39 1.275-.589.306-1.281.458-2.077.458h-1.93V437h-2.044zm2.044-6.379h1.93c.578 0 1.036-.174 1.374-.523.338-.349.507-.802.507-1.358s-.169-1.008-.507-1.357c-.338-.349-.796-.524-1.374-.524h-1.93v3.762zm7.877 6.379v-1.848h3.108v-8.276l-3.124 2.322v-2.159l2.748-1.979h2.42v10.092h2.503V437h-7.655zm73.079 0v-11.94h3.974c.796 0 1.488.153 2.077.458.6.306 1.063.736 1.39 1.292.328.546.491 1.189.491 1.93 0 .742-.163 1.391-.491 1.947-.327.545-.79.97-1.39 1.275-.589.306-1.281.458-2.077.458h-1.93V437h-2.044zm2.044-6.379h1.93c.578 0 1.036-.174 1.374-.523.338-.349.507-.802.507-1.358s-.169-1.008-.507-1.357c-.338-.349-.796-.524-1.374-.524h-1.93v3.762zm7.877 6.379v-1.848h3.108v-8.276l-3.124 2.322v-2.159l2.748-1.979h2.42v10.092h2.503V437h-7.655zm-175.921 59v-11.94h3.974c.796 0 1.488.153 2.077.458.6.306 1.063.736 1.39 1.292.328.546.491 1.189.491 1.93 0 .742-.163 1.391-.491 1.947-.327.545-.79.97-1.39 1.275-.589.306-1.281.458-2.077.458h-1.93V496h-2.044zm2.044-6.379h1.93c.578 0 1.036-.174 1.374-.523.338-.349.507-.802.507-1.358s-.169-1.008-.507-1.357c-.338-.349-.796-.524-1.374-.524h-1.93v3.762zm7.877 6.379v-1.848h3.108v-8.276l-3.124 2.322v-2.159l2.748-1.979h2.42v10.092h2.503V496h-7.655zm73.079 0v-11.94h3.974c.796 0 1.488.153 2.077.458.6.306 1.063.736 1.39 1.292.328.546.491 1.189.491 1.93 0 .742-.163 1.391-.491 1.947-.327.545-.79.97-1.39 1.275-.589.306-1.281.458-2.077.458h-1.93V496h-2.044zm2.044-6.379h1.93c.578 0 1.036-.174 1.374-.523.338-.349.507-.802.507-1.358s-.169-1.008-.507-1.357c-.338-.349-.796-.524-1.374-.524h-1.93v3.762zm7.877 6.379v-1.848h3.108v-8.276l-3.124 2.322v-2.159l2.748-1.979h2.42v10.092h2.503V496h-7.655zm73.079 0v-11.94h3.974c.796 0 1.488.153 2.077.458.6.306 1.063.736 1.39 1.292.328.546.491 1.189.491 1.93 0 .742-.163 1.391-.491 1.947-.327.545-.79.97-1.39 1.275-.589.306-1.281.458-2.077.458h-1.93V496h-2.044zm2.044-6.379h1.93c.578 0 1.036-.174 1.374-.523.338-.349.507-.802.507-1.358s-.169-1.008-.507-1.357c-.338-.349-.796-.524-1.374-.524h-1.93v3.762zm7.877 6.379v-1.848h3.108v-8.276l-3.124 2.322v-2.159l2.748-1.979h2.42v10.092h2.503V496h-7.655z" fill="#000"></path><path d="M477.342 277.211v-11.895h4.693c.902 0 1.671.173 2.306.517a3.502 3.502 0 011.452 1.423c.336.604.505 1.301.505 2.091 0 .79-.17 1.487-.511 2.091a3.532 3.532 0 01-1.481 1.412c-.643.336-1.421.505-2.335.505h-2.991v-2.016h2.584c.484 0 .883-.083 1.197-.249.317-.171.553-.405.708-.703a2.2 2.2 0 00.238-1.04c0-.395-.079-.739-.238-1.034a1.594 1.594 0 00-.708-.691c-.318-.166-.72-.25-1.208-.25h-1.696v9.839h-2.515zm12.847.169c-.569 0-1.076-.099-1.521-.296a2.449 2.449 0 01-1.057-.889c-.256-.395-.384-.887-.384-1.475 0-.496.091-.912.273-1.249.182-.337.43-.608.744-.813a3.61 3.61 0 011.068-.465 8.265 8.265 0 011.267-.221c.518-.054.937-.104 1.254-.151.318-.05.548-.123.691-.22a.484.484 0 00.215-.43v-.035c0-.368-.116-.652-.348-.854-.229-.201-.554-.302-.976-.302-.445 0-.8.099-1.063.296a1.367 1.367 0 00-.523.732l-2.288-.186c.116-.542.344-1.01.685-1.405.341-.399.78-.705 1.319-.918.542-.217 1.169-.325 1.881-.325.496 0 .97.058 1.423.174.457.116.862.296 1.214.54.357.244.637.558.843.941.205.38.307.835.307 1.365v6.017h-2.346v-1.237h-.07a2.514 2.514 0 01-.575.738c-.24.209-.528.374-.865.494a3.584 3.584 0 01-1.168.174zm.709-1.708c.364 0 .685-.071.964-.215.279-.147.498-.344.656-.592.159-.248.239-.529.239-.842v-.947c-.078.05-.184.097-.32.139a5.842 5.842 0 01-.447.111c-.167.031-.333.06-.5.087l-.453.064a3.04 3.04 0 00-.761.203 1.22 1.22 0 00-.505.378.916.916 0 00-.18.58c0 .337.122.595.366.773.248.174.561.261.941.261zm6.235 1.539v-8.921h2.399v1.557h.093c.162-.554.435-.972.819-1.255.383-.286.824-.43 1.324-.43a3.638 3.638 0 01.778.087v2.196a3.199 3.199 0 00-.482-.093 4.35 4.35 0 00-.563-.041c-.364 0-.689.08-.976.238a1.756 1.756 0 00-.674.651c-.162.279-.244.6-.244.964v5.047h-2.474zm11.885-8.921v1.859h-5.373v-1.859h5.373zm-4.153-2.137h2.474v8.317c0 .228.035.407.105.534a.58.58 0 00.29.262c.128.05.275.075.442.075.116 0 .232-.009.348-.029l.267-.052.39 1.841a7.224 7.224 0 01-.523.134 4.174 4.174 0 01-.819.098c-.596.024-1.119-.056-1.568-.238a2.183 2.183 0 01-1.04-.848c-.248-.383-.37-.867-.366-1.452v-8.642zm5.765 11.058v-8.921h2.474v8.921h-2.474zm1.243-10.071c-.368 0-.684-.122-.947-.366a1.184 1.184 0 01-.389-.888c0-.341.129-.634.389-.878.263-.247.579-.371.947-.371s.681.124.941.371c.263.244.395.537.395.878 0 .344-.132.64-.395.888-.26.244-.573.366-.941.366zm7.958 1.15v1.859h-5.372v-1.859h5.372zm-4.153-2.137h2.475v8.317c0 .228.035.407.104.534.07.124.167.211.291.262.127.05.275.075.441.075.116 0 .232-.009.349-.029l.267-.052.389 1.841a7.088 7.088 0 01-.523.134 4.155 4.155 0 01-.819.098c-.596.024-1.119-.056-1.568-.238a2.188 2.188 0 01-1.04-.848c-.247-.383-.369-.867-.366-1.452v-8.642zm5.765 11.058v-8.921h2.474v8.921h-2.474zm1.243-10.071c-.368 0-.683-.122-.947-.366a1.188 1.188 0 01-.389-.888c0-.341.13-.634.389-.878.264-.247.579-.371.947-.371s.681.124.941.371c.263.244.395.537.395.878 0 .344-.132.64-.395.888-.26.244-.573.366-.941.366zm7.244 10.246c-.902 0-1.682-.192-2.34-.575a3.937 3.937 0 01-1.516-1.615c-.357-.693-.535-1.497-.535-2.41 0-.922.178-1.727.535-2.417a3.88 3.88 0 011.516-1.614c.658-.387 1.438-.581 2.34-.581.902 0 1.681.194 2.335.581a3.875 3.875 0 011.522 1.614c.356.69.534 1.495.534 2.417 0 .913-.178 1.717-.534 2.41a3.931 3.931 0 01-1.522 1.615c-.654.383-1.433.575-2.335.575zm.012-1.917c.41 0 .753-.116 1.028-.349.275-.236.482-.557.621-.964a4.14 4.14 0 00.215-1.388c0-.519-.071-.981-.215-1.388-.139-.407-.346-.728-.621-.964s-.618-.354-1.028-.354c-.414 0-.763.118-1.046.354-.278.236-.489.557-.633.964a4.28 4.28 0 00-.209 1.388c0 .519.07.982.209 1.388.144.407.355.728.633.964.283.233.632.349 1.046.349zm8.462-3.415v5.157h-2.474v-8.921h2.358v1.574h.105c.197-.519.528-.929.993-1.231.465-.306 1.028-.459 1.69-.459.62 0 1.16.135 1.621.407.46.271.818.658 1.074 1.161.256.5.383 1.096.383 1.789v5.68h-2.474v-5.239c.004-.545-.135-.971-.418-1.277-.283-.31-.672-.465-1.168-.465-.333 0-.627.072-.882.215-.252.143-.45.352-.593.627-.139.271-.211.598-.215.982zm16.638-6.738v11.895h-2.515v-9.508h-.07l-2.724 1.708v-2.23l2.945-1.865h2.364zm-83.223-36.218v-2.513h11.839v2.513h-4.413V241h-3.012v-11.902h-4.414zm16.376 12.113c-1.093 0-2.038-.232-2.836-.697a4.762 4.762 0 01-1.837-1.956c-.432-.84-.648-1.814-.648-2.921 0-1.117.216-2.093.648-2.929a4.702 4.702 0 011.837-1.956c.798-.47 1.743-.704 2.836-.704 1.094 0 2.037.234 2.83.704a4.693 4.693 0 011.844 1.956c.432.836.648 1.812.648 2.929 0 1.107-.216 2.081-.648 2.921a4.753 4.753 0 01-1.844 1.956c-.793.465-1.736.697-2.83.697zm.015-2.323c.497 0 .912-.14 1.245-.422.334-.286.585-.676.754-1.168.173-.493.26-1.054.26-1.683 0-.628-.087-1.189-.26-1.682-.169-.493-.42-.882-.754-1.168-.333-.287-.748-.43-1.245-.43-.503 0-.925.143-1.267.43-.338.286-.594.675-.768 1.168-.169.493-.253 1.054-.253 1.682 0 .629.084 1.19.253 1.683.174.492.43.882.768 1.168.342.282.764.422 1.267.422zm6.583 6.166v-14.865h2.956v1.816h.134c.131-.291.321-.587.57-.887.254-.305.582-.559.986-.761.408-.206.915-.309 1.52-.309.788 0 1.516.206 2.182.619.666.408 1.199 1.025 1.598 1.851.399.822.598 1.852.598 3.09 0 1.206-.195 2.225-.584 3.055-.385.826-.911 1.452-1.577 1.879a4.042 4.042 0 01-2.224.634c-.582 0-1.077-.096-1.485-.289a3.062 3.062 0 01-.993-.725 3.656 3.656 0 01-.591-.894h-.091v5.786h-2.999zm2.935-9.46c0 .643.089 1.204.268 1.683.178.478.436.851.774 1.119.338.262.748.394 1.232.394.488 0 .901-.134 1.238-.401.338-.273.594-.648.768-1.127.178-.483.267-1.039.267-1.668 0-.624-.087-1.173-.26-1.647-.174-.474-.43-.844-.767-1.112-.338-.267-.754-.401-1.246-.401-.488 0-.901.129-1.239.387-.333.258-.589.624-.767 1.098-.179.474-.268 1.032-.268 1.675zm8.935 5.406v-10.811h2.998V241h-2.998zm1.506-12.205c-.446 0-.828-.148-1.147-.444a1.434 1.434 0 01-.472-1.076c0-.413.157-.768.472-1.063a1.612 1.612 0 011.147-.451c.446 0 .826.15 1.14.451.319.295.479.65.479 1.063 0 .417-.16.776-.479 1.076a1.602 1.602 0 01-1.14.444zm8.106 12.416c-1.108 0-2.06-.234-2.858-.704a4.759 4.759 0 01-1.83-1.971c-.423-.839-.634-1.806-.634-2.899 0-1.108.214-2.079.641-2.915a4.756 4.756 0 011.837-1.963c.793-.474 1.736-.711 2.829-.711.944 0 1.77.171 2.478.514a4.13 4.13 0 011.682 1.443c.413.619.641 1.346.683 2.182h-2.829c-.08-.54-.291-.974-.634-1.303-.338-.333-.781-.499-1.33-.499-.465 0-.871.126-1.218.38-.343.248-.61.612-.802 1.091-.193.478-.289 1.058-.289 1.738 0 .69.094 1.277.282 1.76.192.483.462.852.809 1.105.347.253.753.38 1.218.38.342 0 .65-.07.922-.211a1.79 1.79 0 00.683-.612c.183-.273.302-.599.359-.979h2.829c-.047.826-.272 1.553-.676 2.182a4.083 4.083 0 01-1.654 1.464c-.704.352-1.537.528-2.498.528zm12.53-.211h-3.266l4.976-14.415h3.928L539.412 241h-3.266l-3.611-11.121h-.113L528.805 241zm-.205-5.666h7.715v2.379H528.6v-2.379z" fill="#1A1A1A"></path><path d="M660.678 194.183a2.213 2.213 0 00-1.594-.669 2.184 2.184 0 00-1.582.669h-.011a2.289 2.289 0 00-.661 1.618 2.28 2.28 0 00.654 1.614l.011.011a2.184 2.184 0 001.582.662c.627 0 1.189-.251 1.594-.662l.004-.011c.406-.407.645-.977.645-1.614a2.296 2.296 0 00-.652-1.618h.01zm-1.594 31.304c.627 0 1.189-.26 1.594-.667l.005-.011c.405-.406.645-.979.645-1.609 0-.645-.248-1.208-.645-1.621h-.005a2.203 2.203 0 00-1.594-.671 2.173 2.173 0 00-1.582.671h-.011a2.307 2.307 0 00-.654 1.621 2.28 2.28 0 00.654 1.609l.011.011a2.217 2.217 0 001.582.666v.001zm12.244-6.928a2.235 2.235 0 001.369-1.062l.041-.081c.266-.51.329-1.101.178-1.656a2.225 2.225 0 00-1.048-1.39l-.031-.022a2.21 2.21 0 00-1.673-.205 2.204 2.204 0 00-1.367 1.066 2.337 2.337 0 00-.227 1.738c.155.582.53 1.082 1.047 1.392h.004a2.19 2.19 0 001.708.215l-.001.005zm-9.945-11.395a3.23 3.23 0 00-2.305-.975 3.21 3.21 0 00-2.3.974 3.32 3.32 0 00-.949 2.34 3.36 3.36 0 00.949 2.35c.587.595 1.4.967 2.293.967.893 0 1.715-.372 2.305-.967.611-.63.952-1.473.95-2.351a3.32 3.32 0 00-.95-2.34l.007.002zm-1.29-3.898a6.152 6.152 0 013.38 1.777h.007c.144.148.281.302.41.464l2.244-1.321a4.94 4.94 0 01-.073-2.807 4.887 4.887 0 012.258-2.991l.038-.024a4.743 4.743 0 013.639-.475 4.83 4.83 0 012.938 2.293v.004a5.002 5.002 0 01.485 3.738 4.884 4.884 0 01-2.258 2.994l-.307.184h-.031a4.797 4.797 0 01-3.342.312 4.849 4.849 0 01-2.348-1.465l-2.241 1.316a6.454 6.454 0 010 4.471l2.241 1.314a4.808 4.808 0 012.348-1.466 4.717 4.717 0 013.68.496l.074.036v.003a4.913 4.913 0 012.184 2.96c.332 1.26.158 2.6-.485 3.734l-.04.083h-.005a4.89 4.89 0 01-2.897 2.23 4.807 4.807 0 01-3.68-.493v-.01a4.901 4.901 0 01-2.259-2.992 4.936 4.936 0 01.073-2.803l-2.243-1.317a6.335 6.335 0 01-.41.457l-.008.007a6.113 6.113 0 01-3.379 1.766v2.638c.92.198 1.762.664 2.42 1.338l.003.007a4.945 4.945 0 011.419 3.483 4.94 4.94 0 01-1.419 3.476l-.003.014a4.83 4.83 0 01-3.428 1.436 4.8 4.8 0 01-3.423-1.444h-.003v-.014a4.943 4.943 0 01-1.421-3.477c0-1.359.544-2.595 1.421-3.483v-.007h.003a4.727 4.727 0 012.418-1.338v-2.637a6.035 6.035 0 01-3.368-1.767l-.009-.007a6.36 6.36 0 01-1.829-4.463 6.36 6.36 0 011.82-4.459h.009a6.128 6.128 0 013.377-1.777v-2.627a4.868 4.868 0 01-2.418-1.341h-.004v-.007a4.961 4.961 0 01-1.421-3.484 4.965 4.965 0 011.421-3.483l.011-.004a4.767 4.767 0 013.416-1.447 4.8 4.8 0 013.429 1.447v.004h.003a4.966 4.966 0 011.419 3.483 4.973 4.973 0 01-1.419 3.483l-.003.007a4.882 4.882 0 01-2.421 1.342v2.626l.007.007zm12.602-1.752l-.018-.028a2.257 2.257 0 00-2.228-1.098c-.294.04-.578.137-.833.288h.003c-.538.311-.899.82-1.05 1.39a2.322 2.322 0 00.226 1.738l.01.014c.311.538.805.9 1.357 1.045a2.17 2.17 0 001.704-.223l.029-.015a2.326 2.326 0 00.8-3.111zm9.956.772h2.504v7.777l3.61-4.063h3.01l-4.359 4.708 4.363 5.959h-2.867l-3.764-5.331v5.331h-2.504v-14.388l.007.007zm12.017 9.09c0 1.324.936 3.249 3.192 3.249 1.395 0 2.313-.74 2.79-1.709.249-.471.364-.975.402-1.505a3.387 3.387 0 00-.288-1.502c-.438-1.008-1.413-1.882-2.922-1.882-2.025 0-3.173 1.669-3.173 3.323v.018l-.001.008zm8.867 5.291h-2.505v-1.536c-.666 1.242-2.062 1.865-3.534 1.865-3.364 0-5.332-2.666-5.332-5.677 0-3.363 2.388-5.657 5.332-5.657 1.91 0 3.076 1.03 3.534 1.887v-1.558h2.505v10.676zm2.836-8.711h-1.29v-1.963h1.29v-.602c0-3.172 2.37-3.364 4.167-3.384v1.96c-.632 0-1.662 0-1.662 1.501v.523h1.662v1.964h-1.662v8.712h-2.505v-8.711zm5.877-5.677h2.502v7.777l3.612-4.063h3.01l-4.359 4.708 4.367 5.966h-2.867l-3.764-5.331v5.331h-2.502v-14.388h.001zm12.024 9.097c0 1.324.936 3.249 3.192 3.249 1.393 0 2.312-.74 2.795-1.709.251-.471.358-.975.403-1.505a3.401 3.401 0 00-.289-1.502c-.43-1.008-1.412-1.882-2.922-1.882-2.025 0-3.173 1.669-3.173 3.323v.018l-.006.008zm8.858 5.291h-2.504v-1.536c-.668 1.242-2.064 1.865-3.534 1.865-3.363 0-5.33-2.666-5.33-5.677 0-3.363 2.387-5.657 5.33-5.657 1.91 0 3.076 1.03 3.534 1.887v-1.558h2.504v10.676z" fill="#1A464C"></path><path fill-rule="evenodd" clip-rule="evenodd" d="M74 379c0-5.523 4.477-10 10-10h250c5.523 0 10 4.477 10 10v92c0 5.523-4.477 10-10 10H84c-5.523 0-10-4.477-10-10v-92z" fill="#53777A"></path><path d="M108.96 442v-34.051h13.434c2.582 0 4.783.493 6.6 1.48 1.818.975 3.204 2.333 4.157 4.073.964 1.729 1.446 3.725 1.446 5.986 0 2.261-.487 4.256-1.463 5.985-.975 1.729-2.388 3.076-4.239 4.041-1.84.964-4.068 1.446-6.684 1.446h-8.563v-5.769h7.399c1.385 0 2.527-.239 3.425-.715.909-.488 1.585-1.159 2.028-2.012.455-.865.682-1.857.682-2.976 0-1.131-.227-2.117-.682-2.96-.443-.853-1.119-1.513-2.028-1.978-.909-.477-2.062-.715-3.458-.715h-4.855V442h-7.199zm29.507 0v-25.538h6.867v4.456h.266c.466-1.585 1.247-2.782 2.344-3.592 1.098-.82 2.361-1.23 3.791-1.23.355 0 .737.022 1.147.067.41.044.771.105 1.081.182v6.285c-.332-.1-.792-.188-1.38-.266a12.49 12.49 0 00-1.613-.116c-1.042 0-1.973.227-2.793.681a5.031 5.031 0 00-1.929 1.863c-.465.798-.698 1.718-.698 2.76V442h-7.083zm28.835.499c-2.583 0-4.817-.549-6.701-1.646-1.873-1.109-3.32-2.649-4.339-4.622-1.02-1.984-1.53-4.284-1.53-6.9 0-2.638.51-4.944 1.53-6.917 1.019-1.984 2.466-3.525 4.339-4.622 1.884-1.108 4.118-1.663 6.701-1.663 2.582 0 4.81.555 6.683 1.663 1.885 1.097 3.337 2.638 4.357 4.622 1.019 1.973 1.529 4.279 1.529 6.917 0 2.616-.51 4.916-1.529 6.9-1.02 1.973-2.472 3.513-4.357 4.622-1.873 1.097-4.101 1.646-6.683 1.646zm.033-5.487c1.175 0 2.156-.332 2.943-.998.787-.676 1.38-1.596 1.779-2.759.41-1.164.615-2.489.615-3.974 0-1.486-.205-2.81-.615-3.974-.399-1.164-.992-2.084-1.779-2.76-.787-.676-1.768-1.014-2.943-1.014-1.186 0-2.184.338-2.993 1.014-.798.676-1.402 1.596-1.812 2.76-.399 1.164-.599 2.488-.599 3.974 0 1.485.2 2.81.599 3.974.41 1.163 1.014 2.083 1.812 2.759.809.666 1.807.998 2.993.998zm25.879 5.404c-1.94 0-3.697-.499-5.271-1.497-1.563-1.008-2.804-2.488-3.724-4.439-.909-1.962-1.363-4.367-1.363-7.216 0-2.926.471-5.359 1.413-7.299.942-1.951 2.195-3.408 3.757-4.373a9.633 9.633 0 015.171-1.463c1.43 0 2.622.244 3.575.732.964.476 1.74 1.075 2.328 1.796.598.709 1.053 1.407 1.363 2.094h.216v-12.802h7.066V442h-6.983v-4.09h-.299c-.333.709-.804 1.413-1.413 2.111-.599.688-1.38 1.259-2.345 1.713-.953.454-2.117.682-3.491.682zm2.244-5.637c1.142 0 2.106-.31 2.893-.931.798-.632 1.408-1.513 1.829-2.643.433-1.131.649-2.456.649-3.974 0-1.519-.211-2.838-.632-3.957-.421-1.12-1.031-1.984-1.829-2.594-.798-.61-1.768-.914-2.91-.914-1.163 0-2.144.316-2.942.947-.799.632-1.403 1.508-1.813 2.627-.41 1.12-.615 2.417-.615 3.891 0 1.485.205 2.799.615 3.94.421 1.131 1.026 2.018 1.813 2.661.798.631 1.779.947 2.942.947zm33.814-5.653v-14.664h7.083V442h-6.8v-4.639h-.266a7.537 7.537 0 01-2.876 3.608c-1.33.909-2.954 1.364-4.872 1.364-1.707 0-3.209-.388-4.506-1.164-1.297-.776-2.311-1.879-3.042-3.309-.721-1.43-1.087-3.142-1.098-5.138v-16.26h7.083v14.997c.011 1.507.416 2.699 1.214 3.575.798.875 1.868 1.313 3.209 1.313.853 0 1.651-.194 2.394-.582.743-.399 1.341-.986 1.796-1.762.465-.776.692-1.735.681-2.877zm23.614 11.373c-2.616 0-4.866-.554-6.75-1.663-1.874-1.119-3.315-2.671-4.323-4.655-.998-1.984-1.497-4.268-1.497-6.85 0-2.616.505-4.911 1.513-6.884 1.02-1.984 2.467-3.53 4.34-4.638 1.873-1.12 4.101-1.68 6.684-1.68 2.228 0 4.179.405 5.852 1.214 1.674.809 2.999 1.945 3.974 3.408.975 1.464 1.513 3.182 1.613 5.155h-6.684c-.189-1.275-.687-2.3-1.496-3.076-.799-.787-1.846-1.181-3.143-1.181-1.097 0-2.056.3-2.876.898-.809.588-1.441 1.447-1.896 2.577-.454 1.131-.681 2.5-.681 4.107 0 1.629.221 3.015.665 4.157.454 1.141 1.092 2.011 1.912 2.61.82.598 1.779.898 2.876.898.809 0 1.535-.167 2.178-.499a4.21 4.21 0 001.613-1.447c.432-.642.715-1.413.848-2.311h6.684c-.111 1.951-.643 3.669-1.596 5.155-.943 1.474-2.245 2.626-3.908 3.458-1.662.831-3.63 1.247-5.902 1.247zm26.906 0c-2.627 0-4.888-.532-6.784-1.596-1.884-1.076-3.336-2.594-4.356-4.556-1.02-1.973-1.53-4.306-1.53-7 0-2.627.51-4.932 1.53-6.916s2.455-3.531 4.306-4.639c1.862-1.108 4.046-1.663 6.551-1.663 1.685 0 3.253.272 4.705.815a10.439 10.439 0 013.824 2.411c1.098 1.075 1.951 2.427 2.561 4.057.61 1.618.914 3.513.914 5.686v1.945h-21.564v-4.389h14.897c0-1.02-.222-1.923-.665-2.71a4.765 4.765 0 00-1.845-1.846c-.776-.454-1.68-.682-2.711-.682-1.075 0-2.028.25-2.859.749a5.24 5.24 0 00-1.929 1.978c-.465.82-.704 1.735-.715 2.744v4.173c0 1.263.233 2.355.698 3.275.477.92 1.148 1.63 2.012 2.128.865.499 1.89.749 3.076.749.787 0 1.508-.111 2.162-.333a4.485 4.485 0 001.679-.998 4.34 4.34 0 001.064-1.629l6.551.432c-.333 1.574-1.015 2.949-2.045 4.124-1.02 1.164-2.339 2.072-3.957 2.726-1.608.643-3.464.965-5.57.965zm15.67-.499v-25.538h6.867v4.456h.266c.465-1.585 1.247-2.782 2.344-3.592 1.097-.82 2.361-1.23 3.791-1.23.355 0 .737.022 1.147.067.41.044.771.105 1.081.182v6.285c-.333-.1-.793-.188-1.38-.266a12.503 12.503 0 00-1.613-.116c-1.042 0-1.973.227-2.793.681a5.031 5.031 0 00-1.929 1.863c-.465.798-.698 1.718-.698 2.76V442h-7.083z" fill="#fff"></path><path d="M459 425l-50-28.868v57.736L459 425zm-115 5h70v-10h-70v10z" fill="#00CD00"></path><path fill-rule="evenodd" clip-rule="evenodd" d="M1154 744.599v42.402c0 .131-.01.262-.02.392s-.03.26-.06.388a2.51 2.51 0 01-.09.381c-.04.125-.08.248-.13.369a4.45 4.45 0 01-.37.692c-.08.109-.15.214-.24.315a3.82 3.82 0 01-.87.788c-.11.073-.22.14-.33.202a4.84 4.84 0 01-.36.168c-.12.05-.24.094-.37.132a4.032 4.032 0 01-1.16.172H796.999a3.942 3.942 0 01-1.161-.172 4.05 4.05 0 01-1.061-.502 4.013 4.013 0 01-1.758-2.933 3.942 3.942 0 01-.019-.392v-42.402a3.942 3.942 0 01.172-1.161 4.05 4.05 0 01.502-1.061 4.013 4.013 0 012.933-1.758c.13-.012.261-.019.392-.019H1150a4.032 4.032 0 011.89.472c.11.062.22.129.33.202a3.751 3.751 0 01.87.788c.09.101.16.206.24.315a4.208 4.208 0 01.5 1.061c.04.126.07.252.09.381.03.128.05.258.06.388.01.13.02.261.02.392z" fill="#7C7C7C"></path><path fill-rule="evenodd" clip-rule="evenodd" d="M844.212 751.52h238.428v6.72H844.212v-6.72z" fill="#D8D8D8"></path><path fill-rule="evenodd" clip-rule="evenodd" d="M803.914 751.52h15.112v6.72h-15.112v-6.72z" fill="#D7D7D7"></path><path fill-rule="evenodd" clip-rule="evenodd" d="M1116.22 751.52h6.72v6.72h-6.72v-6.72z" fill="#D7D400"></path><path fill-rule="evenodd" clip-rule="evenodd" d="M1106.15 751.52h6.71v6.72h-6.71v-6.72z" fill="#FF3C00"></path><path fill-rule="evenodd" clip-rule="evenodd" d="M1127.97 751.52h15.12v6.72h-15.12v-6.72z" fill="#00CD00"></path><path fill-rule="evenodd" clip-rule="evenodd" d="M844.212 762.44h238.428v6.72H844.212v-6.72z" fill="#D8D8D8"></path><path fill-rule="evenodd" clip-rule="evenodd" d="M803.914 762.44h15.112v6.72h-15.112v-6.72z" fill="#D7D7D7"></path><path fill-rule="evenodd" clip-rule="evenodd" d="M1116.22 762.44h6.72v6.72h-6.72v-6.72z" fill="#D7D400"></path><path fill-rule="evenodd" clip-rule="evenodd" d="M1106.15 762.44h6.71v6.72h-6.71v-6.72z" fill="#FF3C00"></path><path fill-rule="evenodd" clip-rule="evenodd" d="M1127.97 762.44h15.12v6.72h-15.12v-6.72z" fill="#00CD00"></path><path fill-rule="evenodd" clip-rule="evenodd" d="M844.212 773.36h238.428v6.72H844.212v-6.72z" fill="#D8D8D8"></path><path fill-rule="evenodd" clip-rule="evenodd" d="M803.914 773.36h15.112v6.72h-15.112v-6.72z" fill="#D7D7D7"></path><path fill-rule="evenodd" clip-rule="evenodd" d="M1116.22 773.36h6.72v6.72h-6.72v-6.72z" fill="#D7D400"></path><path fill-rule="evenodd" clip-rule="evenodd" d="M1106.15 773.36h6.71v6.72h-6.71v-6.72z" fill="#FF3C00"></path><path fill-rule="evenodd" clip-rule="evenodd" d="M1127.97 773.36h15.12v6.72h-15.12v-6.72z" fill="#00CD00"></path><path fill-rule="evenodd" clip-rule="evenodd" d="M1154 115.584v612.832c0 .182-.01.365-.02.547-.01.183-.03.363-.06.542-.02.18-.05.357-.09.532-.04.175-.08.347-.13.515a7.405 7.405 0 01-.37.967c-.08.151-.15.298-.24.44a5.4 5.4 0 01-.26.406 4.416 4.416 0 01-.61.694c-.11.101-.22.195-.33.282-.12.086-.24.164-.36.234s-.24.132-.37.185a3.004 3.004 0 01-1.16.24H796.999a2.858 2.858 0 01-.78-.108 2.962 2.962 0 01-.381-.132 3.62 3.62 0 01-1.061-.701 4.888 4.888 0 01-.869-1.1 6.344 6.344 0 01-.436-.911 6.872 6.872 0 01-.3-1.011 7.42 7.42 0 01-.172-1.621V115.584a7.668 7.668 0 01.304-2.137 6.21 6.21 0 01.604-1.405 5.337 5.337 0 01.554-.774 4.253 4.253 0 01.652-.609 3.62 3.62 0 01.724-.419 3.129 3.129 0 01.769-.213c.13-.018.261-.027.392-.027H1150a2.84 2.84 0 01.78.107c.13.036.26.08.38.133.13.054.25.115.37.185.12.07.24.148.36.234.11.087.22.18.33.282a4.432 4.432 0 01.61.695c.09.129.18.264.26.406.09.141.16.288.24.44a7.575 7.575 0 01.37.965c.05.169.09.341.13.516.04.175.07.352.09.532.03.179.05.36.06.542.01.182.02.364.02.547z" fill="#7C7C7C"></path><path fill-rule="evenodd" clip-rule="evenodd" d="M805.998 140H1141a1.294 1.294 0 01.39.056 1.87 1.87 0 01.38.164c.06.036.12.077.17.122.06.044.12.093.17.145.06.053.11.109.16.17.05.06.1.123.15.19.04.067.08.137.13.211.04.073.08.149.11.228.04.078.07.16.1.243l.09.257.06.267c.02.091.04.182.05.275l.03.281c.01.094.01.189.01.284v558.214c0 .095 0 .189-.01.284l-.03.281c-.01.092-.03.184-.05.275l-.06.267a14.8 14.8 0 01-.09.256c-.03.084-.06.166-.1.245a1.9 1.9 0 01-.11.227c-.05.073-.09.143-.13.21-.05.068-.1.131-.15.191-.05.061-.1.117-.16.169-.05.053-.11.102-.17.146-.05.045-.11.085-.17.122-.06.036-.13.068-.19.096-.06.027-.12.05-.19.069-.06.018-.13.032-.19.04-.07.01-.13.015-.2.015H805.998c-.065 0-.131-.005-.196-.015a1.31 1.31 0 01-.384-.109 1.806 1.806 0 01-.53-.364 2.14 2.14 0 01-.303-.359 2.853 2.853 0 01-.349-.683 3.334 3.334 0 01-.15-.523 4.272 4.272 0 01-.076-.556 3.85 3.85 0 01-.01-.284V142.893a4.38 4.38 0 01.038-.565 4.154 4.154 0 01.114-.542 3.51 3.51 0 01.185-.5c.036-.079.075-.155.117-.228a2.59 2.59 0 01.434-.571 1.895 1.895 0 01.53-.362 1.4 1.4 0 01.384-.111c.065-.009.131-.014.196-.014z" fill="#fff"></path><path fill-rule="evenodd" clip-rule="evenodd" d="M803.914 124.08h339.176v6.72H803.914v-6.72zm0 589.64h339.176v6.72H803.914v-6.72z" fill="#D7D7D7"></path><path d="M833.063 169v-12.233h4.898c.9 0 1.651.134 2.252.4.601.267 1.053.638 1.356 1.111.302.47.454 1.012.454 1.625 0 .478-.096.898-.287 1.26a2.472 2.472 0 01-.788.884 3.226 3.226 0 01-1.135.484v.12a2.792 2.792 0 012.305 1.415c.255.434.383.952.383 1.553 0 .649-.162 1.229-.484 1.738-.319.506-.791.906-1.416 1.201-.625.295-1.396.442-2.311.442h-5.227zm2.587-2.114h2.108c.721 0 1.246-.138 1.577-.413.33-.278.496-.649.496-1.111 0-.338-.082-.637-.245-.896a1.676 1.676 0 00-.699-.609c-.299-.147-.655-.221-1.069-.221h-2.168v3.25zm0-5h1.917c.354 0 .669-.062.944-.185.278-.127.497-.307.657-.538.163-.231.245-.507.245-.83 0-.442-.158-.798-.472-1.069-.311-.271-.753-.406-1.326-.406h-1.965v3.028zm7.86 7.114v-12.233h4.826c.924 0 1.713.166 2.366.496.657.327 1.156.79 1.499 1.392.346.597.519 1.3.519 2.108 0 .813-.175 1.511-.525 2.097-.351.581-.858 1.027-1.523 1.338-.661.31-1.462.466-2.401.466h-3.232v-2.079h2.813c.494 0 .904-.068 1.231-.203a1.47 1.47 0 00.729-.609c.163-.271.244-.608.244-1.01 0-.406-.081-.748-.244-1.027a1.504 1.504 0 00-.735-.633c-.327-.148-.739-.221-1.237-.221h-1.744V169h-2.586zm6.606-5.567l3.04 5.567h-2.855l-2.974-5.567h2.789zm15-.549c0 1.334-.253 2.468-.759 3.404-.501.936-1.186 1.651-2.054 2.145-.864.489-1.836.734-2.915.734-1.087 0-2.063-.247-2.927-.74-.864-.494-1.547-1.209-2.049-2.145-.501-.935-.752-2.068-.752-3.398 0-1.334.251-2.469.752-3.405.502-.936 1.185-1.649 2.049-2.138.864-.494 1.84-.741 2.927-.741 1.079 0 2.051.247 2.915.741.868.489 1.553 1.202 2.054 2.138.506.936.759 2.071.759 3.405zm-2.622 0c0-.864-.13-1.593-.388-2.186-.255-.594-.616-1.044-1.082-1.35-.465-.307-1.011-.46-1.636-.46s-1.171.153-1.637.46c-.466.306-.828.756-1.087 1.35-.255.593-.382 1.322-.382 2.186 0 .864.127 1.592.382 2.186.259.593.621 1.043 1.087 1.35.466.306 1.012.46 1.637.46s1.171-.154 1.636-.46c.466-.307.827-.757 1.082-1.35.258-.594.388-1.322.388-2.186zm3.864 6.116v-12.233h2.587v5.394h.161l4.402-5.394h3.1l-4.539 5.478 4.593 6.755h-3.094l-3.351-5.029-1.272 1.553V169h-2.587zm10.924 0v-12.233h8.242v2.133h-5.656v2.914h5.232v2.133h-5.232v2.921h5.68V169h-8.266zm9.625 0v-12.233h4.826c.924 0 1.713.166 2.366.496.657.327 1.157.79 1.499 1.392.346.597.52 1.3.52 2.108 0 .813-.176 1.511-.526 2.097-.35.581-.858 1.027-1.523 1.338-.661.31-1.461.466-2.401.466h-3.232v-2.079h2.814c.493 0 .904-.068 1.23-.203.327-.135.57-.339.729-.609.163-.271.245-.608.245-1.01 0-.406-.082-.748-.245-1.027a1.496 1.496 0 00-.735-.633c-.326-.148-.739-.221-1.236-.221h-1.744V169h-2.587zm6.606-5.567l3.041 5.567h-2.855l-2.975-5.567h2.789zM900.42 169v-1.864l4.354-4.031c.37-.359.681-.681.932-.968.255-.287.448-.567.579-.842.132-.279.197-.58.197-.902 0-.358-.081-.667-.244-.926a1.612 1.612 0 00-.669-.603 2.092 2.092 0 00-.962-.215c-.374 0-.701.075-.98.227a1.569 1.569 0 00-.645.651c-.151.283-.227.619-.227 1.009H900.3c0-.8.182-1.495.544-2.084a3.62 3.62 0 011.523-1.368c.653-.323 1.406-.484 2.258-.484.876 0 1.638.155 2.288.466.653.307 1.16.733 1.523 1.278.362.546.543 1.171.543 1.876 0 .462-.091.918-.275 1.367-.179.45-.499.95-.961 1.5-.462.545-1.113 1.2-1.953 1.965l-1.786 1.75v.084h5.136V169h-8.72z" fill="#919191"></path><path d="M1113.11 178H833.891c-6.567 0-11.891 5.324-11.891 11.891v482.218c0 6.567 5.324 11.891 11.891 11.891h279.219c6.57 0 11.89-5.324 11.89-11.892V189.891c0-6.567-5.32-11.891-11.89-11.891z" fill="#EEF8F9" stroke="#D9EFF2" stroke-width="2"></path><path fill-rule="evenodd" clip-rule="evenodd" d="M831 258.184a8.184 8.184 0 018.184-8.184h265.636a8.18 8.18 0 018.18 8.184v224.632a8.18 8.18 0 01-8.18 8.184H839.184a8.184 8.184 0 01-8.184-8.184V258.184z" fill="#FCF3CF"></path><rect x="846" y="290" width="255" height="186" rx="5" fill="#53777A" fill-opacity="0.2" stroke="#53777A" stroke-width="2" stroke-dasharray="10 10"></rect><path d="M922.933 347.596h-65.769l22.716-22.5 10.168 9.952 10.169-9.952 22.716 22.5z" fill="#FFD25B"></path><path d="M923.366 347.164v-45.866L900 324.231l23.366 22.933zm-66.635 0v-45.866l23.365 22.933-23.365 22.933z" fill="#F2C357"></path><path d="M922.933 302.164h-65.769l32.452 32.451 33.317-32.451z" fill="#F0BB42"></path><path d="M923.188 300h-66.737c-.87 0-1.451.725-1.451 1.45v46.426c0 .87.581 1.451 1.451 1.451h66.738c.87 0 1.451-.581 1.451-1.451l-.001-46.426c0-.725-.58-1.45-1.451-1.45zm-65.287 4.932l19.732 19.732-19.732 19.731v-39.463zm31.918 27.856l-29.886-29.886h59.774l-29.888 29.886zm-10.155-6.093l9.14 9.14c.29.29.725.435 1.015.435.436 0 .726-.145 1.016-.435l9.14-9.14 19.73 19.731h-59.772l19.731-19.731zm22.342-2.031l19.732-19.732v39.462l-19.732-19.73z" fill="#000"></path><path d="M1006.01 347.596h-65.769l22.716-22.5 10.168 9.952 10.169-9.952 22.716 22.5z" fill="#FFD25B"></path><path d="M1006.44 347.164v-45.866l-23.363 22.933 23.363 22.933zm-66.632 0v-45.866l23.365 22.933-23.365 22.933z" fill="#F2C357"></path><path d="M1006.01 302.164h-65.769l32.452 32.451 33.317-32.451z" fill="#F0BB42"></path><path d="M1006.26 300h-66.732c-.87 0-1.451.725-1.451 1.45v46.426c0 .87.581 1.451 1.451 1.451h66.742c.87 0 1.45-.581 1.45-1.451V301.45c0-.725-.58-1.45-1.45-1.45h-.01zm-65.282 4.932l19.732 19.732-19.732 19.731v-39.463zm31.918 27.856l-29.886-29.886h59.77l-29.884 29.886zm-10.156-6.093l9.141 9.14c.29.29.725.435 1.015.435.436 0 .726-.145 1.016-.435l9.14-9.14 19.728 19.731h-59.77l19.73-19.731zm22.343-2.031l19.727-19.732v39.462l-19.727-19.73z" fill="#000"></path><path d="M1089.09 347.596h-65.77l22.71-22.5 10.17 9.952 10.17-9.952 22.72 22.5z" fill="#FFD25B"></path><path d="M1089.52 347.164v-45.866l-23.37 22.933 23.37 22.933zm-66.63 0v-45.866l23.36 22.933-23.36 22.933z" fill="#F2C357"></path><path d="M1089.09 302.164h-65.77l32.45 32.451 33.32-32.451z" fill="#F0BB42"></path><path d="M1089.34 300h-66.73c-.88 0-1.46.725-1.46 1.45v46.426c0 .87.58 1.451 1.46 1.451h66.73c.87 0 1.45-.581 1.45-1.451V301.45c0-.725-.58-1.45-1.45-1.45zm-65.28 4.932l19.73 19.732-19.73 19.731v-39.463zm31.91 27.856l-29.88-29.886h59.77l-29.89 29.886zm-10.15-6.093l9.14 9.14c.29.29.72.435 1.01.435.44 0 .73-.145 1.02-.435l9.14-9.14 19.73 19.731h-59.77l19.73-19.731zm22.34-2.031l19.73-19.732v39.462l-19.73-19.73zM881.453 320v-11.94h3.974c.796 0 1.488.153 2.077.458.6.306 1.063.736 1.39 1.292.328.546.491 1.189.491 1.93 0 .742-.163 1.391-.491 1.947-.327.545-.79.97-1.39 1.275-.589.306-1.281.458-2.077.458h-1.93V320h-2.044zm2.044-6.379h1.93c.578 0 1.036-.174 1.374-.523.338-.349.507-.802.507-1.358s-.169-1.008-.507-1.357c-.338-.349-.796-.524-1.374-.524h-1.93v3.762zm7.795 6.379v-1.865l4.04-4.187c.415-.436.72-.845.916-1.226.207-.382.311-.769.311-1.162 0-.577-.158-1.025-.474-1.341-.317-.327-.742-.49-1.276-.49-.556 0-.998.169-1.325.507-.316.327-.474.785-.474 1.373h-2.045c.011-.763.175-1.417.491-1.962a3.393 3.393 0 011.341-1.292c.578-.306 1.259-.458 2.045-.458 1.144 0 2.055.316 2.731.948.687.633 1.03 1.494 1.03 2.585 0 .632-.163 1.259-.49 1.88-.317.611-.829 1.276-1.538 1.996l-2.78 2.846h4.956V320h-7.459zm73.161 0v-11.94h3.974c.796 0 1.488.153 2.077.458.6.306 1.063.736 1.39 1.292.328.546.491 1.189.491 1.93 0 .742-.163 1.391-.491 1.947-.327.545-.79.97-1.39 1.275-.589.306-1.281.458-2.077.458h-1.93V320h-2.044zm2.044-6.379h1.93c.578 0 1.036-.174 1.374-.523.338-.349.507-.802.507-1.358s-.169-1.008-.507-1.357c-.338-.349-.796-.524-1.374-.524h-1.93v3.762zm7.795 6.379v-1.865l4.04-4.187c.415-.436.72-.845.916-1.226.207-.382.311-.769.311-1.162 0-.577-.158-1.025-.474-1.341-.317-.327-.742-.49-1.276-.49-.556 0-.998.169-1.325.507-.316.327-.474.785-.474 1.373h-2.045c.011-.763.175-1.417.491-1.962a3.393 3.393 0 011.341-1.292c.578-.306 1.259-.458 2.045-.458 1.144 0 2.055.316 2.731.948.687.633 1.03 1.494 1.03 2.585 0 .632-.163 1.259-.49 1.88-.317.611-.829 1.276-1.538 1.996l-2.78 2.846h4.956V320h-7.459z" fill="#000"></path><path d="M1047.45 320v-11.94h3.98c.79 0 1.49.153 2.07.458.6.306 1.07.736 1.39 1.292.33.546.5 1.189.5 1.93 0 .742-.17 1.391-.5 1.947-.32.545-.79.97-1.39 1.275-.58.306-1.28.458-2.07.458h-1.93V320h-2.05zm2.05-6.379h1.93c.57 0 1.03-.174 1.37-.523.34-.349.51-.802.51-1.358s-.17-1.008-.51-1.357c-.34-.349-.8-.524-1.37-.524h-1.93v3.762zm7.79 6.379v-1.865l4.04-4.187c.42-.436.72-.845.92-1.226.21-.382.31-.769.31-1.162 0-.577-.16-1.025-.48-1.341-.31-.327-.74-.49-1.27-.49-.56 0-1 .169-1.33.507-.31.327-.47.785-.47 1.373h-2.04c.01-.763.17-1.417.49-1.962.32-.556.77-.987 1.34-1.292.57-.306 1.26-.458 2.04-.458 1.15 0 2.06.316 2.73.948.69.633 1.03 1.494 1.03 2.585 0 .632-.16 1.259-.49 1.88-.31.611-.83 1.276-1.53 1.996l-2.79 2.846h4.96V320h-7.46z" fill="#000"></path><path d="M922.933 406.596h-65.769l22.716-22.5 10.168 9.952 10.169-9.952 22.716 22.5z" fill="#FFD25B"></path><path d="M923.366 406.164v-45.866L900 383.231l23.366 22.933zm-66.635 0v-45.866l23.365 22.933-23.365 22.933z" fill="#F2C357"></path><path d="M922.933 361.164h-65.769l32.452 32.451 33.317-32.451z" fill="#F0BB42"></path><path d="M923.188 359h-66.737c-.87 0-1.451.725-1.451 1.45v46.426c0 .87.581 1.451 1.451 1.451h66.738c.87 0 1.451-.581 1.451-1.451l-.001-46.426c0-.725-.58-1.45-1.451-1.45zm-65.287 4.932l19.732 19.732-19.732 19.731v-39.463zm31.918 27.856l-29.886-29.886h59.774l-29.888 29.886zm-10.155-6.093l9.14 9.14c.29.29.725.435 1.015.435.436 0 .726-.145 1.016-.435l9.14-9.14 19.73 19.731h-59.772l19.731-19.731zm22.342-2.031l19.732-19.732v39.462l-19.732-19.73z" fill="#000"></path><path d="M1006.01 406.596h-65.769l22.716-22.5 10.168 9.952 10.169-9.952 22.716 22.5z" fill="#FFD25B"></path><path d="M1006.44 406.164v-45.866l-23.363 22.933 23.363 22.933zm-66.632 0v-45.866l23.365 22.933-23.365 22.933z" fill="#F2C357"></path><path d="M1006.01 361.164h-65.769l32.452 32.451 33.317-32.451z" fill="#F0BB42"></path><path d="M1006.26 359h-66.732c-.87 0-1.451.725-1.451 1.45v46.426c0 .87.581 1.451 1.451 1.451h66.742c.87 0 1.45-.581 1.45-1.451V360.45c0-.725-.58-1.45-1.45-1.45h-.01zm-65.282 4.932l19.732 19.732-19.732 19.731v-39.463zm31.918 27.856l-29.886-29.886h59.77l-29.884 29.886zm-10.156-6.093l9.141 9.14c.29.29.725.435 1.015.435.436 0 .726-.145 1.016-.435l9.14-9.14 19.728 19.731h-59.77l19.73-19.731zm22.343-2.031l19.727-19.732v39.462l-19.727-19.73z" fill="#000"></path><path d="M1089.09 406.596h-65.77l22.71-22.5 10.17 9.952 10.17-9.952 22.72 22.5z" fill="#FFD25B"></path><path d="M1089.52 406.164v-45.866l-23.37 22.933 23.37 22.933zm-66.63 0v-45.866l23.36 22.933-23.36 22.933z" fill="#F2C357"></path><path d="M1089.09 361.164h-65.77l32.45 32.451 33.32-32.451z" fill="#F0BB42"></path><path d="M1089.34 359h-66.73c-.88 0-1.46.725-1.46 1.45v46.426c0 .87.58 1.451 1.46 1.451h66.73c.87 0 1.45-.581 1.45-1.451V360.45c0-.725-.58-1.45-1.45-1.45zm-65.28 4.932l19.73 19.732-19.73 19.731v-39.463zm31.91 27.856l-29.88-29.886h59.77l-29.89 29.886zm-10.15-6.093l9.14 9.14c.29.29.72.435 1.01.435.44 0 .73-.145 1.02-.435l9.14-9.14 19.73 19.731h-59.77l19.73-19.731zm22.34-2.031l19.73-19.732v39.462l-19.73-19.73z" fill="#000"></path><path d="M881.453 379v-11.94h3.974c.796 0 1.488.153 2.077.458.6.306 1.063.736 1.39 1.292.328.546.491 1.189.491 1.93 0 .742-.163 1.391-.491 1.947-.327.545-.79.97-1.39 1.275-.589.306-1.281.458-2.077.458h-1.93V379h-2.044zm2.044-6.379h1.93c.578 0 1.036-.174 1.374-.523.338-.349.507-.802.507-1.358s-.169-1.008-.507-1.357c-.338-.349-.796-.524-1.374-.524h-1.93v3.762zm7.795 6.379v-1.865l4.04-4.187c.415-.436.72-.845.916-1.226.207-.382.311-.769.311-1.162 0-.577-.158-1.025-.474-1.341-.317-.327-.742-.49-1.276-.49-.556 0-.998.169-1.325.507-.316.327-.474.785-.474 1.373h-2.045c.011-.763.175-1.417.491-1.962a3.393 3.393 0 011.341-1.292c.578-.306 1.259-.458 2.045-.458 1.144 0 2.055.316 2.731.948.687.633 1.03 1.494 1.03 2.585 0 .632-.163 1.259-.49 1.88-.317.611-.829 1.276-1.538 1.996l-2.78 2.846h4.956V379h-7.459zm73.161 0v-11.94h3.974c.796 0 1.488.153 2.077.458.6.306 1.063.736 1.39 1.292.328.546.491 1.189.491 1.93 0 .742-.163 1.391-.491 1.947-.327.545-.79.97-1.39 1.275-.589.306-1.281.458-2.077.458h-1.93V379h-2.044zm2.044-6.379h1.93c.578 0 1.036-.174 1.374-.523.338-.349.507-.802.507-1.358s-.169-1.008-.507-1.357c-.338-.349-.796-.524-1.374-.524h-1.93v3.762zm7.795 6.379v-1.865l4.04-4.187c.415-.436.72-.845.916-1.226.207-.382.311-.769.311-1.162 0-.577-.158-1.025-.474-1.341-.317-.327-.742-.49-1.276-.49-.556 0-.998.169-1.325.507-.316.327-.474.785-.474 1.373h-2.045c.011-.763.175-1.417.491-1.962a3.393 3.393 0 011.341-1.292c.578-.306 1.259-.458 2.045-.458 1.144 0 2.055.316 2.731.948.687.633 1.03 1.494 1.03 2.585 0 .632-.163 1.259-.49 1.88-.317.611-.829 1.276-1.538 1.996l-2.78 2.846h4.956V379h-7.459zm73.158 0v-11.94h3.98c.79 0 1.49.153 2.07.458.6.306 1.07.736 1.39 1.292.33.546.5 1.189.5 1.93 0 .742-.17 1.391-.5 1.947-.32.545-.79.97-1.39 1.275-.58.306-1.28.458-2.07.458h-1.93V379h-2.05zm2.05-6.379h1.93c.57 0 1.03-.174 1.37-.523.34-.349.51-.802.51-1.358s-.17-1.008-.51-1.357c-.34-.349-.8-.524-1.37-.524h-1.93v3.762zm7.79 6.379v-1.865l4.04-4.187c.42-.436.72-.845.92-1.226.21-.382.31-.769.31-1.162 0-.577-.16-1.025-.48-1.341-.31-.327-.74-.49-1.27-.49-.56 0-1 .169-1.33.507-.31.327-.47.785-.47 1.373h-2.04c.01-.763.17-1.417.49-1.962.32-.556.77-.987 1.34-1.292.57-.306 1.26-.458 2.04-.458 1.15 0 2.06.316 2.73.948.69.633 1.03 1.494 1.03 2.585 0 .632-.16 1.259-.49 1.88-.31.611-.83 1.276-1.53 1.996l-2.79 2.846h4.96V379h-7.46z" fill="#000"></path><path d="M922.933 464.596h-65.769l22.716-22.5 10.168 9.952 10.169-9.952 22.716 22.5z" fill="#FFD25B"></path><path d="M923.366 464.164v-45.866L900 441.231l23.366 22.933zm-66.635 0v-45.866l23.365 22.933-23.365 22.933z" fill="#F2C357"></path><path d="M922.933 419.164h-65.769l32.452 32.451 33.317-32.451z" fill="#F0BB42"></path><path d="M923.188 417h-66.737c-.87 0-1.451.725-1.451 1.45v46.426c0 .87.581 1.451 1.451 1.451h66.738c.87 0 1.451-.581 1.451-1.451l-.001-46.426c0-.725-.58-1.45-1.451-1.45zm-65.287 4.932l19.732 19.732-19.732 19.731v-39.463zm31.918 27.856l-29.886-29.886h59.774l-29.888 29.886zm-10.155-6.093l9.14 9.14c.29.29.725.435 1.015.435.436 0 .726-.145 1.016-.435l9.14-9.14 19.73 19.731h-59.772l19.731-19.731zm22.342-2.031l19.732-19.732v39.462l-19.732-19.73z" fill="#000"></path><path d="M1006.01 464.596h-65.769l22.716-22.5 10.168 9.952 10.169-9.952 22.716 22.5z" fill="#FFD25B"></path><path d="M1006.44 464.164v-45.866l-23.363 22.933 23.363 22.933zm-66.632 0v-45.866l23.365 22.933-23.365 22.933z" fill="#F2C357"></path><path d="M1006.01 419.164h-65.769l32.452 32.451 33.317-32.451z" fill="#F0BB42"></path><path d="M1006.26 417h-66.732c-.87 0-1.451.725-1.451 1.45v46.426c0 .87.581 1.451 1.451 1.451h66.742c.87 0 1.45-.581 1.45-1.451V418.45c0-.725-.58-1.45-1.45-1.45h-.01zm-65.282 4.932l19.732 19.732-19.732 19.731v-39.463zm31.918 27.856l-29.886-29.886h59.77l-29.884 29.886zm-10.156-6.093l9.141 9.14c.29.29.725.435 1.015.435.436 0 .726-.145 1.016-.435l9.14-9.14 19.728 19.731h-59.77l19.73-19.731zm22.343-2.031l19.727-19.732v39.462l-19.727-19.73z" fill="#000"></path><path d="M1089.09 464.596h-65.77l22.71-22.5 10.17 9.952 10.17-9.952 22.72 22.5z" fill="#FFD25B"></path><path d="M1089.52 464.164v-45.866l-23.37 22.933 23.37 22.933zm-66.63 0v-45.866l23.36 22.933-23.36 22.933z" fill="#F2C357"></path><path d="M1089.09 419.164h-65.77l32.45 32.451 33.32-32.451z" fill="#F0BB42"></path><path d="M1089.34 417h-66.73c-.88 0-1.46.725-1.46 1.45v46.426c0 .87.58 1.451 1.46 1.451h66.73c.87 0 1.45-.581 1.45-1.451V418.45c0-.725-.58-1.45-1.45-1.45zm-65.28 4.932l19.73 19.732-19.73 19.731v-39.463zm31.91 27.856l-29.88-29.886h59.77l-29.89 29.886zm-10.15-6.093l9.14 9.14c.29.29.72.435 1.01.435.44 0 .73-.145 1.02-.435l9.14-9.14 19.73 19.731h-59.77l19.73-19.731zm22.34-2.031l19.73-19.732v39.462l-19.73-19.73z" fill="#000"></path><path d="M881.453 437v-11.94h3.974c.796 0 1.488.153 2.077.458.6.306 1.063.736 1.39 1.292.328.546.491 1.189.491 1.93 0 .742-.163 1.391-.491 1.947-.327.545-.79.97-1.39 1.275-.589.306-1.281.458-2.077.458h-1.93V437h-2.044zm2.044-6.379h1.93c.578 0 1.036-.174 1.374-.523.338-.349.507-.802.507-1.358s-.169-1.008-.507-1.357c-.338-.349-.796-.524-1.374-.524h-1.93v3.762zm7.795 6.379v-1.865l4.04-4.187c.415-.436.72-.845.916-1.226.207-.382.311-.769.311-1.162 0-.577-.158-1.025-.474-1.341-.317-.327-.742-.49-1.276-.49-.556 0-.998.169-1.325.507-.316.327-.474.785-.474 1.373h-2.045c.011-.763.175-1.417.491-1.962a3.393 3.393 0 011.341-1.292c.578-.306 1.259-.458 2.045-.458 1.144 0 2.055.316 2.731.948.687.633 1.03 1.494 1.03 2.585 0 .632-.163 1.259-.49 1.88-.317.611-.829 1.276-1.538 1.996l-2.78 2.846h4.956V437h-7.459zm73.161 0v-11.94h3.974c.796 0 1.488.153 2.077.458.6.306 1.063.736 1.39 1.292.328.546.491 1.189.491 1.93 0 .742-.163 1.391-.491 1.947-.327.545-.79.97-1.39 1.275-.589.306-1.281.458-2.077.458h-1.93V437h-2.044zm2.044-6.379h1.93c.578 0 1.036-.174 1.374-.523.338-.349.507-.802.507-1.358s-.169-1.008-.507-1.357c-.338-.349-.796-.524-1.374-.524h-1.93v3.762zm7.795 6.379v-1.865l4.04-4.187c.415-.436.72-.845.916-1.226.207-.382.311-.769.311-1.162 0-.577-.158-1.025-.474-1.341-.317-.327-.742-.49-1.276-.49-.556 0-.998.169-1.325.507-.316.327-.474.785-.474 1.373h-2.045c.011-.763.175-1.417.491-1.962a3.393 3.393 0 011.341-1.292c.578-.306 1.259-.458 2.045-.458 1.144 0 2.055.316 2.731.948.687.633 1.03 1.494 1.03 2.585 0 .632-.163 1.259-.49 1.88-.317.611-.829 1.276-1.538 1.996l-2.78 2.846h4.956V437h-7.459zm73.158 0v-11.94h3.98c.79 0 1.49.153 2.07.458.6.306 1.07.736 1.39 1.292.33.546.5 1.189.5 1.93 0 .742-.17 1.391-.5 1.947-.32.545-.79.97-1.39 1.275-.58.306-1.28.458-2.07.458h-1.93V437h-2.05zm2.05-6.379h1.93c.57 0 1.03-.174 1.37-.523.34-.349.51-.802.51-1.358s-.17-1.008-.51-1.357c-.34-.349-.8-.524-1.37-.524h-1.93v3.762zm7.79 6.379v-1.865l4.04-4.187c.42-.436.72-.845.92-1.226.21-.382.31-.769.31-1.162 0-.577-.16-1.025-.48-1.341-.31-.327-.74-.49-1.27-.49-.56 0-1 .169-1.33.507-.31.327-.47.785-.47 1.373h-2.04c.01-.763.17-1.417.49-1.962.32-.556.77-.987 1.34-1.292.57-.306 1.26-.458 2.04-.458 1.15 0 2.06.316 2.73.948.69.633 1.03 1.494 1.03 2.585 0 .632-.16 1.259-.49 1.88-.31.611-.83 1.276-1.53 1.996l-2.79 2.846h4.96V437h-7.46z" fill="#000"></path><path d="M851.342 277.211v-11.895h4.693c.902 0 1.671.173 2.306.517a3.502 3.502 0 011.452 1.423c.336.604.505 1.301.505 2.091 0 .79-.17 1.487-.511 2.091a3.532 3.532 0 01-1.481 1.412c-.643.336-1.421.505-2.335.505h-2.991v-2.016h2.584c.484 0 .883-.083 1.197-.249.317-.171.553-.405.708-.703a2.2 2.2 0 00.238-1.04c0-.395-.079-.739-.238-1.034a1.594 1.594 0 00-.708-.691c-.318-.166-.72-.25-1.208-.25h-1.696v9.839h-2.515zm12.847.169c-.569 0-1.076-.099-1.521-.296a2.449 2.449 0 01-1.057-.889c-.256-.395-.384-.887-.384-1.475 0-.496.091-.912.273-1.249.182-.337.43-.608.744-.813a3.61 3.61 0 011.068-.465 8.265 8.265 0 011.267-.221c.518-.054.937-.104 1.254-.151.318-.05.548-.123.691-.22a.484.484 0 00.215-.43v-.035c0-.368-.116-.652-.348-.854-.229-.201-.554-.302-.976-.302-.445 0-.8.099-1.063.296a1.367 1.367 0 00-.523.732l-2.288-.186c.116-.542.344-1.01.685-1.405.341-.399.78-.705 1.319-.918.542-.217 1.169-.325 1.881-.325.496 0 .97.058 1.423.174.457.116.862.296 1.214.54.357.244.637.558.843.941.205.38.307.835.307 1.365v6.017h-2.346v-1.237h-.07a2.514 2.514 0 01-.575.738c-.24.209-.528.374-.865.494a3.584 3.584 0 01-1.168.174zm.709-1.708c.364 0 .685-.071.964-.215.279-.147.498-.344.656-.592.159-.248.239-.529.239-.842v-.947c-.078.05-.184.097-.32.139a5.842 5.842 0 01-.447.111c-.167.031-.333.06-.5.087l-.453.064a3.04 3.04 0 00-.761.203 1.22 1.22 0 00-.505.378.916.916 0 00-.18.58c0 .337.122.595.366.773.248.174.561.261.941.261zm6.235 1.539v-8.921h2.399v1.557h.093c.162-.554.435-.972.819-1.255.383-.286.824-.43 1.324-.43a3.638 3.638 0 01.778.087v2.196a3.199 3.199 0 00-.482-.093 4.35 4.35 0 00-.563-.041c-.364 0-.689.08-.976.238a1.756 1.756 0 00-.674.651c-.162.279-.244.6-.244.964v5.047h-2.474zm11.885-8.921v1.859h-5.373v-1.859h5.373zm-4.153-2.137h2.474v8.317c0 .228.035.407.105.534a.58.58 0 00.29.262c.128.05.275.075.442.075.116 0 .232-.009.348-.029l.267-.052.39 1.841a7.224 7.224 0 01-.523.134 4.174 4.174 0 01-.819.098c-.596.024-1.119-.056-1.568-.238a2.183 2.183 0 01-1.04-.848c-.248-.383-.37-.867-.366-1.452v-8.642zm5.765 11.058v-8.921h2.474v8.921h-2.474zm1.243-10.071c-.368 0-.684-.122-.947-.366a1.184 1.184 0 01-.389-.888c0-.341.129-.634.389-.878.263-.247.579-.371.947-.371s.681.124.941.371c.263.244.395.537.395.878 0 .344-.132.64-.395.888-.26.244-.573.366-.941.366zm7.958 1.15v1.859h-5.372v-1.859h5.372zm-4.153-2.137h2.475v8.317c0 .228.035.407.104.534.07.124.167.211.291.262.127.05.275.075.441.075.116 0 .232-.009.349-.029l.267-.052.389 1.841a7.088 7.088 0 01-.523.134 4.155 4.155 0 01-.819.098c-.596.024-1.119-.056-1.568-.238a2.188 2.188 0 01-1.04-.848c-.247-.383-.369-.867-.366-1.452v-8.642zm5.765 11.058v-8.921h2.474v8.921h-2.474zm1.243-10.071c-.368 0-.683-.122-.947-.366a1.188 1.188 0 01-.389-.888c0-.341.13-.634.389-.878.264-.247.579-.371.947-.371s.681.124.941.371c.263.244.395.537.395.878 0 .344-.132.64-.395.888-.26.244-.573.366-.941.366zm7.244 10.246c-.902 0-1.682-.192-2.34-.575a3.937 3.937 0 01-1.516-1.615c-.357-.693-.535-1.497-.535-2.41 0-.922.178-1.727.535-2.417a3.88 3.88 0 011.516-1.614c.658-.387 1.438-.581 2.34-.581.902 0 1.681.194 2.335.581a3.875 3.875 0 011.522 1.614c.356.69.534 1.495.534 2.417 0 .913-.178 1.717-.534 2.41a3.931 3.931 0 01-1.522 1.615c-.654.383-1.433.575-2.335.575zm.012-1.917c.41 0 .753-.116 1.028-.349.275-.236.482-.557.621-.964a4.14 4.14 0 00.215-1.388c0-.519-.071-.981-.215-1.388-.139-.407-.346-.728-.621-.964s-.618-.354-1.028-.354c-.414 0-.763.118-1.046.354-.278.236-.489.557-.633.964a4.28 4.28 0 00-.209 1.388c0 .519.07.982.209 1.388.144.407.355.728.633.964.283.233.632.349 1.046.349zm8.462-3.415v5.157h-2.474v-8.921h2.358v1.574h.105c.197-.519.528-.929.993-1.231.465-.306 1.028-.459 1.69-.459.62 0 1.16.135 1.621.407.46.271.818.658 1.074 1.161.256.5.383 1.096.383 1.789v5.68h-2.474v-5.239c.004-.545-.135-.971-.418-1.277-.283-.31-.672-.465-1.168-.465-.333 0-.627.072-.882.215-.252.143-.45.352-.593.627-.139.271-.211.598-.215.982zm11.463 5.157v-1.812l4.234-3.92c.36-.349.662-.662.906-.941.248-.279.436-.552.563-.819.128-.271.192-.563.192-.877 0-.349-.079-.649-.238-.9a1.567 1.567 0 00-.651-.587 2.042 2.042 0 00-.935-.209c-.364 0-.681.073-.952.221-.271.147-.48.358-.628.633-.147.275-.22.602-.22.981h-2.387c0-.778.176-1.454.528-2.027a3.53 3.53 0 011.481-1.33c.635-.313 1.367-.47 2.196-.47.852 0 1.593.151 2.224.453.635.298 1.129.712 1.481 1.243.353.53.529 1.138.529 1.823 0 .45-.089.893-.267 1.331-.175.437-.486.923-.935 1.457-.45.531-1.083 1.168-1.9 1.911l-1.736 1.702v.081h4.995v2.056h-8.48zm-78.048-48.113v-2.513h11.839v2.513h-4.413V241h-3.012v-11.902h-4.414zm16.376 12.113c-1.093 0-2.038-.232-2.836-.697a4.762 4.762 0 01-1.837-1.956c-.432-.84-.648-1.814-.648-2.921 0-1.117.216-2.093.648-2.929a4.702 4.702 0 011.837-1.956c.798-.47 1.743-.704 2.836-.704 1.094 0 2.037.234 2.83.704a4.693 4.693 0 011.844 1.956c.432.836.648 1.812.648 2.929 0 1.107-.216 2.081-.648 2.921a4.753 4.753 0 01-1.844 1.956c-.793.465-1.736.697-2.83.697zm.015-2.323c.497 0 .912-.14 1.245-.422.334-.286.585-.676.754-1.168.173-.493.26-1.054.26-1.683 0-.628-.087-1.189-.26-1.682-.169-.493-.42-.882-.754-1.168-.333-.287-.748-.43-1.245-.43-.503 0-.925.143-1.267.43-.338.286-.594.675-.768 1.168-.169.493-.253 1.054-.253 1.682 0 .629.084 1.19.253 1.683.174.492.43.882.768 1.168.342.282.764.422 1.267.422zm6.583 6.166v-14.865h2.956v1.816h.134c.131-.291.321-.587.57-.887.254-.305.582-.559.986-.761.408-.206.915-.309 1.52-.309.788 0 1.516.206 2.182.619.666.408 1.199 1.025 1.598 1.851.399.822.598 1.852.598 3.09 0 1.206-.195 2.225-.584 3.055-.385.826-.911 1.452-1.577 1.879a4.042 4.042 0 01-2.224.634c-.582 0-1.077-.096-1.485-.289a3.062 3.062 0 01-.993-.725 3.656 3.656 0 01-.591-.894h-.091v5.786h-2.999zm2.935-9.46c0 .643.089 1.204.268 1.683.178.478.436.851.774 1.119.338.262.748.394 1.232.394.488 0 .901-.134 1.238-.401.338-.273.594-.648.768-1.127.178-.483.267-1.039.267-1.668 0-.624-.087-1.173-.26-1.647-.174-.474-.43-.844-.767-1.112-.338-.267-.754-.401-1.246-.401-.488 0-.901.129-1.239.387-.333.258-.589.624-.767 1.098-.179.474-.268 1.032-.268 1.675zm8.935 5.406v-10.811h2.998V241h-2.998zm1.506-12.205c-.446 0-.828-.148-1.147-.444a1.434 1.434 0 01-.472-1.076c0-.413.157-.768.472-1.063a1.612 1.612 0 011.147-.451c.446 0 .826.15 1.14.451.319.295.479.65.479 1.063 0 .417-.16.776-.479 1.076a1.602 1.602 0 01-1.14.444zm8.106 12.416c-1.108 0-2.06-.234-2.858-.704a4.759 4.759 0 01-1.83-1.971c-.423-.839-.634-1.806-.634-2.899 0-1.108.214-2.079.641-2.915a4.756 4.756 0 011.837-1.963c.793-.474 1.736-.711 2.829-.711.944 0 1.77.171 2.478.514a4.13 4.13 0 011.682 1.443c.413.619.641 1.346.683 2.182h-2.829c-.08-.54-.291-.974-.634-1.303-.338-.333-.781-.499-1.33-.499-.465 0-.871.126-1.218.38-.343.248-.61.612-.802 1.091-.193.478-.289 1.058-.289 1.738 0 .69.094 1.277.282 1.76.192.483.462.852.809 1.105.347.253.753.38 1.218.38.342 0 .65-.07.922-.211a1.79 1.79 0 00.683-.612c.183-.273.302-.599.359-.979h2.829c-.047.826-.272 1.553-.676 2.182a4.083 4.083 0 01-1.654 1.464c-.704.352-1.537.528-2.498.528zm12.53-.211h-3.266l4.976-14.415h3.928L913.412 241h-3.266l-3.611-11.121h-.113L902.805 241zm-.205-5.666h7.715v2.379H902.6v-2.379z" fill="#1A1A1A"></path><path d="M1034.68 194.183a2.23 2.23 0 00-1.6-.669c-.29-.001-.58.058-.86.172-.27.115-.51.284-.72.497h-.01c-.21.213-.38.465-.49.743-.11.278-.17.575-.17.875 0 .603.23 1.184.65 1.614l.01.011c.21.211.46.379.73.492.27.114.56.172.86.17.62 0 1.19-.251 1.59-.662l.01-.011c.4-.407.64-.977.64-1.614a2.32 2.32 0 00-.65-1.618h.01zm-1.6 31.304c.63 0 1.19-.26 1.6-.667v-.011c.41-.406.65-.979.65-1.609 0-.645-.25-1.208-.65-1.621a2.22 2.22 0 00-1.6-.671c-.29-.002-.58.057-.86.172-.27.115-.51.285-.72.499h-.01a2.282 2.282 0 00-.65 1.621c-.01.601.23 1.18.65 1.609l.01.011c.21.211.45.378.73.493.27.114.56.173.85.173v.001zm12.25-6.928a2.244 2.244 0 001.37-1.062l.04-.081c.26-.51.33-1.101.18-1.656a2.26 2.26 0 00-1.05-1.39l-.03-.022a2.224 2.224 0 00-1.68-.205c-.55.142-1.06.521-1.36 1.066-.3.528-.38 1.151-.23 1.738.15.582.53 1.082 1.05 1.392a2.2 2.2 0 001.71.215v.005zm-9.95-11.395a3.193 3.193 0 00-3.55-.72c-.4.167-.75.411-1.05.719a3.313 3.313 0 00-.95 2.34c0 .877.34 1.72.95 2.35.59.595 1.4.967 2.29.967.89 0 1.72-.372 2.31-.967.61-.63.95-1.473.95-2.351 0-.875-.34-1.716-.95-2.34v.002zm-1.29-3.898c1.29.219 2.47.841 3.38 1.777h.01c.14.148.28.302.41.464l2.24-1.321a4.966 4.966 0 01-.07-2.807 4.901 4.901 0 012.26-2.991l.04-.024a4.767 4.767 0 015.33.377c.51.394.93.883 1.24 1.441v.004c.67 1.175.81 2.524.49 3.738a4.902 4.902 0 01-2.26 2.994l-.31.184h-.03a4.789 4.789 0 01-3.34.312 4.878 4.878 0 01-2.35-1.465l-2.24 1.316c.27.714.4 1.469.4 2.231 0 .785-.14 1.543-.4 2.24l2.24 1.314a4.818 4.818 0 012.35-1.466 4.716 4.716 0 013.68.496l.08.036v.003a4.934 4.934 0 012.18 2.96c.33 1.26.16 2.6-.49 3.734l-.04.083a4.887 4.887 0 01-2.9 2.23 4.811 4.811 0 01-3.68-.493v-.01a4.91 4.91 0 01-2.26-2.992 4.954 4.954 0 01.08-2.803l-2.25-1.317c-.13.159-.26.311-.41.457v.007a6.13 6.13 0 01-3.38 1.766v2.638c.92.198 1.76.664 2.42 1.338v.007a4.933 4.933 0 011.42 3.483c0 1.3-.51 2.549-1.42 3.476v.014a4.857 4.857 0 01-3.43 1.436 4.79 4.79 0 01-3.42-1.444h-.01v-.014a4.978 4.978 0 010-6.96v-.007h.01a4.688 4.688 0 012.41-1.338v-2.637a6.07 6.07 0 01-3.37-1.767v-.007a6.327 6.327 0 01-1.83-4.463c0-1.741.7-3.316 1.82-4.459h.01a6.102 6.102 0 013.37-1.777v-2.627a4.874 4.874 0 01-2.42-1.341v-.007a4.982 4.982 0 010-6.967l.01-.004c.45-.457.98-.821 1.56-1.07a4.793 4.793 0 011.86-.377c1.33 0 2.54.552 3.43 1.447v.004a4.983 4.983 0 010 6.966v.007a4.918 4.918 0 01-2.42 1.342v2.633zm12.61-1.752l-.02-.028a2.257 2.257 0 00-2.23-1.098c-.3.04-.58.137-.83.288-.54.311-.9.82-1.05 1.39-.16.587-.07 1.21.23 1.738l.01.014c.31.538.8.9 1.35 1.045.56.159 1.17.092 1.71-.223l.02-.015c.53-.318.88-.821 1.02-1.373.15-.57.09-1.192-.21-1.738zm9.95.772h2.5v7.777l3.62-4.063h3.01l-4.36 4.708 4.36 5.959h-2.87l-3.76-5.331v5.331h-2.51v-14.388l.01.007zm12.02 9.09c0 1.324.93 3.249 3.19 3.249 1.4 0 2.31-.74 2.79-1.709.25-.471.36-.975.4-1.505.02-.516-.08-1.03-.29-1.502-.43-1.008-1.41-1.882-2.92-1.882-2.02 0-3.17 1.669-3.17 3.323v.026zm8.87 5.291h-2.51v-1.536c-.67 1.242-2.06 1.865-3.53 1.865-3.37 0-5.34-2.666-5.34-5.677 0-3.363 2.39-5.657 5.34-5.657 1.91 0 3.07 1.03 3.53 1.887v-1.558h2.51v10.676zm2.83-8.711h-1.29v-1.963h1.29v-.602c0-3.172 2.37-3.364 4.17-3.384v1.96c-.63 0-1.66 0-1.66 1.501v.523h1.66v1.964h-1.66v8.712h-2.51v-8.711zm5.88-5.677h2.5v7.777l3.61-4.063h3.01l-4.36 4.708 4.37 5.966h-2.87l-3.76-5.331v5.331h-2.5v-14.388zm12.02 9.097c0 1.324.94 3.249 3.19 3.249 1.4 0 2.32-.74 2.8-1.709.25-.471.36-.975.4-1.505a3.388 3.388 0 00-.29-1.502c-.43-1.008-1.41-1.882-2.92-1.882-2.02 0-3.17 1.669-3.17 3.323v.018l-.01.008zm8.86 5.291h-2.5v-1.536c-.67 1.242-2.07 1.865-3.54 1.865-3.36 0-5.33-2.666-5.33-5.677 0-3.363 2.39-5.657 5.33-5.657 1.91 0 3.08 1.03 3.54 1.887v-1.558h2.5v10.676z" fill="#1A464C"></path><path d="M376.933 394.596h-65.769l22.716-22.5 10.168 9.952 10.168-9.952 22.717 22.5z" fill="#FFD25B"></path><path d="M377.365 394.164v-45.866L354 371.231l23.365 22.933zm-66.634 0v-45.866l23.365 22.933-23.365 22.933z" fill="#F2C357"></path><path d="M376.933 349.164h-65.769l32.451 32.451 33.318-32.451z" fill="#F0BB42"></path><path d="M377.187 347h-66.736c-.871 0-1.451.725-1.451 1.45v46.426c0 .87.58 1.451 1.451 1.451h66.738c.87 0 1.451-.581 1.451-1.451l-.001-46.426c0-.725-.58-1.45-1.451-1.45h-.001zm-65.286 4.932l19.731 19.732-19.731 19.731v-39.463zm31.918 27.856l-29.886-29.886h59.774l-29.888 29.886zm-10.156-6.093l9.14 9.14c.29.29.726.435 1.016.435.435 0 .725-.145 1.016-.435l9.14-9.14 19.73 19.731h-59.772l19.73-19.731zm22.343-2.031l19.732-19.732v39.462l-19.732-19.73z" fill="#000"></path><path d="M297.933 394.596h-65.769l22.716-22.5 10.168 9.952 10.168-9.952 22.717 22.5z" fill="#FFD25B"></path><path d="M298.365 394.164v-45.866L275 371.231l23.365 22.933zm-66.634 0v-45.866l23.365 22.933-23.365 22.933z" fill="#F2C357"></path><path d="M297.933 349.164h-65.769l32.451 32.451 33.318-32.451z" fill="#F0BB42"></path><path d="M298.187 347h-66.736c-.871 0-1.451.725-1.451 1.45v46.426c0 .87.58 1.451 1.451 1.451h66.738c.87 0 1.451-.581 1.451-1.451l-.001-46.426c0-.725-.58-1.45-1.451-1.45h-.001zm-65.286 4.932l19.731 19.732-19.731 19.731v-39.463zm31.918 27.856l-29.886-29.886h59.774l-29.888 29.886zm-10.156-6.093l9.14 9.14c.29.29.726.435 1.016.435.435 0 .725-.145 1.016-.435l9.14-9.14 19.73 19.731h-59.772l19.73-19.731zm22.343-2.031l19.732-19.732v39.462l-19.732-19.73z" fill="#000"></path></svg>