<svg viewBox="0 0 1200 900" fill="none" xmlns="http://www.w3.org/2000/svg"><g clip-path="url(#clip0_6_2134)"><path fill="#fff" d="M0 0h1200v900H0z"></path><path fill-rule="evenodd" clip-rule="evenodd" d="M398 744.599v42.402a3.942 3.942 0 01-.172 1.161 4.05 4.05 0 01-.502 1.061 4.013 4.013 0 01-2.933 1.758 3.956 3.956 0 01-.392.019H40.999a3.948 3.948 0 01-1.53-.304 3.894 3.894 0 01-.692-.37 4.073 4.073 0 01-.87-.788 3.911 3.911 0 01-.603-1.007 4.022 4.022 0 01-.304-1.53v-42.402a3.972 3.972 0 01.304-1.53 3.94 3.94 0 01.604-1.007 4.143 4.143 0 01.554-.554 4.073 4.073 0 01.652-.436 4.171 4.171 0 01.724-.3 3.84 3.84 0 01.769-.153c.13-.012.261-.019.392-.019h353.002a3.86 3.86 0 011.161.172 4.104 4.104 0 011.061.502 4.013 4.013 0 011.758 2.933c.013.13.019.261.019.392z" fill="#7C7C7C"></path><path fill-rule="evenodd" clip-rule="evenodd" d="M88.212 751.52H326.64v6.72H88.212v-6.72z" fill="#D8D8D8"></path><path fill-rule="evenodd" clip-rule="evenodd" d="M47.914 751.52h15.111v6.72h-15.11v-6.72z" fill="#D7D7D7"></path><path fill-rule="evenodd" clip-rule="evenodd" d="M360.221 751.52h6.716v6.72h-6.716v-6.72z" fill="#D7D400"></path><path fill-rule="evenodd" clip-rule="evenodd" d="M350.146 751.52h6.717v6.72h-6.717v-6.72z" fill="#FF3C00"></path><path fill-rule="evenodd" clip-rule="evenodd" d="M371.974 751.52h15.112v6.72h-15.112v-6.72z" fill="#00CD00"></path><path fill-rule="evenodd" clip-rule="evenodd" d="M88.212 762.44H326.64v6.72H88.212v-6.72z" fill="#D8D8D8"></path><path fill-rule="evenodd" clip-rule="evenodd" d="M47.914 762.44h15.111v6.72h-15.11v-6.72z" fill="#D7D7D7"></path><path fill-rule="evenodd" clip-rule="evenodd" d="M360.221 762.44h6.716v6.72h-6.716v-6.72z" fill="#D7D400"></path><path fill-rule="evenodd" clip-rule="evenodd" d="M350.146 762.44h6.717v6.72h-6.717v-6.72z" fill="#FF3C00"></path><path fill-rule="evenodd" clip-rule="evenodd" d="M371.974 762.44h15.112v6.72h-15.112v-6.72z" fill="#00CD00"></path><path fill-rule="evenodd" clip-rule="evenodd" d="M88.212 773.36H326.64v6.72H88.212v-6.72z" fill="#D8D8D8"></path><path fill-rule="evenodd" clip-rule="evenodd" d="M47.914 773.36h15.111v6.72h-15.11v-6.72z" fill="#D7D7D7"></path><path fill-rule="evenodd" clip-rule="evenodd" d="M360.221 773.36h6.716v6.72h-6.716v-6.72z" fill="#D7D400"></path><path fill-rule="evenodd" clip-rule="evenodd" d="M350.146 773.36h6.717v6.72h-6.717v-6.72z" fill="#FF3C00"></path><path fill-rule="evenodd" clip-rule="evenodd" d="M371.974 773.36h15.112v6.72h-15.112v-6.72z" fill="#00CD00"></path><path fill-rule="evenodd" clip-rule="evenodd" d="M398 115.584v612.832a7.688 7.688 0 01-.172 1.621 7.053 7.053 0 01-.3 1.011 6.344 6.344 0 01-.436.911 4.888 4.888 0 01-.869 1.1 3.62 3.62 0 01-1.061.701 2.962 2.962 0 01-.381.132 2.876 2.876 0 01-.78.108H40.999a2.863 2.863 0 01-.78-.108 3.005 3.005 0 01-.75-.317 3.678 3.678 0 01-.692-.516 4.714 4.714 0 01-.606-.694 5.598 5.598 0 01-.497-.846 6.557 6.557 0 01-.37-.967 7.003 7.003 0 01-.227-1.047 7.59 7.59 0 01-.077-1.089V115.584a7.727 7.727 0 01.172-1.621 7.162 7.162 0 01.3-1.011 6.168 6.168 0 01.436-.91 5.193 5.193 0 01.554-.774 4.313 4.313 0 01.652-.609 3.678 3.678 0 01.724-.419 3.081 3.081 0 011.16-.24h353.003a2.87 2.87 0 01.78.107 3.129 3.129 0 01.75.318 3.62 3.62 0 01.692.516 4.907 4.907 0 01.869 1.101 5.918 5.918 0 01.436.91 7.214 7.214 0 01.395 1.543 8.087 8.087 0 01.077 1.089z" fill="#7C7C7C"></path><path fill-rule="evenodd" clip-rule="evenodd" d="M49.998 140h335.004a1.435 1.435 0 01.58.125 1.705 1.705 0 01.53.362 2.327 2.327 0 01.434.571 3.096 3.096 0 01.302.728 3.718 3.718 0 01.114.542c.013.093.022.187.028.281.007.094.01.189.01.284v558.214c0 .095-.003.189-.01.284a3.764 3.764 0 01-.142.823 3.334 3.334 0 01-.433.938 2.183 2.183 0 01-.146.191 1.96 1.96 0 01-.325.315 1.996 1.996 0 01-.177.122 1.734 1.734 0 01-.375.165 1.31 1.31 0 01-.194.04c-.065.01-.131.015-.196.015H49.998a1.29 1.29 0 01-.196-.015 1.312 1.312 0 01-.384-.109 1.78 1.78 0 01-.53-.364 2.488 2.488 0 01-.434-.57 3.185 3.185 0 01-.302-.728 3.798 3.798 0 01-.142-.823 4.21 4.21 0 01-.01-.284V142.893a4.187 4.187 0 01.086-.84 3.665 3.665 0 01.25-.767 3.008 3.008 0 01.25-.439 2.488 2.488 0 01.302-.36 2.002 2.002 0 01.345-.267 1.596 1.596 0 01.57-.206 1.41 1.41 0 01.195-.014z" fill="#fff"></path><path fill-rule="evenodd" clip-rule="evenodd" d="M47.914 124.08h339.172v6.72H47.914v-6.72zm0 589.64h339.172v6.72H47.914v-6.72z" fill="#D7D7D7"></path><path d="M77.063 169v-12.233h4.898c.9 0 1.65.134 2.252.4.601.267 1.053.638 1.356 1.111.302.47.454 1.012.454 1.625 0 .478-.096.898-.287 1.26a2.47 2.47 0 01-.788.884c-.33.227-.71.389-1.135.484v.12a2.792 2.792 0 012.305 1.415c.255.434.383.952.383 1.553 0 .649-.162 1.229-.484 1.738-.319.506-.79.906-1.416 1.201-.625.295-1.396.442-2.311.442h-5.227zm2.587-2.114h2.108c.72 0 1.246-.138 1.577-.413.33-.278.496-.649.496-1.111 0-.338-.082-.637-.245-.896a1.673 1.673 0 00-.7-.609c-.298-.147-.654-.221-1.068-.221H79.65v3.25zm0-5h1.917c.354 0 .669-.062.944-.185.278-.127.497-.307.657-.538a1.4 1.4 0 00.244-.83c0-.442-.157-.798-.471-1.069-.311-.271-.753-.406-1.326-.406H79.65v3.028zM87.51 169v-12.233h4.826c.924 0 1.713.166 2.366.496.657.327 1.156.79 1.499 1.392.346.597.52 1.3.52 2.108 0 .813-.176 1.511-.526 2.097-.35.581-.858 1.027-1.523 1.338-.661.31-1.462.466-2.401.466h-3.232v-2.079h2.813c.494 0 .904-.068 1.23-.203.327-.135.57-.339.73-.609.163-.271.245-.608.245-1.01 0-.406-.082-.748-.245-1.027a1.498 1.498 0 00-.735-.633c-.327-.148-.739-.221-1.236-.221h-1.745V169H87.51zm6.606-5.567l3.04 5.567h-2.855l-2.974-5.567h2.79zm15-.549c0 1.334-.253 2.468-.759 3.404-.501.936-1.186 1.651-2.054 2.145-.864.489-1.836.734-2.915.734-1.087 0-2.063-.247-2.927-.74-.864-.494-1.547-1.209-2.049-2.145-.501-.935-.752-2.068-.752-3.398 0-1.334.25-2.469.752-3.405.502-.936 1.185-1.649 2.049-2.138.864-.494 1.84-.741 2.927-.741 1.079 0 2.051.247 2.915.741.868.489 1.553 1.202 2.054 2.138.506.936.759 2.071.759 3.405zm-2.622 0c0-.864-.13-1.593-.388-2.186-.255-.594-.616-1.044-1.082-1.35-.465-.307-1.011-.46-1.636-.46s-1.171.153-1.637.46c-.466.306-.828.756-1.087 1.35-.255.593-.382 1.322-.382 2.186 0 .864.127 1.592.382 2.186.259.593.621 1.043 1.087 1.35.466.306 1.012.46 1.637.46s1.171-.154 1.636-.46c.466-.307.827-.757 1.082-1.35.258-.594.388-1.322.388-2.186zm3.864 6.116v-12.233h2.587v5.394h.161l4.402-5.394h3.1l-4.539 5.478 4.593 6.755h-3.094l-3.351-5.029-1.272 1.553V169h-2.587zm10.924 0v-12.233h8.242v2.133h-5.656v2.914h5.232v2.133h-5.232v2.921h5.68V169h-8.266zm9.625 0v-12.233h4.826c.924 0 1.713.166 2.366.496.657.327 1.157.79 1.499 1.392.346.597.52 1.3.52 2.108 0 .813-.176 1.511-.526 2.097-.35.581-.858 1.027-1.523 1.338-.661.31-1.461.466-2.401.466h-3.232v-2.079h2.814c.493 0 .904-.068 1.23-.203.327-.135.57-.339.729-.609.163-.271.245-.608.245-1.01 0-.406-.082-.748-.245-1.027a1.496 1.496 0 00-.735-.633c-.326-.148-.739-.221-1.236-.221h-1.744V169h-2.587zm6.606-5.567l3.041 5.567h-2.855l-2.975-5.567h2.789zm12.229-6.666V169h-2.587v-9.778h-.071l-2.802 1.756v-2.293l3.029-1.918h2.431z" fill="#919191"></path><path d="M357.109 178H77.892C71.324 178 66 183.324 66 189.891v482.218C66 678.676 71.324 684 77.891 684H357.11c6.567 0 11.891-5.324 11.891-11.892V189.891c0-6.567-5.324-11.891-11.891-11.891z" fill="#EEF8F9" stroke="#D9EFF2" stroke-width="2"></path><path fill-rule="evenodd" clip-rule="evenodd" d="M77 258.606a8.184 8.184 0 018.184-8.183h265.748a8.183 8.183 0 018.183 8.183v224.21a8.184 8.184 0 01-8.183 8.184H85.184A8.184 8.184 0 0177 482.816v-224.21z" fill="#FCF3CF"></path><rect x="90" y="290" width="255" height="69" rx="5" fill="#53777A" fill-opacity="0.2" stroke="#53777A" stroke-width="2" stroke-dasharray="10 10"></rect><path d="M166.933 347.596h-65.769l22.716-22.5 10.168 9.952 10.168-9.952 22.717 22.5z" fill="#FFD25B"></path><path d="M167.365 347.164v-45.866L144 324.231l23.365 22.933zm-66.634 0v-45.866l23.365 22.933-23.365 22.933z" fill="#F2C357"></path><path d="M166.933 302.164h-65.769l32.451 32.451 33.318-32.451z" fill="#F0BB42"></path><path d="M167.187 300h-66.736c-.87 0-1.451.725-1.451 1.45v46.426c0 .87.58 1.451 1.451 1.451h66.738c.87 0 1.451-.581 1.451-1.451l-.001-46.426c0-.725-.58-1.45-1.451-1.45h-.001zm-65.286 4.932l19.731 19.732-19.731 19.731v-39.463zm31.918 27.856l-29.886-29.886h59.774l-29.888 29.886zm-10.156-6.093l9.14 9.14c.29.29.726.435 1.016.435.435 0 .725-.145 1.016-.435l9.14-9.14 19.73 19.731h-59.772l19.73-19.731zm22.343-2.031l19.732-19.732v39.462l-19.732-19.73z" fill="#000"></path><path d="M250.01 347.596h-65.77l22.717-22.5 10.168 9.952 10.168-9.952 22.717 22.5z" fill="#FFD25B"></path><path d="M250.442 347.164v-45.866l-23.365 22.933 23.365 22.933zm-66.634 0v-45.866l23.365 22.933-23.365 22.933z" fill="#F2C357"></path><path d="M250.01 302.164h-65.77l32.452 32.451 33.318-32.451z" fill="#F0BB42"></path><path d="M250.264 300h-66.736c-.871 0-1.451.725-1.451 1.45v46.426c0 .87.58 1.451 1.451 1.451h66.738c.87 0 1.45-.581 1.45-1.451V301.45c0-.725-.58-1.45-1.451-1.45h-.001zm-65.286 4.932l19.731 19.732-19.731 19.731v-39.463zm31.918 27.856l-29.886-29.886h59.774l-29.888 29.886zm-10.156-6.093l9.14 9.14c.29.29.726.435 1.016.435.435 0 .725-.145 1.016-.435l9.14-9.14 19.73 19.731H187.01l19.73-19.731zm22.343-2.031l19.732-19.732v39.462l-19.732-19.73z" fill="#000"></path><path d="M333.087 347.596h-65.77l22.717-22.5 10.168 9.952 10.168-9.952 22.717 22.5z" fill="#FFD25B"></path><path d="M333.519 347.164v-45.866l-23.365 22.933 23.365 22.933zm-66.634 0v-45.866l23.365 22.933-23.365 22.933z" fill="#F2C357"></path><path d="M333.087 302.164h-65.77l32.452 32.451 33.318-32.451z" fill="#F0BB42"></path><path d="M333.341 300h-66.736c-.871 0-1.451.725-1.451 1.45v46.426c0 .87.58 1.451 1.451 1.451h66.738c.87 0 1.451-.581 1.451-1.451l-.001-46.426c0-.725-.58-1.45-1.451-1.45h-.001zm-65.286 4.932l19.731 19.732-19.731 19.731v-39.463zm31.918 27.856l-29.886-29.886h59.774l-29.888 29.886zm-10.156-6.093l9.14 9.14c.29.29.726.435 1.016.435.435 0 .725-.145 1.016-.435l9.14-9.14 19.73 19.731h-59.772l19.73-19.731zm22.343-2.031l19.732-19.732v39.462l-19.732-19.73z" fill="#000"></path><path d="M125.452 320v-11.94h3.975c.796 0 1.488.153 2.077.458.6.306 1.063.736 1.39 1.292.327.546.491 1.189.491 1.93 0 .742-.164 1.391-.491 1.947-.327.545-.79.97-1.39 1.275-.589.306-1.281.458-2.077.458h-1.93V320h-2.045zm2.045-6.379h1.93c.578 0 1.036-.174 1.374-.523.338-.349.507-.802.507-1.358s-.169-1.008-.507-1.357c-.338-.349-.796-.524-1.374-.524h-1.93v3.762zm7.877 6.379v-1.848h3.107v-8.276l-3.123 2.322v-2.159l2.747-1.979h2.421v10.092h2.502V320h-7.654zm73.078 0v-11.94h3.975c.796 0 1.488.153 2.077.458.6.306 1.063.736 1.39 1.292.327.546.491 1.189.491 1.93 0 .742-.164 1.391-.491 1.947-.327.545-.79.97-1.39 1.275-.589.306-1.281.458-2.077.458h-1.93V320h-2.045zm2.045-6.379h1.93c.578 0 1.036-.174 1.374-.523.338-.349.507-.802.507-1.358s-.169-1.008-.507-1.357c-.338-.349-.796-.524-1.374-.524h-1.93v3.762zm7.877 6.379v-1.848h3.107v-8.276l-3.123 2.322v-2.159l2.747-1.979h2.421v10.092h2.502V320h-7.654zm73.078 0v-11.94h3.975c.796 0 1.488.153 2.077.458.6.306 1.063.736 1.39 1.292.327.546.491 1.189.491 1.93 0 .742-.164 1.391-.491 1.947-.327.545-.79.97-1.39 1.275-.589.306-1.281.458-2.077.458h-1.93V320h-2.045zm2.045-6.379h1.93c.578 0 1.036-.174 1.374-.523.338-.349.507-.802.507-1.358s-.169-1.008-.507-1.357c-.338-.349-.796-.524-1.374-.524h-1.93v3.762zm7.877 6.379v-1.848h3.107v-8.276l-3.123 2.322v-2.159l2.747-1.979h2.421v10.092h2.502V320h-7.654z" fill="#000"></path><path d="M95.341 277.211v-11.895h4.694c.902 0 1.67.173 2.305.517a3.502 3.502 0 011.452 1.423c.337.604.506 1.301.506 2.091 0 .79-.171 1.487-.511 2.091a3.532 3.532 0 01-1.481 1.412c-.643.336-1.422.505-2.335.505h-2.992v-2.016h2.585c.484 0 .883-.083 1.197-.249.317-.171.553-.405.708-.703a2.2 2.2 0 00.238-1.04c0-.395-.079-.739-.238-1.034a1.594 1.594 0 00-.708-.691c-.318-.166-.721-.25-1.209-.25h-1.696v9.839h-2.514zm12.848.169c-.569 0-1.076-.099-1.522-.296a2.46 2.46 0 01-1.057-.889c-.255-.395-.383-.887-.383-1.475 0-.496.091-.912.273-1.249.182-.337.43-.608.743-.813.314-.205.67-.36 1.069-.465a8.273 8.273 0 011.266-.221 30.78 30.78 0 001.255-.151c.317-.05.548-.123.691-.22a.486.486 0 00.215-.43v-.035c0-.368-.116-.652-.349-.854-.228-.201-.553-.302-.975-.302-.446 0-.8.099-1.063.296a1.362 1.362 0 00-.523.732l-2.288-.186c.116-.542.344-1.01.685-1.405a3.29 3.29 0 011.318-.918c.543-.217 1.17-.325 1.882-.325.496 0 .97.058 1.423.174.457.116.862.296 1.214.54.356.244.637.558.842.941.206.38.308.835.308 1.365v6.017h-2.346v-1.237h-.07a2.514 2.514 0 01-.575.738 2.67 2.67 0 01-.865.494 3.584 3.584 0 01-1.168.174zm.709-1.708c.364 0 .685-.071.964-.215.279-.147.497-.344.656-.592.159-.248.238-.529.238-.842v-.947c-.077.05-.184.097-.319.139a5.842 5.842 0 01-.447.111c-.167.031-.333.06-.5.087l-.453.064a3.04 3.04 0 00-.761.203 1.214 1.214 0 00-.505.378.916.916 0 00-.18.58c0 .337.122.595.366.773.248.174.561.261.941.261zm6.235 1.539v-8.921h2.399v1.557h.093c.162-.554.435-.972.818-1.255.384-.286.825-.43 1.325-.43a3.606 3.606 0 01.778.087v2.196a3.199 3.199 0 00-.482-.093 4.35 4.35 0 00-.563-.041c-.364 0-.69.08-.976.238a1.756 1.756 0 00-.674.651c-.163.279-.244.6-.244.964v5.047h-2.474zm11.885-8.921v1.859h-5.373v-1.859h5.373zm-4.153-2.137h2.474v8.317c0 .228.035.407.105.534a.576.576 0 00.29.262c.128.05.275.075.442.075.116 0 .232-.009.348-.029l.267-.052.389 1.841a7.173 7.173 0 01-.522.134 4.174 4.174 0 01-.819.098c-.597.024-1.119-.056-1.568-.238a2.183 2.183 0 01-1.04-.848c-.248-.383-.37-.867-.366-1.452v-8.642zm5.765 11.058v-8.921h2.474v8.921h-2.474zm1.242-10.071c-.367 0-.683-.122-.946-.366a1.184 1.184 0 01-.389-.888c0-.341.129-.634.389-.878.263-.247.579-.371.946-.371.368 0 .682.124.941.371.264.244.395.537.395.878 0 .344-.131.64-.395.888a1.323 1.323 0 01-.941.366zm7.959 1.15v1.859h-5.372v-1.859h5.372zm-4.153-2.137h2.475v8.317c0 .228.034.407.104.534.07.124.167.211.29.262.128.05.275.075.442.075.116 0 .232-.009.348-.029l.268-.052.389 1.841a7.088 7.088 0 01-.523.134 4.174 4.174 0 01-.819.098c-.596.024-1.119-.056-1.568-.238a2.188 2.188 0 01-1.04-.848c-.248-.383-.37-.867-.366-1.452v-8.642zm5.765 11.058v-8.921h2.474v8.921h-2.474zm1.243-10.071c-.368 0-.684-.122-.947-.366a1.188 1.188 0 01-.389-.888c0-.341.13-.634.389-.878.263-.247.579-.371.947-.371s.681.124.941.371c.263.244.395.537.395.878 0 .344-.132.64-.395.888-.26.244-.573.366-.941.366zm7.244 10.246c-.902 0-1.682-.192-2.341-.575a3.95 3.95 0 01-1.516-1.615c-.356-.693-.534-1.497-.534-2.41 0-.922.178-1.727.534-2.417a3.893 3.893 0 011.516-1.614c.659-.387 1.439-.581 2.341-.581.902 0 1.681.194 2.335.581a3.881 3.881 0 011.522 1.614c.356.69.534 1.495.534 2.417 0 .913-.178 1.717-.534 2.41a3.938 3.938 0 01-1.522 1.615c-.654.383-1.433.575-2.335.575zm.012-1.917c.41 0 .753-.116 1.028-.349.275-.236.482-.557.621-.964.143-.406.215-.869.215-1.388a4.17 4.17 0 00-.215-1.388c-.139-.407-.346-.728-.621-.964s-.618-.354-1.028-.354c-.415 0-.763.118-1.046.354-.279.236-.49.557-.633.964a4.28 4.28 0 00-.209 1.388c0 .519.07.982.209 1.388.143.407.354.728.633.964.283.233.631.349 1.046.349zm8.462-3.415v5.157h-2.474v-8.921h2.358v1.574h.105c.197-.519.528-.929.993-1.231.464-.306 1.028-.459 1.69-.459.619 0 1.16.135 1.62.407.461.271.819.658 1.075 1.161.255.5.383 1.096.383 1.789v5.68h-2.474v-5.239c.004-.545-.136-.971-.418-1.277-.283-.31-.672-.465-1.168-.465a1.78 1.78 0 00-.883.215 1.497 1.497 0 00-.592.627c-.139.271-.211.598-.215.982zm16.638-6.738v11.895h-2.515v-9.508h-.07l-2.724 1.708v-2.23l2.945-1.865h2.364z" fill="#1A1A1A"></path><rect x="90" y="408.789" width="255" height="69" rx="5" fill="#53777A" fill-opacity="0.2" stroke="#53777A" stroke-width="2" stroke-dasharray="10 10"></rect><path d="M166.933 466.385h-65.769l22.716-22.5 10.168 9.952 10.168-9.952 22.717 22.5z" fill="#FFD25B"></path><path d="M167.365 465.952v-45.865L144 443.02l23.365 22.932zm-66.634 0v-45.865l23.365 22.933-23.365 22.932z" fill="#F2C357"></path><path d="M166.933 420.952h-65.769l32.451 32.452 33.318-32.452z" fill="#F0BB42"></path><path d="M167.187 418.789h-66.736c-.87 0-1.451.725-1.451 1.45v46.426c0 .87.58 1.45 1.451 1.45h66.738c.87 0 1.451-.58 1.451-1.45l-.001-46.426c0-.725-.58-1.45-1.451-1.45h-.001zm-65.286 4.932l19.731 19.731-19.731 19.732v-39.463zm31.918 27.856l-29.886-29.887h59.774l-29.888 29.887zm-10.156-6.094l9.14 9.14c.29.29.726.435 1.016.435.435 0 .725-.145 1.016-.435l9.14-9.14 19.73 19.732h-59.772l19.73-19.732zm22.343-2.031l19.732-19.731v39.461l-19.732-19.73z" fill="#000"></path><path d="M250.01 466.385h-65.77l22.717-22.5 10.168 9.952 10.168-9.952 22.717 22.5z" fill="#FFD25B"></path><path d="M250.442 465.952v-45.865l-23.365 22.933 23.365 22.932zm-66.634 0v-45.865l23.365 22.933-23.365 22.932z" fill="#F2C357"></path><path d="M250.01 420.952h-65.77l32.452 32.452 33.318-32.452z" fill="#F0BB42"></path><path d="M250.264 418.789h-66.736c-.871 0-1.451.725-1.451 1.45v46.426c0 .87.58 1.45 1.451 1.45h66.738c.87 0 1.45-.58 1.45-1.45v-46.426c0-.725-.58-1.45-1.451-1.45h-.001zm-65.286 4.932l19.731 19.731-19.731 19.732v-39.463zm31.918 27.856L187.01 421.69h59.774l-29.888 29.887zm-10.156-6.094l9.14 9.14c.29.29.726.435 1.016.435.435 0 .725-.145 1.016-.435l9.14-9.14 19.73 19.732H187.01l19.73-19.732zm22.343-2.031l19.732-19.731v39.461l-19.732-19.73z" fill="#000"></path><path d="M333.087 466.385h-65.77l22.717-22.5 10.168 9.952 10.168-9.952 22.717 22.5z" fill="#FFD25B"></path><path d="M333.519 465.952v-45.865l-23.365 22.933 23.365 22.932zm-66.634 0v-45.865l23.365 22.933-23.365 22.932z" fill="#F2C357"></path><path d="M333.087 420.952h-65.77l32.452 32.452 33.318-32.452z" fill="#F0BB42"></path><path d="M333.341 418.789h-66.736c-.871 0-1.451.725-1.451 1.45v46.426c0 .87.58 1.45 1.451 1.45h66.738c.87 0 1.451-.58 1.451-1.45l-.001-46.426c0-.725-.58-1.45-1.451-1.45h-.001zm-65.286 4.932l19.731 19.731-19.731 19.732v-39.463zm31.918 27.856l-29.886-29.887h59.774l-29.888 29.887zm-10.156-6.094l9.14 9.14c.29.29.726.435 1.016.435.435 0 .725-.145 1.016-.435l9.14-9.14 19.73 19.732h-59.772l19.73-19.732zm22.343-2.031l19.732-19.731v39.461l-19.732-19.73z" fill="#000"></path><path d="M125.452 438.789v-11.94h3.975c.796 0 1.488.153 2.077.458.6.305 1.063.736 1.39 1.292.327.545.491 1.188.491 1.93 0 .741-.164 1.39-.491 1.946a3.35 3.35 0 01-1.39 1.276c-.589.305-1.281.458-2.077.458h-1.93v4.58h-2.045zm2.045-6.379h1.93c.578 0 1.036-.175 1.374-.524.338-.348.507-.801.507-1.357 0-.556-.169-1.009-.507-1.358-.338-.349-.796-.523-1.374-.523h-1.93v3.762zm7.795 6.379v-1.865l4.04-4.187c.414-.436.72-.845.916-1.227.207-.381.311-.768.311-1.161 0-.578-.158-1.025-.475-1.341-.316-.327-.741-.491-1.275-.491-.557 0-.998.169-1.325.507-.316.327-.475.785-.475 1.374h-2.044c.011-.763.174-1.417.491-1.963a3.4 3.4 0 011.341-1.292c.578-.305 1.259-.458 2.044-.458 1.145 0 2.056.317 2.732.949.687.632 1.03 1.494 1.03 2.584 0 .633-.163 1.26-.491 1.881-.316.611-.828 1.276-1.537 1.995l-2.78 2.846h4.955v1.849h-7.458zm73.16 0v-11.94h3.975c.796 0 1.488.153 2.077.458.6.305 1.063.736 1.39 1.292.327.545.491 1.188.491 1.93 0 .741-.164 1.39-.491 1.946a3.35 3.35 0 01-1.39 1.276c-.589.305-1.281.458-2.077.458h-1.93v4.58h-2.045zm2.045-6.379h1.93c.578 0 1.036-.175 1.374-.524.338-.348.507-.801.507-1.357 0-.556-.169-1.009-.507-1.358-.338-.349-.796-.523-1.374-.523h-1.93v3.762zm7.795 6.379v-1.865l4.04-4.187c.414-.436.72-.845.916-1.227.207-.381.311-.768.311-1.161 0-.578-.158-1.025-.475-1.341-.316-.327-.741-.491-1.275-.491-.557 0-.998.169-1.325.507-.316.327-.475.785-.475 1.374h-2.044c.011-.763.174-1.417.491-1.963a3.4 3.4 0 011.341-1.292c.578-.305 1.259-.458 2.044-.458 1.145 0 2.056.317 2.732.949.687.632 1.03 1.494 1.03 2.584 0 .633-.163 1.26-.491 1.881-.316.611-.828 1.276-1.537 1.995l-2.78 2.846h4.955v1.849h-7.458zm73.16 0v-11.94h3.975c.796 0 1.488.153 2.077.458.6.305 1.063.736 1.39 1.292.327.545.491 1.188.491 1.93 0 .741-.164 1.39-.491 1.946a3.35 3.35 0 01-1.39 1.276c-.589.305-1.281.458-2.077.458h-1.93v4.58h-2.045zm2.045-6.379h1.93c.578 0 1.036-.175 1.374-.524.338-.348.507-.801.507-1.357 0-.556-.169-1.009-.507-1.358-.338-.349-.796-.523-1.374-.523h-1.93v3.762zm7.795 6.379v-1.865l4.04-4.187c.414-.436.72-.845.916-1.227.207-.381.311-.768.311-1.161 0-.578-.158-1.025-.475-1.341-.316-.327-.741-.491-1.275-.491-.557 0-.998.169-1.325.507-.316.327-.475.785-.475 1.374h-2.044c.011-.763.174-1.417.491-1.963a3.4 3.4 0 011.341-1.292c.578-.305 1.259-.458 2.044-.458 1.145 0 2.056.317 2.732.949.687.632 1.03 1.494 1.03 2.584 0 .633-.163 1.26-.491 1.881-.316.611-.828 1.276-1.537 1.995l-2.78 2.846h4.955v1.849h-7.458z" fill="#000"></path><path d="M95.341 396v-11.895h4.694c.902 0 1.67.172 2.305.517a3.502 3.502 0 011.452 1.423c.337.604.506 1.301.506 2.091 0 .79-.171 1.487-.511 2.091a3.53 3.53 0 01-1.481 1.411c-.643.337-1.422.505-2.335.505h-2.992v-2.015h2.585c.484 0 .883-.083 1.197-.25.317-.17.553-.404.708-.703.159-.302.238-.648.238-1.039 0-.395-.079-.74-.238-1.034a1.59 1.59 0 00-.708-.691c-.318-.167-.721-.25-1.209-.25h-1.696V396h-2.514zm12.848.168c-.569 0-1.076-.098-1.522-.296a2.451 2.451 0 01-1.057-.888c-.255-.395-.383-.887-.383-1.476 0-.495.091-.912.273-1.248.182-.337.43-.608.743-.814a3.6 3.6 0 011.069-.464 8.153 8.153 0 011.266-.221 32.68 32.68 0 001.255-.151c.317-.05.548-.124.691-.221a.484.484 0 00.215-.429v-.035c0-.368-.116-.653-.349-.854-.228-.201-.553-.302-.975-.302-.446 0-.8.099-1.063.296a1.362 1.362 0 00-.523.732l-2.288-.186a3.107 3.107 0 01.685-1.406c.341-.398.78-.704 1.318-.917.543-.217 1.17-.325 1.882-.325.496 0 .97.058 1.423.174.457.116.862.296 1.214.54.356.244.637.557.842.941.206.379.308.834.308 1.365V396h-2.346v-1.237h-.07a2.497 2.497 0 01-.575.737c-.24.21-.529.374-.865.494a3.584 3.584 0 01-1.168.174zm.709-1.707c.364 0 .685-.072.964-.215.279-.147.497-.345.656-.592.159-.248.238-.529.238-.843v-.946c-.077.05-.184.096-.319.139a5.868 5.868 0 01-.447.11c-.167.031-.333.06-.5.087l-.453.064c-.29.043-.544.111-.761.204a1.212 1.212 0 00-.505.377.921.921 0 00-.18.581c0 .337.122.594.366.772.248.175.561.262.941.262zm6.235 1.539v-8.921h2.399v1.556h.093c.162-.553.435-.972.818-1.254.384-.287.825-.43 1.325-.43.124 0 .257.008.4.023.144.016.27.037.378.064v2.195a3.352 3.352 0 00-.482-.092 4.18 4.18 0 00-.563-.041c-.364 0-.69.079-.976.238a1.756 1.756 0 00-.674.651c-.163.278-.244.6-.244.964V396h-2.474zm11.885-8.921v1.858h-5.373v-1.858h5.373zm-4.153-2.138h2.474v8.318c0 .228.035.406.105.534a.57.57 0 00.29.261c.128.051.275.076.442.076.116 0 .232-.01.348-.029l.267-.053.389 1.842a7.265 7.265 0 01-.522.133 4.244 4.244 0 01-.819.099c-.597.023-1.119-.056-1.568-.238a2.189 2.189 0 01-1.04-.848c-.248-.383-.37-.868-.366-1.452v-8.643zM128.63 396v-8.921h2.474V396h-2.474zm1.242-10.071c-.367 0-.683-.122-.946-.366a1.185 1.185 0 01-.389-.889c0-.341.129-.633.389-.877.263-.248.579-.372.946-.372.368 0 .682.124.941.372.264.244.395.536.395.877 0 .345-.131.641-.395.889a1.323 1.323 0 01-.941.366zm7.959 1.15v1.858h-5.372v-1.858h5.372zm-4.153-2.138h2.475v8.318c0 .228.034.406.104.534.07.124.167.211.29.261.128.051.275.076.442.076.116 0 .232-.01.348-.029l.268-.053.389 1.842a7.178 7.178 0 01-.523.133 4.244 4.244 0 01-.819.099c-.596.023-1.119-.056-1.568-.238a2.194 2.194 0 01-1.04-.848c-.248-.383-.37-.868-.366-1.452v-8.643zM139.443 396v-8.921h2.474V396h-2.474zm1.243-10.071c-.368 0-.684-.122-.947-.366a1.188 1.188 0 01-.389-.889c0-.341.13-.633.389-.877.263-.248.579-.372.947-.372s.681.124.941.372c.263.244.395.536.395.877 0 .345-.132.641-.395.889-.26.244-.573.366-.941.366zm7.244 10.245c-.902 0-1.682-.191-2.341-.575a3.94 3.94 0 01-1.516-1.614c-.356-.694-.534-1.497-.534-2.411 0-.921.178-1.727.534-2.416a3.901 3.901 0 011.516-1.615c.659-.387 1.439-.58 2.341-.58.902 0 1.681.193 2.335.58a3.89 3.89 0 011.522 1.615c.356.689.534 1.495.534 2.416 0 .914-.178 1.717-.534 2.411a3.93 3.93 0 01-1.522 1.614c-.654.384-1.433.575-2.335.575zm.012-1.916c.41 0 .753-.117 1.028-.349.275-.236.482-.558.621-.964a4.17 4.17 0 00.215-1.388c0-.519-.072-.982-.215-1.388-.139-.407-.346-.728-.621-.965-.275-.236-.618-.354-1.028-.354-.415 0-.763.118-1.046.354-.279.237-.49.558-.633.965a4.276 4.276 0 00-.209 1.388c0 .519.07.981.209 1.388.143.406.354.728.633.964.283.232.631.349 1.046.349zm8.462-3.416V396h-2.474v-8.921h2.358v1.574h.105c.197-.519.528-.93.993-1.232.464-.306 1.028-.458 1.69-.458.619 0 1.16.135 1.62.406.461.271.819.658 1.075 1.162.255.499.383 1.096.383 1.789V396h-2.474v-5.239c.004-.546-.136-.972-.418-1.278-.283-.31-.672-.464-1.168-.464-.333 0-.627.071-.883.214a1.505 1.505 0 00-.592.628c-.139.271-.211.598-.215.981zM167.867 396v-1.812l4.234-3.921c.36-.348.662-.662.906-.941.248-.278.435-.551.563-.819.128-.271.192-.563.192-.877 0-.348-.08-.648-.238-.9a1.564 1.564 0 00-.651-.586 2.03 2.03 0 00-.935-.21c-.364 0-.681.074-.952.221a1.515 1.515 0 00-.628.633c-.147.275-.22.602-.22.982h-2.388c0-.778.177-1.454.529-2.027a3.524 3.524 0 011.481-1.33c.635-.314 1.367-.471 2.195-.471.852 0 1.594.151 2.225.453.635.298 1.129.713 1.481 1.243.352.531.529 1.139.529 1.824 0 .449-.089.893-.268 1.33-.174.438-.486.924-.935 1.458-.449.53-1.082 1.167-1.899 1.911l-1.737 1.702v.081h4.995V396h-8.479zM89.82 229.098v-2.513h11.838v2.513h-4.413V241h-3.013v-11.902H89.82zm16.375 12.113c-1.093 0-2.039-.232-2.836-.697a4.762 4.762 0 01-1.837-1.956c-.432-.84-.648-1.814-.648-2.921 0-1.117.216-2.093.648-2.929a4.702 4.702 0 011.837-1.956c.797-.47 1.743-.704 2.836-.704 1.094 0 2.037.234 2.83.704a4.693 4.693 0 011.844 1.956c.432.836.648 1.812.648 2.929 0 1.107-.216 2.081-.648 2.921a4.753 4.753 0 01-1.844 1.956c-.793.465-1.736.697-2.83.697zm.014-2.323c.498 0 .913-.14 1.246-.422.333-.286.584-.676.753-1.168.174-.493.261-1.054.261-1.683 0-.628-.087-1.189-.261-1.682-.169-.493-.42-.882-.753-1.168-.333-.287-.748-.43-1.246-.43-.502 0-.924.143-1.267.43-.337.286-.593.675-.767 1.168-.169.493-.253 1.054-.253 1.682 0 .629.084 1.19.253 1.683.174.492.43.882.767 1.168.343.282.765.422 1.267.422zm6.584 6.166v-14.865h2.956v1.816h.134c.131-.291.321-.587.57-.887a3.01 3.01 0 01.985-.761c.409-.206.915-.309 1.521-.309.788 0 1.515.206 2.182.619.666.408 1.199 1.025 1.598 1.851.398.822.598 1.852.598 3.09 0 1.206-.195 2.225-.584 3.055-.385.826-.911 1.452-1.577 1.879a4.042 4.042 0 01-2.224.634c-.582 0-1.077-.096-1.485-.289a3.062 3.062 0 01-.993-.725 3.656 3.656 0 01-.591-.894h-.092v5.786h-2.998zm2.935-9.46c0 .643.089 1.204.268 1.683.178.478.436.851.774 1.119.338.262.748.394 1.232.394.488 0 .901-.134 1.238-.401.338-.273.594-.648.768-1.127.178-.483.267-1.039.267-1.668 0-.624-.087-1.173-.26-1.647-.174-.474-.43-.844-.768-1.112-.337-.267-.753-.401-1.245-.401-.488 0-.901.129-1.239.387-.333.258-.589.624-.767 1.098-.179.474-.268 1.032-.268 1.675zm8.934 5.406v-10.811h2.999V241h-2.999zm1.507-12.205a1.63 1.63 0 01-1.148-.444 1.437 1.437 0 01-.471-1.076c0-.413.157-.768.471-1.063.32-.301.702-.451 1.148-.451.446 0 .826.15 1.14.451.319.295.479.65.479 1.063 0 .417-.16.776-.479 1.076a1.602 1.602 0 01-1.14.444zm8.105 12.416c-1.107 0-2.06-.234-2.857-.704a4.759 4.759 0 01-1.83-1.971c-.423-.839-.634-1.806-.634-2.899 0-1.108.214-2.079.641-2.915a4.756 4.756 0 011.837-1.963c.793-.474 1.736-.711 2.829-.711.944 0 1.769.171 2.478.514a4.13 4.13 0 011.682 1.443c.413.619.641 1.346.683 2.182h-2.83c-.079-.54-.291-.974-.633-1.303-.338-.333-.781-.499-1.33-.499-.465 0-.871.126-1.218.38-.343.248-.61.612-.803 1.091-.192.478-.288 1.058-.288 1.738 0 .69.094 1.277.281 1.76.193.483.463.852.81 1.105.347.253.753.38 1.218.38.342 0 .65-.07.922-.211a1.78 1.78 0 00.682-.612c.183-.273.303-.599.359-.979h2.83c-.047.826-.272 1.553-.676 2.182a4.083 4.083 0 01-1.654 1.464c-.704.352-1.537.528-2.499.528zm12.53-.211h-3.266l4.977-14.415h3.927l4.97 14.415h-3.266l-3.611-11.121h-.113L146.804 241zm-.204-5.666h7.715v2.379H146.6v-2.379z" fill="#1A1A1A"></path><path fill-rule="evenodd" clip-rule="evenodd" d="M76 553.184A8.184 8.184 0 0184.184 545h265.632a8.184 8.184 0 018.184 8.184v104.632a8.184 8.184 0 01-8.184 8.184H84.184A8.184 8.184 0 0176 657.816V553.184z" fill="#FEF5FC"></path><rect x="89" y="585" width="255" height="69" rx="5" fill="#53777A" fill-opacity="0.2" stroke="#53777A" stroke-width="2" stroke-dasharray="10 10"></rect><path d="M165.933 642.596h-65.769l22.716-22.5 10.168 9.952 10.168-9.952 22.717 22.5z" fill="#FAD1F1"></path><path d="M166.365 642.164v-45.866L143 619.231l23.365 22.933zm-66.635 0v-45.866l23.366 22.933-23.365 22.933z" fill="#F8BAEA"></path><path d="M165.933 597.164h-65.769l32.451 32.451 33.318-32.451z" fill="#F59EE1"></path><path d="M166.187 595H99.451c-.87 0-1.451.725-1.451 1.45v46.426c0 .87.58 1.451 1.451 1.451h66.738c.87 0 1.451-.581 1.451-1.451l-.001-46.426c0-.725-.58-1.45-1.451-1.45h-.001zm-65.286 4.932l19.731 19.732-19.731 19.731v-39.463zm31.918 27.856l-29.886-29.886h59.774l-29.888 29.886zm-10.156-6.093l9.14 9.14c.29.29.726.435 1.016.435.435 0 .725-.145 1.016-.435l9.14-9.14 19.73 19.731h-59.772l19.73-19.731zm22.343-2.031l19.732-19.732v39.462l-19.732-19.73z" fill="#000"></path><path d="M249.01 642.596h-65.77l22.717-22.5 10.168 9.952 10.168-9.952 22.717 22.5z" fill="#FAD1F1"></path><path d="M249.442 642.164v-45.866l-23.365 22.933 23.365 22.933zm-66.634 0v-45.866l23.365 22.933-23.365 22.933z" fill="#F8BAEA"></path><path d="M249.01 597.164h-65.77l32.452 32.451 33.318-32.451z" fill="#F59EE1"></path><path d="M249.264 595h-66.736c-.871 0-1.451.725-1.451 1.45v46.426c0 .87.58 1.451 1.451 1.451h66.738c.87 0 1.45-.581 1.45-1.451V596.45c0-.725-.58-1.45-1.451-1.45h-.001zm-65.286 4.932l19.731 19.732-19.731 19.731v-39.463zm31.918 27.856l-29.886-29.886h59.774l-29.888 29.886zm-10.156-6.093l9.14 9.14c.29.29.726.435 1.016.435.435 0 .725-.145 1.016-.435l9.14-9.14 19.73 19.731H186.01l19.73-19.731zm22.343-2.031l19.732-19.732v39.462l-19.732-19.73z" fill="#000"></path><path d="M332.087 642.596h-65.77l22.717-22.5 10.168 9.952 10.168-9.952 22.717 22.5z" fill="#FAD1F1"></path><path d="M332.519 642.164v-45.866l-23.365 22.933 23.365 22.933zm-66.634 0v-45.866l23.365 22.933-23.365 22.933z" fill="#F8BAEA"></path><path d="M332.087 597.164h-65.77l32.452 32.451 33.318-32.451z" fill="#F59EE1"></path><path d="M332.341 595h-66.736c-.871 0-1.451.725-1.451 1.45v46.426c0 .87.58 1.451 1.451 1.451h66.738c.87 0 1.451-.581 1.451-1.451l-.001-46.426c0-.725-.58-1.45-1.451-1.45h-.001zm-65.286 4.932l19.731 19.732-19.731 19.731v-39.463zm31.918 27.856l-29.886-29.886h59.774l-29.888 29.886zm-10.156-6.093l9.14 9.14c.29.29.726.435 1.016.435.435 0 .725-.145 1.016-.435l9.14-9.14 19.73 19.731h-59.772l19.73-19.731zm22.343-2.031l19.732-19.732v39.462l-19.732-19.73z" fill="#000"></path><path d="M124.452 615v-11.94h3.975c.796 0 1.488.153 2.077.458.6.306 1.063.736 1.39 1.292.327.546.491 1.189.491 1.93 0 .742-.164 1.391-.491 1.947-.327.545-.79.97-1.39 1.275-.589.306-1.281.458-2.077.458h-1.93V615h-2.045zm2.045-6.379h1.93c.578 0 1.036-.174 1.374-.523.338-.349.507-.802.507-1.358s-.169-1.008-.507-1.357c-.338-.349-.796-.524-1.374-.524h-1.93v3.762zm7.877 6.379v-1.848h3.107v-8.276l-3.123 2.322v-2.159l2.747-1.979h2.421v10.092h2.502V615h-7.654zm73.078 0v-11.94h3.975c.796 0 1.488.153 2.077.458.6.306 1.063.736 1.39 1.292.327.546.491 1.189.491 1.93 0 .742-.164 1.391-.491 1.947-.327.545-.79.97-1.39 1.275-.589.306-1.281.458-2.077.458h-1.93V615h-2.045zm2.045-6.379h1.93c.578 0 1.036-.174 1.374-.523.338-.349.507-.802.507-1.358s-.169-1.008-.507-1.357c-.338-.349-.796-.524-1.374-.524h-1.93v3.762zm7.877 6.379v-1.848h3.107v-8.276l-3.123 2.322v-2.159l2.747-1.979h2.421v10.092h2.502V615h-7.654zm73.078 0v-11.94h3.975c.796 0 1.488.153 2.077.458.6.306 1.063.736 1.39 1.292.327.546.491 1.189.491 1.93 0 .742-.164 1.391-.491 1.947-.327.545-.79.97-1.39 1.275-.589.306-1.281.458-2.077.458h-1.93V615h-2.045zm2.045-6.379h1.93c.578 0 1.036-.174 1.374-.523.338-.349.507-.802.507-1.358s-.169-1.008-.507-1.357c-.338-.349-.796-.524-1.374-.524h-1.93v3.762zm7.877 6.379v-1.848h3.107v-8.276l-3.123 2.322v-2.159l2.747-1.979h2.421v10.092h2.502V615h-7.654z" fill="#000"></path><path d="M94.341 572.211v-11.895h4.694c.902 0 1.67.173 2.305.517a3.502 3.502 0 011.452 1.423c.337.604.506 1.301.506 2.091 0 .79-.171 1.487-.511 2.091a3.532 3.532 0 01-1.481 1.412c-.643.336-1.422.505-2.335.505h-2.992v-2.016h2.585c.484 0 .883-.083 1.197-.249a1.66 1.66 0 00.708-.703 2.2 2.2 0 00.238-1.04c0-.395-.079-.739-.238-1.034a1.593 1.593 0 00-.709-.691c-.317-.166-.72-.25-1.208-.25h-1.696v9.839h-2.514zm12.848.169c-.569 0-1.076-.099-1.522-.296a2.46 2.46 0 01-1.057-.889c-.255-.395-.383-.887-.383-1.475 0-.496.091-.912.273-1.249.182-.337.43-.608.743-.813.314-.205.67-.36 1.069-.465a8.273 8.273 0 011.266-.221 30.78 30.78 0 001.255-.151c.317-.05.548-.123.691-.22a.486.486 0 00.215-.43v-.035c0-.368-.116-.652-.349-.854-.228-.201-.553-.302-.975-.302-.446 0-.8.099-1.063.296a1.362 1.362 0 00-.523.732l-2.288-.186c.116-.542.344-1.01.685-1.405a3.29 3.29 0 011.318-.918c.543-.217 1.17-.325 1.882-.325.496 0 .97.058 1.423.174.457.116.862.296 1.214.54.356.244.637.558.842.941.206.38.308.835.308 1.365v6.017h-2.346v-1.237h-.07a2.514 2.514 0 01-.575.738 2.67 2.67 0 01-.865.494 3.584 3.584 0 01-1.168.174zm.709-1.708c.364 0 .685-.071.964-.215.279-.147.497-.344.656-.592.159-.248.238-.529.238-.842v-.947c-.077.05-.184.097-.319.139a5.842 5.842 0 01-.447.111c-.167.031-.333.06-.5.087l-.453.064a3.04 3.04 0 00-.761.203 1.214 1.214 0 00-.505.378.916.916 0 00-.18.58c0 .337.122.595.366.773.248.174.561.261.941.261zm6.235 1.539v-8.921h2.399v1.557h.093c.162-.554.435-.972.818-1.255.384-.286.825-.43 1.325-.43a3.606 3.606 0 01.778.087v2.196a3.199 3.199 0 00-.482-.093 4.35 4.35 0 00-.563-.041c-.364 0-.69.08-.976.238a1.756 1.756 0 00-.674.651c-.163.279-.244.6-.244.964v5.047h-2.474zm11.885-8.921v1.859h-5.373v-1.859h5.373zm-4.153-2.137h2.474v8.317c0 .228.035.407.105.534a.576.576 0 00.29.262c.128.05.275.075.442.075.116 0 .232-.009.348-.029l.267-.052.389 1.841a7.173 7.173 0 01-.522.134 4.174 4.174 0 01-.819.098c-.597.024-1.119-.056-1.568-.238a2.183 2.183 0 01-1.04-.848c-.248-.383-.37-.867-.366-1.452v-8.642zm5.765 11.058v-8.921h2.474v8.921h-2.474zm1.242-10.071c-.367 0-.683-.122-.946-.366a1.184 1.184 0 01-.389-.888c0-.341.129-.634.389-.878.263-.247.579-.371.946-.371.368 0 .682.124.941.371.264.244.395.537.395.878 0 .344-.131.64-.395.888a1.323 1.323 0 01-.941.366zm7.959 1.15v1.859h-5.372v-1.859h5.372zm-4.153-2.137h2.475v8.317c0 .228.034.407.104.534.07.124.167.211.29.262.128.05.275.075.442.075.116 0 .232-.009.348-.029l.268-.052.389 1.841a7.088 7.088 0 01-.523.134 4.174 4.174 0 01-.819.098c-.596.024-1.119-.056-1.568-.238a2.188 2.188 0 01-1.04-.848c-.248-.383-.37-.867-.366-1.452v-8.642zm5.765 11.058v-8.921h2.474v8.921h-2.474zm1.243-10.071c-.368 0-.684-.122-.947-.366a1.188 1.188 0 01-.389-.888c0-.341.13-.634.389-.878.263-.247.579-.371.947-.371s.681.124.941.371c.263.244.395.537.395.878 0 .344-.132.64-.395.888-.26.244-.573.366-.941.366zm7.244 10.246c-.902 0-1.682-.192-2.341-.575a3.95 3.95 0 01-1.516-1.615c-.356-.693-.534-1.497-.534-2.41 0-.922.178-1.727.534-2.417a3.893 3.893 0 011.516-1.614c.659-.387 1.439-.581 2.341-.581.902 0 1.681.194 2.335.581a3.881 3.881 0 011.522 1.614c.356.69.534 1.495.534 2.417 0 .913-.178 1.717-.534 2.41a3.938 3.938 0 01-1.522 1.615c-.654.383-1.433.575-2.335.575zm.012-1.917c.41 0 .753-.116 1.028-.349.275-.236.482-.557.621-.964.143-.406.215-.869.215-1.388a4.17 4.17 0 00-.215-1.388c-.139-.407-.346-.728-.621-.964s-.618-.354-1.028-.354c-.415 0-.763.118-1.046.354-.279.236-.49.557-.633.964a4.28 4.28 0 00-.209 1.388c0 .519.07.982.209 1.388.143.407.354.728.633.964.283.233.631.349 1.046.349zm8.462-3.415v5.157h-2.474v-8.921h2.358v1.574h.105c.197-.519.528-.929.993-1.231.464-.306 1.028-.459 1.69-.459.619 0 1.16.135 1.62.407.461.271.819.658 1.075 1.161.255.5.383 1.096.383 1.789v5.68h-2.474v-5.239c.004-.545-.136-.971-.418-1.277-.283-.31-.672-.465-1.168-.465a1.78 1.78 0 00-.883.215 1.497 1.497 0 00-.592.627c-.139.271-.211.598-.215.982zm16.638-6.738v11.895h-2.515v-9.508h-.07l-2.724 1.708v-2.23l2.945-1.865h2.364zM88.82 524.098v-2.513h11.838v2.513h-4.413V536h-3.013v-11.902H88.82zm16.375 12.113c-1.093 0-2.039-.232-2.836-.697a4.762 4.762 0 01-1.837-1.956c-.432-.84-.648-1.814-.648-2.921 0-1.117.216-2.093.648-2.929a4.702 4.702 0 011.837-1.956c.797-.47 1.743-.704 2.836-.704 1.094 0 2.037.234 2.83.704a4.693 4.693 0 011.844 1.956c.432.836.648 1.812.648 2.929 0 1.107-.216 2.081-.648 2.921a4.753 4.753 0 01-1.844 1.956c-.793.465-1.736.697-2.83.697zm.014-2.323c.498 0 .913-.14 1.246-.422.333-.286.584-.676.753-1.168.174-.493.261-1.054.261-1.683 0-.628-.087-1.189-.261-1.682-.169-.493-.42-.882-.753-1.168-.333-.287-.748-.43-1.246-.43-.502 0-.924.143-1.267.43-.337.286-.593.675-.767 1.168-.169.493-.253 1.054-.253 1.682 0 .629.084 1.19.253 1.683.174.492.43.882.767 1.168.343.282.765.422 1.267.422zm6.584 6.166v-14.865h2.956v1.816h.134c.131-.291.321-.587.57-.887a3.01 3.01 0 01.985-.761c.409-.206.915-.309 1.521-.309.788 0 1.515.206 2.182.619.666.408 1.199 1.025 1.598 1.851.398.822.598 1.852.598 3.09 0 1.206-.195 2.225-.584 3.055-.385.826-.911 1.452-1.577 1.879a4.042 4.042 0 01-2.224.634c-.582 0-1.077-.096-1.485-.289a3.062 3.062 0 01-.993-.725 3.656 3.656 0 01-.591-.894h-.092v5.786h-2.998zm2.935-9.46c0 .643.089 1.204.268 1.683.178.478.436.851.774 1.119.338.262.748.394 1.232.394.488 0 .901-.134 1.238-.401.338-.273.594-.648.768-1.127.178-.483.267-1.039.267-1.668 0-.624-.087-1.173-.26-1.647-.174-.474-.43-.844-.768-1.112-.337-.267-.753-.401-1.245-.401-.488 0-.901.129-1.239.387-.333.258-.589.624-.767 1.098-.179.474-.268 1.032-.268 1.675zm8.934 5.406v-10.811h2.999V536h-2.999zm1.507-12.205a1.63 1.63 0 01-1.148-.444 1.437 1.437 0 01-.471-1.076c0-.413.157-.768.471-1.063.32-.301.702-.451 1.148-.451.446 0 .826.15 1.14.451.319.295.479.65.479 1.063 0 .417-.16.776-.479 1.076a1.602 1.602 0 01-1.14.444zm8.105 12.416c-1.107 0-2.06-.234-2.857-.704a4.759 4.759 0 01-1.83-1.971c-.423-.839-.634-1.806-.634-2.899 0-1.108.214-2.079.641-2.915a4.756 4.756 0 011.837-1.963c.793-.474 1.736-.711 2.829-.711.944 0 1.769.171 2.478.514a4.13 4.13 0 011.682 1.443c.413.619.641 1.346.683 2.182h-2.83c-.079-.54-.291-.974-.633-1.303-.338-.333-.781-.499-1.33-.499-.465 0-.871.126-1.218.38-.343.248-.61.612-.803 1.091-.192.478-.288 1.058-.288 1.738 0 .69.094 1.277.281 1.76.193.483.463.852.81 1.105.347.253.753.38 1.218.38.342 0 .65-.07.922-.211a1.78 1.78 0 00.682-.612c.183-.273.303-.599.359-.979h2.83c-.047.826-.272 1.553-.676 2.182a4.083 4.083 0 01-1.654 1.464c-.704.352-1.537.528-2.499.528zM143.32 536v-14.415h5.771c1.061 0 1.946.157 2.654.471.709.315 1.241.751 1.598 1.31.356.553.535 1.191.535 1.914 0 .563-.113 1.058-.338 1.485-.225.423-.535.77-.929 1.042-.39.267-.835.457-1.338.57v.141a3.297 3.297 0 012.717 1.668c.301.512.451 1.122.451 1.83 0 .765-.19 1.448-.57 2.048-.376.596-.932 1.068-1.668 1.415-.737.347-1.645.521-2.724.521h-6.159zm3.048-2.492h2.484c.85 0 1.469-.162 1.858-.485.39-.329.585-.765.585-1.31 0-.398-.097-.75-.289-1.055a1.953 1.953 0 00-.824-.718c-.351-.174-.771-.261-1.259-.261h-2.555v3.829zm0-5.891h2.259c.418 0 .788-.073 1.112-.218.329-.15.587-.362.774-.634.193-.272.289-.598.289-.978 0-.521-.185-.941-.556-1.26-.366-.319-.887-.479-1.563-.479h-2.315v3.569z" fill="#1A1A1A"></path><path d="M278.678 194.183a2.213 2.213 0 00-1.594-.669 2.184 2.184 0 00-1.582.669h-.011a2.289 2.289 0 00-.661 1.618 2.28 2.28 0 00.654 1.614l.011.011a2.184 2.184 0 001.582.662c.627 0 1.189-.251 1.594-.662l.004-.011c.406-.407.645-.977.645-1.614a2.296 2.296 0 00-.652-1.618h.01zm-1.594 31.304c.627 0 1.189-.26 1.594-.667l.005-.011c.405-.406.645-.979.645-1.609 0-.645-.248-1.208-.645-1.621h-.005a2.203 2.203 0 00-1.594-.671 2.173 2.173 0 00-1.582.671h-.011a2.307 2.307 0 00-.654 1.621 2.28 2.28 0 00.654 1.609l.011.011a2.217 2.217 0 001.582.666v.001zm12.244-6.928a2.235 2.235 0 001.369-1.062l.041-.081c.266-.51.329-1.101.178-1.656a2.229 2.229 0 00-1.048-1.39l-.031-.022a2.21 2.21 0 00-1.673-.205 2.204 2.204 0 00-1.367 1.066 2.337 2.337 0 00-.227 1.738c.155.582.53 1.082 1.047 1.392h.004a2.19 2.19 0 001.708.215l-.001.005zm-9.945-11.395a3.23 3.23 0 00-2.305-.975 3.21 3.21 0 00-2.301.974 3.324 3.324 0 00-.948 2.34c-.003.877.338 1.72.948 2.35a3.223 3.223 0 002.294.967c.893 0 1.715-.372 2.305-.967.611-.63.952-1.473.95-2.351a3.32 3.32 0 00-.95-2.34l.007.002zm-1.29-3.898a6.152 6.152 0 013.38 1.777h.007c.144.148.281.302.41.464l2.244-1.321a4.94 4.94 0 01-.074-2.807 4.892 4.892 0 012.259-2.991l.038-.024a4.743 4.743 0 013.639-.475 4.838 4.838 0 012.938 2.293v.004a5.002 5.002 0 01.485 3.738 4.882 4.882 0 01-2.259 2.994l-.306.184h-.031a4.797 4.797 0 01-3.342.312 4.844 4.844 0 01-2.348-1.465l-2.241 1.316a6.454 6.454 0 010 4.471l2.241 1.314a4.808 4.808 0 012.348-1.466 4.714 4.714 0 013.679.496l.075.036v.003a4.913 4.913 0 012.184 2.96c.332 1.26.158 2.6-.485 3.734l-.04.083h-.005a4.89 4.89 0 01-2.897 2.23 4.806 4.806 0 01-3.68-.493v-.01a4.901 4.901 0 01-2.259-2.992 4.936 4.936 0 01.073-2.803l-2.243-1.317a6.335 6.335 0 01-.41.457l-.008.007a6.113 6.113 0 01-3.379 1.766v2.638c.92.198 1.762.664 2.42 1.338l.003.007a4.945 4.945 0 011.419 3.483 4.94 4.94 0 01-1.419 3.476l-.003.014a4.83 4.83 0 01-3.428 1.436 4.8 4.8 0 01-3.423-1.444h-.003v-.014a4.948 4.948 0 01-1.422-3.477 4.95 4.95 0 011.422-3.483v-.007h.003a4.723 4.723 0 012.418-1.338v-2.637a6.035 6.035 0 01-3.368-1.767l-.009-.007a6.36 6.36 0 01-1.829-4.463 6.36 6.36 0 011.82-4.459h.009a6.128 6.128 0 013.377-1.777v-2.627a4.875 4.875 0 01-2.419-1.341h-.003v-.007a4.957 4.957 0 01-1.421-3.484 4.965 4.965 0 011.421-3.483l.011-.004a4.767 4.767 0 013.416-1.447 4.8 4.8 0 013.429 1.447v.004h.003a4.966 4.966 0 011.419 3.483 4.973 4.973 0 01-1.419 3.483l-.003.007a4.882 4.882 0 01-2.421 1.342v2.626l.007.007zm12.602-1.752l-.018-.028a2.257 2.257 0 00-2.228-1.098c-.294.04-.578.137-.833.288h.003c-.538.311-.899.82-1.05 1.39a2.322 2.322 0 00.226 1.738l.01.014c.311.538.805.9 1.357 1.045a2.17 2.17 0 001.704-.223l.029-.015a2.326 2.326 0 00.8-3.111zm9.956.772h2.504v7.777l3.61-4.063h3.01l-4.359 4.708 4.363 5.959h-2.867l-3.764-5.331v5.331h-2.504v-14.388l.007.007zm12.017 9.09c0 1.324.936 3.249 3.192 3.249 1.395 0 2.313-.74 2.79-1.709.249-.471.364-.975.402-1.505a3.401 3.401 0 00-.288-1.502c-.438-1.008-1.413-1.882-2.922-1.882-2.025 0-3.173 1.669-3.173 3.323v.018l-.001.008zm8.867 5.291h-2.505v-1.536c-.666 1.242-2.062 1.865-3.534 1.865-3.364 0-5.332-2.666-5.332-5.677 0-3.363 2.388-5.657 5.332-5.657 1.91 0 3.076 1.03 3.534 1.887v-1.558h2.505v10.676zm2.836-8.711h-1.29v-1.963h1.29v-.602c0-3.172 2.37-3.364 4.167-3.384v1.96c-.632 0-1.662 0-1.662 1.501v.523h1.662v1.964h-1.662v8.712h-2.505v-8.711zm5.876-5.677h2.503v7.777l3.612-4.063h3.01l-4.359 4.708 4.367 5.966h-2.867l-3.764-5.331v5.331h-2.502v-14.388zm12.025 9.097c0 1.324.936 3.249 3.192 3.249 1.393 0 2.312-.74 2.795-1.709.251-.471.358-.975.403-1.505a3.401 3.401 0 00-.289-1.502c-.43-1.008-1.412-1.882-2.922-1.882-2.025 0-3.173 1.669-3.173 3.323v.018l-.006.008zm8.858 5.291h-2.504v-1.536c-.668 1.242-2.064 1.865-3.534 1.865-3.364 0-5.33-2.666-5.33-5.677 0-3.363 2.386-5.657 5.33-5.657 1.91 0 3.076 1.03 3.534 1.887v-1.558h2.504v10.676z" fill="#1A464C"></path><path fill-rule="evenodd" clip-rule="evenodd" d="M780 744.599v42.402a3.942 3.942 0 01-.172 1.161 4.05 4.05 0 01-.502 1.061 4.013 4.013 0 01-2.933 1.758 3.956 3.956 0 01-.392.019H422.999a3.942 3.942 0 01-1.161-.172 4.05 4.05 0 01-1.061-.502 4.013 4.013 0 01-1.758-2.933 3.942 3.942 0 01-.019-.392v-42.402a3.942 3.942 0 01.172-1.161 4.05 4.05 0 01.502-1.061 4.013 4.013 0 012.933-1.758c.13-.012.261-.019.392-.019h353.002a3.86 3.86 0 011.161.172 4.104 4.104 0 011.061.502 4.013 4.013 0 011.758 2.933c.013.13.019.261.019.392z" fill="#7C7C7C"></path><path fill-rule="evenodd" clip-rule="evenodd" d="M470.212 751.52H708.64v6.72H470.212v-6.72z" fill="#D8D8D8"></path><path fill-rule="evenodd" clip-rule="evenodd" d="M429.914 751.52h15.112v6.72h-15.112v-6.72z" fill="#D7D7D7"></path><path fill-rule="evenodd" clip-rule="evenodd" d="M742.221 751.52h6.716v6.72h-6.716v-6.72z" fill="#D7D400"></path><path fill-rule="evenodd" clip-rule="evenodd" d="M732.146 751.52h6.717v6.72h-6.717v-6.72z" fill="#FF3C00"></path><path fill-rule="evenodd" clip-rule="evenodd" d="M753.974 751.52h15.112v6.72h-15.112v-6.72z" fill="#00CD00"></path><path fill-rule="evenodd" clip-rule="evenodd" d="M470.212 762.44H708.64v6.72H470.212v-6.72z" fill="#D8D8D8"></path><path fill-rule="evenodd" clip-rule="evenodd" d="M429.914 762.44h15.112v6.72h-15.112v-6.72z" fill="#D7D7D7"></path><path fill-rule="evenodd" clip-rule="evenodd" d="M742.221 762.44h6.716v6.72h-6.716v-6.72z" fill="#D7D400"></path><path fill-rule="evenodd" clip-rule="evenodd" d="M732.146 762.44h6.717v6.72h-6.717v-6.72z" fill="#FF3C00"></path><path fill-rule="evenodd" clip-rule="evenodd" d="M753.974 762.44h15.112v6.72h-15.112v-6.72z" fill="#00CD00"></path><path fill-rule="evenodd" clip-rule="evenodd" d="M470.212 773.36H708.64v6.72H470.212v-6.72z" fill="#D8D8D8"></path><path fill-rule="evenodd" clip-rule="evenodd" d="M429.914 773.36h15.112v6.72h-15.112v-6.72z" fill="#D7D7D7"></path><path fill-rule="evenodd" clip-rule="evenodd" d="M742.221 773.36h6.716v6.72h-6.716v-6.72z" fill="#D7D400"></path><path fill-rule="evenodd" clip-rule="evenodd" d="M732.146 773.36h6.717v6.72h-6.717v-6.72z" fill="#FF3C00"></path><path fill-rule="evenodd" clip-rule="evenodd" d="M753.974 773.36h15.112v6.72h-15.112v-6.72z" fill="#00CD00"></path><path fill-rule="evenodd" clip-rule="evenodd" d="M780 115.584v612.832a7.688 7.688 0 01-.172 1.621 7.053 7.053 0 01-.3 1.011 6.344 6.344 0 01-.436.911 4.888 4.888 0 01-.869 1.1 3.62 3.62 0 01-1.061.701 2.962 2.962 0 01-.381.132 2.876 2.876 0 01-.78.108H422.999a2.858 2.858 0 01-.78-.108 2.962 2.962 0 01-.381-.132 3.62 3.62 0 01-1.061-.701 4.888 4.888 0 01-.869-1.1 6.344 6.344 0 01-.436-.911 6.872 6.872 0 01-.3-1.011 7.42 7.42 0 01-.172-1.621V115.584a7.668 7.668 0 01.304-2.137 6.21 6.21 0 01.604-1.405 5.337 5.337 0 01.554-.774 4.253 4.253 0 01.652-.609 3.62 3.62 0 01.724-.419 3.129 3.129 0 01.769-.213c.13-.018.261-.027.392-.027h353.002a2.87 2.87 0 01.78.107 3.129 3.129 0 01.75.318 3.62 3.62 0 01.692.516 4.907 4.907 0 01.869 1.101 5.918 5.918 0 01.436.91 7.214 7.214 0 01.395 1.543 8.087 8.087 0 01.077 1.089z" fill="#7C7C7C"></path><path fill-rule="evenodd" clip-rule="evenodd" d="M431.998 140h335.004a1.435 1.435 0 01.58.125 1.705 1.705 0 01.53.362 2.327 2.327 0 01.434.571 3.096 3.096 0 01.302.728 3.718 3.718 0 01.114.542c.013.093.022.187.028.281.007.094.01.189.01.284v558.214c0 .095-.003.189-.01.284a3.764 3.764 0 01-.142.823 3.334 3.334 0 01-.433.938 2.183 2.183 0 01-.146.191 1.96 1.96 0 01-.325.315 1.996 1.996 0 01-.177.122 1.734 1.734 0 01-.375.165 1.31 1.31 0 01-.194.04c-.065.01-.131.015-.196.015H431.998c-.065 0-.131-.005-.196-.015a1.31 1.31 0 01-.384-.109 1.806 1.806 0 01-.53-.364 2.14 2.14 0 01-.303-.359 2.853 2.853 0 01-.349-.683 3.334 3.334 0 01-.15-.523 4.272 4.272 0 01-.076-.556 3.85 3.85 0 01-.01-.284V142.893a4.38 4.38 0 01.038-.565 4.154 4.154 0 01.114-.542 3.51 3.51 0 01.185-.5c.036-.079.075-.155.117-.228a2.59 2.59 0 01.434-.571 1.895 1.895 0 01.53-.362 1.4 1.4 0 01.384-.111c.065-.009.131-.014.196-.014z" fill="#fff"></path><path fill-rule="evenodd" clip-rule="evenodd" d="M429.914 124.08h339.172v6.72H429.914v-6.72zm0 589.64h339.172v6.72H429.914v-6.72z" fill="#D7D7D7"></path><path d="M459.063 169v-12.233h4.898c.9 0 1.651.134 2.252.4.601.267 1.053.638 1.356 1.111.302.47.454 1.012.454 1.625 0 .478-.096.898-.287 1.26a2.472 2.472 0 01-.788.884 3.226 3.226 0 01-1.135.484v.12a2.792 2.792 0 012.305 1.415c.255.434.383.952.383 1.553 0 .649-.162 1.229-.484 1.738-.319.506-.791.906-1.416 1.201-.625.295-1.396.442-2.311.442h-5.227zm2.587-2.114h2.108c.721 0 1.246-.138 1.577-.413.33-.278.496-.649.496-1.111 0-.338-.082-.637-.245-.896a1.676 1.676 0 00-.699-.609c-.299-.147-.655-.221-1.069-.221h-2.168v3.25zm0-5h1.917c.354 0 .669-.062.944-.185.278-.127.497-.307.657-.538.163-.231.245-.507.245-.83 0-.442-.158-.798-.472-1.069-.311-.271-.753-.406-1.326-.406h-1.965v3.028zm7.86 7.114v-12.233h4.826c.924 0 1.713.166 2.366.496.657.327 1.156.79 1.499 1.392.346.597.519 1.3.519 2.108 0 .813-.175 1.511-.525 2.097-.351.581-.858 1.027-1.523 1.338-.661.31-1.462.466-2.401.466h-3.232v-2.079h2.813c.494 0 .904-.068 1.231-.203a1.47 1.47 0 00.729-.609c.163-.271.244-.608.244-1.01 0-.406-.081-.748-.244-1.027a1.504 1.504 0 00-.735-.633c-.327-.148-.739-.221-1.237-.221h-1.744V169h-2.586zm6.606-5.567l3.04 5.567h-2.855l-2.974-5.567h2.789zm15-.549c0 1.334-.253 2.468-.759 3.404-.501.936-1.186 1.651-2.054 2.145-.864.489-1.836.734-2.915.734-1.087 0-2.063-.247-2.927-.74-.864-.494-1.547-1.209-2.049-2.145-.501-.935-.752-2.068-.752-3.398 0-1.334.251-2.469.752-3.405.502-.936 1.185-1.649 2.049-2.138.864-.494 1.84-.741 2.927-.741 1.079 0 2.051.247 2.915.741.868.489 1.553 1.202 2.054 2.138.506.936.759 2.071.759 3.405zm-2.622 0c0-.864-.13-1.593-.388-2.186-.255-.594-.616-1.044-1.082-1.35-.465-.307-1.011-.46-1.636-.46s-1.171.153-1.637.46c-.466.306-.828.756-1.087 1.35-.255.593-.382 1.322-.382 2.186 0 .864.127 1.592.382 2.186.259.593.621 1.043 1.087 1.35.466.306 1.012.46 1.637.46s1.171-.154 1.636-.46c.466-.307.827-.757 1.082-1.35.258-.594.388-1.322.388-2.186zm3.864 6.116v-12.233h2.587v5.394h.161l4.402-5.394h3.1l-4.539 5.478 4.593 6.755h-3.094l-3.351-5.029-1.272 1.553V169h-2.587zm10.924 0v-12.233h8.242v2.133h-5.656v2.914h5.232v2.133h-5.232v2.921h5.68V169h-8.266zm9.625 0v-12.233h4.826c.924 0 1.713.166 2.366.496.657.327 1.157.79 1.499 1.392.346.597.52 1.3.52 2.108 0 .813-.176 1.511-.526 2.097-.35.581-.858 1.027-1.523 1.338-.661.31-1.461.466-2.401.466h-3.232v-2.079h2.814c.493 0 .904-.068 1.23-.203.327-.135.57-.339.729-.609.163-.271.245-.608.245-1.01 0-.406-.082-.748-.245-1.027a1.496 1.496 0 00-.735-.633c-.326-.148-.739-.221-1.236-.221h-1.744V169h-2.587zm6.606-5.567l3.041 5.567h-2.855l-2.975-5.567h2.789zM526.42 169v-1.864l4.354-4.031c.37-.359.681-.681.932-.968.255-.287.448-.567.579-.842.132-.279.197-.58.197-.902 0-.358-.081-.667-.244-.926a1.612 1.612 0 00-.669-.603 2.092 2.092 0 00-.962-.215c-.374 0-.701.075-.98.227a1.569 1.569 0 00-.645.651c-.151.283-.227.619-.227 1.009H526.3c0-.8.182-1.495.544-2.084a3.62 3.62 0 011.523-1.368c.653-.323 1.406-.484 2.258-.484.876 0 1.638.155 2.288.466.653.307 1.16.733 1.523 1.278.362.546.543 1.171.543 1.876 0 .462-.091.918-.275 1.367-.179.45-.499.95-.961 1.5-.462.545-1.113 1.2-1.953 1.965l-1.786 1.75v.084h5.136V169h-8.72z" fill="#919191"></path><path d="M739.109 178H459.891c-6.567 0-11.891 5.324-11.891 11.891v482.218c0 6.567 5.324 11.891 11.891 11.891h279.218c6.567 0 11.891-5.324 11.891-11.892V189.891c0-6.567-5.324-11.891-11.891-11.891z" fill="#EEF8F9" stroke="#D9EFF2" stroke-width="2"></path><path fill-rule="evenodd" clip-rule="evenodd" d="M458 258.184a8.184 8.184 0 018.184-8.184h265.632a8.184 8.184 0 018.184 8.184v104.632a8.184 8.184 0 01-8.184 8.184H466.184a8.184 8.184 0 01-8.184-8.184V258.184z" fill="#FEF5FC"></path><rect x="471" y="290" width="255" height="69" rx="5" fill="#53777A" fill-opacity="0.2" stroke="#53777A" stroke-width="2" stroke-dasharray="10 10"></rect><path d="M547.933 347.596h-65.77l22.717-22.5 10.168 9.952 10.168-9.952 22.717 22.5z" fill="#FAD1F1"></path><path d="M548.365 347.164v-45.866L525 324.231l23.365 22.933zm-66.634 0v-45.866l23.365 22.933-23.365 22.933z" fill="#F8BAEA"></path><path d="M547.933 302.164h-65.77l32.452 32.451 33.318-32.451z" fill="#F59EE1"></path><path d="M548.187 300h-66.736c-.871 0-1.451.725-1.451 1.45v46.426c0 .87.58 1.451 1.451 1.451h66.738c.87 0 1.451-.581 1.451-1.451l-.001-46.426c0-.725-.58-1.45-1.451-1.45h-.001zm-65.286 4.932l19.731 19.732-19.731 19.731v-39.463zm31.918 27.856l-29.886-29.886h59.774l-29.888 29.886zm-10.156-6.093l9.14 9.14c.29.29.726.435 1.016.435.435 0 .725-.145 1.016-.435l9.14-9.14 19.73 19.731h-59.772l19.73-19.731zm22.343-2.031l19.732-19.732v39.462l-19.732-19.73z" fill="#000"></path><path d="M631.01 347.596h-65.77l22.717-22.5 10.168 9.952 10.168-9.952 22.717 22.5z" fill="#FAD1F1"></path><path d="M631.442 347.164v-45.866l-23.365 22.933 23.365 22.933zm-66.634 0v-45.866l23.365 22.933-23.365 22.933z" fill="#F8BAEA"></path><path d="M631.01 302.164h-65.77l32.452 32.451 33.318-32.451z" fill="#F59EE1"></path><path d="M631.264 300h-66.736c-.871 0-1.451.725-1.451 1.45v46.426c0 .87.58 1.451 1.451 1.451h66.738c.87 0 1.45-.581 1.45-1.451V301.45c0-.725-.58-1.45-1.451-1.45h-.001zm-65.286 4.932l19.731 19.732-19.731 19.731v-39.463zm31.918 27.856l-29.886-29.886h59.774l-29.888 29.886zm-10.156-6.093l9.14 9.14c.29.29.726.435 1.016.435.435 0 .725-.145 1.016-.435l9.14-9.14 19.73 19.731H568.01l19.73-19.731zm22.343-2.031l19.732-19.732v39.462l-19.732-19.73z" fill="#000"></path><path d="M714.087 347.596h-65.77l22.717-22.5 10.168 9.952 10.168-9.952 22.717 22.5z" fill="#FAD1F1"></path><path d="M714.519 347.164v-45.866l-23.365 22.933 23.365 22.933zm-66.634 0v-45.866l23.365 22.933-23.365 22.933z" fill="#F8BAEA"></path><path d="M714.087 302.164h-65.77l32.452 32.451 33.318-32.451z" fill="#F59EE1"></path><path d="M714.341 300h-66.736c-.871 0-1.451.725-1.451 1.45v46.426c0 .87.58 1.451 1.451 1.451h66.738c.87 0 1.451-.581 1.451-1.451l-.001-46.426c0-.725-.58-1.45-1.451-1.45h-.001zm-65.286 4.932l19.731 19.732-19.731 19.731v-39.463zm31.918 27.856l-29.886-29.886h59.774l-29.888 29.886zm-10.156-6.093l9.14 9.14c.29.29.726.435 1.016.435.435 0 .725-.145 1.016-.435l9.14-9.14 19.73 19.731h-59.772l19.73-19.731zm22.343-2.031l19.732-19.732v39.462l-19.732-19.73z" fill="#000"></path><path d="M506.452 320v-11.94h3.975c.796 0 1.488.153 2.077.458.6.306 1.063.736 1.39 1.292.327.546.491 1.189.491 1.93 0 .742-.164 1.391-.491 1.947-.327.545-.79.97-1.39 1.275-.589.306-1.281.458-2.077.458h-1.93V320h-2.045zm2.045-6.379h1.93c.578 0 1.036-.174 1.374-.523.338-.349.507-.802.507-1.358s-.169-1.008-.507-1.357c-.338-.349-.796-.524-1.374-.524h-1.93v3.762zm7.877 6.379v-1.848h3.107v-8.276l-3.123 2.322v-2.159l2.747-1.979h2.421v10.092h2.502V320h-7.654zm73.078 0v-11.94h3.975c.796 0 1.488.153 2.077.458.6.306 1.063.736 1.39 1.292.327.546.491 1.189.491 1.93 0 .742-.164 1.391-.491 1.947-.327.545-.79.97-1.39 1.275-.589.306-1.281.458-2.077.458h-1.93V320h-2.045zm2.045-6.379h1.93c.578 0 1.036-.174 1.374-.523.338-.349.507-.802.507-1.358s-.169-1.008-.507-1.357c-.338-.349-.796-.524-1.374-.524h-1.93v3.762zm7.877 6.379v-1.848h3.107v-8.276l-3.123 2.322v-2.159l2.747-1.979h2.421v10.092h2.502V320h-7.654zm73.078 0v-11.94h3.975c.796 0 1.488.153 2.077.458.6.306 1.063.736 1.39 1.292.327.546.491 1.189.491 1.93 0 .742-.164 1.391-.491 1.947-.327.545-.79.97-1.39 1.275-.589.306-1.281.458-2.077.458h-1.93V320h-2.045zm2.045-6.379h1.93c.578 0 1.036-.174 1.374-.523.338-.349.507-.802.507-1.358s-.169-1.008-.507-1.357c-.338-.349-.796-.524-1.374-.524h-1.93v3.762zm7.877 6.379v-1.848h3.107v-8.276l-3.123 2.322v-2.159l2.747-1.979h2.421v10.092h2.502V320h-7.654z" fill="#000"></path><path d="M476.342 277.211v-11.895h4.693c.902 0 1.67.173 2.305.517a3.502 3.502 0 011.452 1.423c.337.604.506 1.301.506 2.091 0 .79-.171 1.487-.511 2.091a3.532 3.532 0 01-1.481 1.412c-.643.336-1.421.505-2.335.505h-2.992v-2.016h2.585c.484 0 .883-.083 1.197-.249.317-.171.553-.405.708-.703a2.2 2.2 0 00.238-1.04c0-.395-.079-.739-.238-1.034a1.594 1.594 0 00-.708-.691c-.318-.166-.721-.25-1.208-.25h-1.696v9.839h-2.515zm12.847.169c-.569 0-1.076-.099-1.522-.296a2.46 2.46 0 01-1.057-.889c-.255-.395-.383-.887-.383-1.475 0-.496.091-.912.273-1.249.182-.337.43-.608.744-.813a3.61 3.61 0 011.068-.465 8.273 8.273 0 011.266-.221 30.78 30.78 0 001.255-.151c.317-.05.548-.123.691-.22a.486.486 0 00.215-.43v-.035c0-.368-.116-.652-.348-.854-.229-.201-.554-.302-.976-.302-.446 0-.8.099-1.063.296a1.367 1.367 0 00-.523.732l-2.288-.186c.116-.542.344-1.01.685-1.405.341-.399.78-.705 1.319-.918.542-.217 1.169-.325 1.881-.325.496 0 .97.058 1.423.174.457.116.862.296 1.214.54.357.244.637.558.842.941.206.38.308.835.308 1.365v6.017h-2.346v-1.237h-.07a2.514 2.514 0 01-.575.738c-.24.209-.528.374-.865.494a3.584 3.584 0 01-1.168.174zm.709-1.708c.364 0 .685-.071.964-.215.279-.147.498-.344.656-.592.159-.248.238-.529.238-.842v-.947c-.077.05-.183.097-.319.139a5.842 5.842 0 01-.447.111c-.167.031-.333.06-.5.087l-.453.064a3.04 3.04 0 00-.761.203 1.22 1.22 0 00-.505.378.916.916 0 00-.18.58c0 .337.122.595.366.773.248.174.561.261.941.261zm6.235 1.539v-8.921h2.399v1.557h.093c.162-.554.435-.972.819-1.255.383-.286.824-.43 1.324-.43a3.638 3.638 0 01.778.087v2.196a3.199 3.199 0 00-.482-.093 4.35 4.35 0 00-.563-.041c-.364 0-.69.08-.976.238a1.756 1.756 0 00-.674.651c-.163.279-.244.6-.244.964v5.047h-2.474zm11.885-8.921v1.859h-5.373v-1.859h5.373zm-4.153-2.137h2.474v8.317c0 .228.035.407.105.534a.58.58 0 00.29.262c.128.05.275.075.442.075.116 0 .232-.009.348-.029l.267-.052.389 1.841a7.038 7.038 0 01-.522.134 4.174 4.174 0 01-.819.098c-.597.024-1.119-.056-1.568-.238a2.183 2.183 0 01-1.04-.848c-.248-.383-.37-.867-.366-1.452v-8.642zm5.765 11.058v-8.921h2.474v8.921h-2.474zm1.243-10.071c-.368 0-.684-.122-.947-.366a1.184 1.184 0 01-.389-.888c0-.341.129-.634.389-.878.263-.247.579-.371.947-.371.367 0 .681.124.94.371.264.244.395.537.395.878 0 .344-.131.64-.395.888a1.322 1.322 0 01-.94.366zm7.958 1.15v1.859h-5.372v-1.859h5.372zm-4.153-2.137h2.475v8.317c0 .228.034.407.104.534.07.124.167.211.291.262.127.05.274.075.441.075.116 0 .232-.009.348-.029l.268-.052.389 1.841a7.088 7.088 0 01-.523.134 4.174 4.174 0 01-.819.098c-.596.024-1.119-.056-1.568-.238a2.188 2.188 0 01-1.04-.848c-.248-.383-.37-.867-.366-1.452v-8.642zm5.765 11.058v-8.921h2.474v8.921h-2.474zm1.243-10.071c-.368 0-.684-.122-.947-.366a1.188 1.188 0 01-.389-.888c0-.341.13-.634.389-.878.263-.247.579-.371.947-.371s.681.124.941.371c.263.244.395.537.395.878 0 .344-.132.64-.395.888-.26.244-.573.366-.941.366zm7.244 10.246c-.902 0-1.682-.192-2.341-.575a3.95 3.95 0 01-1.516-1.615c-.356-.693-.534-1.497-.534-2.41 0-.922.178-1.727.534-2.417a3.893 3.893 0 011.516-1.614c.659-.387 1.439-.581 2.341-.581.902 0 1.681.194 2.335.581a3.881 3.881 0 011.522 1.614c.356.69.534 1.495.534 2.417 0 .913-.178 1.717-.534 2.41a3.938 3.938 0 01-1.522 1.615c-.654.383-1.433.575-2.335.575zm.012-1.917c.41 0 .753-.116 1.028-.349.275-.236.482-.557.621-.964.143-.406.215-.869.215-1.388a4.17 4.17 0 00-.215-1.388c-.139-.407-.346-.728-.621-.964s-.618-.354-1.028-.354c-.415 0-.763.118-1.046.354-.279.236-.49.557-.633.964a4.28 4.28 0 00-.209 1.388c0 .519.07.982.209 1.388.143.407.354.728.633.964.283.233.631.349 1.046.349zm8.462-3.415v5.157h-2.474v-8.921h2.358v1.574h.105c.197-.519.528-.929.993-1.231.464-.306 1.028-.459 1.69-.459.619 0 1.16.135 1.62.407.461.271.819.658 1.075 1.161.255.5.383 1.096.383 1.789v5.68h-2.474v-5.239c.004-.545-.136-.971-.418-1.277-.283-.31-.672-.465-1.168-.465-.333 0-.627.072-.882.215-.252.143-.45.352-.593.627-.139.271-.211.598-.215.982zm16.638-6.738v11.895h-2.515v-9.508h-.07l-2.724 1.708v-2.23l2.945-1.865h2.364zm-83.223-36.218v-2.513h11.839v2.513h-4.413V241h-3.013v-11.902h-4.413zm16.376 12.113c-1.093 0-2.039-.232-2.836-.697a4.762 4.762 0 01-1.837-1.956c-.432-.84-.648-1.814-.648-2.921 0-1.117.216-2.093.648-2.929a4.702 4.702 0 011.837-1.956c.797-.47 1.743-.704 2.836-.704 1.094 0 2.037.234 2.83.704a4.693 4.693 0 011.844 1.956c.432.836.648 1.812.648 2.929 0 1.107-.216 2.081-.648 2.921a4.753 4.753 0 01-1.844 1.956c-.793.465-1.736.697-2.83.697zm.014-2.323c.498 0 .913-.14 1.246-.422.333-.286.584-.676.753-1.168.174-.493.261-1.054.261-1.683 0-.628-.087-1.189-.261-1.682-.169-.493-.42-.882-.753-1.168-.333-.287-.748-.43-1.246-.43-.502 0-.924.143-1.267.43-.337.286-.593.675-.767 1.168-.169.493-.253 1.054-.253 1.682 0 .629.084 1.19.253 1.683.174.492.43.882.767 1.168.343.282.765.422 1.267.422zm6.584 6.166v-14.865h2.956v1.816h.134c.131-.291.321-.587.57-.887a3.01 3.01 0 01.985-.761c.409-.206.915-.309 1.521-.309.788 0 1.515.206 2.182.619.666.408 1.199 1.025 1.598 1.851.398.822.598 1.852.598 3.09 0 1.206-.195 2.225-.584 3.055-.385.826-.911 1.452-1.577 1.879a4.042 4.042 0 01-2.224.634c-.582 0-1.077-.096-1.485-.289a3.062 3.062 0 01-.993-.725 3.656 3.656 0 01-.591-.894h-.092v5.786h-2.998zm2.935-9.46c0 .643.089 1.204.268 1.683.178.478.436.851.774 1.119.338.262.748.394 1.232.394.488 0 .901-.134 1.238-.401.338-.273.594-.648.768-1.127.178-.483.267-1.039.267-1.668 0-.624-.087-1.173-.26-1.647-.174-.474-.43-.844-.768-1.112-.337-.267-.753-.401-1.245-.401-.488 0-.901.129-1.239.387-.333.258-.589.624-.767 1.098-.179.474-.268 1.032-.268 1.675zm8.934 5.406v-10.811h2.999V241h-2.999zm1.507-12.205a1.63 1.63 0 01-1.148-.444 1.437 1.437 0 01-.471-1.076c0-.413.157-.768.471-1.063.32-.301.702-.451 1.148-.451.446 0 .826.15 1.14.451.319.295.479.65.479 1.063 0 .417-.16.776-.479 1.076a1.602 1.602 0 01-1.14.444zm8.105 12.416c-1.107 0-2.06-.234-2.857-.704a4.759 4.759 0 01-1.83-1.971c-.423-.839-.634-1.806-.634-2.899 0-1.108.214-2.079.641-2.915a4.756 4.756 0 011.837-1.963c.793-.474 1.736-.711 2.829-.711.944 0 1.769.171 2.478.514a4.13 4.13 0 011.682 1.443c.413.619.641 1.346.683 2.182h-2.83c-.079-.54-.291-.974-.633-1.303-.338-.333-.781-.499-1.33-.499-.465 0-.871.126-1.218.38-.343.248-.61.612-.803 1.091-.192.478-.288 1.058-.288 1.738 0 .69.094 1.277.281 1.76.193.483.463.852.81 1.105.347.253.753.38 1.218.38.342 0 .65-.07.922-.211a1.78 1.78 0 00.682-.612c.183-.273.303-.599.359-.979h2.83c-.047.826-.272 1.553-.676 2.182a4.083 4.083 0 01-1.654 1.464c-.704.352-1.537.528-2.499.528zM525.32 241v-14.415h5.771c1.061 0 1.946.157 2.654.471.709.315 1.241.751 1.598 1.31.356.553.535 1.191.535 1.914 0 .563-.113 1.058-.338 1.485-.225.423-.535.77-.929 1.042-.39.267-.835.457-1.338.57v.141a3.297 3.297 0 012.717 1.668c.301.512.451 1.122.451 1.83 0 .765-.19 1.448-.57 2.048-.376.596-.932 1.068-1.668 1.415-.737.347-1.645.521-2.724.521h-6.159zm3.048-2.492h2.484c.85 0 1.469-.162 1.858-.485.39-.329.585-.765.585-1.31 0-.398-.097-.75-.289-1.055a1.953 1.953 0 00-.824-.718c-.351-.174-.771-.261-1.259-.261h-2.555v3.829zm0-5.891h2.259c.418 0 .788-.073 1.112-.218.329-.15.587-.362.774-.634.193-.272.289-.598.289-.978 0-.521-.185-.941-.556-1.26-.366-.319-.887-.479-1.563-.479h-2.315v3.569z" fill="#1A1A1A"></path><path d="M660.678 194.183a2.213 2.213 0 00-1.594-.669 2.184 2.184 0 00-1.582.669h-.011a2.289 2.289 0 00-.661 1.618 2.28 2.28 0 00.654 1.614l.011.011a2.184 2.184 0 001.582.662c.627 0 1.189-.251 1.594-.662l.004-.011c.406-.407.645-.977.645-1.614a2.296 2.296 0 00-.652-1.618h.01zm-1.594 31.304c.627 0 1.189-.26 1.594-.667l.005-.011c.405-.406.645-.979.645-1.609 0-.645-.248-1.208-.645-1.621h-.005a2.203 2.203 0 00-1.594-.671 2.173 2.173 0 00-1.582.671h-.011a2.307 2.307 0 00-.654 1.621 2.28 2.28 0 00.654 1.609l.011.011a2.217 2.217 0 001.582.666v.001zm12.244-6.928a2.235 2.235 0 001.369-1.062l.041-.081c.266-.51.329-1.101.178-1.656a2.225 2.225 0 00-1.048-1.39l-.031-.022a2.21 2.21 0 00-1.673-.205 2.204 2.204 0 00-1.367 1.066 2.337 2.337 0 00-.227 1.738c.155.582.53 1.082 1.047 1.392h.004a2.19 2.19 0 001.708.215l-.001.005zm-9.945-11.395a3.23 3.23 0 00-2.305-.975 3.21 3.21 0 00-2.3.974 3.32 3.32 0 00-.949 2.34 3.36 3.36 0 00.949 2.35c.587.595 1.4.967 2.293.967.893 0 1.715-.372 2.305-.967.611-.63.952-1.473.95-2.351a3.32 3.32 0 00-.95-2.34l.007.002zm-1.29-3.898a6.152 6.152 0 013.38 1.777h.007c.144.148.281.302.41.464l2.244-1.321a4.94 4.94 0 01-.073-2.807 4.887 4.887 0 012.258-2.991l.038-.024a4.743 4.743 0 013.639-.475 4.83 4.83 0 012.938 2.293v.004a5.002 5.002 0 01.485 3.738 4.884 4.884 0 01-2.258 2.994l-.307.184h-.031a4.797 4.797 0 01-3.342.312 4.849 4.849 0 01-2.348-1.465l-2.241 1.316a6.454 6.454 0 010 4.471l2.241 1.314a4.808 4.808 0 012.348-1.466 4.717 4.717 0 013.68.496l.074.036v.003a4.913 4.913 0 012.184 2.96c.332 1.26.158 2.6-.485 3.734l-.04.083h-.005a4.89 4.89 0 01-2.897 2.23 4.807 4.807 0 01-3.68-.493v-.01a4.901 4.901 0 01-2.259-2.992 4.936 4.936 0 01.073-2.803l-2.243-1.317a6.335 6.335 0 01-.41.457l-.008.007a6.113 6.113 0 01-3.379 1.766v2.638c.92.198 1.762.664 2.42 1.338l.003.007a4.945 4.945 0 011.419 3.483 4.94 4.94 0 01-1.419 3.476l-.003.014a4.83 4.83 0 01-3.428 1.436 4.8 4.8 0 01-3.423-1.444h-.003v-.014a4.943 4.943 0 01-1.421-3.477c0-1.359.544-2.595 1.421-3.483v-.007h.003a4.727 4.727 0 012.418-1.338v-2.637a6.035 6.035 0 01-3.368-1.767l-.009-.007a6.36 6.36 0 01-1.829-4.463 6.36 6.36 0 011.82-4.459h.009a6.128 6.128 0 013.377-1.777v-2.627a4.868 4.868 0 01-2.418-1.341h-.004v-.007a4.961 4.961 0 01-1.421-3.484 4.965 4.965 0 011.421-3.483l.011-.004a4.767 4.767 0 013.416-1.447 4.8 4.8 0 013.429 1.447v.004h.003a4.966 4.966 0 011.419 3.483 4.973 4.973 0 01-1.419 3.483l-.003.007a4.882 4.882 0 01-2.421 1.342v2.626l.007.007zm12.602-1.752l-.018-.028a2.257 2.257 0 00-2.228-1.098c-.294.04-.578.137-.833.288h.003c-.538.311-.899.82-1.05 1.39a2.322 2.322 0 00.226 1.738l.01.014c.311.538.805.9 1.357 1.045a2.17 2.17 0 001.704-.223l.029-.015a2.326 2.326 0 00.8-3.111zm9.956.772h2.504v7.777l3.61-4.063h3.01l-4.359 4.708 4.363 5.959h-2.867l-3.764-5.331v5.331h-2.504v-14.388l.007.007zm12.017 9.09c0 1.324.936 3.249 3.192 3.249 1.395 0 2.313-.74 2.79-1.709.249-.471.364-.975.402-1.505a3.387 3.387 0 00-.288-1.502c-.438-1.008-1.413-1.882-2.922-1.882-2.025 0-3.173 1.669-3.173 3.323v.018l-.001.008zm8.867 5.291h-2.505v-1.536c-.666 1.242-2.062 1.865-3.534 1.865-3.364 0-5.332-2.666-5.332-5.677 0-3.363 2.388-5.657 5.332-5.657 1.91 0 3.076 1.03 3.534 1.887v-1.558h2.505v10.676zm2.836-8.711h-1.29v-1.963h1.29v-.602c0-3.172 2.37-3.364 4.167-3.384v1.96c-.632 0-1.662 0-1.662 1.501v.523h1.662v1.964h-1.662v8.712h-2.505v-8.711zm5.877-5.677h2.502v7.777l3.612-4.063h3.01l-4.359 4.708 4.367 5.966h-2.867l-3.764-5.331v5.331h-2.502v-14.388h.001zm12.024 9.097c0 1.324.936 3.249 3.192 3.249 1.393 0 2.312-.74 2.795-1.709.251-.471.358-.975.403-1.505a3.401 3.401 0 00-.289-1.502c-.43-1.008-1.412-1.882-2.922-1.882-2.025 0-3.173 1.669-3.173 3.323v.018l-.006.008zm8.858 5.291h-2.504v-1.536c-.668 1.242-2.064 1.865-3.534 1.865-3.363 0-5.33-2.666-5.33-5.677 0-3.363 2.387-5.657 5.33-5.657 1.91 0 3.076 1.03 3.534 1.887v-1.558h2.504v10.676z" fill="#1A464C"></path><path fill-rule="evenodd" clip-rule="evenodd" d="M1162 744.599v42.402c0 .131-.01.262-.02.392s-.03.26-.06.388a2.51 2.51 0 01-.09.381c-.04.125-.08.248-.13.369a4.45 4.45 0 01-.37.692c-.08.109-.15.214-.24.315a3.82 3.82 0 01-.87.788c-.11.073-.22.14-.33.202a4.84 4.84 0 01-.36.168c-.12.05-.24.094-.37.132a4.032 4.032 0 01-1.16.172H804.999a3.942 3.942 0 01-1.161-.172 4.05 4.05 0 01-1.061-.502 4.013 4.013 0 01-1.758-2.933 3.942 3.942 0 01-.019-.392v-42.402a3.942 3.942 0 01.172-1.161 4.05 4.05 0 01.502-1.061 4.013 4.013 0 012.933-1.758c.13-.012.261-.019.392-.019H1158a4.032 4.032 0 011.89.472c.11.062.22.129.33.202a3.751 3.751 0 01.87.788c.09.101.16.206.24.315a4.208 4.208 0 01.5 1.061c.04.126.07.252.09.381.03.128.05.258.06.388.01.13.02.261.02.392z" fill="#7C7C7C"></path><path fill-rule="evenodd" clip-rule="evenodd" d="M852.212 751.52h238.428v6.72H852.212v-6.72z" fill="#D8D8D8"></path><path fill-rule="evenodd" clip-rule="evenodd" d="M811.914 751.52h15.112v6.72h-15.112v-6.72z" fill="#D7D7D7"></path><path fill-rule="evenodd" clip-rule="evenodd" d="M1124.22 751.52h6.72v6.72h-6.72v-6.72z" fill="#D7D400"></path><path fill-rule="evenodd" clip-rule="evenodd" d="M1114.15 751.52h6.71v6.72h-6.71v-6.72z" fill="#FF3C00"></path><path fill-rule="evenodd" clip-rule="evenodd" d="M1135.97 751.52h15.12v6.72h-15.12v-6.72z" fill="#00CD00"></path><path fill-rule="evenodd" clip-rule="evenodd" d="M852.212 762.44h238.428v6.72H852.212v-6.72z" fill="#D8D8D8"></path><path fill-rule="evenodd" clip-rule="evenodd" d="M811.914 762.44h15.112v6.72h-15.112v-6.72z" fill="#D7D7D7"></path><path fill-rule="evenodd" clip-rule="evenodd" d="M1124.22 762.44h6.72v6.72h-6.72v-6.72z" fill="#D7D400"></path><path fill-rule="evenodd" clip-rule="evenodd" d="M1114.15 762.44h6.71v6.72h-6.71v-6.72z" fill="#FF3C00"></path><path fill-rule="evenodd" clip-rule="evenodd" d="M1135.97 762.44h15.12v6.72h-15.12v-6.72z" fill="#00CD00"></path><path fill-rule="evenodd" clip-rule="evenodd" d="M852.212 773.36h238.428v6.72H852.212v-6.72z" fill="#D8D8D8"></path><path fill-rule="evenodd" clip-rule="evenodd" d="M811.914 773.36h15.112v6.72h-15.112v-6.72z" fill="#D7D7D7"></path><path fill-rule="evenodd" clip-rule="evenodd" d="M1124.22 773.36h6.72v6.72h-6.72v-6.72z" fill="#D7D400"></path><path fill-rule="evenodd" clip-rule="evenodd" d="M1114.15 773.36h6.71v6.72h-6.71v-6.72z" fill="#FF3C00"></path><path fill-rule="evenodd" clip-rule="evenodd" d="M1135.97 773.36h15.12v6.72h-15.12v-6.72z" fill="#00CD00"></path><path fill-rule="evenodd" clip-rule="evenodd" d="M1162 115.584v612.832c0 .182-.01.365-.02.547-.01.183-.03.363-.06.542-.02.18-.05.357-.09.532-.04.175-.08.347-.13.515a7.405 7.405 0 01-.37.967c-.08.151-.15.298-.24.44a5.4 5.4 0 01-.26.406 4.416 4.416 0 01-.61.694c-.11.101-.22.195-.33.282-.12.086-.24.164-.36.234s-.24.132-.37.185a3.004 3.004 0 01-1.16.24H804.999a2.858 2.858 0 01-.78-.108 2.962 2.962 0 01-.381-.132 3.62 3.62 0 01-1.061-.701 4.888 4.888 0 01-.869-1.1 6.344 6.344 0 01-.436-.911 6.872 6.872 0 01-.3-1.011 7.42 7.42 0 01-.172-1.621V115.584a7.668 7.668 0 01.304-2.137 6.21 6.21 0 01.604-1.405 5.337 5.337 0 01.554-.774 4.253 4.253 0 01.652-.609 3.62 3.62 0 01.724-.419 3.129 3.129 0 01.769-.213c.13-.018.261-.027.392-.027H1158a2.84 2.84 0 01.78.107c.13.036.26.08.38.133.13.054.25.115.37.185.12.07.24.148.36.234.11.087.22.18.33.282a4.432 4.432 0 01.61.695c.09.129.18.264.26.406.09.141.16.288.24.44a7.575 7.575 0 01.37.965c.05.169.09.341.13.516.04.175.07.352.09.532.03.179.05.36.06.542.01.182.02.364.02.547z" fill="#7C7C7C"></path><path fill-rule="evenodd" clip-rule="evenodd" d="M813.998 140H1149a1.294 1.294 0 01.39.056 1.87 1.87 0 01.38.164c.06.036.12.077.17.122.06.044.12.093.17.145.06.053.11.109.16.17.05.06.1.123.15.19.04.067.08.137.13.211.04.073.08.149.11.228.04.078.07.16.1.243l.09.257.06.267c.02.091.04.182.05.275l.03.281c.01.094.01.189.01.284v558.214c0 .095 0 .189-.01.284l-.03.281c-.01.092-.03.184-.05.275l-.06.267a14.8 14.8 0 01-.09.256c-.03.084-.06.166-.1.245a1.9 1.9 0 01-.11.227c-.05.073-.09.143-.13.21-.05.068-.1.131-.15.191-.05.061-.1.117-.16.169-.05.053-.11.102-.17.146-.05.045-.11.085-.17.122-.06.036-.13.068-.19.096-.06.027-.12.05-.19.069-.06.018-.13.032-.19.04-.07.01-.13.015-.2.015H813.998c-.065 0-.131-.005-.196-.015a1.31 1.31 0 01-.384-.109 1.806 1.806 0 01-.53-.364 2.14 2.14 0 01-.303-.359 2.853 2.853 0 01-.349-.683 3.334 3.334 0 01-.15-.523 4.272 4.272 0 01-.076-.556 3.85 3.85 0 01-.01-.284V142.893a4.38 4.38 0 01.038-.565 4.154 4.154 0 01.114-.542 3.51 3.51 0 01.185-.5c.036-.079.075-.155.117-.228a2.59 2.59 0 01.434-.571 1.895 1.895 0 01.53-.362 1.4 1.4 0 01.384-.111c.065-.009.131-.014.196-.014z" fill="#fff"></path><path fill-rule="evenodd" clip-rule="evenodd" d="M811.914 124.08h339.176v6.72H811.914v-6.72zm0 589.64h339.176v6.72H811.914v-6.72z" fill="#D7D7D7"></path><path d="M841.063 169v-12.233h4.898c.9 0 1.651.134 2.252.4.601.267 1.053.638 1.356 1.111.302.47.454 1.012.454 1.625 0 .478-.096.898-.287 1.26a2.472 2.472 0 01-.788.884 3.226 3.226 0 01-1.135.484v.12a2.792 2.792 0 012.305 1.415c.255.434.383.952.383 1.553 0 .649-.162 1.229-.484 1.738-.319.506-.791.906-1.416 1.201-.625.295-1.396.442-2.311.442h-5.227zm2.587-2.114h2.108c.721 0 1.246-.138 1.577-.413.33-.278.496-.649.496-1.111 0-.338-.082-.637-.245-.896a1.676 1.676 0 00-.699-.609c-.299-.147-.655-.221-1.069-.221h-2.168v3.25zm0-5h1.917c.354 0 .669-.062.944-.185.278-.127.497-.307.657-.538.163-.231.245-.507.245-.83 0-.442-.158-.798-.472-1.069-.311-.271-.753-.406-1.326-.406h-1.965v3.028zm7.86 7.114v-12.233h4.826c.924 0 1.713.166 2.366.496.657.327 1.156.79 1.499 1.392.346.597.519 1.3.519 2.108 0 .813-.175 1.511-.525 2.097-.351.581-.858 1.027-1.523 1.338-.661.31-1.462.466-2.401.466h-3.232v-2.079h2.813c.494 0 .904-.068 1.231-.203a1.47 1.47 0 00.729-.609c.163-.271.244-.608.244-1.01 0-.406-.081-.748-.244-1.027a1.504 1.504 0 00-.735-.633c-.327-.148-.739-.221-1.237-.221h-1.744V169h-2.586zm6.606-5.567l3.04 5.567h-2.855l-2.974-5.567h2.789zm15-.549c0 1.334-.253 2.468-.759 3.404-.501.936-1.186 1.651-2.054 2.145-.864.489-1.836.734-2.915.734-1.087 0-2.063-.247-2.927-.74-.864-.494-1.547-1.209-2.049-2.145-.501-.935-.752-2.068-.752-3.398 0-1.334.251-2.469.752-3.405.502-.936 1.185-1.649 2.049-2.138.864-.494 1.84-.741 2.927-.741 1.079 0 2.051.247 2.915.741.868.489 1.553 1.202 2.054 2.138.506.936.759 2.071.759 3.405zm-2.622 0c0-.864-.13-1.593-.388-2.186-.255-.594-.616-1.044-1.082-1.35-.465-.307-1.011-.46-1.636-.46s-1.171.153-1.637.46c-.466.306-.828.756-1.087 1.35-.255.593-.382 1.322-.382 2.186 0 .864.127 1.592.382 2.186.259.593.621 1.043 1.087 1.35.466.306 1.012.46 1.637.46s1.171-.154 1.636-.46c.466-.307.827-.757 1.082-1.35.258-.594.388-1.322.388-2.186zm3.864 6.116v-12.233h2.587v5.394h.161l4.402-5.394h3.1l-4.539 5.478 4.593 6.755h-3.094l-3.351-5.029-1.272 1.553V169h-2.587zm10.924 0v-12.233h8.242v2.133h-5.656v2.914h5.232v2.133h-5.232v2.921h5.68V169h-8.266zm9.625 0v-12.233h4.826c.924 0 1.713.166 2.366.496.657.327 1.157.79 1.499 1.392.346.597.52 1.3.52 2.108 0 .813-.176 1.511-.526 2.097-.35.581-.858 1.027-1.523 1.338-.661.31-1.461.466-2.401.466h-3.232v-2.079h2.814c.493 0 .904-.068 1.23-.203.327-.135.57-.339.729-.609.163-.271.245-.608.245-1.01 0-.406-.082-.748-.245-1.027a1.496 1.496 0 00-.735-.633c-.326-.148-.739-.221-1.236-.221h-1.744V169h-2.587zm6.606-5.567l3.041 5.567h-2.855l-2.975-5.567h2.789zm11.428 5.734c-.892 0-1.686-.153-2.383-.46-.693-.31-1.24-.736-1.642-1.278a3.207 3.207 0 01-.616-1.887h2.605c.016.298.113.561.292.788.183.223.426.396.729.52.303.123.643.185 1.021.185.395 0 .743-.07 1.046-.209a1.72 1.72 0 00.71-.58c.172-.246.257-.531.257-.854 0-.326-.091-.615-.274-.866a1.755 1.755 0 00-.777-.597c-.334-.143-.733-.215-1.195-.215h-1.14v-1.9h1.14c.391 0 .735-.067 1.034-.203a1.67 1.67 0 00.705-.561 1.46 1.46 0 00.25-.848c0-.307-.073-.576-.221-.807a1.451 1.451 0 00-.609-.549 1.972 1.972 0 00-.908-.197c-.35 0-.671.063-.961.191a1.675 1.675 0 00-.699.532c-.175.23-.269.501-.281.812h-2.479c.012-.705.213-1.326.604-1.864.39-.537.915-.957 1.576-1.26.665-.307 1.416-.46 2.252-.46.844 0 1.583.153 2.216.46.633.307 1.125.721 1.476 1.242.354.518.529 1.099.525 1.744.004.685-.209 1.257-.639 1.715-.426.458-.981.748-1.666.872v.095c.9.116 1.584.428 2.054.938.474.506.709 1.139.705 1.9a2.984 2.984 0 01-.603 1.857c-.402.542-.958.968-1.667 1.278-.708.311-1.521.466-2.437.466z" fill="#919191"></path><path d="M1121.11 178H841.891c-6.567 0-11.891 5.324-11.891 11.891v482.218c0 6.567 5.324 11.891 11.891 11.891h279.219c6.57 0 11.89-5.324 11.89-11.892V189.891c0-6.567-5.32-11.891-11.89-11.891z" fill="#EEF8F9" stroke="#D9EFF2" stroke-width="2"></path><path fill-rule="evenodd" clip-rule="evenodd" d="M840 258.184a8.184 8.184 0 018.184-8.184h265.636a8.18 8.18 0 018.18 8.184v104.632a8.18 8.18 0 01-8.18 8.184H848.184a8.184 8.184 0 01-8.184-8.184V258.184z" fill="#FEF5FC"></path><rect x="853" y="290" width="255" height="69" rx="5" fill="#53777A" fill-opacity="0.2" stroke="#53777A" stroke-width="2" stroke-dasharray="10 10"></rect><path d="M929.933 347.596h-65.77l22.717-22.5 10.168 9.952 10.168-9.952 22.717 22.5z" fill="#FAD1F1"></path><path d="M930.365 347.164v-45.866L907 324.231l23.365 22.933zm-66.634 0v-45.866l23.365 22.933-23.365 22.933z" fill="#F8BAEA"></path><path d="M929.933 302.164h-65.77l32.452 32.451 33.318-32.451z" fill="#F59EE1"></path><path d="M930.187 300h-66.736c-.871 0-1.451.725-1.451 1.45v46.426c0 .87.58 1.451 1.451 1.451h66.738c.87 0 1.451-.581 1.451-1.451l-.001-46.426c0-.725-.58-1.45-1.451-1.45h-.001zm-65.286 4.932l19.731 19.732-19.731 19.731v-39.463zm31.918 27.856l-29.886-29.886h59.774l-29.888 29.886zm-10.156-6.093l9.14 9.14c.29.29.726.435 1.016.435.435 0 .725-.145 1.016-.435l9.14-9.14 19.73 19.731h-59.772l19.73-19.731zm22.343-2.031l19.732-19.732v39.462l-19.732-19.73z" fill="#000"></path><path d="M1013.01 347.596h-65.77l22.717-22.5 10.168 9.952 10.168-9.952 22.717 22.5z" fill="#FAD1F1"></path><path d="M1013.44 347.164v-45.866l-23.363 22.933 23.363 22.933zm-66.632 0v-45.866l23.365 22.933-23.365 22.933z" fill="#F8BAEA"></path><path d="M1013.01 302.164h-65.77l32.452 32.451 33.318-32.451z" fill="#F59EE1"></path><path d="M1013.26 300h-66.732c-.871 0-1.451.725-1.451 1.45v46.426c0 .87.58 1.451 1.451 1.451h66.742c.87 0 1.45-.581 1.45-1.451V301.45c0-.725-.58-1.45-1.45-1.45h-.01zm-65.282 4.932l19.731 19.732-19.731 19.731v-39.463zm31.918 27.856l-29.886-29.886h59.77l-29.884 29.886zm-10.156-6.093l9.14 9.14c.29.29.726.435 1.016.435.435 0 .725-.145 1.016-.435l9.14-9.14 19.728 19.731h-59.77l19.73-19.731zm22.343-2.031l19.727-19.732v39.462l-19.727-19.73z" fill="#000"></path><path d="M1096.09 347.596h-65.77l22.71-22.5 10.17 9.952 10.17-9.952 22.72 22.5z" fill="#FAD1F1"></path><path d="M1096.52 347.164v-45.866l-23.37 22.933 23.37 22.933zm-66.64 0v-45.866l23.37 22.933-23.37 22.933z" fill="#F8BAEA"></path><path d="M1096.09 302.164h-65.77l32.45 32.451 33.32-32.451z" fill="#F59EE1"></path><path d="M1096.34 300h-66.74c-.87 0-1.45.725-1.45 1.45v46.426c0 .87.58 1.451 1.45 1.451h66.74c.87 0 1.45-.581 1.45-1.451V301.45c0-.725-.58-1.45-1.45-1.45zm-65.29 4.932l19.74 19.732-19.74 19.731v-39.463zm31.92 27.856l-29.88-29.886h59.77l-29.89 29.886zm-10.15-6.093l9.14 9.14c.29.29.72.435 1.01.435.44 0 .73-.145 1.02-.435l9.14-9.14 19.73 19.731h-59.77l19.73-19.731zm22.34-2.031l19.73-19.732v39.462l-19.73-19.73z" fill="#000"></path><path d="M888.452 320v-11.94h3.975c.796 0 1.488.153 2.077.458.6.306 1.063.736 1.39 1.292.327.546.491 1.189.491 1.93 0 .742-.164 1.391-.491 1.947-.327.545-.79.97-1.39 1.275-.589.306-1.281.458-2.077.458h-1.93V320h-2.045zm2.045-6.379h1.93c.578 0 1.036-.174 1.374-.523.338-.349.507-.802.507-1.358s-.169-1.008-.507-1.357c-.338-.349-.796-.524-1.374-.524h-1.93v3.762zm7.877 6.379v-1.848h3.107v-8.276l-3.123 2.322v-2.159l2.747-1.979h2.421v10.092h2.502V320h-7.654zm73.078 0v-11.94h3.975c.796 0 1.488.153 2.077.458.6.306 1.063.736 1.39 1.292.327.546.491 1.189.491 1.93 0 .742-.164 1.391-.491 1.947-.327.545-.79.97-1.39 1.275-.589.306-1.281.458-2.077.458h-1.93V320h-2.045zm2.045-6.379h1.93c.578 0 1.036-.174 1.374-.523.338-.349.507-.802.507-1.358s-.169-1.008-.507-1.357c-.338-.349-.796-.524-1.374-.524h-1.93v3.762zm7.877 6.379v-1.848h3.107v-8.276l-3.123 2.322v-2.159l2.747-1.979h2.421v10.092h2.502V320h-7.654zm73.076 0v-11.94h3.98c.79 0 1.49.153 2.07.458.6.306 1.07.736 1.39 1.292.33.546.49 1.189.49 1.93 0 .742-.16 1.391-.49 1.947-.32.545-.79.97-1.39 1.275-.58.306-1.28.458-2.07.458h-1.93V320h-2.05zm2.05-6.379h1.93c.57 0 1.03-.174 1.37-.523.34-.349.51-.802.51-1.358s-.17-1.008-.51-1.357c-.34-.349-.8-.524-1.37-.524h-1.93v3.762zm7.87 6.379v-1.848h3.11v-8.276l-3.12 2.322v-2.159l2.75-1.979h2.42v10.092h2.5V320h-7.66z" fill="#000"></path><path d="M858.342 277.211v-11.895h4.693c.902 0 1.67.173 2.305.517a3.502 3.502 0 011.452 1.423c.337.604.506 1.301.506 2.091 0 .79-.171 1.487-.511 2.091a3.532 3.532 0 01-1.481 1.412c-.643.336-1.421.505-2.335.505h-2.992v-2.016h2.585c.484 0 .883-.083 1.197-.249.317-.171.553-.405.708-.703a2.2 2.2 0 00.238-1.04c0-.395-.079-.739-.238-1.034a1.594 1.594 0 00-.708-.691c-.318-.166-.721-.25-1.208-.25h-1.696v9.839h-2.515zm12.847.169c-.569 0-1.076-.099-1.522-.296a2.46 2.46 0 01-1.057-.889c-.255-.395-.383-.887-.383-1.475 0-.496.091-.912.273-1.249.182-.337.43-.608.744-.813a3.61 3.61 0 011.068-.465 8.273 8.273 0 011.266-.221 30.78 30.78 0 001.255-.151c.317-.05.548-.123.691-.22a.486.486 0 00.215-.43v-.035c0-.368-.116-.652-.348-.854-.229-.201-.554-.302-.976-.302-.446 0-.8.099-1.063.296a1.367 1.367 0 00-.523.732l-2.288-.186c.116-.542.344-1.01.685-1.405.341-.399.78-.705 1.319-.918.542-.217 1.169-.325 1.881-.325.496 0 .97.058 1.423.174.457.116.862.296 1.214.54.357.244.637.558.842.941.206.38.308.835.308 1.365v6.017h-2.346v-1.237h-.07a2.514 2.514 0 01-.575.738c-.24.209-.528.374-.865.494a3.584 3.584 0 01-1.168.174zm.709-1.708c.364 0 .685-.071.964-.215.279-.147.498-.344.656-.592.159-.248.238-.529.238-.842v-.947c-.077.05-.183.097-.319.139a5.842 5.842 0 01-.447.111c-.167.031-.333.06-.5.087l-.453.064a3.04 3.04 0 00-.761.203 1.22 1.22 0 00-.505.378.916.916 0 00-.18.58c0 .337.122.595.366.773.248.174.561.261.941.261zm6.235 1.539v-8.921h2.399v1.557h.093c.162-.554.435-.972.819-1.255.383-.286.824-.43 1.324-.43a3.638 3.638 0 01.778.087v2.196a3.199 3.199 0 00-.482-.093 4.35 4.35 0 00-.563-.041c-.364 0-.69.08-.976.238a1.756 1.756 0 00-.674.651c-.163.279-.244.6-.244.964v5.047h-2.474zm11.885-8.921v1.859h-5.373v-1.859h5.373zm-4.153-2.137h2.474v8.317c0 .228.035.407.105.534a.58.58 0 00.29.262c.128.05.275.075.442.075.116 0 .232-.009.348-.029l.267-.052.389 1.841a7.038 7.038 0 01-.522.134 4.174 4.174 0 01-.819.098c-.597.024-1.119-.056-1.568-.238a2.183 2.183 0 01-1.04-.848c-.248-.383-.37-.867-.366-1.452v-8.642zm5.765 11.058v-8.921h2.474v8.921h-2.474zm1.243-10.071c-.368 0-.684-.122-.947-.366a1.184 1.184 0 01-.389-.888c0-.341.129-.634.389-.878.263-.247.579-.371.947-.371.367 0 .681.124.94.371.264.244.395.537.395.878 0 .344-.131.64-.395.888a1.322 1.322 0 01-.94.366zm7.958 1.15v1.859h-5.372v-1.859h5.372zm-4.153-2.137h2.475v8.317c0 .228.034.407.104.534.07.124.167.211.291.262.127.05.274.075.441.075.116 0 .232-.009.348-.029l.268-.052.389 1.841a7.088 7.088 0 01-.523.134 4.174 4.174 0 01-.819.098c-.596.024-1.119-.056-1.568-.238a2.188 2.188 0 01-1.04-.848c-.248-.383-.37-.867-.366-1.452v-8.642zm5.765 11.058v-8.921h2.474v8.921h-2.474zm1.243-10.071c-.368 0-.684-.122-.947-.366a1.188 1.188 0 01-.389-.888c0-.341.13-.634.389-.878.263-.247.579-.371.947-.371s.681.124.941.371c.263.244.395.537.395.878 0 .344-.132.64-.395.888-.26.244-.573.366-.941.366zm7.244 10.246c-.902 0-1.682-.192-2.341-.575a3.95 3.95 0 01-1.516-1.615c-.356-.693-.534-1.497-.534-2.41 0-.922.178-1.727.534-2.417a3.893 3.893 0 011.516-1.614c.659-.387 1.439-.581 2.341-.581.902 0 1.681.194 2.335.581a3.881 3.881 0 011.522 1.614c.356.69.534 1.495.534 2.417 0 .913-.178 1.717-.534 2.41a3.938 3.938 0 01-1.522 1.615c-.654.383-1.433.575-2.335.575zm.012-1.917c.41 0 .753-.116 1.028-.349.275-.236.482-.557.621-.964.143-.406.215-.869.215-1.388a4.17 4.17 0 00-.215-1.388c-.139-.407-.346-.728-.621-.964s-.618-.354-1.028-.354c-.415 0-.763.118-1.046.354-.279.236-.49.557-.633.964a4.28 4.28 0 00-.209 1.388c0 .519.07.982.209 1.388.143.407.354.728.633.964.283.233.631.349 1.046.349zm8.462-3.415v5.157h-2.474v-8.921h2.358v1.574h.105c.197-.519.528-.929.993-1.231.464-.306 1.028-.459 1.69-.459.619 0 1.16.135 1.62.407.461.271.819.658 1.075 1.161.255.5.383 1.096.383 1.789v5.68h-2.474v-5.239c.004-.545-.136-.971-.418-1.277-.283-.31-.672-.465-1.168-.465-.333 0-.627.072-.882.215-.252.143-.45.352-.593.627-.139.271-.211.598-.215.982zm16.638-6.738v11.895h-2.515v-9.508h-.07l-2.724 1.708v-2.23l2.945-1.865h2.364zm-83.223-36.218v-2.513h11.839v2.513h-4.413V241h-3.013v-11.902h-4.413zm16.376 12.113c-1.093 0-2.039-.232-2.836-.697a4.762 4.762 0 01-1.837-1.956c-.432-.84-.648-1.814-.648-2.921 0-1.117.216-2.093.648-2.929a4.702 4.702 0 011.837-1.956c.797-.47 1.743-.704 2.836-.704 1.094 0 2.037.234 2.83.704a4.693 4.693 0 011.844 1.956c.432.836.648 1.812.648 2.929 0 1.107-.216 2.081-.648 2.921a4.753 4.753 0 01-1.844 1.956c-.793.465-1.736.697-2.83.697zm.014-2.323c.498 0 .913-.14 1.246-.422.333-.286.584-.676.753-1.168.174-.493.261-1.054.261-1.683 0-.628-.087-1.189-.261-1.682-.169-.493-.42-.882-.753-1.168-.333-.287-.748-.43-1.246-.43-.502 0-.924.143-1.267.43-.337.286-.593.675-.767 1.168-.169.493-.253 1.054-.253 1.682 0 .629.084 1.19.253 1.683.174.492.43.882.767 1.168.343.282.765.422 1.267.422zm6.584 6.166v-14.865h2.956v1.816h.134c.131-.291.321-.587.57-.887a3.01 3.01 0 01.985-.761c.409-.206.915-.309 1.521-.309.788 0 1.515.206 2.182.619.666.408 1.199 1.025 1.598 1.851.398.822.598 1.852.598 3.09 0 1.206-.195 2.225-.584 3.055-.385.826-.911 1.452-1.577 1.879a4.042 4.042 0 01-2.224.634c-.582 0-1.077-.096-1.485-.289a3.062 3.062 0 01-.993-.725 3.656 3.656 0 01-.591-.894h-.092v5.786h-2.998zm2.935-9.46c0 .643.089 1.204.268 1.683.178.478.436.851.774 1.119.338.262.748.394 1.232.394.488 0 .901-.134 1.238-.401.338-.273.594-.648.768-1.127.178-.483.267-1.039.267-1.668 0-.624-.087-1.173-.26-1.647-.174-.474-.43-.844-.768-1.112-.337-.267-.753-.401-1.245-.401-.488 0-.901.129-1.239.387-.333.258-.589.624-.767 1.098-.179.474-.268 1.032-.268 1.675zm8.934 5.406v-10.811h2.999V241h-2.999zm1.507-12.205a1.63 1.63 0 01-1.148-.444 1.437 1.437 0 01-.471-1.076c0-.413.157-.768.471-1.063.32-.301.702-.451 1.148-.451.446 0 .826.15 1.14.451.319.295.479.65.479 1.063 0 .417-.16.776-.479 1.076a1.602 1.602 0 01-1.14.444zm8.105 12.416c-1.107 0-2.06-.234-2.857-.704a4.759 4.759 0 01-1.83-1.971c-.423-.839-.634-1.806-.634-2.899 0-1.108.214-2.079.641-2.915a4.756 4.756 0 011.837-1.963c.793-.474 1.736-.711 2.829-.711.944 0 1.769.171 2.478.514a4.13 4.13 0 011.682 1.443c.413.619.641 1.346.683 2.182h-2.83c-.079-.54-.291-.974-.633-1.303-.338-.333-.781-.499-1.33-.499-.465 0-.871.126-1.218.38-.343.248-.61.612-.803 1.091-.192.478-.288 1.058-.288 1.738 0 .69.094 1.277.281 1.76.193.483.463.852.81 1.105.347.253.753.38 1.218.38.342 0 .65-.07.922-.211a1.78 1.78 0 00.682-.612c.183-.273.303-.599.359-.979h2.83c-.047.826-.272 1.553-.676 2.182a4.083 4.083 0 01-1.654 1.464c-.704.352-1.537.528-2.499.528zM907.32 241v-14.415h5.771c1.061 0 1.946.157 2.654.471.709.315 1.241.751 1.598 1.31.356.553.535 1.191.535 1.914 0 .563-.113 1.058-.338 1.485-.225.423-.535.77-.929 1.042-.39.267-.835.457-1.338.57v.141a3.297 3.297 0 012.717 1.668c.301.512.451 1.122.451 1.83 0 .765-.19 1.448-.57 2.048-.376.596-.932 1.068-1.668 1.415-.737.347-1.645.521-2.724.521h-6.159zm3.048-2.492h2.484c.85 0 1.469-.162 1.858-.485.39-.329.585-.765.585-1.31 0-.398-.097-.75-.289-1.055a1.953 1.953 0 00-.824-.718c-.351-.174-.771-.261-1.259-.261h-2.555v3.829zm0-5.891h2.259c.418 0 .788-.073 1.112-.218.329-.15.587-.362.774-.634.193-.272.289-.598.289-.978 0-.521-.185-.941-.556-1.26-.366-.319-.887-.479-1.563-.479h-2.315v3.569z" fill="#1A1A1A"></path><path d="M1042.68 194.183a2.23 2.23 0 00-1.6-.669c-.29-.001-.58.058-.86.172-.27.115-.51.284-.72.497h-.01c-.21.213-.38.465-.49.743-.11.278-.17.575-.17.875 0 .603.23 1.184.65 1.614l.01.011c.21.211.46.379.73.492.27.114.56.172.86.17.62 0 1.19-.251 1.59-.662l.01-.011c.4-.407.64-.977.64-1.614a2.32 2.32 0 00-.65-1.618h.01zm-1.6 31.304c.63 0 1.19-.26 1.6-.667v-.011c.41-.406.65-.979.65-1.609 0-.645-.25-1.208-.65-1.621a2.22 2.22 0 00-1.6-.671c-.29-.002-.58.057-.86.172-.27.115-.51.285-.72.499h-.01a2.282 2.282 0 00-.65 1.621c-.01.601.23 1.18.65 1.609l.01.011c.21.211.45.378.73.493.27.114.56.173.85.173v.001zm12.25-6.928a2.244 2.244 0 001.37-1.062l.04-.081c.26-.51.33-1.101.18-1.656a2.26 2.26 0 00-1.05-1.39l-.03-.022a2.224 2.224 0 00-1.68-.205c-.55.142-1.06.521-1.36 1.066-.3.528-.38 1.151-.23 1.738.15.582.53 1.082 1.05 1.392a2.2 2.2 0 001.71.215v.005zm-9.95-11.395a3.193 3.193 0 00-3.55-.72c-.4.167-.75.411-1.05.719a3.313 3.313 0 00-.95 2.34c0 .877.34 1.72.95 2.35.59.595 1.4.967 2.29.967.89 0 1.72-.372 2.31-.967.61-.63.95-1.473.95-2.351 0-.875-.34-1.716-.95-2.34v.002zm-1.29-3.898c1.29.219 2.47.841 3.38 1.777h.01c.14.148.28.302.41.464l2.24-1.321a4.966 4.966 0 01-.07-2.807 4.901 4.901 0 012.26-2.991l.04-.024a4.767 4.767 0 015.33.377c.51.394.93.883 1.24 1.441v.004c.67 1.175.81 2.524.49 3.738a4.902 4.902 0 01-2.26 2.994l-.31.184h-.03a4.789 4.789 0 01-3.34.312 4.878 4.878 0 01-2.35-1.465l-2.24 1.316c.27.714.4 1.469.4 2.231 0 .785-.14 1.543-.4 2.24l2.24 1.314a4.818 4.818 0 012.35-1.466 4.716 4.716 0 013.68.496l.08.036v.003a4.934 4.934 0 012.18 2.96c.33 1.26.16 2.6-.49 3.734l-.04.083a4.887 4.887 0 01-2.9 2.23 4.811 4.811 0 01-3.68-.493v-.01a4.91 4.91 0 01-2.26-2.992 4.954 4.954 0 01.08-2.803l-2.25-1.317c-.13.159-.26.311-.41.457v.007a6.13 6.13 0 01-3.38 1.766v2.638c.92.198 1.76.664 2.42 1.338v.007a4.933 4.933 0 011.42 3.483c0 1.3-.51 2.549-1.42 3.476v.014a4.857 4.857 0 01-3.43 1.436 4.79 4.79 0 01-3.42-1.444h-.01v-.014a4.978 4.978 0 010-6.96v-.007h.01a4.688 4.688 0 012.41-1.338v-2.637a6.07 6.07 0 01-3.37-1.767v-.007a6.327 6.327 0 01-1.83-4.463c0-1.741.7-3.316 1.82-4.459h.01a6.102 6.102 0 013.37-1.777v-2.627a4.874 4.874 0 01-2.42-1.341v-.007a4.982 4.982 0 010-6.967l.01-.004c.45-.457.98-.821 1.56-1.07a4.793 4.793 0 011.86-.377c1.33 0 2.54.552 3.43 1.447v.004a4.983 4.983 0 010 6.966v.007a4.918 4.918 0 01-2.42 1.342v2.633zm12.61-1.752l-.02-.028a2.257 2.257 0 00-2.23-1.098c-.3.04-.58.137-.83.288-.54.311-.9.82-1.05 1.39-.16.587-.07 1.21.23 1.738l.01.014c.31.538.8.9 1.35 1.045.56.159 1.17.092 1.71-.223l.02-.015c.53-.318.88-.821 1.02-1.373.15-.57.09-1.192-.21-1.738zm9.95.772h2.5v7.777l3.62-4.063h3.01l-4.36 4.708 4.36 5.959h-2.87l-3.76-5.331v5.331h-2.51v-14.388l.01.007zm12.02 9.09c0 1.324.93 3.249 3.19 3.249 1.4 0 2.31-.74 2.79-1.709.25-.471.36-.975.4-1.505.02-.516-.08-1.03-.29-1.502-.43-1.008-1.41-1.882-2.92-1.882-2.02 0-3.17 1.669-3.17 3.323v.026zm8.87 5.291h-2.51v-1.536c-.67 1.242-2.06 1.865-3.53 1.865-3.37 0-5.34-2.666-5.34-5.677 0-3.363 2.39-5.657 5.34-5.657 1.91 0 3.07 1.03 3.53 1.887v-1.558h2.51v10.676zm2.83-8.711h-1.29v-1.963h1.29v-.602c0-3.172 2.37-3.364 4.17-3.384v1.96c-.63 0-1.66 0-1.66 1.501v.523h1.66v1.964h-1.66v8.712h-2.51v-8.711zm5.88-5.677h2.5v7.777l3.61-4.063h3.01l-4.36 4.708 4.37 5.966h-2.87l-3.76-5.331v5.331h-2.5v-14.388zm12.02 9.097c0 1.324.94 3.249 3.19 3.249 1.4 0 2.32-.74 2.8-1.709.25-.471.36-.975.4-1.505a3.388 3.388 0 00-.29-1.502c-.43-1.008-1.41-1.882-2.92-1.882-2.02 0-3.17 1.669-3.17 3.323v.018l-.01.008zm8.86 5.291h-2.5v-1.536c-.67 1.242-2.07 1.865-3.54 1.865-3.36 0-5.33-2.666-5.33-5.677 0-3.363 2.39-5.657 5.33-5.657 1.91 0 3.08 1.03 3.54 1.887v-1.558h2.5v10.676z" fill="#1A464C"></path><path d="M919.824 833.658l.006-.438c.004-.364.136-.618.393-.76.293-.142.622-.21.987-.205.292.004.565.044.819.12.254.04.452.243.593.61.102.548.201 1.315.297 2.301.096.949.209 2.008.339 3.177.13 1.168.259 2.41.387 3.724.165 1.279.312 2.502.442 3.671.167 1.132.336 2.155.505 3.069.17.914.361 1.61.574 2.086-.062-3.501.089-6.525.451-9.072.364-2.584 1.012-4.672 1.945-6.264.971-1.627 2.262-2.74 3.874-3.338 1.65-.633 3.693-.751 6.131-.354 1.13.016 1.687.625 1.67 1.828-.006.474-.32.798-.943.972a15.53 15.53 0 01-2.082.299c-.766.026-1.514.071-2.244.134-.73.063-1.262.238-1.594.525-1.322.711-2.267 1.829-2.835 3.352-.531 1.525-.92 3.324-1.167 5.399a113.275 113.275 0 00-.585 6.829 61.452 61.452 0 01-.814 7.536c-.005.365-.155.636-.449.814-.294.179-.66.265-1.097.259a2.896 2.896 0 01-1.2-.29 2.105 2.105 0 01-.863-.832l-3.54-25.152zm23.588 14.87l-.822.152a3.985 3.985 0 01-1.149.039 2.32 2.32 0 01-1.035-.342c-.326-.187-.485-.499-.479-.936.003-.255.06-.437.171-.545.111-.108.295-.269.554-.484.811-.646 1.496-1.475 2.057-2.488a31 31 0 001.631-3.314 104.65 104.65 0 011.525-3.534 18.24 18.24 0 011.904-3.201 8.145 8.145 0 012.601-2.262c1.029-.569 2.29-.826 3.784-.769.62.009 1.311.164 2.072.466a8.223 8.223 0 012.116 1.232 6.268 6.268 0 011.617 1.772c.428.699.636 1.468.625 2.306.178.294-.01.711-.564 1.25-.518.54-1.237 1.132-2.157 1.776a61.054 61.054 0 01-3.144 1.926 172.148 172.148 0 01-3.306 1.814 642.434 642.434 0 01-2.81 1.493c-.808.427-1.341.748-1.599.963a5.61 5.61 0 00-.455 1.252 22.61 22.61 0 00-.292 1.363c-.042.401-.084.783-.125 1.147l-.01.765c-.01.693-.057 1.458-.141 2.296a13.07 13.07 0 00.076 2.407c.136.731.438 1.355.905 1.872.467.48 1.266.728 2.396.744a6.912 6.912 0 003.402-.829 15.758 15.758 0 002.984-2.202 20.229 20.229 0 002.499-2.81 62.55 62.55 0 002.062-2.816 33.697 33.697 0 011.671-2.219c.482-.577.887-.863 1.215-.859.365.005.747.083 1.146.235.436.115.65.41.644.884-.009.656-.293 1.436-.853 2.34-.522.904-1.228 1.861-2.117 2.87a28.804 28.804 0 01-2.995 3.022 36.962 36.962 0 01-3.372 2.633 24.25 24.25 0 01-3.361 1.869c-1.101.459-2.07.683-2.908.671-1.641-.022-2.875-.44-3.702-1.254-.828-.813-1.416-1.824-1.764-3.032a16.142 16.142 0 01-.494-3.835c.018-1.385.018-2.661-.003-3.828zm10.263-14.627c-.62-.009-1.28.292-1.981.902-.701.574-1.367 1.294-1.999 2.161a15.629 15.629 0 00-1.512 2.604c-.376.87-.569 1.597-.577 2.18.547.008 1.334-.182 2.36-.569a22.955 22.955 0 003.139-1.543 17.545 17.545 0 002.706-1.933c.775-.682 1.167-1.333 1.175-1.952a1.035 1.035 0 00-.372-.826 3.27 3.27 0 00-.922-.559 4.903 4.903 0 00-1.034-.343 5.059 5.059 0 00-.983-.122zm13.823 41.153c.453-3.822.722-7.465.805-10.928.12-3.425.148-6.816.084-10.171a322.332 322.332 0 00-.244-10.177 252.194 252.194 0 01-.18-10.886c.117-.509.25-.89.399-1.143.186-.289.643-.356 1.37-.2.763.193 1.213.636 1.349 1.331.137.658.163 1.406.079 2.243a29.59 29.59 0 01-.362 2.511c-.158.837-.167 1.511-.028 2.024a271.74 271.74 0 013.754-2.574 30.989 30.989 0 014.134-2.351 17.9 17.9 0 014.451-1.525 10.281 10.281 0 014.594.008c1.89.463 3.193 1.137 3.91 2.022.754.849 1.033 1.837.835 2.965-.161 1.092-.688 2.306-1.581 3.643-.893 1.3-1.986 2.616-3.281 3.948a50.451 50.451 0 01-4.319 3.933 118.322 118.322 0 01-4.644 3.601 80.267 80.267 0 01-4.25 2.841c-1.287.821-2.316 1.427-3.087 1.818a323.44 323.44 0 00-.193 2.075c-.049.911-.117 1.949-.206 3.115a146.615 146.615 0 01-.214 3.662 108.498 108.498 0 01-.214 3.661 64.958 64.958 0 01-.207 3.115 55.679 55.679 0 00-.082 2.022c-.074.036-.202.07-.384.104-.183.034-.402.05-.657.046a5.048 5.048 0 01-.712.045c-.219.034-.365.032-.437-.006-.11-.001-.218-.112-.324-.332-.107-.184-.16-.331-.158-.44zm3.471-29.924c-.117.508-.162 1.146-.136 1.912.063.73.125 1.515.187 2.354.098.804.197 1.589.296 2.356.099.767.163 1.424.192 1.972 1.4-1.039 3.018-2.092 4.856-3.161a59.428 59.428 0 005.407-3.481 27.353 27.353 0 004.706-4.202c1.371-1.549 2.288-3.305 2.752-5.268.156-.763.091-1.275-.198-1.534-.251-.295-.704-.502-1.358-.62-1.382-.311-2.969-.223-4.762.263a22.008 22.008 0 00-5.224 2.062 18.888 18.888 0 00-4.366 3.331c-1.258 1.296-2.042 2.634-2.352 4.016zm24.76 13.135c.279-1.673.471-3.767.578-6.281.144-2.514.217-5.193.219-8.037.039-2.844.024-5.779-.044-8.806a276.12 276.12 0 00-.32-8.591c-.145-2.737-.33-5.183-.556-7.337-.19-2.154-.404-3.852-.642-5.095a8.02 8.02 0 01.827-.481 1.74 1.74 0 01.878-.207c.255.004.473.061.654.173.181.076.325.26.43.553a325.04 325.04 0 011.182 21.62c.193 7.258.313 14.479.361 21.663l-.019 1.367c-.007.547-.03.838-.067.874-.513.248-.971.37-1.372.364a2.736 2.736 0 01-1.089-.343 2.9 2.9 0 01-.756-.721c-.179-.258-.267-.496-.264-.715zm7.411 1.797c.04-2.37.01-4.868-.06-7.494-.04-2.626-.09-5.27-.16-7.933-.04-2.698-.02-5.341.05-7.929s.27-5.01.59-7.266c.07-.036.24-.052.49-.048.3-.033.5-.048.61-.047.51.007.91.104 1.2.29.32.15.48.499.47 1.046-.03 2.151-.08 4.502-.15 7.053-.03 2.515-.09 5.085-.16 7.71-.03 2.588-.07 5.158-.1 7.71-.04 2.552-.03 4.867.01 6.946.03.62-.1 1.019-.4 1.198-.26.215-.58.32-.99.314-.43-.006-.8-.12-1.09-.343-.28-.186-.39-.588-.31-1.207zm-.67-39.169c.01-.438.16-.727.45-.869.3-.142.63-.21.99-.205.73.01 1.18.253 1.36.729.17.477.26 1.025.25 1.644-.23.398-.5.686-.83.864-.33.141-.68.173-1.04.095-.33-.114-.62-.355-.87-.723-.21-.367-.31-.879-.31-1.535zm7.39 27.775c.13-1.311.26-2.731.39-4.261.13-1.566.31-3.113.55-4.641.28-1.528.61-2.982.99-4.362.42-1.38.95-2.594 1.58-3.643.67-1.084 1.49-1.93 2.44-2.537.96-.643 2.11-.937 3.46-.883.91.013 1.6.405 2.06 1.177.5.773.84 1.707 1.01 2.803.2 1.097.29 2.228.28 3.395.02 1.13.02 2.06.01 2.789-.72-.01-1.32-.328-1.79-.954a7.579 7.579 0 01-1.06-2.257c-.24-.842-.42-1.664-.51-2.468l-.15-1.588-.22-.003a.395.395 0 00-.16-.057c-.62-.008-1.21.33-1.76 1.015-.52.686-1.03 1.572-1.52 2.66a24.277 24.277 0 00-1.19 3.593 52.804 52.804 0 00-.88 3.871c-.23 1.273-.43 2.455-.59 3.547-.13 1.056-.19 1.875-.2 2.459-.08.946-.1 1.985-.04 3.116.06 1.132.26 2.192.61 3.181.35.989.85 1.853 1.5 2.591.64.702 1.51 1.187 2.6 1.457 1.35.019 2.45-.148 3.29-.502.84-.353 1.53-.836 2.04-1.448.56-.613.99-1.3 1.29-2.061.3-.762.59-1.542.85-2.34.31-.835.61-1.651.91-2.449.3-.798.73-1.54 1.29-2.225.44-.103.75-.081.93.067.22.113.36.279.43.498.07.22.1.476.1.768l-.01.601c-.02 1.531-.3 3.004-.83 4.419a11.884 11.884 0 01-2.29 3.797c-1 1.08-2.2 1.957-3.59 2.631-1.36.638-2.91.945-4.66.921-1.46-.02-2.68-.492-3.65-1.417-.93-.961-1.66-2.101-2.19-3.421-.5-1.319-.84-2.691-1.04-4.116-.2-1.461-.29-2.702-.28-3.723zm37.25 11.665c-.17-.95-.32-2.082-.44-3.397-.09-1.35-.2-2.701-.33-4.051a49.965 49.965 0 00-.5-3.89c-.16-1.206-.44-2.194-.83-2.965-1.91 3.766-3.59 6.733-5.04 8.901-1.45 2.131-2.73 3.663-3.84 4.596-1.07.897-1.97 1.322-2.7 1.276-.73-.046-1.32-.383-1.79-1.009-.46-.626-.8-1.415-1.01-2.365-.16-.987-.28-1.9-.34-2.74.01-.802.21-1.929.59-3.383.39-1.453.9-3.032 1.54-4.737.65-1.741 1.4-3.499 2.26-5.274.9-1.774 1.85-3.384 2.86-4.829 1-1.445 2.04-2.634 3.11-3.567 1.07-.934 2.13-1.393 3.19-1.379 1.57-.233 2.72.129 3.43 1.086.75.922.88 2.473.38 4.654-.04 2.406.03 4.467.18 6.183.2 1.717.4 3.36.59 4.931.24 1.571.43 3.214.59 4.93.2 1.716.28 3.777.25 6.183-.01.438-.07.82-.18 1.147-.08.29-.52.43-1.32.419-.11-.001-.26-.094-.43-.279-.15-.185-.22-.331-.22-.441zm-2.62-24.483c-.39-.589-.94-.651-1.64-.186-.69.464-1.43 1.238-2.21 2.321-.79 1.083-1.59 2.385-2.41 3.905a83.17 83.17 0 00-2.31 4.618 70.003 70.003 0 00-1.86 4.459c-.53 1.378-.89 2.522-1.09 3.431-.01 1.312.18 2.062.57 2.25.4.151.9-.061 1.49-.636s1.26-1.405 2-2.489a41.04 41.04 0 002.24-3.469c.74-1.23 1.43-2.424 2.07-3.582.67-1.158 1.2-2.098 1.57-2.823.34-.761.6-1.468.79-2.122.2-.653.35-1.271.47-1.853.15-.618.23-1.236.24-1.856.05-.619.07-1.275.08-1.968zm11.91 25.212c0 .036.39-.177 1.16-.641.81-.463 1.74-1.07 2.81-1.821a85.356 85.356 0 003.37-2.525c1.15-.932 2.09-1.813 2.83-2.641.74-.829 1.13-1.534 1.17-2.117.09-.619-.4-1.027-1.46-1.223-1.3-.2-2.42-.197-3.33.009-.88.207-1.68.451-2.42.733-.73.281-1.43.545-2.09.792-.62.246-1.31.328-2.08.245-1.6-.022-2.71-.529-3.31-1.522-.57-1.029-.85-2.4-.82-4.113a10.77 10.77 0 011.21-4.851c.79-1.558 1.79-2.893 3.01-4.007a13.873 13.873 0 014.19-2.622c1.58-.672 3.19-.996 4.83-.974.65.009 1.22.072 1.69.187.47.116.7.539.69 1.268 0 .51-.23.999-.67 1.467-.44.432-.94.644-1.49.636-.03 0-.12-.02-.27-.058a2.903 2.903 0 01-.43-.279 1.245 1.245 0 00-.44-.225c-.14-.075-.23-.113-.27-.113-1.16-.344-2.29-.196-3.4.446-1.1.641-2.1 1.521-2.99 2.639a14.746 14.746 0 00-2.07 3.581c-.53 1.269-.8 2.414-.81 3.435-.01.401.06.73.2.987.18.221.4.388.65.501.29.114.6.191.93.232l1.09.015c.73.009 1.46-.09 2.2-.299.76-.208 1.5-.453 2.19-.735.74-.282 1.47-.527 2.2-.736a8.573 8.573 0 012.36-.296c.36.005.76.12 1.2.344.43.189.83.486 1.19.892.36.369.66.811.91 1.325.25.477.39 1.008.41 1.591.22.514.13 1.187-.24 2.021-.34.834-.86 1.72-1.57 2.658-.71.939-1.56 1.893-2.55 2.864-1 .934-2 1.796-2.99 2.585-1 .752-1.97 1.358-2.93 1.819-.95.498-1.76.724-2.41.678-.73-.01-1.17-.234-1.31-.674-.1-.439-.15-.932-.14-1.478z" fill="#333"></path><path d="M981.061 380.439a1.502 1.502 0 00-2.122 0l-9.546 9.546a1.502 1.502 0 000 2.122 1.502 1.502 0 002.122 0l8.485-8.486 8.485 8.486a1.502 1.502 0 002.122 0 1.502 1.502 0 000-2.122l-9.546-9.546zM908.58 841.617c-1.488-.625-2.89-2.043-4.133-4.461-1.239-2.411-2.245-5.675-3.012-9.735-1.533-8.117-2.057-19.129-1.771-32.169.571-26.062 4.367-59.926 9.545-94.278 5.176-34.342 11.726-69.123 17.793-96.999 3.034-13.938 5.944-26.141 8.499-35.693 2.568-9.598 4.746-16.402 6.301-19.631l-2.703-1.302c-1.695 3.521-3.937 10.592-6.496 20.158-2.571 9.612-5.492 21.863-8.532 35.83-6.08 27.937-12.643 62.781-17.829 97.189-5.185 34.398-9.002 68.409-9.577 94.66-.288 13.115.231 24.37 1.822 32.792.795 4.208 1.87 7.783 3.292 10.549 1.418 2.759 3.255 4.856 5.641 5.856l1.16-2.766zm33.222-292.966c3.319-6.893 7.447-19.991 11.76-35.835 4.325-15.888 8.867-34.661 13.002-52.986 4.134-18.326 7.862-36.218 10.558-50.346 1.348-7.063 2.439-13.193 3.193-17.971.748-4.73 1.185-8.249 1.185-10.013h-3c0 1.486-.392 4.764-1.148 9.545-.748 4.734-1.832 10.831-3.177 17.877-2.688 14.091-6.41 31.949-10.538 50.248-4.128 18.3-8.66 37.027-12.97 52.858-4.321 15.875-8.387 28.714-11.568 35.321l2.703 1.302zm-343.69-162.158a1.5 1.5 0 00-2.119-.105l-10.006 9.063a1.5 1.5 0 002.014 2.224l8.894-8.056 8.056 8.894a1.5 1.5 0 002.224-2.014l-9.063-10.006zm301.887 463.093c-134.963-47.649-212.505-117.804-255.236-198.6-42.754-80.841-50.759-172.526-46.265-263.412l-2.996-.148c-4.506 91.114 3.489 183.429 46.609 264.963 43.145 81.579 121.353 152.174 256.89 200.025l.998-2.828zM218.406 665.805a1.499 1.499 0 00-2.101.289l-8.158 10.756a1.501 1.501 0 002.391 1.813l7.251-9.561 9.561 7.251a1.501 1.501 0 001.813-2.391l-10.757-8.157zM421 807.5l-.41 1.443.41-1.443zM216.014 667.204c4.811 35.012 44.926 96.32 204.576 141.739l.82-2.886c-159.343-45.332-197.868-106.101-202.424-139.261l-2.972.408zM420.59 808.943c73.607 20.94 176.741 38.489 270.055 49.035 46.664 5.274 90.898 8.799 127.781 10.121 36.839 1.319 66.477.447 83.876-3.13l-.604-2.938c-17.013 3.497-46.331 4.389-83.164 3.069-36.789-1.318-80.943-4.836-127.552-10.103-93.232-10.537-196.186-28.062-269.572-48.94l-.82 2.886z" fill="#000"></path></g></svg>