<svg viewBox="0 0 1200 900" fill="none" xmlns="http://www.w3.org/2000/svg"><path fill="#fff" d="M0 0h1200v900H0z"></path><path fill-rule="evenodd" clip-rule="evenodd" d="M589 744.599v42.402a3.942 3.942 0 01-.172 1.161 4.05 4.05 0 01-.502 1.061 4.013 4.013 0 01-2.933 1.758 3.956 3.956 0 01-.392.019H231.999a3.942 3.942 0 01-1.161-.172 4.05 4.05 0 01-1.061-.502 4.013 4.013 0 01-1.758-2.933 3.942 3.942 0 01-.019-.392v-42.402a3.942 3.942 0 01.172-1.161 4.05 4.05 0 01.502-1.061 4.013 4.013 0 012.933-1.758c.13-.012.261-.019.392-.019h353.002a3.86 3.86 0 011.161.172 4.104 4.104 0 011.061.502 4.013 4.013 0 011.758 2.933c.013.13.019.261.019.392z" fill="#7C7C7C"></path><path fill-rule="evenodd" clip-rule="evenodd" d="M279.212 751.52H517.64v6.72H279.212v-6.72z" fill="#D8D8D8"></path><path fill-rule="evenodd" clip-rule="evenodd" d="M238.914 751.52h15.112v6.72h-15.112v-6.72z" fill="#D7D7D7"></path><path fill-rule="evenodd" clip-rule="evenodd" d="M551.221 751.52h6.716v6.72h-6.716v-6.72z" fill="#D7D400"></path><path fill-rule="evenodd" clip-rule="evenodd" d="M541.146 751.52h6.717v6.72h-6.717v-6.72z" fill="#FF3C00"></path><path fill-rule="evenodd" clip-rule="evenodd" d="M562.974 751.52h15.112v6.72h-15.112v-6.72z" fill="#00CD00"></path><path fill-rule="evenodd" clip-rule="evenodd" d="M279.212 762.44H517.64v6.72H279.212v-6.72z" fill="#D8D8D8"></path><path fill-rule="evenodd" clip-rule="evenodd" d="M238.914 762.44h15.112v6.72h-15.112v-6.72z" fill="#D7D7D7"></path><path fill-rule="evenodd" clip-rule="evenodd" d="M551.221 762.44h6.716v6.72h-6.716v-6.72z" fill="#D7D400"></path><path fill-rule="evenodd" clip-rule="evenodd" d="M541.146 762.44h6.717v6.72h-6.717v-6.72z" fill="#FF3C00"></path><path fill-rule="evenodd" clip-rule="evenodd" d="M562.974 762.44h15.112v6.72h-15.112v-6.72z" fill="#00CD00"></path><path fill-rule="evenodd" clip-rule="evenodd" d="M279.212 773.36H517.64v6.72H279.212v-6.72z" fill="#D8D8D8"></path><path fill-rule="evenodd" clip-rule="evenodd" d="M238.914 773.36h15.112v6.72h-15.112v-6.72z" fill="#D7D7D7"></path><path fill-rule="evenodd" clip-rule="evenodd" d="M551.221 773.36h6.716v6.72h-6.716v-6.72z" fill="#D7D400"></path><path fill-rule="evenodd" clip-rule="evenodd" d="M541.146 773.36h6.717v6.72h-6.717v-6.72z" fill="#FF3C00"></path><path fill-rule="evenodd" clip-rule="evenodd" d="M562.974 773.36h15.112v6.72h-15.112v-6.72z" fill="#00CD00"></path><path fill-rule="evenodd" clip-rule="evenodd" d="M589 115.584v612.832a7.688 7.688 0 01-.172 1.621 7.053 7.053 0 01-.3 1.011 6.344 6.344 0 01-.436.911 4.888 4.888 0 01-.869 1.1 3.62 3.62 0 01-1.061.701 2.962 2.962 0 01-.381.132 2.876 2.876 0 01-.78.108H231.999a2.858 2.858 0 01-.78-.108 2.962 2.962 0 01-.381-.132 3.62 3.62 0 01-1.061-.701 4.888 4.888 0 01-.869-1.1 6.344 6.344 0 01-.436-.911 6.872 6.872 0 01-.3-1.011 7.42 7.42 0 01-.172-1.621V115.584a7.668 7.668 0 01.304-2.137 6.21 6.21 0 01.604-1.405 5.337 5.337 0 01.554-.774 4.253 4.253 0 01.652-.609 3.62 3.62 0 01.724-.419 3.129 3.129 0 01.769-.213c.13-.018.261-.027.392-.027h353.002a2.87 2.87 0 01.78.107 3.129 3.129 0 01.75.318 3.62 3.62 0 01.692.516 4.907 4.907 0 01.869 1.101 5.918 5.918 0 01.436.91 7.214 7.214 0 01.395 1.543 8.087 8.087 0 01.077 1.089z" fill="#7C7C7C"></path><path fill-rule="evenodd" clip-rule="evenodd" d="M240.998 140h335.004a1.435 1.435 0 01.58.125 1.705 1.705 0 01.53.362 2.327 2.327 0 01.434.571 3.096 3.096 0 01.302.728 3.718 3.718 0 01.114.542c.013.093.022.187.028.281.007.094.01.189.01.284v558.214c0 .095-.003.189-.01.284a3.764 3.764 0 01-.142.823 3.334 3.334 0 01-.433.938 2.183 2.183 0 01-.146.191 1.96 1.96 0 01-.325.315 1.996 1.996 0 01-.177.122 1.734 1.734 0 01-.375.165 1.31 1.31 0 01-.194.04c-.065.01-.131.015-.196.015H240.998c-.065 0-.131-.005-.196-.015a1.31 1.31 0 01-.384-.109 1.806 1.806 0 01-.53-.364 2.14 2.14 0 01-.303-.359 2.853 2.853 0 01-.349-.683 3.334 3.334 0 01-.15-.523 4.272 4.272 0 01-.076-.556 3.85 3.85 0 01-.01-.284V142.893a4.38 4.38 0 01.038-.565 4.154 4.154 0 01.114-.542 3.51 3.51 0 01.185-.5c.036-.079.075-.155.117-.228a2.59 2.59 0 01.434-.571 1.895 1.895 0 01.53-.362 1.4 1.4 0 01.384-.111c.065-.009.131-.014.196-.014z" fill="#fff"></path><path fill-rule="evenodd" clip-rule="evenodd" d="M238.914 124.08h339.172v6.72H238.914v-6.72zm0 589.64h339.172v6.72H238.914v-6.72z" fill="#D7D7D7"></path><path d="M268.063 169v-12.233h4.898c.9 0 1.651.134 2.252.4.601.267 1.053.638 1.356 1.111.302.47.454 1.012.454 1.625 0 .478-.096.898-.287 1.26a2.472 2.472 0 01-.788.884 3.226 3.226 0 01-1.135.484v.12a2.792 2.792 0 012.305 1.415c.255.434.383.952.383 1.553 0 .649-.162 1.229-.484 1.738-.319.506-.791.906-1.416 1.201-.625.295-1.396.442-2.311.442h-5.227zm2.587-2.114h2.108c.721 0 1.246-.138 1.577-.413.33-.278.496-.649.496-1.111 0-.338-.082-.637-.245-.896a1.676 1.676 0 00-.699-.609c-.299-.147-.655-.221-1.069-.221h-2.168v3.25zm0-5h1.917c.354 0 .669-.062.944-.185.278-.127.497-.307.657-.538.163-.231.245-.507.245-.83 0-.442-.158-.798-.472-1.069-.311-.271-.753-.406-1.326-.406h-1.965v3.028zm7.86 7.114v-12.233h4.826c.924 0 1.713.166 2.366.496.657.327 1.156.79 1.499 1.392.346.597.519 1.3.519 2.108 0 .813-.175 1.511-.525 2.097-.351.581-.858 1.027-1.523 1.338-.661.31-1.462.466-2.401.466h-3.232v-2.079h2.813c.494 0 .904-.068 1.231-.203a1.47 1.47 0 00.729-.609c.163-.271.244-.608.244-1.01 0-.406-.081-.748-.244-1.027a1.504 1.504 0 00-.735-.633c-.327-.148-.739-.221-1.237-.221h-1.744V169h-2.586zm6.606-5.567l3.04 5.567h-2.855l-2.974-5.567h2.789zm15-.549c0 1.334-.253 2.468-.759 3.404-.501.936-1.186 1.651-2.054 2.145-.864.489-1.836.734-2.915.734-1.087 0-2.063-.247-2.927-.74-.864-.494-1.547-1.209-2.049-2.145-.501-.935-.752-2.068-.752-3.398 0-1.334.251-2.469.752-3.405.502-.936 1.185-1.649 2.049-2.138.864-.494 1.84-.741 2.927-.741 1.079 0 2.051.247 2.915.741.868.489 1.553 1.202 2.054 2.138.506.936.759 2.071.759 3.405zm-2.622 0c0-.864-.13-1.593-.388-2.186-.255-.594-.616-1.044-1.082-1.35-.465-.307-1.011-.46-1.636-.46s-1.171.153-1.637.46c-.466.306-.828.756-1.087 1.35-.255.593-.382 1.322-.382 2.186 0 .864.127 1.592.382 2.186.259.593.621 1.043 1.087 1.35.466.306 1.012.46 1.637.46s1.171-.154 1.636-.46c.466-.307.827-.757 1.082-1.35.258-.594.388-1.322.388-2.186zm3.864 6.116v-12.233h2.587v5.394h.161l4.402-5.394h3.1l-4.539 5.478 4.593 6.755h-3.094l-3.351-5.029-1.272 1.553V169h-2.587zm10.924 0v-12.233h8.242v2.133h-5.656v2.914h5.232v2.133h-5.232v2.921h5.68V169h-8.266zm9.625 0v-12.233h4.826c.924 0 1.713.166 2.366.496.657.327 1.157.79 1.499 1.392.346.597.52 1.3.52 2.108 0 .813-.176 1.511-.526 2.097-.35.581-.858 1.027-1.523 1.338-.661.31-1.461.466-2.401.466h-3.232v-2.079h2.814c.493 0 .904-.068 1.23-.203.327-.135.57-.339.729-.609.163-.271.245-.608.245-1.01 0-.406-.082-.748-.245-1.027a1.496 1.496 0 00-.735-.633c-.326-.148-.739-.221-1.236-.221h-1.744V169h-2.587zm6.606-5.567l3.041 5.567h-2.855l-2.975-5.567h2.789zm12.229-6.666V169h-2.587v-9.778h-.071l-2.802 1.756v-2.293l3.029-1.918h2.431z" fill="#919191"></path><path d="M548.109 178H268.891c-6.567 0-11.891 5.324-11.891 11.891v482.218c0 6.567 5.324 11.891 11.891 11.891h279.218c6.567 0 11.891-5.324 11.891-11.892V189.891c0-6.567-5.324-11.891-11.891-11.891z" fill="#EEF8F9" stroke="#D9EFF2" stroke-width="2"></path><path fill-rule="evenodd" clip-rule="evenodd" d="M268 258.184a8.184 8.184 0 018.184-8.184h265.632a8.184 8.184 0 018.184 8.184v118.632a8.184 8.184 0 01-8.184 8.184H276.184a8.184 8.184 0 01-8.184-8.184V258.184z" fill="#FCF3CF"></path><rect x="281" y="290" width="255" height="69" rx="5" fill="#53777A" fill-opacity="0.2" stroke="#53777A" stroke-width="2" stroke-dasharray="10 10"></rect><path d="M357.933 347.596h-65.769l22.716-22.5 10.168 9.952 10.168-9.952 22.717 22.5z" fill="#FFD25B"></path><path d="M358.365 347.163v-45.865L335 324.231l23.365 22.932zm-66.634 0v-45.865l23.365 22.933-23.365 22.932z" fill="#F2C357"></path><path d="M357.933 302.164h-65.769l32.451 32.451 33.318-32.451z" fill="#F0BB42"></path><path d="M358.187 300h-66.736c-.871 0-1.451.725-1.451 1.45v46.426c0 .87.58 1.451 1.451 1.451h66.738c.87 0 1.451-.581 1.451-1.451l-.001-46.426c0-.725-.58-1.45-1.451-1.45h-.001zm-65.286 4.932l19.731 19.732-19.731 19.731v-39.463zm31.918 27.856l-29.886-29.886h59.774l-29.888 29.886zm-10.156-6.093l9.14 9.14c.29.29.726.435 1.016.435.435 0 .725-.145 1.016-.435l9.14-9.14 19.73 19.731h-59.772l19.73-19.731zm22.343-2.031l19.732-19.732v39.462l-19.732-19.73z" fill="#000"></path><path d="M441.01 347.596h-65.77l22.717-22.5 10.168 9.952 10.168-9.952 22.717 22.5z" fill="#FFD25B"></path><path d="M441.442 347.163v-45.865l-23.365 22.933 23.365 22.932zm-66.634 0v-45.865l23.365 22.933-23.365 22.932z" fill="#F2C357"></path><path d="M441.01 302.164h-65.77l32.452 32.451 33.318-32.451z" fill="#F0BB42"></path><path d="M441.264 300h-66.736c-.871 0-1.451.725-1.451 1.45v46.426c0 .87.58 1.451 1.451 1.451h66.738c.87 0 1.45-.581 1.45-1.451V301.45c0-.725-.58-1.45-1.451-1.45h-.001zm-65.286 4.932l19.731 19.732-19.731 19.731v-39.463zm31.918 27.856l-29.886-29.886h59.774l-29.888 29.886zm-10.156-6.093l9.14 9.14c.29.29.726.435 1.016.435.435 0 .725-.145 1.016-.435l9.14-9.14 19.73 19.731H378.01l19.73-19.731zm22.343-2.031l19.732-19.732v39.462l-19.732-19.73z" fill="#000"></path><path d="M524.087 347.596h-65.77l22.717-22.5 10.168 9.952 10.168-9.952 22.717 22.5z" fill="#FFD25B"></path><path d="M524.519 347.163v-45.865l-23.365 22.933 23.365 22.932zm-66.634 0v-45.865l23.365 22.933-23.365 22.932z" fill="#F2C357"></path><path d="M524.087 302.164h-65.77l32.452 32.451 33.318-32.451z" fill="#F0BB42"></path><path d="M524.341 300h-66.736c-.871 0-1.451.725-1.451 1.45v46.426c0 .87.58 1.451 1.451 1.451h66.738c.87 0 1.451-.581 1.451-1.451l-.001-46.426c0-.725-.58-1.45-1.451-1.45h-.001zm-65.286 4.932l19.731 19.732-19.731 19.731v-39.463zm31.918 27.856l-29.886-29.886h59.774l-29.888 29.886zm-10.156-6.093l9.14 9.14c.29.29.726.435 1.016.435.435 0 .725-.145 1.016-.435l9.14-9.14 19.73 19.731h-59.772l19.73-19.731zm22.343-2.031l19.732-19.732v39.462l-19.732-19.73z" fill="#000"></path><path d="M316.452 320v-11.94h3.975c.796 0 1.488.153 2.077.458.6.306 1.063.736 1.39 1.292.327.546.491 1.189.491 1.93 0 .742-.164 1.391-.491 1.947-.327.545-.79.97-1.39 1.275-.589.306-1.281.458-2.077.458h-1.93V320h-2.045zm2.045-6.379h1.93c.578 0 1.036-.174 1.374-.523.338-.349.507-.802.507-1.358s-.169-1.008-.507-1.357c-.338-.349-.796-.524-1.374-.524h-1.93v3.762zm7.877 6.379v-1.848h3.107v-8.276l-3.123 2.322v-2.159l2.747-1.979h2.421v10.092h2.502V320h-7.654zm73.078 0v-11.94h3.975c.796 0 1.488.153 2.077.458.6.306 1.063.736 1.39 1.292.327.546.491 1.189.491 1.93 0 .742-.164 1.391-.491 1.947-.327.545-.79.97-1.39 1.275-.589.306-1.281.458-2.077.458h-1.93V320h-2.045zm2.045-6.379h1.93c.578 0 1.036-.174 1.374-.523.338-.349.507-.802.507-1.358s-.169-1.008-.507-1.357c-.338-.349-.796-.524-1.374-.524h-1.93v3.762zm7.877 6.379v-1.848h3.107v-8.276l-3.123 2.322v-2.159l2.747-1.979h2.421v10.092h2.502V320h-7.654zm73.078 0v-11.94h3.975c.796 0 1.488.153 2.077.458.6.306 1.063.736 1.39 1.292.327.546.491 1.189.491 1.93 0 .742-.164 1.391-.491 1.947-.327.545-.79.97-1.39 1.275-.589.306-1.281.458-2.077.458h-1.93V320h-2.045zm2.045-6.379h1.93c.578 0 1.036-.174 1.374-.523.338-.349.507-.802.507-1.358s-.169-1.008-.507-1.357c-.338-.349-.796-.524-1.374-.524h-1.93v3.762zm7.877 6.379v-1.848h3.107v-8.276l-3.123 2.322v-2.159l2.747-1.979h2.421v10.092h2.502V320h-7.654z" fill="#000"></path><path d="M286.342 277.211v-11.895h4.693c.902 0 1.67.173 2.305.517a3.502 3.502 0 011.452 1.423c.337.604.506 1.301.506 2.091 0 .79-.171 1.487-.511 2.091a3.532 3.532 0 01-1.481 1.412c-.643.336-1.422.505-2.335.505h-2.992v-2.016h2.585c.484 0 .883-.083 1.197-.249.317-.171.553-.405.708-.703a2.2 2.2 0 00.238-1.04c0-.395-.079-.739-.238-1.034a1.594 1.594 0 00-.708-.691c-.318-.166-.721-.25-1.209-.25h-1.696v9.839h-2.514zm12.847.169c-.569 0-1.076-.099-1.522-.296a2.46 2.46 0 01-1.057-.889c-.255-.395-.383-.887-.383-1.475 0-.496.091-.912.273-1.249.182-.337.43-.608.743-.813.314-.205.67-.36 1.069-.465a8.273 8.273 0 011.266-.221 30.78 30.78 0 001.255-.151c.317-.05.548-.123.691-.22a.486.486 0 00.215-.43v-.035c0-.368-.116-.652-.349-.854-.228-.201-.553-.302-.975-.302-.446 0-.8.099-1.063.296a1.362 1.362 0 00-.523.732l-2.288-.186c.116-.542.344-1.01.685-1.405a3.29 3.29 0 011.318-.918c.543-.217 1.17-.325 1.882-.325.496 0 .97.058 1.423.174.457.116.862.296 1.214.54.356.244.637.558.842.941.206.38.308.835.308 1.365v6.017h-2.346v-1.237h-.07a2.514 2.514 0 01-.575.738 2.67 2.67 0 01-.865.494 3.584 3.584 0 01-1.168.174zm.709-1.708c.364 0 .685-.071.964-.215.279-.147.497-.344.656-.592.159-.248.238-.529.238-.842v-.947c-.077.05-.184.097-.319.139a5.842 5.842 0 01-.447.111c-.167.031-.333.06-.5.087l-.453.064a3.04 3.04 0 00-.761.203 1.214 1.214 0 00-.505.378.916.916 0 00-.18.58c0 .337.122.595.366.773.248.174.561.261.941.261zm6.235 1.539v-8.921h2.399v1.557h.093c.162-.554.435-.972.818-1.255.384-.286.825-.43 1.325-.43a3.606 3.606 0 01.778.087v2.196a3.199 3.199 0 00-.482-.093 4.35 4.35 0 00-.563-.041c-.364 0-.69.08-.976.238a1.756 1.756 0 00-.674.651c-.163.279-.244.6-.244.964v5.047h-2.474zm11.885-8.921v1.859h-5.373v-1.859h5.373zm-4.153-2.137h2.474v8.317c0 .228.035.407.105.534a.576.576 0 00.29.262c.128.05.275.075.442.075.116 0 .232-.009.348-.029l.267-.052.389 1.841a7.173 7.173 0 01-.522.134 4.174 4.174 0 01-.819.098c-.597.024-1.119-.056-1.568-.238a2.183 2.183 0 01-1.04-.848c-.248-.383-.37-.867-.366-1.452v-8.642zm5.765 11.058v-8.921h2.474v8.921h-2.474zm1.242-10.071c-.367 0-.683-.122-.946-.366a1.184 1.184 0 01-.389-.888c0-.341.129-.634.389-.878.263-.247.579-.371.946-.371.368 0 .682.124.941.371.264.244.395.537.395.878 0 .344-.131.64-.395.888a1.323 1.323 0 01-.941.366zm7.959 1.15v1.859h-5.372v-1.859h5.372zm-4.153-2.137h2.475v8.317c0 .228.034.407.104.534.07.124.167.211.29.262.128.05.275.075.442.075.116 0 .232-.009.348-.029l.268-.052.389 1.841a7.088 7.088 0 01-.523.134 4.174 4.174 0 01-.819.098c-.596.024-1.119-.056-1.568-.238a2.188 2.188 0 01-1.04-.848c-.248-.383-.37-.867-.366-1.452v-8.642zm5.765 11.058v-8.921h2.474v8.921h-2.474zm1.243-10.071c-.368 0-.684-.122-.947-.366a1.188 1.188 0 01-.389-.888c0-.341.13-.634.389-.878.263-.247.579-.371.947-.371s.681.124.941.371c.263.244.395.537.395.878 0 .344-.132.64-.395.888-.26.244-.573.366-.941.366zm7.244 10.246c-.902 0-1.682-.192-2.341-.575a3.95 3.95 0 01-1.516-1.615c-.356-.693-.534-1.497-.534-2.41 0-.922.178-1.727.534-2.417a3.893 3.893 0 011.516-1.614c.659-.387 1.439-.581 2.341-.581.902 0 1.681.194 2.335.581a3.881 3.881 0 011.522 1.614c.356.69.534 1.495.534 2.417 0 .913-.178 1.717-.534 2.41a3.938 3.938 0 01-1.522 1.615c-.654.383-1.433.575-2.335.575zm.012-1.917c.41 0 .753-.116 1.028-.349.275-.236.482-.557.621-.964.143-.406.215-.869.215-1.388a4.17 4.17 0 00-.215-1.388c-.139-.407-.346-.728-.621-.964s-.618-.354-1.028-.354c-.415 0-.763.118-1.046.354-.279.236-.49.557-.633.964a4.28 4.28 0 00-.209 1.388c0 .519.07.982.209 1.388.143.407.354.728.633.964.283.233.631.349 1.046.349zm8.462-3.415v5.157h-2.474v-8.921h2.358v1.574h.105c.197-.519.528-.929.993-1.231.464-.306 1.028-.459 1.69-.459.619 0 1.16.135 1.62.407.461.271.819.658 1.075 1.161.255.5.383 1.096.383 1.789v5.68h-2.474v-5.239c.004-.545-.136-.971-.418-1.277-.283-.31-.672-.465-1.168-.465a1.78 1.78 0 00-.883.215 1.497 1.497 0 00-.592.627c-.139.271-.211.598-.215.982zm16.638-6.738v11.895h-2.515v-9.508h-.07l-2.724 1.708v-2.23l2.945-1.865h2.364zm-83.223-36.218v-2.513h11.839v2.513h-4.413V241h-3.013v-11.902h-4.413zm16.376 12.113c-1.093 0-2.039-.232-2.836-.697a4.762 4.762 0 01-1.837-1.956c-.432-.84-.648-1.814-.648-2.921 0-1.117.216-2.093.648-2.929a4.702 4.702 0 011.837-1.956c.797-.47 1.743-.704 2.836-.704 1.094 0 2.037.234 2.83.704a4.693 4.693 0 011.844 1.956c.432.836.648 1.812.648 2.929 0 1.107-.216 2.081-.648 2.921a4.753 4.753 0 01-1.844 1.956c-.793.465-1.736.697-2.83.697zm.014-2.323c.498 0 .913-.14 1.246-.422.333-.286.584-.676.753-1.168.174-.493.261-1.054.261-1.683 0-.628-.087-1.189-.261-1.682-.169-.493-.42-.882-.753-1.168-.333-.287-.748-.43-1.246-.43-.502 0-.924.143-1.267.43-.337.286-.593.675-.767 1.168-.169.493-.253 1.054-.253 1.682 0 .629.084 1.19.253 1.683.174.492.43.882.767 1.168.343.282.765.422 1.267.422zm6.584 6.166v-14.865h2.956v1.816h.134c.131-.291.321-.587.57-.887a3.01 3.01 0 01.985-.761c.409-.206.915-.309 1.521-.309.788 0 1.515.206 2.182.619.666.408 1.199 1.025 1.598 1.851.398.822.598 1.852.598 3.09 0 1.206-.195 2.225-.584 3.055-.385.826-.911 1.452-1.577 1.879a4.042 4.042 0 01-2.224.634c-.582 0-1.077-.096-1.485-.289a3.062 3.062 0 01-.993-.725 3.656 3.656 0 01-.591-.894h-.092v5.786h-2.998zm2.935-9.46c0 .643.089 1.204.268 1.683.178.478.436.851.774 1.119.338.262.748.394 1.232.394.488 0 .901-.134 1.238-.401.338-.273.594-.648.768-1.127.178-.483.267-1.039.267-1.668 0-.624-.087-1.173-.26-1.647-.174-.474-.43-.844-.768-1.112-.337-.267-.753-.401-1.245-.401-.488 0-.901.129-1.239.387-.333.258-.589.624-.767 1.098-.179.474-.268 1.032-.268 1.675zm8.934 5.406v-10.811h2.999V241h-2.999zm1.507-12.205a1.63 1.63 0 01-1.148-.444 1.437 1.437 0 01-.471-1.076c0-.413.157-.768.471-1.063.32-.301.702-.451 1.148-.451.446 0 .826.15 1.14.451.319.295.479.65.479 1.063 0 .417-.16.776-.479 1.076a1.602 1.602 0 01-1.14.444zm8.105 12.416c-1.107 0-2.06-.234-2.857-.704a4.759 4.759 0 01-1.83-1.971c-.423-.839-.634-1.806-.634-2.899 0-1.108.214-2.079.641-2.915a4.756 4.756 0 011.837-1.963c.793-.474 1.736-.711 2.829-.711.944 0 1.769.171 2.478.514a4.13 4.13 0 011.682 1.443c.413.619.641 1.346.683 2.182h-2.83c-.079-.54-.291-.974-.633-1.303-.338-.333-.781-.499-1.33-.499-.465 0-.871.126-1.218.38-.343.248-.61.612-.803 1.091-.192.478-.288 1.058-.288 1.738 0 .69.094 1.277.281 1.76.193.483.463.852.81 1.105.347.253.753.38 1.218.38.342 0 .65-.07.922-.211a1.78 1.78 0 00.682-.612c.183-.273.303-.599.359-.979h2.83c-.047.826-.272 1.553-.676 2.182a4.083 4.083 0 01-1.654 1.464c-.704.352-1.537.528-2.499.528zm12.53-.211h-3.266l4.977-14.415h3.927l4.97 14.415h-3.266l-3.611-11.121h-.113L337.804 241zm-.204-5.666h7.715v2.379H337.6v-2.379z" fill="#1A1A1A"></path><path d="M469.678 194.183a2.213 2.213 0 00-1.594-.669 2.184 2.184 0 00-1.582.669h-.011a2.289 2.289 0 00-.661 1.618 2.28 2.28 0 00.654 1.614l.011.011a2.184 2.184 0 001.582.662c.627 0 1.189-.251 1.594-.662l.004-.011c.406-.407.645-.977.645-1.614a2.296 2.296 0 00-.652-1.618h.01zm-1.594 31.304c.627 0 1.189-.26 1.594-.667l.005-.011c.405-.406.645-.979.645-1.609 0-.645-.248-1.208-.645-1.621h-.005a2.203 2.203 0 00-1.594-.671 2.173 2.173 0 00-1.582.671h-.011a2.307 2.307 0 00-.654 1.621 2.28 2.28 0 00.654 1.609l.011.011a2.217 2.217 0 001.582.666v.001zm12.244-6.928a2.235 2.235 0 001.369-1.062l.041-.081c.266-.51.329-1.101.178-1.656a2.225 2.225 0 00-1.048-1.39l-.031-.022a2.21 2.21 0 00-1.673-.205 2.204 2.204 0 00-1.367 1.066 2.337 2.337 0 00-.227 1.738c.155.582.53 1.082 1.047 1.392h.004a2.19 2.19 0 001.708.215l-.001.005zm-9.945-11.395a3.23 3.23 0 00-2.305-.975 3.21 3.21 0 00-2.3.974 3.32 3.32 0 00-.949 2.34 3.36 3.36 0 00.949 2.35c.587.595 1.4.967 2.293.967.893 0 1.715-.372 2.305-.967.611-.63.952-1.473.95-2.351a3.32 3.32 0 00-.95-2.34l.007.002zm-1.29-3.898a6.152 6.152 0 013.38 1.777h.007c.144.148.281.302.41.464l2.244-1.321a4.94 4.94 0 01-.073-2.807 4.887 4.887 0 012.258-2.991l.038-.024a4.743 4.743 0 013.639-.475 4.83 4.83 0 012.938 2.293v.004a5.002 5.002 0 01.485 3.738 4.884 4.884 0 01-2.258 2.994l-.307.184h-.031a4.797 4.797 0 01-3.342.312 4.849 4.849 0 01-2.348-1.465l-2.241 1.316a6.454 6.454 0 010 4.471l2.241 1.314a4.808 4.808 0 012.348-1.466 4.717 4.717 0 013.68.496l.074.036v.003a4.913 4.913 0 012.184 2.96c.332 1.26.158 2.6-.485 3.734l-.04.083h-.005a4.89 4.89 0 01-2.897 2.23 4.807 4.807 0 01-3.68-.493v-.01a4.901 4.901 0 01-2.259-2.992 4.936 4.936 0 01.073-2.803l-2.243-1.317a6.335 6.335 0 01-.41.457l-.008.007a6.113 6.113 0 01-3.379 1.766v2.638c.92.198 1.762.664 2.42 1.338l.003.007a4.945 4.945 0 011.419 3.483 4.94 4.94 0 01-1.419 3.476l-.003.014a4.83 4.83 0 01-3.428 1.436 4.8 4.8 0 01-3.423-1.444h-.003v-.014a4.943 4.943 0 01-1.421-3.477c0-1.359.544-2.595 1.421-3.483v-.007h.003a4.727 4.727 0 012.418-1.338v-2.637a6.035 6.035 0 01-3.368-1.767l-.009-.007a6.36 6.36 0 01-1.829-4.463 6.36 6.36 0 011.82-4.459h.009a6.128 6.128 0 013.377-1.777v-2.627a4.868 4.868 0 01-2.418-1.341h-.004v-.007a4.961 4.961 0 01-1.421-3.484 4.965 4.965 0 011.421-3.483l.011-.004a4.767 4.767 0 013.416-1.447 4.8 4.8 0 013.429 1.447v.004h.003a4.966 4.966 0 011.419 3.483 4.973 4.973 0 01-1.419 3.483l-.003.007a4.882 4.882 0 01-2.421 1.342v2.626l.007.007zm12.602-1.752l-.018-.028a2.257 2.257 0 00-2.228-1.098c-.294.04-.578.137-.833.288h.003c-.538.311-.899.82-1.05 1.39a2.322 2.322 0 00.226 1.738l.01.014c.311.538.805.9 1.357 1.045a2.17 2.17 0 001.704-.223l.029-.015a2.326 2.326 0 00.8-3.111zm9.956.772h2.504v7.777l3.61-4.063h3.01l-4.359 4.708 4.363 5.959h-2.867l-3.764-5.331v5.331h-2.504v-14.388l.007.007zm12.017 9.09c0 1.324.936 3.249 3.192 3.249 1.395 0 2.313-.74 2.79-1.709.249-.471.364-.975.402-1.505a3.387 3.387 0 00-.288-1.502c-.438-1.008-1.413-1.882-2.922-1.882-2.025 0-3.173 1.669-3.173 3.323v.018l-.001.008zm8.867 5.291h-2.505v-1.536c-.666 1.242-2.062 1.865-3.534 1.865-3.364 0-5.332-2.666-5.332-5.677 0-3.363 2.388-5.657 5.332-5.657 1.91 0 3.076 1.03 3.534 1.887v-1.558h2.505v10.676zm2.836-8.711h-1.29v-1.963h1.29v-.602c0-3.172 2.37-3.364 4.167-3.384v1.96c-.632 0-1.662 0-1.662 1.501v.523h1.662v1.964h-1.662v8.712h-2.505v-8.711zm5.877-5.677h2.502v7.777l3.612-4.063h3.01l-4.359 4.708 4.367 5.966h-2.867l-3.764-5.331v5.331h-2.502v-14.388h.001zm12.024 9.097c0 1.324.936 3.249 3.192 3.249 1.393 0 2.312-.74 2.795-1.709.251-.471.358-.975.403-1.505a3.401 3.401 0 00-.289-1.502c-.43-1.008-1.412-1.882-2.922-1.882-2.025 0-3.173 1.669-3.173 3.323v.018l-.006.008zm8.858 5.291h-2.504v-1.536c-.668 1.242-2.064 1.865-3.534 1.865-3.363 0-5.33-2.666-5.33-5.677 0-3.363 2.387-5.657 5.33-5.657 1.91 0 3.076 1.03 3.534 1.887v-1.558h2.504v10.676z" fill="#1A464C"></path><path fill-rule="evenodd" clip-rule="evenodd" d="M971 744.599v42.402a3.942 3.942 0 01-.172 1.161 4.05 4.05 0 01-.502 1.061 4.013 4.013 0 01-2.933 1.758 3.956 3.956 0 01-.392.019H613.999a3.942 3.942 0 01-1.161-.172 4.05 4.05 0 01-1.061-.502 4.013 4.013 0 01-1.758-2.933 3.942 3.942 0 01-.019-.392v-42.402a3.942 3.942 0 01.172-1.161 4.05 4.05 0 01.502-1.061 4.013 4.013 0 012.933-1.758c.13-.012.261-.019.392-.019h353.002a3.86 3.86 0 011.161.172 4.104 4.104 0 011.061.502 4.013 4.013 0 011.758 2.933c.013.13.019.261.019.392z" fill="#7C7C7C"></path><path fill-rule="evenodd" clip-rule="evenodd" d="M661.212 751.52H899.64v6.72H661.212v-6.72z" fill="#D8D8D8"></path><path fill-rule="evenodd" clip-rule="evenodd" d="M620.914 751.52h15.112v6.72h-15.112v-6.72z" fill="#D7D7D7"></path><path fill-rule="evenodd" clip-rule="evenodd" d="M933.221 751.52h6.716v6.72h-6.716v-6.72z" fill="#D7D400"></path><path fill-rule="evenodd" clip-rule="evenodd" d="M923.146 751.52h6.717v6.72h-6.717v-6.72z" fill="#FF3C00"></path><path fill-rule="evenodd" clip-rule="evenodd" d="M944.974 751.52h15.112v6.72h-15.112v-6.72z" fill="#00CD00"></path><path fill-rule="evenodd" clip-rule="evenodd" d="M661.212 762.44H899.64v6.72H661.212v-6.72z" fill="#D8D8D8"></path><path fill-rule="evenodd" clip-rule="evenodd" d="M620.914 762.44h15.112v6.72h-15.112v-6.72z" fill="#D7D7D7"></path><path fill-rule="evenodd" clip-rule="evenodd" d="M933.221 762.44h6.716v6.72h-6.716v-6.72z" fill="#D7D400"></path><path fill-rule="evenodd" clip-rule="evenodd" d="M923.146 762.44h6.717v6.72h-6.717v-6.72z" fill="#FF3C00"></path><path fill-rule="evenodd" clip-rule="evenodd" d="M944.974 762.44h15.112v6.72h-15.112v-6.72z" fill="#00CD00"></path><path fill-rule="evenodd" clip-rule="evenodd" d="M661.212 773.36H899.64v6.72H661.212v-6.72z" fill="#D8D8D8"></path><path fill-rule="evenodd" clip-rule="evenodd" d="M620.914 773.36h15.112v6.72h-15.112v-6.72z" fill="#D7D7D7"></path><path fill-rule="evenodd" clip-rule="evenodd" d="M933.221 773.36h6.716v6.72h-6.716v-6.72z" fill="#D7D400"></path><path fill-rule="evenodd" clip-rule="evenodd" d="M923.146 773.36h6.717v6.72h-6.717v-6.72z" fill="#FF3C00"></path><path fill-rule="evenodd" clip-rule="evenodd" d="M944.974 773.36h15.112v6.72h-15.112v-6.72z" fill="#00CD00"></path><path fill-rule="evenodd" clip-rule="evenodd" d="M971 115.584v612.832a7.688 7.688 0 01-.172 1.621 7.053 7.053 0 01-.3 1.011 6.344 6.344 0 01-.436.911 4.888 4.888 0 01-.869 1.1 3.62 3.62 0 01-1.061.701 2.962 2.962 0 01-.381.132 2.876 2.876 0 01-.78.108H613.999a2.858 2.858 0 01-.78-.108 2.962 2.962 0 01-.381-.132 3.62 3.62 0 01-1.061-.701 4.888 4.888 0 01-.869-1.1 6.344 6.344 0 01-.436-.911 6.872 6.872 0 01-.3-1.011 7.42 7.42 0 01-.172-1.621V115.584a7.668 7.668 0 01.304-2.137 6.21 6.21 0 01.604-1.405 5.337 5.337 0 01.554-.774 4.253 4.253 0 01.652-.609 3.62 3.62 0 01.724-.419 3.129 3.129 0 01.769-.213c.13-.018.261-.027.392-.027h353.002a2.87 2.87 0 01.78.107 3.129 3.129 0 01.75.318 3.62 3.62 0 01.692.516 4.907 4.907 0 01.869 1.101 5.918 5.918 0 01.436.91 7.214 7.214 0 01.395 1.543 8.087 8.087 0 01.077 1.089z" fill="#7C7C7C"></path><path fill-rule="evenodd" clip-rule="evenodd" d="M622.998 140h335.004a1.435 1.435 0 01.58.125 1.705 1.705 0 01.53.362 2.327 2.327 0 01.434.571 3.096 3.096 0 01.302.728 3.718 3.718 0 01.114.542c.013.093.022.187.028.281.007.094.01.189.01.284v558.214c0 .095-.003.189-.01.284a3.764 3.764 0 01-.142.823 3.334 3.334 0 01-.433.938 2.183 2.183 0 01-.146.191 1.96 1.96 0 01-.325.315 1.996 1.996 0 01-.177.122 1.734 1.734 0 01-.375.165 1.31 1.31 0 01-.194.04c-.065.01-.131.015-.196.015H622.998c-.065 0-.131-.005-.196-.015a1.31 1.31 0 01-.384-.109 1.806 1.806 0 01-.53-.364 2.14 2.14 0 01-.303-.359 2.853 2.853 0 01-.349-.683 3.334 3.334 0 01-.15-.523 4.272 4.272 0 01-.076-.556 3.85 3.85 0 01-.01-.284V142.893a4.38 4.38 0 01.038-.565 4.154 4.154 0 01.114-.542 3.51 3.51 0 01.185-.5c.036-.079.075-.155.117-.228a2.59 2.59 0 01.434-.571 1.895 1.895 0 01.53-.362 1.4 1.4 0 01.384-.111c.065-.009.131-.014.196-.014z" fill="#fff"></path><path fill-rule="evenodd" clip-rule="evenodd" d="M620.914 124.08h339.172v6.72H620.914v-6.72zm0 589.64h339.172v6.72H620.914v-6.72z" fill="#D7D7D7"></path><path d="M650.063 169v-12.233h4.898c.9 0 1.651.134 2.252.4.601.267 1.053.638 1.356 1.111.302.47.454 1.012.454 1.625 0 .478-.096.898-.287 1.26a2.472 2.472 0 01-.788.884 3.226 3.226 0 01-1.135.484v.12a2.792 2.792 0 012.305 1.415c.255.434.383.952.383 1.553 0 .649-.162 1.229-.484 1.738-.319.506-.791.906-1.416 1.201-.625.295-1.396.442-2.311.442h-5.227zm2.587-2.114h2.108c.721 0 1.246-.138 1.577-.413.33-.278.496-.649.496-1.111 0-.338-.082-.637-.245-.896a1.676 1.676 0 00-.699-.609c-.299-.147-.655-.221-1.069-.221h-2.168v3.25zm0-5h1.917c.354 0 .669-.062.944-.185.278-.127.497-.307.657-.538.163-.231.245-.507.245-.83 0-.442-.158-.798-.472-1.069-.311-.271-.753-.406-1.326-.406h-1.965v3.028zm7.86 7.114v-12.233h4.826c.924 0 1.713.166 2.366.496.657.327 1.156.79 1.499 1.392.346.597.519 1.3.519 2.108 0 .813-.175 1.511-.525 2.097-.351.581-.858 1.027-1.523 1.338-.661.31-1.462.466-2.401.466h-3.232v-2.079h2.813c.494 0 .904-.068 1.231-.203a1.47 1.47 0 00.729-.609c.163-.271.244-.608.244-1.01 0-.406-.081-.748-.244-1.027a1.504 1.504 0 00-.735-.633c-.327-.148-.739-.221-1.237-.221h-1.744V169h-2.586zm6.606-5.567l3.04 5.567h-2.855l-2.974-5.567h2.789zm15-.549c0 1.334-.253 2.468-.759 3.404-.501.936-1.186 1.651-2.054 2.145-.864.489-1.836.734-2.915.734-1.087 0-2.063-.247-2.927-.74-.864-.494-1.547-1.209-2.049-2.145-.501-.935-.752-2.068-.752-3.398 0-1.334.251-2.469.752-3.405.502-.936 1.185-1.649 2.049-2.138.864-.494 1.84-.741 2.927-.741 1.079 0 2.051.247 2.915.741.868.489 1.553 1.202 2.054 2.138.506.936.759 2.071.759 3.405zm-2.622 0c0-.864-.13-1.593-.388-2.186-.255-.594-.616-1.044-1.082-1.35-.465-.307-1.011-.46-1.636-.46s-1.171.153-1.637.46c-.466.306-.828.756-1.087 1.35-.255.593-.382 1.322-.382 2.186 0 .864.127 1.592.382 2.186.259.593.621 1.043 1.087 1.35.466.306 1.012.46 1.637.46s1.171-.154 1.636-.46c.466-.307.827-.757 1.082-1.35.258-.594.388-1.322.388-2.186zm3.864 6.116v-12.233h2.587v5.394h.161l4.402-5.394h3.1l-4.539 5.478 4.593 6.755h-3.094l-3.351-5.029-1.272 1.553V169h-2.587zm10.924 0v-12.233h8.242v2.133h-5.656v2.914h5.232v2.133h-5.232v2.921h5.68V169h-8.266zm9.625 0v-12.233h4.826c.924 0 1.713.166 2.366.496.657.327 1.157.79 1.499 1.392.346.597.52 1.3.52 2.108 0 .813-.176 1.511-.526 2.097-.35.581-.858 1.027-1.523 1.338-.661.31-1.461.466-2.401.466h-3.232v-2.079h2.814c.493 0 .904-.068 1.23-.203.327-.135.57-.339.729-.609.163-.271.245-.608.245-1.01 0-.406-.082-.748-.245-1.027a1.496 1.496 0 00-.735-.633c-.326-.148-.739-.221-1.236-.221h-1.744V169h-2.587zm6.606-5.567l3.041 5.567h-2.855l-2.975-5.567h2.789zM717.42 169v-1.864l4.354-4.031c.37-.359.681-.681.932-.968.255-.287.448-.567.579-.842.132-.279.197-.58.197-.902 0-.358-.081-.667-.244-.926a1.612 1.612 0 00-.669-.603 2.092 2.092 0 00-.962-.215c-.374 0-.701.075-.98.227a1.569 1.569 0 00-.645.651c-.151.283-.227.619-.227 1.009H717.3c0-.8.182-1.495.544-2.084a3.62 3.62 0 011.523-1.368c.653-.323 1.406-.484 2.258-.484.876 0 1.638.155 2.288.466.653.307 1.16.733 1.523 1.278.362.546.543 1.171.543 1.876 0 .462-.091.918-.275 1.367-.179.45-.499.95-.961 1.5-.462.545-1.113 1.2-1.953 1.965l-1.786 1.75v.084h5.136V169h-8.72z" fill="#919191"></path><path d="M930.109 178H650.891c-6.567 0-11.891 5.324-11.891 11.891v482.218c0 6.567 5.324 11.891 11.891 11.891h279.218c6.567 0 11.891-5.324 11.891-11.892V189.891c0-6.567-5.324-11.891-11.891-11.891z" fill="#EEF8F9" stroke="#D9EFF2" stroke-width="2"></path><path d="M851.678 194.183a2.213 2.213 0 00-1.594-.669 2.184 2.184 0 00-1.582.669h-.011a2.289 2.289 0 00-.661 1.618 2.28 2.28 0 00.654 1.614l.011.011a2.184 2.184 0 001.582.662c.627 0 1.189-.251 1.594-.662l.004-.011c.406-.407.645-.977.645-1.614a2.296 2.296 0 00-.652-1.618h.01zm-1.594 31.304c.627 0 1.189-.26 1.594-.667l.005-.011c.405-.406.645-.979.645-1.609 0-.645-.248-1.208-.645-1.621h-.005a2.203 2.203 0 00-1.594-.671 2.173 2.173 0 00-1.582.671h-.011a2.307 2.307 0 00-.654 1.621 2.28 2.28 0 00.654 1.609l.011.011a2.217 2.217 0 001.582.666v.001zm12.244-6.928a2.235 2.235 0 001.369-1.062l.041-.081c.266-.51.329-1.101.178-1.656a2.225 2.225 0 00-1.048-1.39l-.031-.022a2.21 2.21 0 00-1.673-.205 2.204 2.204 0 00-1.367 1.066 2.337 2.337 0 00-.227 1.738c.155.582.53 1.082 1.047 1.392h.004a2.19 2.19 0 001.708.215l-.001.005zm-9.945-11.395a3.23 3.23 0 00-2.305-.975 3.21 3.21 0 00-2.3.974 3.32 3.32 0 00-.949 2.34 3.36 3.36 0 00.949 2.35c.587.595 1.4.967 2.293.967.893 0 1.715-.372 2.305-.967.611-.63.952-1.473.95-2.351a3.32 3.32 0 00-.95-2.34l.007.002zm-1.29-3.898a6.152 6.152 0 013.38 1.777h.007c.144.148.281.302.41.464l2.244-1.321a4.94 4.94 0 01-.073-2.807 4.887 4.887 0 012.258-2.991l.038-.024a4.743 4.743 0 013.639-.475 4.83 4.83 0 012.938 2.293v.004a5.002 5.002 0 01.485 3.738 4.884 4.884 0 01-2.258 2.994l-.307.184h-.031a4.797 4.797 0 01-3.342.312 4.849 4.849 0 01-2.348-1.465l-2.241 1.316a6.454 6.454 0 010 4.471l2.241 1.314a4.808 4.808 0 012.348-1.466 4.717 4.717 0 013.68.496l.074.036v.003a4.913 4.913 0 012.184 2.96c.332 1.26.158 2.6-.485 3.734l-.04.083h-.005a4.89 4.89 0 01-2.897 2.23 4.807 4.807 0 01-3.68-.493v-.01a4.901 4.901 0 01-2.259-2.992 4.936 4.936 0 01.073-2.803l-2.243-1.317a6.335 6.335 0 01-.41.457l-.008.007a6.113 6.113 0 01-3.379 1.766v2.638c.92.198 1.762.664 2.42 1.338l.003.007a4.945 4.945 0 011.419 3.483 4.94 4.94 0 01-1.419 3.476l-.003.014a4.83 4.83 0 01-3.428 1.436 4.8 4.8 0 01-3.423-1.444h-.003v-.014a4.943 4.943 0 01-1.421-3.477c0-1.359.544-2.595 1.421-3.483v-.007h.003a4.727 4.727 0 012.418-1.338v-2.637a6.035 6.035 0 01-3.368-1.767l-.009-.007a6.36 6.36 0 01-1.829-4.463 6.36 6.36 0 011.82-4.459h.009a6.128 6.128 0 013.377-1.777v-2.627a4.868 4.868 0 01-2.418-1.341h-.004v-.007a4.961 4.961 0 01-1.421-3.484 4.965 4.965 0 011.421-3.483l.011-.004a4.767 4.767 0 013.416-1.447 4.8 4.8 0 013.429 1.447v.004h.003a4.966 4.966 0 011.419 3.483 4.973 4.973 0 01-1.419 3.483l-.003.007a4.882 4.882 0 01-2.421 1.342v2.626l.007.007zm12.602-1.752l-.018-.028a2.257 2.257 0 00-2.228-1.098c-.294.04-.578.137-.833.288h.003c-.538.311-.899.82-1.05 1.39a2.322 2.322 0 00.226 1.738l.01.014c.311.538.805.9 1.357 1.045a2.17 2.17 0 001.704-.223l.029-.015a2.326 2.326 0 00.8-3.111zm9.956.772h2.504v7.777l3.61-4.063h3.01l-4.359 4.708 4.363 5.959h-2.867l-3.764-5.331v5.331h-2.504v-14.388l.007.007zm12.017 9.09c0 1.324.936 3.249 3.192 3.249 1.395 0 2.313-.74 2.79-1.709.249-.471.364-.975.402-1.505a3.387 3.387 0 00-.288-1.502c-.438-1.008-1.413-1.882-2.922-1.882-2.025 0-3.173 1.669-3.173 3.323v.018l-.001.008zm8.867 5.291h-2.505v-1.536c-.666 1.242-2.062 1.865-3.534 1.865-3.364 0-5.332-2.666-5.332-5.677 0-3.363 2.388-5.657 5.332-5.657 1.91 0 3.076 1.03 3.534 1.887v-1.558h2.505v10.676zm2.836-8.711h-1.29v-1.963h1.29v-.602c0-3.172 2.37-3.364 4.167-3.384v1.96c-.632 0-1.662 0-1.662 1.501v.523h1.662v1.964h-1.662v8.712h-2.505v-8.711zm5.877-5.677h2.502v7.777l3.612-4.063h3.01l-4.359 4.708 4.367 5.966h-2.867l-3.764-5.331v5.331h-2.502v-14.388h.001zm12.024 9.097c0 1.324.936 3.249 3.192 3.249 1.393 0 2.312-.74 2.795-1.709.251-.471.358-.975.403-1.505a3.401 3.401 0 00-.289-1.502c-.43-1.008-1.412-1.882-2.922-1.882-2.025 0-3.173 1.669-3.173 3.323v.018l-.006.008zm8.858 5.291h-2.504v-1.536c-.668 1.242-2.064 1.865-3.534 1.865-3.363 0-5.33-2.666-5.33-5.677 0-3.363 2.387-5.657 5.33-5.657 1.91 0 3.076 1.03 3.534 1.887v-1.558h2.504v10.676z" fill="#1A464C"></path><path d="M521.381 274.193l6.615-9.981-6.285 24.525H482.22l-6.284-24.522 6.615 9.977 1.462 2.206.362-2.622 2.741-19.871 5.731 15.689 1.023 2.802.872-2.852 7.163-23.425.061-.201.062.201 7.162 23.425.873 2.852 1.023-2.802 5.73-15.689 2.741 19.872.361 2.623 1.463-2.207z" fill="#F7D62A" stroke="#F2C357" stroke-width="2"></path><path d="M393.125 49.204V71h-3.98l-9.483-13.718h-.159V71h-4.609V49.204h4.045l9.408 13.707h.191V49.204h4.587zm10.79 22.115c-1.653 0-3.083-.35-4.289-1.053a7.213 7.213 0 01-2.778-2.959c-.653-1.27-.979-2.742-.979-4.417 0-1.688.326-3.164.979-4.427.653-1.27 1.579-2.256 2.778-2.959 1.206-.71 2.636-1.064 4.289-1.064 1.653 0 3.079.355 4.278 1.064a7.11 7.11 0 012.789 2.959c.652 1.263.979 2.739.979 4.427 0 1.675-.327 3.147-.979 4.417a7.193 7.193 0 01-2.789 2.959c-1.199.702-2.625 1.053-4.278 1.053zm.021-3.512c.752 0 1.38-.213 1.884-.638.504-.433.883-1.022 1.139-1.767.262-.745.393-1.593.393-2.544 0-.95-.131-1.798-.393-2.543-.256-.745-.635-1.334-1.139-1.767-.504-.433-1.132-.65-1.884-.65-.759 0-1.398.217-1.916.65-.51.433-.897 1.022-1.16 1.767-.255.745-.383 1.593-.383 2.543 0 .951.128 1.799.383 2.544.263.745.65 1.334 1.16 1.767.518.425 1.157.638 1.916.638zm16.678 3.46c-1.242 0-2.367-.32-3.374-.959-1.001-.645-1.795-1.593-2.384-2.841-.582-1.256-.873-2.796-.873-4.62 0-1.873.302-3.43.905-4.672.603-1.248 1.405-2.181 2.405-2.799a6.163 6.163 0 013.31-.936c.915 0 1.678.156 2.288.468.617.305 1.114.688 1.49 1.15.383.454.674.9.873 1.34h.138v-8.194h4.523V71h-4.47v-2.618h-.191a5.858 5.858 0 01-.905 1.352c-.383.44-.883.805-1.5 1.096-.611.29-1.356.436-2.235.436zm1.436-3.609c.731 0 1.348-.198 1.852-.596.511-.404.901-.968 1.171-1.692.277-.724.415-1.572.415-2.544s-.135-1.816-.405-2.533c-.269-.716-.659-1.27-1.17-1.66-.511-.39-1.132-.585-1.863-.585-.745 0-1.373.202-1.883.606-.511.405-.898.965-1.161 1.682-.262.717-.393 1.547-.393 2.49 0 .951.131 1.792.393 2.523.27.723.657 1.291 1.161 1.703.51.404 1.138.606 1.883.606zm18.724 3.661c-1.682 0-3.129-.34-4.342-1.021a6.996 6.996 0 01-2.789-2.916c-.653-1.264-.979-2.757-.979-4.481 0-1.682.326-3.158.979-4.428s1.572-2.26 2.757-2.969c1.192-.71 2.589-1.064 4.193-1.064 1.078 0 2.082.174 3.012.521a6.69 6.69 0 012.448 1.544c.702.688 1.248 1.553 1.639 2.596.39 1.036.585 2.25.585 3.64v1.245h-13.804v-2.81h9.536c0-.652-.142-1.23-.426-1.734a3.041 3.041 0 00-1.181-1.181c-.497-.291-1.075-.437-1.735-.437-.688 0-1.298.16-1.83.48a3.359 3.359 0 00-1.235 1.266 3.575 3.575 0 00-.457 1.756v2.671c0 .809.149 1.508.447 2.097a3.272 3.272 0 001.287 1.362c.554.32 1.21.479 1.969.479.504 0 .965-.071 1.384-.213a2.877 2.877 0 001.075-.638c.298-.284.525-.632.681-1.044l4.193.277a5.726 5.726 0 01-1.309 2.64c-.653.745-1.497 1.326-2.533 1.745-1.029.412-2.217.617-3.565.617zm26.2-22.115V71h-4.608V53.578h-.128l-4.991 3.129V52.62l5.396-3.416h4.331zm295.151 0V71h-3.98l-9.483-13.718h-.159V71h-4.609V49.204h4.045l9.408 13.707h.191V49.204h4.587zm10.79 22.115c-1.653 0-3.083-.35-4.289-1.053a7.213 7.213 0 01-2.778-2.959c-.653-1.27-.979-2.742-.979-4.417 0-1.688.326-3.164.979-4.427.653-1.27 1.579-2.256 2.778-2.959 1.206-.71 2.636-1.064 4.289-1.064 1.653 0 3.079.355 4.278 1.064a7.11 7.11 0 012.789 2.959c.652 1.263.979 2.739.979 4.427 0 1.675-.327 3.147-.979 4.417a7.193 7.193 0 01-2.789 2.959c-1.199.702-2.625 1.053-4.278 1.053zm.021-3.512c.752 0 1.38-.213 1.884-.638.504-.433.883-1.022 1.139-1.767.262-.745.393-1.593.393-2.544 0-.95-.131-1.798-.393-2.543-.256-.745-.635-1.334-1.139-1.767-.504-.433-1.132-.65-1.884-.65-.759 0-1.398.217-1.916.65-.51.433-.897 1.022-1.16 1.767-.255.745-.383 1.593-.383 2.543 0 .951.128 1.799.383 2.544.263.745.65 1.334 1.16 1.767.518.425 1.157.638 1.916.638zm16.678 3.46c-1.242 0-2.367-.32-3.374-.959-1.001-.645-1.795-1.593-2.384-2.841-.582-1.256-.873-2.796-.873-4.62 0-1.873.302-3.43.905-4.672.603-1.248 1.405-2.181 2.405-2.799a6.163 6.163 0 013.31-.936c.915 0 1.678.156 2.288.468.617.305 1.114.688 1.49 1.15.383.454.674.9.873 1.34h.138v-8.194h4.523V71h-4.47v-2.618h-.191a5.858 5.858 0 01-.905 1.352c-.383.44-.883.805-1.5 1.096-.611.29-1.356.436-2.235.436zm1.436-3.609c.731 0 1.348-.198 1.852-.596.511-.404.901-.968 1.171-1.692.277-.724.415-1.572.415-2.544s-.135-1.816-.405-2.533c-.269-.716-.659-1.27-1.17-1.66-.511-.39-1.132-.585-1.863-.585-.745 0-1.373.202-1.883.606-.511.405-.898.965-1.161 1.682-.262.717-.393 1.547-.393 2.49 0 .951.131 1.792.393 2.523.27.723.657 1.291 1.161 1.703.51.404 1.138.606 1.883.606zm18.724 3.661c-1.682 0-3.129-.34-4.342-1.021a6.996 6.996 0 01-2.789-2.916c-.653-1.264-.979-2.757-.979-4.481 0-1.682.326-3.158.979-4.428s1.572-2.26 2.757-2.969c1.192-.71 2.589-1.064 4.193-1.064 1.078 0 2.082.174 3.012.521a6.69 6.69 0 012.448 1.544c.702.688 1.248 1.553 1.639 2.596.39 1.036.585 2.25.585 3.64v1.245h-13.804v-2.81h9.536c0-.652-.142-1.23-.426-1.734a3.041 3.041 0 00-1.181-1.181c-.497-.291-1.075-.437-1.735-.437-.688 0-1.298.16-1.83.48a3.359 3.359 0 00-1.235 1.266 3.575 3.575 0 00-.457 1.756v2.671c0 .809.149 1.508.447 2.097a3.272 3.272 0 001.287 1.362c.554.32 1.21.479 1.969.479.504 0 .965-.071 1.384-.213a2.877 2.877 0 001.075-.638c.298-.284.525-.632.681-1.044l4.193.277a5.726 5.726 0 01-1.309 2.64c-.653.745-1.497 1.326-2.533 1.745-1.029.412-2.217.617-3.565.617zM826.491 71v-3.32l7.759-7.184a29.312 29.312 0 001.66-1.724c.454-.511.798-1.012 1.033-1.501a3.722 3.722 0 00.351-1.607c0-.639-.146-1.189-.437-1.65a2.858 2.858 0 00-1.192-1.075c-.503-.255-1.074-.383-1.713-.383-.667 0-1.249.135-1.745.405a2.79 2.79 0 00-1.15 1.16c-.269.503-.404 1.103-.404 1.798h-4.374c0-1.426.322-2.664.968-3.714.646-1.05 1.55-1.863 2.714-2.437 1.164-.575 2.505-.862 4.023-.862 1.561 0 2.92.276 4.076.83 1.164.546 2.068 1.305 2.714 2.277.646.972.968 2.086.968 3.342a6.42 6.42 0 01-.489 2.437c-.319.802-.891 1.692-1.714 2.672-.823.972-1.983 2.139-3.48 3.501l-3.182 3.118v.15h9.153V71h-15.539z" fill="#000"></path><path fill-rule="evenodd" clip-rule="evenodd" d="M650 258.184a8.184 8.184 0 018.184-8.184h265.632a8.184 8.184 0 018.184 8.184v118.632a8.184 8.184 0 01-8.184 8.184H658.184a8.184 8.184 0 01-8.184-8.184V258.184z" fill="#FCF3CF"></path><rect x="663" y="290" width="255" height="69" rx="5" fill="#53777A" fill-opacity="0.2" stroke="#53777A" stroke-width="2" stroke-dasharray="10 10"></rect><path d="M739.933 347.596h-65.77l22.717-22.5 10.168 9.952 10.168-9.952 22.717 22.5z" fill="#FFD25B"></path><path d="M740.365 347.163v-45.865L717 324.231l23.365 22.932zm-66.634 0v-45.865l23.365 22.933-23.365 22.932z" fill="#F2C357"></path><path d="M739.933 302.164h-65.77l32.452 32.451 33.318-32.451z" fill="#F0BB42"></path><path d="M740.187 300h-66.736c-.871 0-1.451.725-1.451 1.45v46.426c0 .87.58 1.451 1.451 1.451h66.738c.87 0 1.451-.581 1.451-1.451l-.001-46.426c0-.725-.58-1.45-1.451-1.45h-.001zm-65.286 4.932l19.731 19.732-19.731 19.731v-39.463zm31.918 27.856l-29.886-29.886h59.774l-29.888 29.886zm-10.156-6.093l9.14 9.14c.29.29.726.435 1.016.435.435 0 .725-.145 1.016-.435l9.14-9.14 19.73 19.731h-59.772l19.73-19.731zm22.343-2.031l19.732-19.732v39.462l-19.732-19.73z" fill="#000"></path><path d="M823.01 347.596h-65.77l22.717-22.5 10.168 9.952 10.168-9.952 22.717 22.5z" fill="#FFD25B"></path><path d="M823.442 347.163v-45.865l-23.365 22.933 23.365 22.932zm-66.634 0v-45.865l23.365 22.933-23.365 22.932z" fill="#F2C357"></path><path d="M823.01 302.164h-65.77l32.452 32.451 33.318-32.451z" fill="#F0BB42"></path><path d="M823.264 300h-66.736c-.871 0-1.451.725-1.451 1.45v46.426c0 .87.58 1.451 1.451 1.451h66.738c.87 0 1.45-.581 1.45-1.451V301.45c0-.725-.58-1.45-1.451-1.45h-.001zm-65.286 4.932l19.731 19.732-19.731 19.731v-39.463zm31.918 27.856l-29.886-29.886h59.774l-29.888 29.886zm-10.156-6.093l9.14 9.14c.29.29.726.435 1.016.435.435 0 .725-.145 1.016-.435l9.14-9.14 19.73 19.731H760.01l19.73-19.731zm22.343-2.031l19.732-19.732v39.462l-19.732-19.73z" fill="#000"></path><path d="M906.087 347.596h-65.77l22.717-22.5 10.168 9.952 10.168-9.952 22.717 22.5z" fill="#FFD25B"></path><path d="M906.519 347.163v-45.865l-23.365 22.933 23.365 22.932zm-66.634 0v-45.865l23.365 22.933-23.365 22.932z" fill="#F2C357"></path><path d="M906.087 302.164h-65.77l32.452 32.451 33.318-32.451z" fill="#F0BB42"></path><path d="M906.341 300h-66.736c-.871 0-1.451.725-1.451 1.45v46.426c0 .87.58 1.451 1.451 1.451h66.738c.87 0 1.451-.581 1.451-1.451l-.001-46.426c0-.725-.58-1.45-1.451-1.45h-.001zm-65.286 4.932l19.731 19.732-19.731 19.731v-39.463zm31.918 27.856l-29.886-29.886h59.774l-29.888 29.886zm-10.156-6.093l9.14 9.14c.29.29.726.435 1.016.435.435 0 .725-.145 1.016-.435l9.14-9.14 19.73 19.731h-59.772l19.73-19.731zm22.343-2.031l19.732-19.732v39.462l-19.732-19.73z" fill="#000"></path><path d="M698.452 320v-11.94h3.975c.796 0 1.488.153 2.077.458.6.306 1.063.736 1.39 1.292.327.546.491 1.189.491 1.93 0 .742-.164 1.391-.491 1.947-.327.545-.79.97-1.39 1.275-.589.306-1.281.458-2.077.458h-1.93V320h-2.045zm2.045-6.379h1.93c.578 0 1.036-.174 1.374-.523.338-.349.507-.802.507-1.358s-.169-1.008-.507-1.357c-.338-.349-.796-.524-1.374-.524h-1.93v3.762zm7.877 6.379v-1.848h3.107v-8.276l-3.123 2.322v-2.159l2.747-1.979h2.421v10.092h2.502V320h-7.654zm73.078 0v-11.94h3.975c.796 0 1.488.153 2.077.458.6.306 1.063.736 1.39 1.292.327.546.491 1.189.491 1.93 0 .742-.164 1.391-.491 1.947-.327.545-.79.97-1.39 1.275-.589.306-1.281.458-2.077.458h-1.93V320h-2.045zm2.045-6.379h1.93c.578 0 1.036-.174 1.374-.523.338-.349.507-.802.507-1.358s-.169-1.008-.507-1.357c-.338-.349-.796-.524-1.374-.524h-1.93v3.762zm7.877 6.379v-1.848h3.107v-8.276l-3.123 2.322v-2.159l2.747-1.979h2.421v10.092h2.502V320h-7.654zm73.078 0v-11.94h3.975c.796 0 1.488.153 2.077.458.6.306 1.063.736 1.39 1.292.327.546.491 1.189.491 1.93 0 .742-.164 1.391-.491 1.947-.327.545-.79.97-1.39 1.275-.589.306-1.281.458-2.077.458h-1.93V320h-2.045zm2.045-6.379h1.93c.578 0 1.036-.174 1.374-.523.338-.349.507-.802.507-1.358s-.169-1.008-.507-1.357c-.338-.349-.796-.524-1.374-.524h-1.93v3.762zm7.877 6.379v-1.848h3.107v-8.276l-3.123 2.322v-2.159l2.747-1.979h2.421v10.092h2.502V320h-7.654z" fill="#000"></path><path d="M668.342 277.211v-11.895h4.693c.902 0 1.67.173 2.305.517a3.502 3.502 0 011.452 1.423c.337.604.506 1.301.506 2.091 0 .79-.171 1.487-.511 2.091a3.532 3.532 0 01-1.481 1.412c-.643.336-1.421.505-2.335.505h-2.992v-2.016h2.585c.484 0 .883-.083 1.197-.249.317-.171.553-.405.708-.703a2.2 2.2 0 00.238-1.04c0-.395-.079-.739-.238-1.034a1.594 1.594 0 00-.708-.691c-.318-.166-.721-.25-1.208-.25h-1.696v9.839h-2.515zm12.847.169c-.569 0-1.076-.099-1.522-.296a2.46 2.46 0 01-1.057-.889c-.255-.395-.383-.887-.383-1.475 0-.496.091-.912.273-1.249.182-.337.43-.608.744-.813a3.61 3.61 0 011.068-.465 8.273 8.273 0 011.266-.221 30.78 30.78 0 001.255-.151c.317-.05.548-.123.691-.22a.486.486 0 00.215-.43v-.035c0-.368-.116-.652-.348-.854-.229-.201-.554-.302-.976-.302-.446 0-.8.099-1.063.296a1.367 1.367 0 00-.523.732l-2.288-.186c.116-.542.344-1.01.685-1.405.341-.399.78-.705 1.319-.918.542-.217 1.169-.325 1.881-.325.496 0 .97.058 1.423.174.457.116.862.296 1.214.54.357.244.637.558.842.941.206.38.308.835.308 1.365v6.017h-2.346v-1.237h-.07a2.514 2.514 0 01-.575.738c-.24.209-.528.374-.865.494a3.584 3.584 0 01-1.168.174zm.709-1.708c.364 0 .685-.071.964-.215.279-.147.498-.344.656-.592.159-.248.238-.529.238-.842v-.947c-.077.05-.183.097-.319.139a5.842 5.842 0 01-.447.111c-.167.031-.333.06-.5.087l-.453.064a3.04 3.04 0 00-.761.203 1.22 1.22 0 00-.505.378.916.916 0 00-.18.58c0 .337.122.595.366.773.248.174.561.261.941.261zm6.235 1.539v-8.921h2.399v1.557h.093c.162-.554.435-.972.819-1.255.383-.286.824-.43 1.324-.43a3.638 3.638 0 01.778.087v2.196a3.199 3.199 0 00-.482-.093 4.35 4.35 0 00-.563-.041c-.364 0-.69.08-.976.238a1.756 1.756 0 00-.674.651c-.163.279-.244.6-.244.964v5.047h-2.474zm11.885-8.921v1.859h-5.373v-1.859h5.373zm-4.153-2.137h2.474v8.317c0 .228.035.407.105.534a.58.58 0 00.29.262c.128.05.275.075.442.075.116 0 .232-.009.348-.029l.267-.052.389 1.841a7.038 7.038 0 01-.522.134 4.174 4.174 0 01-.819.098c-.597.024-1.119-.056-1.568-.238a2.183 2.183 0 01-1.04-.848c-.248-.383-.37-.867-.366-1.452v-8.642zm5.765 11.058v-8.921h2.474v8.921h-2.474zm1.243-10.071c-.368 0-.684-.122-.947-.366a1.184 1.184 0 01-.389-.888c0-.341.129-.634.389-.878.263-.247.579-.371.947-.371.367 0 .681.124.94.371.264.244.395.537.395.878 0 .344-.131.64-.395.888a1.322 1.322 0 01-.94.366zm7.958 1.15v1.859h-5.372v-1.859h5.372zm-4.153-2.137h2.475v8.317c0 .228.034.407.104.534.07.124.167.211.291.262.127.05.274.075.441.075.116 0 .232-.009.348-.029l.268-.052.389 1.841a7.088 7.088 0 01-.523.134 4.174 4.174 0 01-.819.098c-.596.024-1.119-.056-1.568-.238a2.188 2.188 0 01-1.04-.848c-.248-.383-.37-.867-.366-1.452v-8.642zm5.765 11.058v-8.921h2.474v8.921h-2.474zm1.243-10.071c-.368 0-.684-.122-.947-.366a1.188 1.188 0 01-.389-.888c0-.341.13-.634.389-.878.263-.247.579-.371.947-.371s.681.124.941.371c.263.244.395.537.395.878 0 .344-.132.64-.395.888-.26.244-.573.366-.941.366zm7.244 10.246c-.902 0-1.682-.192-2.341-.575a3.95 3.95 0 01-1.516-1.615c-.356-.693-.534-1.497-.534-2.41 0-.922.178-1.727.534-2.417a3.893 3.893 0 011.516-1.614c.659-.387 1.439-.581 2.341-.581.902 0 1.681.194 2.335.581a3.881 3.881 0 011.522 1.614c.356.69.534 1.495.534 2.417 0 .913-.178 1.717-.534 2.41a3.938 3.938 0 01-1.522 1.615c-.654.383-1.433.575-2.335.575zm.012-1.917c.41 0 .753-.116 1.028-.349.275-.236.482-.557.621-.964.143-.406.215-.869.215-1.388a4.17 4.17 0 00-.215-1.388c-.139-.407-.346-.728-.621-.964s-.618-.354-1.028-.354c-.415 0-.763.118-1.046.354-.279.236-.49.557-.633.964a4.28 4.28 0 00-.209 1.388c0 .519.07.982.209 1.388.143.407.354.728.633.964.283.233.631.349 1.046.349zm8.462-3.415v5.157h-2.474v-8.921h2.358v1.574h.105c.197-.519.528-.929.993-1.231.464-.306 1.028-.459 1.69-.459.619 0 1.16.135 1.62.407.461.271.819.658 1.075 1.161.255.5.383 1.096.383 1.789v5.68h-2.474v-5.239c.004-.545-.136-.971-.418-1.277-.283-.31-.672-.465-1.168-.465-.333 0-.627.072-.882.215-.252.143-.45.352-.593.627-.139.271-.211.598-.215.982zm16.638-6.738v11.895h-2.515v-9.508h-.07l-2.724 1.708v-2.23l2.945-1.865h2.364zm-83.223-36.218v-2.513h11.839v2.513h-4.413V241h-3.013v-11.902h-4.413zm16.376 12.113c-1.093 0-2.039-.232-2.836-.697a4.762 4.762 0 01-1.837-1.956c-.432-.84-.648-1.814-.648-2.921 0-1.117.216-2.093.648-2.929a4.702 4.702 0 011.837-1.956c.797-.47 1.743-.704 2.836-.704 1.094 0 2.037.234 2.83.704a4.693 4.693 0 011.844 1.956c.432.836.648 1.812.648 2.929 0 1.107-.216 2.081-.648 2.921a4.753 4.753 0 01-1.844 1.956c-.793.465-1.736.697-2.83.697zm.014-2.323c.498 0 .913-.14 1.246-.422.333-.286.584-.676.753-1.168.174-.493.261-1.054.261-1.683 0-.628-.087-1.189-.261-1.682-.169-.493-.42-.882-.753-1.168-.333-.287-.748-.43-1.246-.43-.502 0-.924.143-1.267.43-.337.286-.593.675-.767 1.168-.169.493-.253 1.054-.253 1.682 0 .629.084 1.19.253 1.683.174.492.43.882.767 1.168.343.282.765.422 1.267.422zm6.584 6.166v-14.865h2.956v1.816h.134c.131-.291.321-.587.57-.887a3.01 3.01 0 01.985-.761c.409-.206.915-.309 1.521-.309.788 0 1.515.206 2.182.619.666.408 1.199 1.025 1.598 1.851.398.822.598 1.852.598 3.09 0 1.206-.195 2.225-.584 3.055-.385.826-.911 1.452-1.577 1.879a4.042 4.042 0 01-2.224.634c-.582 0-1.077-.096-1.485-.289a3.062 3.062 0 01-.993-.725 3.656 3.656 0 01-.591-.894h-.092v5.786h-2.998zm2.935-9.46c0 .643.089 1.204.268 1.683.178.478.436.851.774 1.119.338.262.748.394 1.232.394.488 0 .901-.134 1.238-.401.338-.273.594-.648.768-1.127.178-.483.267-1.039.267-1.668 0-.624-.087-1.173-.26-1.647-.174-.474-.43-.844-.768-1.112-.337-.267-.753-.401-1.245-.401-.488 0-.901.129-1.239.387-.333.258-.589.624-.767 1.098-.179.474-.268 1.032-.268 1.675zm8.934 5.406v-10.811h2.999V241h-2.999zm1.507-12.205a1.63 1.63 0 01-1.148-.444 1.437 1.437 0 01-.471-1.076c0-.413.157-.768.471-1.063.32-.301.702-.451 1.148-.451.446 0 .826.15 1.14.451.319.295.479.65.479 1.063 0 .417-.16.776-.479 1.076a1.602 1.602 0 01-1.14.444zm8.105 12.416c-1.107 0-2.06-.234-2.857-.704a4.759 4.759 0 01-1.83-1.971c-.423-.839-.634-1.806-.634-2.899 0-1.108.214-2.079.641-2.915a4.756 4.756 0 011.837-1.963c.793-.474 1.736-.711 2.829-.711.944 0 1.769.171 2.478.514a4.13 4.13 0 011.682 1.443c.413.619.641 1.346.683 2.182h-2.83c-.079-.54-.291-.974-.633-1.303-.338-.333-.781-.499-1.33-.499-.465 0-.871.126-1.218.38-.343.248-.61.612-.803 1.091-.192.478-.288 1.058-.288 1.738 0 .69.094 1.277.281 1.76.193.483.463.852.81 1.105.347.253.753.38 1.218.38.342 0 .65-.07.922-.211a1.78 1.78 0 00.682-.612c.183-.273.303-.599.359-.979h2.83c-.047.826-.272 1.553-.676 2.182a4.083 4.083 0 01-1.654 1.464c-.704.352-1.537.528-2.499.528zm12.53-.211h-3.266l4.977-14.415h3.927l4.97 14.415h-3.266l-3.611-11.121h-.113L719.804 241zm-.204-5.666h7.715v2.379H719.6v-2.379z" fill="#1A1A1A"></path><path fill-rule="evenodd" clip-rule="evenodd" d="M486 60c0-11.059 8.941-20 20-20s20 8.941 20 20-8.941 20-20 20-20-8.941-20-20zm17 10.47l3.882-3.882 11.53-11.53-3.883-3.882L503 62.706l-5.471-5.47-3.882 3.882 5.471 5.47L503 70.471zM859 60c0-11.059 8.941-20 20-20s20 8.941 20 20-8.941 20-20 20-20-8.941-20-20zm17 10.47l3.882-3.882 11.53-11.53-3.883-3.882L876 62.706l-5.471-5.47-3.882 3.882 5.471 5.47L876 70.471z" fill="#00C176"></path><path d="M697 831a3 3 0 013-3h438.76c.79 0 1.55.308 2.1.888 6 6.391 16.45 20.97 19.95 25.926.72 1.02.72 2.366 0 3.386-3.15 4.47-12.03 16.768-19.94 24.915a2.93 2.93 0 01-2.11.885H700a3 3 0 01-3-3v-50z" fill="#FCF3CF"></path><path d="M697 831a3 3 0 013-3h438.76c.79 0 1.55.308 2.1.888 6 6.391 16.45 20.97 19.95 25.926.72 1.02.72 2.366 0 3.386-3.15 4.47-12.03 16.768-19.94 24.915a2.93 2.93 0 01-2.11.885H700a3 3 0 01-3-3v-50z" fill="#F7DD79"></path><path d="M364 831a3 3 0 013-3h371.757c.796 0 1.557.308 2.101.888 6.005 6.391 16.449 20.97 19.956 25.926a2.922 2.922 0 01-.001 3.386c-3.152 4.47-12.036 16.768-19.942 24.915a2.935 2.935 0 01-2.114.885H367a3 3 0 01-3-3v-50z" fill="#FCF3CF"></path><path d="M364 831a3 3 0 013-3h371.757c.796 0 1.557.308 2.101.888 6.005 6.391 16.449 20.97 19.956 25.926a2.922 2.922 0 01-.001 3.386c-3.152 4.47-12.036 16.768-19.942 24.915a2.935 2.935 0 01-2.114.885H367a3 3 0 01-3-3v-50z" fill="#F9E79F"></path><path d="M37 831a3 3 0 013-3h358.757c.796 0 1.557.308 2.101.888 6.005 6.391 16.449 20.97 19.956 25.926a2.922 2.922 0 01-.001 3.386c-3.152 4.47-12.036 16.768-19.942 24.915a2.935 2.935 0 01-2.114.885H40a3 3 0 01-3-3v-50z" fill="#FCF3CF"></path><path d="M37 831a3 3 0 013-3h358.757c.796 0 1.557.308 2.101.888 6.005 6.391 16.449 20.97 19.956 25.926a2.922 2.922 0 01-.001 3.386c-3.152 4.47-12.036 16.768-19.942 24.915a2.935 2.935 0 01-2.114.885H40a3 3 0 01-3-3v-50z" fill="#FCF3CF"></path><path d="M70.688 866h-3.652l6.65-18.887h4.223L84.568 866h-3.652l-5.045-15.014h-.148L70.688 866zm.12-7.406h9.96v2.749h-9.96v-2.749zm26.658-6.759L92.422 866h-3.69l-5.044-14.165h3.56l3.256 10.522h.147l3.265-10.522h3.55zm5.662 14.451c-.898 0-1.706-.16-2.425-.48a3.958 3.958 0 01-1.697-1.438c-.412-.634-.618-1.414-.618-2.343 0-.799.147-1.46.442-1.983a3.43 3.43 0 011.209-1.254 6.112 6.112 0 011.724-.71 14.08 14.08 0 012.001-.36c.83-.086 1.504-.163 2.02-.23.517-.074.892-.185 1.125-.332.24-.154.36-.391.36-.71v-.056c0-.694-.206-1.232-.618-1.614-.412-.381-1.005-.571-1.78-.571-.818 0-1.466.178-1.946.535-.473.356-.793.777-.959 1.263l-3.117-.443c.246-.86.652-1.58 1.217-2.158a5.303 5.303 0 012.075-1.309c.818-.295 1.722-.443 2.712-.443.682 0 1.361.08 2.038.24a5.73 5.73 0 011.853.793c.56.363 1.009.858 1.347 1.485.344.627.516 1.411.516 2.351V866h-3.209v-1.946h-.111a4.077 4.077 0 01-.857 1.107c-.363.338-.821.612-1.374.821-.548.202-1.19.304-1.928.304zm.867-2.453c.67 0 1.251-.132 1.743-.397.492-.27.87-.627 1.134-1.07.271-.442.406-.925.406-1.447v-1.67c-.104.086-.283.166-.535.24a7.642 7.642 0 01-.83.194c-.307.055-.612.104-.913.147l-.784.111a5.838 5.838 0 00-1.337.332c-.393.154-.704.369-.931.646-.228.27-.342.62-.342 1.051 0 .615.225 1.079.674 1.392.448.314 1.02.471 1.715.471zm9.65 2.167v-14.165h3.339V866h-3.339zm1.679-16.176c-.529 0-.984-.175-1.365-.526-.381-.356-.572-.783-.572-1.281 0-.505.191-.932.572-1.282a1.927 1.927 0 011.365-.535c.535 0 .99.178 1.365.535.381.35.571.777.571 1.282 0 .498-.19.925-.571 1.281-.375.351-.83.526-1.365.526zm8.112-2.711V866h-3.338v-18.887h3.338zm7.19 19.173c-.897 0-1.706-.16-2.425-.48a3.96 3.96 0 01-1.697-1.438c-.412-.634-.618-1.414-.618-2.343 0-.799.148-1.46.443-1.983.295-.522.698-.94 1.208-1.254a6.112 6.112 0 011.724-.71 14.068 14.068 0 012.002-.36 81.5 81.5 0 002.019-.23c.517-.074.892-.185 1.126-.332.239-.154.359-.391.359-.71v-.056c0-.694-.206-1.232-.618-1.614-.412-.381-1.005-.571-1.78-.571-.817 0-1.466.178-1.946.535-.473.356-.793.777-.959 1.263l-3.117-.443c.246-.86.652-1.58 1.218-2.158a5.289 5.289 0 012.075-1.309c.817-.295 1.721-.443 2.711-.443.682 0 1.362.08 2.038.24.676.16 1.294.424 1.854.793a3.989 3.989 0 011.346 1.485c.345.627.517 1.411.517 2.351V866h-3.21v-1.946h-.11a4.081 4.081 0 01-.858 1.107c-.363.338-.821.612-1.374.821-.547.202-1.19.304-1.928.304zm.867-2.453c.67 0 1.251-.132 1.743-.397.492-.27.87-.627 1.135-1.07.27-.442.405-.925.405-1.447v-1.67c-.104.086-.282.166-.534.24a7.698 7.698 0 01-.83.194c-.308.055-.612.104-.914.147l-.783.111a5.847 5.847 0 00-1.338.332c-.393.154-.704.369-.931.646-.228.27-.341.62-.341 1.051 0 .615.224 1.079.673 1.392.449.314 1.021.471 1.715.471zm9.798 2.167v-18.887h3.339v7.064h.138c.172-.344.415-.71.728-1.097.314-.394.738-.729 1.273-1.006.535-.282 1.217-.424 2.047-.424 1.095 0 2.082.28 2.961.839.885.554 1.586 1.374 2.103 2.463.522 1.082.783 2.41.783 3.984 0 1.555-.255 2.877-.765 3.965-.51 1.089-1.205 1.919-2.084 2.49-.879.572-1.875.858-2.988.858-.812 0-1.485-.135-2.02-.406-.535-.27-.965-.596-1.291-.977a6.297 6.297 0 01-.747-1.098h-.194V866h-3.283zm3.274-7.083c0 .916.129 1.719.387 2.407.265.689.643 1.227 1.135 1.614.498.381 1.1.572 1.807.572.738 0 1.356-.197 1.854-.59.498-.4.873-.944 1.125-1.633.258-.694.387-1.484.387-2.37 0-.879-.126-1.66-.378-2.342-.252-.683-.627-1.218-1.125-1.605s-1.119-.581-1.863-.581c-.713 0-1.319.188-1.817.563-.498.375-.876.9-1.134 1.577-.252.676-.378 1.472-.378 2.388zm15.956-11.804V866h-3.338v-18.887h3.338zm9.385 19.164c-1.42 0-2.647-.295-3.68-.886a5.998 5.998 0 01-2.37-2.527c-.553-1.094-.83-2.382-.83-3.864 0-1.457.277-2.736.83-3.836.56-1.107 1.341-1.968 2.343-2.582 1.002-.621 2.179-.932 3.532-.932.873 0 1.697.142 2.472.424.78.277 1.469.707 2.065 1.291.603.585 1.076 1.328 1.421 2.232.344.898.516 1.968.516 3.21v1.023h-11.611v-2.25h8.411c-.006-.639-.145-1.208-.415-1.706a3.027 3.027 0 00-1.134-1.19c-.48-.289-1.04-.433-1.679-.433-.682 0-1.282.166-1.798.498a3.427 3.427 0 00-1.208 1.291 3.713 3.713 0 00-.434 1.743v1.964c0 .824.151 1.531.452 2.121a3.226 3.226 0 001.263 1.347c.542.307 1.175.461 1.9.461.486 0 .926-.068 1.319-.203a2.91 2.91 0 001.024-.618c.289-.27.507-.605.655-1.005l3.117.35a4.86 4.86 0 01-1.125 2.158c-.548.609-1.249 1.083-2.103 1.421-.855.332-1.832.498-2.933.498zm14.927 5.035v-19.477h3.283v2.342h.194c.172-.344.415-.71.728-1.097.314-.394.738-.729 1.273-1.006.535-.282 1.217-.424 2.047-.424 1.095 0 2.082.28 2.961.839.885.554 1.586 1.374 2.102 2.463.523 1.082.784 2.41.784 3.984 0 1.555-.255 2.877-.765 3.965-.51 1.089-1.205 1.919-2.084 2.49-.88.572-1.876.858-2.988.858-.812 0-1.485-.135-2.02-.406-.535-.27-.965-.596-1.291-.977a6.297 6.297 0 01-.747-1.098h-.138v7.544h-3.339zm3.274-12.395c0 .916.129 1.719.387 2.407.265.689.643 1.227 1.135 1.614.498.381 1.1.572 1.807.572.738 0 1.356-.197 1.854-.59.498-.4.873-.944 1.125-1.633.258-.694.387-1.484.387-2.37 0-.879-.126-1.66-.378-2.342-.252-.683-.627-1.218-1.125-1.605s-1.119-.581-1.863-.581c-.713 0-1.319.188-1.817.563-.498.375-.876.9-1.134 1.577-.252.676-.378 1.472-.378 2.388zm16.715 7.369c-.898 0-1.707-.16-2.426-.48a3.96 3.96 0 01-1.697-1.438c-.412-.634-.618-1.414-.618-2.343 0-.799.148-1.46.443-1.983.295-.522.698-.94 1.208-1.254a6.106 6.106 0 011.725-.71 14.029 14.029 0 012.001-.36c.83-.086 1.503-.163 2.02-.23.516-.074.891-.185 1.125-.332.239-.154.359-.391.359-.71v-.056c0-.694-.206-1.232-.618-1.614-.411-.381-1.005-.571-1.779-.571-.818 0-1.467.178-1.946.535-.474.356-.793.777-.959 1.263l-3.118-.443c.246-.86.652-1.58 1.218-2.158a5.289 5.289 0 012.075-1.309c.817-.295 1.721-.443 2.711-.443.683 0 1.362.08 2.038.24.677.16 1.294.424 1.854.793a3.989 3.989 0 011.346 1.485c.345.627.517 1.411.517 2.351V866h-3.21v-1.946h-.11a4.081 4.081 0 01-.858 1.107c-.363.338-.821.612-1.374.821-.547.202-1.19.304-1.927.304zm.866-2.453c.671 0 1.252-.132 1.743-.397.492-.27.87-.627 1.135-1.07.27-.442.406-.925.406-1.447v-1.67c-.105.086-.283.166-.535.24a7.698 7.698 0 01-.83.194c-.308.055-.612.104-.913.147l-.784.111a5.825 5.825 0 00-1.337.332c-.394.154-.704.369-.932.646-.227.27-.341.62-.341 1.051 0 .615.224 1.079.673 1.392.449.314 1.021.471 1.715.471zm9.651 2.167v-14.165h3.237v2.36h.147c.258-.817.701-1.447 1.328-1.89a3.657 3.657 0 012.168-.673c.184 0 .39.009.617.027.234.013.428.034.581.065v3.071a3.516 3.516 0 00-.673-.129 6.196 6.196 0 00-.876-.065c-.609 0-1.156.132-1.642.397a2.906 2.906 0 00-1.134 1.079c-.277.461-.415.993-.415 1.595V866h-3.338zm17.812-14.165v2.582h-8.144v-2.582h8.144zm-6.133-3.394h3.338v13.298c0 .449.068.793.203 1.033.142.234.326.394.554.48.227.086.479.129.756.129.209 0 .399-.016.572-.046.178-.031.313-.059.405-.083l.563 2.61a7.63 7.63 0 01-.766.203 6.375 6.375 0 01-1.198.129c-.837.024-1.59-.102-2.26-.378a3.515 3.515 0 01-1.595-1.31c-.388-.59-.578-1.328-.572-2.213v-13.852zM235.624 866v-14.165h3.338V866h-3.338zm1.678-16.176c-.529 0-.984-.175-1.365-.526-.381-.356-.572-.783-.572-1.281 0-.505.191-.932.572-1.282a1.927 1.927 0 011.365-.535c.535 0 .99.178 1.365.535.381.35.572.777.572 1.282 0 .498-.191.925-.572 1.281-.375.351-.83.526-1.365.526zm11.848 2.011v2.582h-8.144v-2.582h8.144zm-6.133-3.394h3.338v13.298c0 .449.068.793.203 1.033.142.234.326.394.554.48.227.086.479.129.756.129.209 0 .399-.016.572-.046.178-.031.313-.059.405-.083l.563 2.61a7.63 7.63 0 01-.766.203 6.375 6.375 0 01-1.198.129c-.837.024-1.59-.102-2.26-.378a3.515 3.515 0 01-1.595-1.31c-.388-.59-.578-1.328-.572-2.213v-13.852zM251.623 866v-14.165h3.338V866h-3.338zm1.678-16.176c-.529 0-.984-.175-1.365-.526-.381-.356-.572-.783-.572-1.281 0-.505.191-.932.572-1.282a1.927 1.927 0 011.365-.535c.535 0 .99.178 1.365.535.381.35.572.777.572 1.282 0 .498-.191.925-.572 1.281-.375.351-.83.526-1.365.526zm10.953 16.453c-1.383 0-2.582-.305-3.597-.913-1.014-.609-1.801-1.461-2.361-2.555-.553-1.094-.83-2.373-.83-3.836 0-1.464.277-2.746.83-3.846.56-1.101 1.347-1.955 2.361-2.564 1.015-.609 2.214-.913 3.597-.913s2.582.304 3.597.913c1.014.609 1.798 1.463 2.351 2.564.56 1.1.84 2.382.84 3.846 0 1.463-.28 2.742-.84 3.836-.553 1.094-1.337 1.946-2.351 2.555-1.015.608-2.214.913-3.597.913zm.018-2.675c.751 0 1.378-.206 1.882-.618.504-.418.879-.977 1.125-1.678.252-.701.378-1.482.378-2.343 0-.867-.126-1.65-.378-2.351-.246-.707-.621-1.27-1.125-1.688-.504-.418-1.131-.627-1.882-.627-.768 0-1.407.209-1.918.627-.504.418-.882.981-1.134 1.688-.246.701-.369 1.484-.369 2.351 0 .861.123 1.642.369 2.343.252.701.63 1.26 1.134 1.678.511.412 1.15.618 1.918.618zm12.623-5.902v8.3h-3.339v-14.165h3.191v2.407h.166a4.041 4.041 0 011.559-1.891c.719-.467 1.607-.701 2.665-.701.977 0 1.829.209 2.554.627.732.418 1.298 1.024 1.697 1.817.406.793.606 1.755.6 2.887V866h-3.339v-8.503c0-.947-.246-1.688-.737-2.223-.486-.534-1.159-.802-2.02-.802-.584 0-1.104.129-1.559.387a2.692 2.692 0 00-1.06 1.098c-.252.479-.378 1.06-.378 1.743zm23.363-2.121l-3.043.332a2.439 2.439 0 00-.452-.867 2.242 2.242 0 00-.848-.655c-.357-.166-.793-.249-1.31-.249-.695 0-1.279.151-1.752.452-.467.301-.698.692-.692 1.171-.006.412.145.747.452 1.005.314.259.83.471 1.55.637l2.416.516c1.34.289 2.336.747 2.988 1.374.658.628.99 1.448.996 2.463-.006.891-.268 1.678-.784 2.361-.51.676-1.22 1.205-2.13 1.586-.91.381-1.956.572-3.136.572-1.734 0-3.129-.363-4.187-1.089-1.057-.731-1.688-1.749-1.891-3.052l3.256-.314c.148.64.461 1.122.941 1.448.479.326 1.103.489 1.872.489.793 0 1.429-.163 1.909-.489.485-.326.728-.728.728-1.208 0-.406-.156-.741-.47-1.005-.307-.265-.787-.467-1.439-.609l-2.416-.507c-1.359-.283-2.364-.759-3.016-1.43-.651-.676-.974-1.53-.968-2.563-.006-.873.231-1.63.71-2.269.486-.646 1.159-1.144 2.02-1.494.867-.357 1.866-.535 2.997-.535 1.66 0 2.967.354 3.92 1.061.959.707 1.552 1.663 1.779 2.868zM446.028 866v-18.887h7.083c1.451 0 2.668.27 3.652.811.99.541 1.737 1.285 2.241 2.232.51.941.765 2.011.765 3.209 0 1.212-.255 2.288-.765 3.228-.51.941-1.263 1.682-2.259 2.223-.996.535-2.223.802-3.68.802h-4.694v-2.813h4.233c.848 0 1.543-.147 2.084-.442a2.79 2.79 0 001.199-1.218c.264-.516.396-1.109.396-1.78 0-.67-.132-1.26-.396-1.77-.258-.511-.661-.907-1.208-1.19-.541-.289-1.239-.433-2.094-.433h-3.135V866h-3.422zm20.069.286c-.897 0-1.706-.16-2.425-.48a3.96 3.96 0 01-1.697-1.438c-.412-.634-.618-1.414-.618-2.343 0-.799.148-1.46.443-1.983.295-.522.698-.94 1.208-1.254a6.112 6.112 0 011.724-.71 14.068 14.068 0 012.002-.36 81.5 81.5 0 002.019-.23c.517-.074.892-.185 1.126-.332.239-.154.359-.391.359-.71v-.056c0-.694-.206-1.232-.618-1.614-.412-.381-1.005-.571-1.78-.571-.817 0-1.466.178-1.945.535-.474.356-.794.777-.96 1.263l-3.117-.443c.246-.86.652-1.58 1.218-2.158a5.289 5.289 0 012.075-1.309c.817-.295 1.721-.443 2.711-.443.682 0 1.362.08 2.038.24.676.16 1.294.424 1.854.793a3.989 3.989 0 011.346 1.485c.345.627.517 1.411.517 2.351V866h-3.21v-1.946h-.11a4.081 4.081 0 01-.858 1.107c-.363.338-.821.612-1.374.821-.547.202-1.19.304-1.928.304zm.867-2.453c.67 0 1.251-.132 1.743-.397.492-.27.87-.627 1.135-1.07.27-.442.405-.925.405-1.447v-1.67c-.104.086-.282.166-.534.24a7.698 7.698 0 01-.83.194c-.308.055-.612.104-.913.147l-.784.111a5.847 5.847 0 00-1.338.332c-.393.154-.704.369-.931.646-.228.27-.341.62-.341 1.051 0 .615.224 1.079.673 1.392.449.314 1.021.471 1.715.471zm9.651 2.167v-14.165h3.237v2.36h.147c.258-.817.701-1.447 1.328-1.89.633-.449 1.356-.673 2.167-.673.185 0 .391.009.618.027.234.013.428.034.581.065v3.071a3.533 3.533 0 00-.673-.129 6.196 6.196 0 00-.876-.065c-.609 0-1.156.132-1.642.397a2.906 2.906 0 00-1.134 1.079c-.277.461-.415.993-.415 1.595V866h-3.338zm17.812-14.165v2.582h-8.144v-2.582h8.144zm-6.133-3.394h3.338v13.298c0 .449.068.793.203 1.033.142.234.326.394.553.48.228.086.48.129.757.129.209 0 .399-.016.571-.046.179-.031.314-.059.406-.083l.563 2.61a7.705 7.705 0 01-.766.203 6.387 6.387 0 01-1.199.129c-.836.024-1.589-.102-2.259-.378a3.515 3.515 0 01-1.595-1.31c-.388-.59-.578-1.328-.572-2.213v-13.852zM496.9 866v-14.165h3.338V866H496.9zm1.678-16.176c-.529 0-.984-.175-1.365-.526-.381-.356-.572-.783-.572-1.281 0-.505.191-.932.572-1.282a1.927 1.927 0 011.365-.535c.535 0 .99.178 1.365.535.381.35.572.777.572 1.282 0 .498-.191.925-.572 1.281-.375.351-.83.526-1.365.526zm11.848 2.011v2.582h-8.144v-2.582h8.144zm-6.133-3.394h3.338v13.298c0 .449.068.793.203 1.033.141.234.326.394.553.48.228.086.48.129.757.129.209 0 .399-.016.571-.046.179-.031.314-.059.406-.083l.563 2.61a7.705 7.705 0 01-.766.203 6.387 6.387 0 01-1.199.129c-.836.024-1.589-.102-2.259-.378a3.523 3.523 0 01-1.596-1.31c-.387-.59-.577-1.328-.571-2.213v-13.852zM512.899 866v-14.165h3.338V866h-3.338zm1.678-16.176c-.529 0-.984-.175-1.365-.526-.381-.356-.572-.783-.572-1.281 0-.505.191-.932.572-1.282a1.927 1.927 0 011.365-.535c.535 0 .99.178 1.365.535.381.35.572.777.572 1.282 0 .498-.191.925-.572 1.281-.375.351-.83.526-1.365.526zm10.953 16.453c-1.383 0-2.582-.305-3.597-.913-1.014-.609-1.801-1.461-2.361-2.555-.553-1.094-.83-2.373-.83-3.836 0-1.464.277-2.746.83-3.846.56-1.101 1.347-1.955 2.361-2.564 1.015-.609 2.214-.913 3.597-.913s2.582.304 3.597.913c1.014.609 1.798 1.463 2.351 2.564.56 1.1.84 2.382.84 3.846 0 1.463-.28 2.742-.84 3.836-.553 1.094-1.337 1.946-2.351 2.555-1.015.608-2.214.913-3.597.913zm.018-2.675c.75 0 1.378-.206 1.882-.618.504-.418.879-.977 1.125-1.678.252-.701.378-1.482.378-2.343 0-.867-.126-1.65-.378-2.351-.246-.707-.621-1.27-1.125-1.688-.504-.418-1.132-.627-1.882-.627-.768 0-1.408.209-1.918.627-.504.418-.882.981-1.134 1.688-.246.701-.369 1.484-.369 2.351 0 .861.123 1.642.369 2.343.252.701.63 1.26 1.134 1.678.51.412 1.15.618 1.918.618zm12.623-5.902v8.3h-3.339v-14.165h3.191v2.407h.166a4.041 4.041 0 011.559-1.891c.719-.467 1.607-.701 2.665-.701.977 0 1.829.209 2.554.627.732.418 1.298 1.024 1.697 1.817.406.793.606 1.755.6 2.887V866h-3.339v-8.503c0-.947-.246-1.688-.738-2.223-.485-.534-1.158-.802-2.019-.802-.584 0-1.104.129-1.559.387a2.686 2.686 0 00-1.06 1.098c-.252.479-.378 1.06-.378 1.743zm23.363-2.121l-3.043.332a2.439 2.439 0 00-.452-.867 2.242 2.242 0 00-.848-.655c-.357-.166-.793-.249-1.31-.249-.695 0-1.279.151-1.752.452-.467.301-.698.692-.692 1.171-.006.412.145.747.452 1.005.314.259.83.471 1.549.637l2.417.516c1.34.289 2.336.747 2.988 1.374.658.628.99 1.448.996 2.463-.006.891-.268 1.678-.784 2.361-.511.676-1.221 1.205-2.131 1.586-.909.381-1.955.572-3.135.572-1.734 0-3.13-.363-4.187-1.089-1.058-.731-1.688-1.749-1.891-3.052l3.256-.314c.147.64.461 1.122.941 1.448.479.326 1.103.489 1.872.489.793 0 1.429-.163 1.909-.489.485-.326.728-.728.728-1.208 0-.406-.157-.741-.47-1.005-.308-.265-.787-.467-1.439-.609l-2.416-.507c-1.359-.283-2.364-.759-3.016-1.43-.651-.676-.974-1.53-.968-2.563-.006-.873.23-1.63.71-2.269.486-.646 1.159-1.144 2.02-1.494.867-.357 1.866-.535 2.997-.535 1.66 0 2.966.354 3.919 1.061.96.707 1.553 1.663 1.78 2.868zM570.395 866v-14.165h3.339V866h-3.339zm1.679-16.176c-.529 0-.984-.175-1.365-.526-.381-.356-.572-.783-.572-1.281 0-.505.191-.932.572-1.282a1.927 1.927 0 011.365-.535c.535 0 .99.178 1.365.535.381.35.571.777.571 1.282 0 .498-.19.925-.571 1.281-.375.351-.83.526-1.365.526zm8.112 7.876v8.3h-3.338v-14.165h3.191v2.407h.166a4.039 4.039 0 011.558-1.891c.72-.467 1.608-.701 2.665-.701.978 0 1.83.209 2.555.627.732.418 1.297 1.024 1.697 1.817.406.793.606 1.755.599 2.887V866h-3.338v-8.503c0-.947-.246-1.688-.738-2.223-.486-.534-1.159-.802-2.02-.802-.584 0-1.103.129-1.558.387a2.694 2.694 0 00-1.061 1.098c-.252.479-.378 1.06-.378 1.743zm29.487-2.121l-3.044.332a2.436 2.436 0 00-.451-.867 2.246 2.246 0 00-.849-.655c-.357-.166-.793-.249-1.31-.249-.694 0-1.278.151-1.752.452-.467.301-.698.692-.691 1.171-.007.412.144.747.451 1.005.314.259.83.471 1.55.637l2.416.516c1.34.289 2.336.747 2.988 1.374.658.628.99 1.448.996 2.463-.006.891-.267 1.678-.784 2.361-.51.676-1.22 1.205-2.13 1.586-.91.381-1.955.572-3.136.572-1.734 0-3.129-.363-4.187-1.089-1.057-.731-1.687-1.749-1.89-3.052l3.255-.314c.148.64.461 1.122.941 1.448.479.326 1.104.489 1.872.489.793 0 1.429-.163 1.909-.489.486-.326.729-.728.729-1.208 0-.406-.157-.741-.471-1.005-.307-.265-.787-.467-1.438-.609l-2.417-.507c-1.358-.283-2.364-.759-3.015-1.43-.652-.676-.975-1.53-.969-2.563-.006-.873.231-1.63.71-2.269.486-.646 1.159-1.144 2.02-1.494.867-.357 1.866-.535 2.997-.535 1.66 0 2.967.354 3.92 1.061.959.707 1.552 1.663 1.78 2.868zm4.813 15.733a6.75 6.75 0 01-1.264-.111 4.67 4.67 0 01-.913-.239l.775-2.601c.486.141.919.209 1.3.203a1.593 1.593 0 001.006-.36c.295-.227.544-.609.747-1.143l.286-.766-5.137-14.46h3.541l3.265 10.697h.147l3.274-10.697h3.551l-5.672 15.88c-.264.75-.615 1.393-1.051 1.928a4.283 4.283 0 01-1.605 1.236c-.627.289-1.377.433-2.25.433zm15.908-13.612v8.3h-3.339v-14.165h3.191v2.407h.166a4.041 4.041 0 011.559-1.891c.719-.467 1.607-.701 2.665-.701.977 0 1.829.209 2.554.627.732.418 1.298 1.024 1.697 1.817.406.793.606 1.755.6 2.887V866h-3.339v-8.503c0-.947-.246-1.688-.738-2.223-.485-.534-1.158-.802-2.019-.802-.584 0-1.104.129-1.559.387a2.686 2.686 0 00-1.06 1.098c-.252.479-.378 1.06-.378 1.743zm18.346 8.577c-1.414 0-2.628-.311-3.642-.932-1.009-.621-1.786-1.478-2.334-2.573-.541-1.1-.811-2.367-.811-3.799 0-1.439.276-2.709.83-3.809.553-1.107 1.334-1.968 2.342-2.582 1.015-.621 2.214-.932 3.597-.932 1.15 0 2.167.212 3.053.636.891.419 1.601 1.012 2.13 1.78.529.763.83 1.654.904 2.675h-3.191a3.052 3.052 0 00-.922-1.706c-.48-.461-1.122-.692-1.928-.692-.682 0-1.282.184-1.798.553-.517.363-.919.886-1.208 1.568-.283.683-.425 1.5-.425 2.453 0 .966.142 1.796.425 2.49.282.689.679 1.221 1.189 1.596.517.369 1.122.553 1.817.553.492 0 .932-.092 1.319-.277a2.66 2.66 0 00.987-.82c.264-.357.445-.79.544-1.301h3.191c-.08 1.002-.375 1.891-.886 2.666-.51.768-1.205 1.371-2.084 1.807-.879.43-1.912.646-3.099.646z" fill="#302703"></path><path d="M685.932 866v-2.877l6.723-6.225a25.684 25.684 0 001.439-1.494c.394-.443.692-.877.895-1.301.202-.43.304-.894.304-1.392 0-.554-.126-1.03-.378-1.43a2.482 2.482 0 00-1.033-.931 3.232 3.232 0 00-1.485-.332c-.578 0-1.082.117-1.512.35a2.413 2.413 0 00-.996 1.005c-.234.437-.351.956-.351 1.559h-3.79c0-1.236.28-2.309.839-3.219.56-.91 1.343-1.613 2.352-2.111 1.008-.498 2.17-.747 3.486-.747 1.352 0 2.53.239 3.532.719 1.008.473 1.792 1.131 2.352 1.973.559.843.839 1.808.839 2.896 0 .713-.142 1.417-.424 2.112-.277.695-.772 1.466-1.485 2.315-.713.842-1.719 1.854-3.016 3.034l-2.757 2.702v.129h7.931V866h-13.465zm24.303-19.773l-6.087 22.613h-3.385l6.087-22.613h3.385zM711.771 866v-2.877l6.724-6.225a25.97 25.97 0 001.438-1.494c.394-.443.692-.877.895-1.301.203-.43.304-.894.304-1.392 0-.554-.126-1.03-.378-1.43a2.476 2.476 0 00-1.033-.931c-.436-.222-.931-.332-1.485-.332-.578 0-1.082.117-1.512.35a2.413 2.413 0 00-.996 1.005c-.234.437-.351.956-.351 1.559h-3.79c0-1.236.28-2.309.839-3.219.56-.91 1.344-1.613 2.352-2.111 1.008-.498 2.17-.747 3.486-.747 1.353 0 2.53.239 3.532.719 1.008.473 1.792 1.131 2.352 1.973.559.843.839 1.808.839 2.896 0 .713-.141 1.417-.424 2.112-.277.695-.772 1.466-1.485 2.315-.713.842-1.718 1.854-3.016 3.034l-2.757 2.702v.129h7.931V866h-13.465zm-377.839 0v-2.877l6.723-6.225a25.684 25.684 0 001.439-1.494c.394-.443.692-.877.895-1.301.202-.43.304-.894.304-1.392 0-.554-.126-1.03-.378-1.43a2.482 2.482 0 00-1.033-.931 3.232 3.232 0 00-1.485-.332c-.578 0-1.082.117-1.512.35a2.413 2.413 0 00-.996 1.005c-.234.437-.351.956-.351 1.559h-3.79c0-1.236.28-2.309.839-3.219.56-.91 1.343-1.613 2.352-2.111 1.008-.498 2.17-.747 3.486-.747 1.352 0 2.53.239 3.532.719 1.008.473 1.792 1.131 2.352 1.973.559.843.839 1.808.839 2.896 0 .713-.142 1.417-.424 2.112-.277.695-.772 1.466-1.485 2.315-.713.842-1.719 1.854-3.016 3.034l-2.757 2.702v.129h7.931V866h-13.465zm24.303-19.773l-6.087 22.613h-3.385l6.087-22.613h3.385zM359.771 866v-2.877l6.724-6.225a25.97 25.97 0 001.438-1.494c.394-.443.692-.877.895-1.301.203-.43.304-.894.304-1.392 0-.554-.126-1.03-.378-1.43a2.476 2.476 0 00-1.033-.931c-.436-.222-.931-.332-1.485-.332-.578 0-1.082.117-1.512.35a2.413 2.413 0 00-.996 1.005c-.234.437-.351.956-.351 1.559h-3.79c0-1.236.28-2.309.839-3.219.56-.91 1.344-1.613 2.352-2.111 1.008-.498 2.17-.747 3.486-.747 1.353 0 2.53.239 3.532.719 1.008.473 1.792 1.131 2.352 1.973.559.843.839 1.808.839 2.896 0 .713-.141 1.417-.424 2.112-.277.695-.772 1.466-1.485 2.315-.713.842-1.718 1.854-3.016 3.034l-2.757 2.702v.129h7.931V866h-13.465z" fill="#01673F"></path><path d="M781.897 866v-18.887h3.421v8.678h.231l7.368-8.678h4.178l-7.304 8.475L797.16 866h-4.114l-5.634-8.097-2.094 2.471V866h-3.421zm21.185.286c-.898 0-1.706-.16-2.426-.48a3.96 3.96 0 01-1.697-1.438c-.412-.634-.618-1.414-.618-2.343 0-.799.148-1.46.443-1.983.295-.522.698-.94 1.208-1.254a6.118 6.118 0 011.725-.71 14.029 14.029 0 012.001-.36c.83-.086 1.503-.163 2.02-.23.516-.074.891-.185 1.125-.332.24-.154.36-.391.36-.71v-.056c0-.694-.206-1.232-.618-1.614-.412-.381-1.006-.571-1.78-.571-.818 0-1.467.178-1.946.535-.474.356-.793.777-.959 1.263l-3.117-.443c.246-.86.651-1.58 1.217-2.158a5.296 5.296 0 012.075-1.309c.818-.295 1.721-.443 2.711-.443.683 0 1.362.08 2.038.24.677.16 1.295.424 1.854.793.56.363 1.008.858 1.347 1.485.344.627.516 1.411.516 2.351V866h-3.209v-1.946h-.111a4.081 4.081 0 01-.858 1.107c-.362.338-.82.612-1.374.821-.547.202-1.189.304-1.927.304zm.867-2.453c.67 0 1.251-.132 1.743-.397.492-.27.87-.627 1.134-1.07.271-.442.406-.925.406-1.447v-1.67c-.105.086-.283.166-.535.24a7.698 7.698 0 01-.83.194c-.308.055-.612.104-.913.147l-.784.111a5.825 5.825 0 00-1.337.332c-.394.154-.704.369-.932.646-.227.27-.341.62-.341 1.051 0 .615.224 1.079.673 1.392.449.314 1.021.471 1.716.471zm16.825-11.998v2.582H812.4v-2.582h8.374zM814.493 866v-15.503c0-.953.197-1.746.591-2.379a3.727 3.727 0 011.604-1.42c.671-.314 1.414-.471 2.232-.471a7.64 7.64 0 011.54.139c.449.092.781.175.996.249l-.664 2.582a5.69 5.69 0 00-.535-.129 3.243 3.243 0 00-.719-.074c-.621 0-1.06.151-1.319.452-.252.295-.378.719-.378 1.273V866h-3.348zm11.62-4.445l-.01-4.03h.535l5.091-5.69h3.901l-6.262 6.972h-.691l-2.564 2.748zM823.069 866v-18.887h3.339V866h-3.339zm8.891 0l-4.611-6.446 2.25-2.352 6.354 8.798h-3.993zm9.652.286c-.897 0-1.706-.16-2.425-.48a3.96 3.96 0 01-1.697-1.438c-.412-.634-.618-1.414-.618-2.343 0-.799.148-1.46.443-1.983.295-.522.697-.94 1.208-1.254a6.112 6.112 0 011.724-.71 14.068 14.068 0 012.002-.36 81.5 81.5 0 002.019-.23c.517-.074.892-.185 1.125-.332.24-.154.36-.391.36-.71v-.056c0-.694-.206-1.232-.618-1.614-.412-.381-1.005-.571-1.78-.571-.817 0-1.466.178-1.946.535-.473.356-.793.777-.959 1.263l-3.117-.443c.246-.86.652-1.58 1.217-2.158a5.303 5.303 0 012.075-1.309c.818-.295 1.722-.443 2.712-.443.682 0 1.362.08 2.038.24.676.16 1.294.424 1.854.793a3.989 3.989 0 011.346 1.485c.344.627.517 1.411.517 2.351V866h-3.21v-1.946h-.111a4.057 4.057 0 01-.857 1.107c-.363.338-.821.612-1.374.821-.547.202-1.19.304-1.928.304zm.867-2.453c.67 0 1.251-.132 1.743-.397.492-.27.87-.627 1.134-1.07.271-.442.406-.925.406-1.447v-1.67c-.104.086-.283.166-.535.24a7.642 7.642 0 01-.83.194c-.307.055-.611.104-.913.147l-.784.111a5.838 5.838 0 00-1.337.332c-.393.154-.704.369-.931.646-.228.27-.341.62-.341 1.051 0 .615.224 1.079.673 1.392.449.314 1.02.471 1.715.471zm21.952 2.444c-1.414 0-2.628-.311-3.643-.932a6.217 6.217 0 01-2.333-2.573c-.541-1.1-.812-2.367-.812-3.799 0-1.439.277-2.709.83-3.809.554-1.107 1.335-1.968 2.343-2.582 1.014-.621 2.213-.932 3.597-.932 1.149 0 2.167.212 3.052.636.892.419 1.602 1.012 2.131 1.78.528.763.83 1.654.903 2.675h-3.191a3.046 3.046 0 00-.922-1.706c-.479-.461-1.122-.692-1.927-.692-.683 0-1.282.184-1.799.553-.516.363-.919.886-1.208 1.568-.283.683-.424 1.5-.424 2.453 0 .966.141 1.796.424 2.49.283.689.68 1.221 1.19 1.596.516.369 1.122.553 1.817.553.492 0 .931-.092 1.319-.277.393-.19.722-.464.986-.82.265-.357.446-.79.544-1.301h3.191c-.08 1.002-.375 1.891-.885 2.666-.51.768-1.205 1.371-2.084 1.807-.879.43-1.912.646-3.099.646zm11.829-19.164V866h-3.338v-18.887h3.338zm12.143 12.929v-8.207h3.338V866h-3.237v-2.518h-.147a4.266 4.266 0 01-1.577 1.946c-.726.504-1.62.756-2.684.756-.928 0-1.749-.206-2.462-.617-.707-.419-1.261-1.024-1.66-1.817-.4-.8-.6-1.765-.6-2.896v-9.019h3.339v8.503c0 .897.245 1.61.737 2.139.492.529 1.138.793 1.937.793.492 0 .968-.12 1.429-.359.462-.24.84-.597 1.135-1.07.301-.48.452-1.079.452-1.799zm17.648-4.463l-3.043.332a2.439 2.439 0 00-.452-.867 2.238 2.238 0 00-.849-.655c-.356-.166-.793-.249-1.309-.249-.695 0-1.279.151-1.752.452-.468.301-.698.692-.692 1.171-.006.412.144.747.452 1.005.313.259.83.471 1.549.637l2.416.516c1.341.289 2.337.747 2.988 1.374.658.628.99 1.448.996 2.463-.006.891-.267 1.678-.784 2.361-.51.676-1.22 1.205-2.13 1.586-.91.381-1.955.572-3.135.572-1.734 0-3.13-.363-4.187-1.089-1.058-.731-1.688-1.749-1.891-3.052l3.256-.314c.147.64.461 1.122.94 1.448.48.326 1.104.489 1.872.489.793 0 1.43-.163 1.909-.489.486-.326.729-.728.729-1.208 0-.406-.157-.741-.47-1.005-.308-.265-.787-.467-1.439-.609l-2.416-.507c-1.359-.283-2.364-.759-3.016-1.43-.652-.676-.975-1.53-.968-2.563-.007-.873.23-1.63.71-2.269.485-.646 1.159-1.144 2.019-1.494.867-.357 1.866-.535 2.998-.535 1.66 0 2.966.354 3.919 1.061.959.707 1.553 1.663 1.78 2.868zm9.812-3.744v2.582h-8.144v-2.582h8.144zm-6.133-3.394h3.338v13.298c0 .449.068.793.203 1.033.142.234.326.394.554.48.227.086.479.129.756.129.209 0 .399-.016.572-.046.178-.031.313-.059.405-.083l.563 2.61a7.63 7.63 0 01-.766.203 6.375 6.375 0 01-1.198.129c-.837.024-1.59-.102-2.26-.378a3.515 3.515 0 01-1.595-1.31c-.388-.59-.578-1.328-.572-2.213v-13.852zm14.725 17.836c-1.421 0-2.647-.295-3.68-.886a5.986 5.986 0 01-2.37-2.527c-.553-1.094-.83-2.382-.83-3.864 0-1.457.277-2.736.83-3.836.559-1.107 1.34-1.968 2.342-2.582 1.003-.621 2.18-.932 3.532-.932a7.17 7.17 0 012.472.424 5.595 5.595 0 012.066 1.291c.602.585 1.076 1.328 1.42 2.232.344.898.517 1.968.517 3.21v1.023h-11.611v-2.25h8.41c-.006-.639-.144-1.208-.415-1.706a3.013 3.013 0 00-1.134-1.19c-.479-.289-1.039-.433-1.678-.433-.683 0-1.282.166-1.799.498a3.435 3.435 0 00-1.208 1.291 3.713 3.713 0 00-.433 1.743v1.964c0 .824.15 1.531.452 2.121a3.226 3.226 0 001.263 1.347c.541.307 1.174.461 1.9.461.486 0 .925-.068 1.319-.203a2.915 2.915 0 001.023-.618 2.56 2.56 0 00.655-1.005l3.117.35a4.86 4.86 0 01-1.125 2.158c-.547.609-1.248 1.083-2.103 1.421-.854.332-1.832.498-2.932.498zm8.804-.277v-14.165h3.237v2.36h.147c.259-.817.701-1.447 1.328-1.89a3.657 3.657 0 012.168-.673c.184 0 .39.009.618.027.233.013.427.034.581.065v3.071a3.547 3.547 0 00-.674-.129 6.196 6.196 0 00-.876-.065c-.608 0-1.156.132-1.641.397-.48.258-.858.618-1.135 1.079-.276.461-.415.993-.415 1.595V866h-3.338zm20.176.286c-.897 0-1.706-.16-2.425-.48a3.96 3.96 0 01-1.697-1.438c-.412-.634-.618-1.414-.618-2.343 0-.799.148-1.46.443-1.983.295-.522.698-.94 1.208-1.254a6.106 6.106 0 011.725-.71 14.029 14.029 0 012.001-.36c.83-.086 1.503-.163 2.02-.23.516-.074.891-.185 1.125-.332.239-.154.359-.391.359-.71v-.056c0-.694-.206-1.232-.618-1.614-.412-.381-1.005-.571-1.779-.571-.818 0-1.467.178-1.946.535-.474.356-.794.777-.96 1.263l-3.117-.443c.246-.86.652-1.58 1.218-2.158a5.289 5.289 0 012.075-1.309c.817-.295 1.721-.443 2.711-.443.683 0 1.362.08 2.038.24.676.16 1.294.424 1.854.793a3.989 3.989 0 011.346 1.485c.345.627.517 1.411.517 2.351V866h-3.21v-1.946h-.11a4.081 4.081 0 01-.858 1.107c-.363.338-.821.612-1.374.821-.547.202-1.19.304-1.928.304zm.867-2.453c.671 0 1.252-.132 1.743-.397.492-.27.87-.627 1.135-1.07.27-.442.406-.925.406-1.447v-1.67c-.105.086-.283.166-.535.24a7.698 7.698 0 01-.83.194c-.308.055-.612.104-.913.147l-.784.111a5.847 5.847 0 00-1.338.332c-.393.154-.703.369-.931.646-.227.27-.341.62-.341 1.051 0 .615.224 1.079.673 1.392.449.314 1.021.471 1.715.471zm21.796-11.998L971.054 866h-3.689l-5.045-14.165h3.56l3.256 10.522h.147l3.265-10.522h3.55zm5.662 14.451c-.898 0-1.706-.16-2.425-.48a3.955 3.955 0 01-1.697-1.438c-.412-.634-.618-1.414-.618-2.343 0-.799.147-1.46.442-1.983.296-.522.698-.94 1.209-1.254a6.112 6.112 0 011.724-.71 14.08 14.08 0 012.001-.36c.83-.086 1.504-.163 2.02-.23.517-.074.892-.185 1.125-.332.24-.154.36-.391.36-.71v-.056c0-.694-.206-1.232-.618-1.614-.412-.381-1.005-.571-1.78-.571-.818 0-1.466.178-1.946.535-.473.356-.793.777-.959 1.263l-3.117-.443c.246-.86.652-1.58 1.217-2.158a5.303 5.303 0 012.075-1.309c.818-.295 1.722-.443 2.712-.443.682 0 1.361.08 2.038.24a5.73 5.73 0 011.853.793c.56.363 1.009.858 1.347 1.485.344.627.516 1.411.516 2.351V866h-3.209v-1.946h-.111a4.077 4.077 0 01-.857 1.107c-.363.338-.821.612-1.374.821-.548.202-1.19.304-1.928.304zm.867-2.453c.67 0 1.251-.132 1.743-.397.492-.27.87-.627 1.134-1.07.271-.442.406-.925.406-1.447v-1.67c-.104.086-.283.166-.535.24a7.642 7.642 0 01-.83.194c-.307.055-.612.104-.913.147l-.784.111a5.838 5.838 0 00-1.337.332c-.393.154-.704.369-.931.646-.228.27-.342.62-.342 1.051 0 .615.225 1.079.674 1.392.448.314 1.02.471 1.715.471zm9.65 2.167v-14.165h3.339V866h-3.339zm1.679-16.176c-.529 0-.984-.175-1.365-.526-.381-.356-.572-.783-.572-1.281 0-.505.191-.932.572-1.282a1.927 1.927 0 011.365-.535c.535 0 .99.178 1.365.535.381.35.571.777.571 1.282 0 .498-.19.925-.571 1.281-.375.351-.83.526-1.365.526zm8.114-2.711V866h-3.34v-18.887h3.34zm7.19 19.173c-.9 0-1.71-.16-2.43-.48a3.913 3.913 0 01-1.69-1.438c-.42-.634-.62-1.414-.62-2.343 0-.799.15-1.46.44-1.983.3-.522.7-.94 1.21-1.254.51-.313 1.08-.55 1.72-.71.65-.166 1.32-.286 2-.36.83-.086 1.51-.163 2.02-.23.52-.074.9-.185 1.13-.332.24-.154.36-.391.36-.71v-.056c0-.694-.21-1.232-.62-1.614-.41-.381-1-.571-1.78-.571-.82 0-1.46.178-1.94.535-.48.356-.8.777-.96 1.263l-3.12-.443c.25-.86.65-1.58 1.22-2.158a5.22 5.22 0 012.07-1.309c.82-.295 1.72-.443 2.71-.443.69 0 1.36.08 2.04.24.68.16 1.3.424 1.85.793.56.363 1.01.858 1.35 1.485.35.627.52 1.411.52 2.351V866h-3.21v-1.946h-.11c-.21.394-.49.762-.86 1.107-.36.338-.82.612-1.37.821-.55.202-1.19.304-1.93.304zm.87-2.453c.67 0 1.25-.132 1.74-.397.49-.27.87-.627 1.13-1.07.27-.442.41-.925.41-1.447v-1.67c-.11.086-.28.166-.54.24-.24.074-.52.138-.83.194-.3.055-.61.104-.91.147l-.78.111c-.5.068-.95.178-1.34.332-.39.154-.7.369-.93.646-.23.27-.34.62-.34 1.051 0 .615.22 1.079.67 1.392.45.314 1.02.471 1.72.471zm9.79 2.167v-18.887h3.34v7.064h.14c.17-.344.41-.71.73-1.097.31-.394.74-.729 1.27-1.006.54-.282 1.22-.424 2.05-.424 1.09 0 2.08.28 2.96.839.88.554 1.59 1.374 2.1 2.463.52 1.082.79 2.41.79 3.984 0 1.555-.26 2.877-.77 3.965-.51 1.089-1.21 1.919-2.08 2.49-.88.572-1.88.858-2.99.858-.81 0-1.49-.135-2.02-.406-.54-.27-.97-.596-1.29-.977a6.442 6.442 0 01-.75-1.098h-.19V866h-3.29zm3.28-7.083c0 .916.13 1.719.38 2.407.27.689.65 1.227 1.14 1.614.5.381 1.1.572 1.81.572.73 0 1.35-.197 1.85-.59.5-.4.87-.944 1.13-1.633.25-.694.38-1.484.38-2.37 0-.879-.12-1.66-.38-2.342-.25-.683-.62-1.218-1.12-1.605-.5-.387-1.12-.581-1.86-.581-.72 0-1.32.188-1.82.563-.5.375-.88.9-1.13 1.577-.26.676-.38 1.472-.38 2.388zm12.61 7.083v-14.165h3.34V866h-3.34zm1.68-16.176c-.53 0-.98-.175-1.36-.526-.38-.356-.57-.783-.57-1.281 0-.505.19-.932.57-1.282.38-.357.83-.535 1.36-.535.54 0 .99.178 1.37.535.38.35.57.777.57 1.282 0 .498-.19.925-.57 1.281-.38.351-.83.526-1.37.526zm8.12-2.711V866h-3.34v-18.887h3.34zm3.11 18.887v-14.165h3.34V866h-3.34zm1.68-16.176c-.53 0-.99-.175-1.37-.526-.38-.356-.57-.783-.57-1.281 0-.505.19-.932.57-1.282.38-.357.84-.535 1.37-.535.53 0 .99.178 1.36.535.38.35.57.777.57 1.282 0 .498-.19.925-.57 1.281-.37.351-.83.526-1.36.526zm11.85 2.011v2.582h-8.15v-2.582h8.15zm-6.14-3.394h3.34v13.298c0 .449.07.793.2 1.033.15.234.33.394.56.48.22.086.48.129.75.129.21 0 .4-.016.58-.046.17-.031.31-.059.4-.083l.56 2.61a6.477 6.477 0 01-1.96.332c-.84.024-1.59-.102-2.26-.378-.67-.283-1.2-.72-1.6-1.31-.38-.59-.57-1.328-.57-2.213v-13.852zm10.68 22.871c-.45 0-.87-.037-1.26-.111a4.5 4.5 0 01-.91-.239l.77-2.601c.49.141.92.209 1.3.203a1.61 1.61 0 001.01-.36c.29-.227.54-.609.74-1.143l.29-.766-5.14-14.46h3.54l3.27 10.697h.15l3.27-10.697h3.55l-5.67 15.88a6.41 6.41 0 01-1.05 1.928c-.44.541-.97.953-1.61 1.236-.62.289-1.37.433-2.25.433z" fill="#302703"></path><rect x="1098" y="841" width="30" height="30" rx="1" fill="#01673F"></rect></svg>